<svg width="408" height="53" viewBox="0 0 408 53" fill="none" xmlns="http://www.w3.org/2000/svg">
    <g clip-path="url(#clip0)">
        <path d="M271.7 23.5002C271.1 24.2002 270.4 23.9002 269.6 23.8002C268.2 23.6002 266.8 23.9002 265.4 24.0002C263.6 24.1002 261.7 24.1002 259.9 24.2002C259.7 24.2002 259.4 24.2002 259.2 24.2002C258 24.4002 256.7 24.9002 255.5 24.9002C254.7 24.9002 254 24.7002 253.1 24.7002C251.6 24.8002 250.1 24.8002 248.6 24.8002C246.6 24.8002 244.5 25.0002 242.5 24.9002C241.2 24.8002 240 25.0002 238.7 25.2002C237.4 25.4002 235.9 25.5002 234.6 25.3002C232.2 25.1002 229.8 25.6002 227.3 25.4002C227 25.4002 226.7 25.6002 226.4 25.6002C225.5 25.7002 224.6 25.7002 223.8 25.8002C223.5 25.8002 223.1 25.7002 222.8 25.8002C221.3 26.5002 219.9 26.0002 218.4 25.9002C217.7 25.9002 217 26.0002 216.4 26.0002C215.7 26.0002 215 25.9002 214.3 25.9002C213.6 25.9002 212.9 26.1002 212.2 26.1002C209.1 26.1002 206.1 26.0002 203 26.2002C201.6 26.3002 200.3 26.8002 198.9 27.0002C198.3 27.1002 197.6 27.1002 196.9 27.1002C196.1 27.1002 195.3 27.0002 194.5 27.1002C193.1 27.1002 191.6 27.5002 190.3 27.2002C188.8 26.9002 187.5 27.1002 186.1 27.2002C184.1 27.3002 182.1 27.6002 180.1 27.7002C177.9 27.9002 175.8 28.0002 173.6 28.1002C169.6 28.2002 165.6 28.2002 161.7 28.4002C159.9 28.5002 158.2 28.8002 156.4 29.0002C155.8 29.1002 155.1 28.9002 154.4 28.9002C151.2 29.0002 148 29.2002 144.7 29.3002C142.4 29.4002 140.2 29.6002 137.9 29.7002C134.4 29.8002 130.8 29.9002 127.3 30.0002C124.8 30.1002 122.2 30.2002 119.7 30.3002C118.4 30.4002 117.2 29.9002 116.4 28.9002C116.2 28.6002 116.2 28.1002 116 27.5002C115.8 27.4002 115.4 27.4002 115.1 27.2002C113.6 26.2002 113.5 25.3002 114.7 23.9002C115.5 23.0002 116.4 22.8002 117.6 22.7002C120 22.6002 122.4 22.4002 124.8 22.2002C128.2 21.9002 131.6 21.7002 135.1 21.5002C136.9 21.4002 138.6 21.3002 140.4 21.2002C143.4 21.0002 146.4 20.7002 149.4 20.5002C152.7 20.3002 156 20.2002 159.3 20.1002C159.9 20.1002 160.5 19.9002 161.2 19.9002C162.4 19.8002 163.7 19.7002 164.9 19.7002C168.2 19.6002 171.5 19.6002 174.9 19.4002C177 19.3002 179.2 19.0002 181.3 18.9002C183.5 18.7002 185.7 18.6002 187.9 18.4002C190 18.3002 192.1 18.1002 194.2 18.0002C196 17.9002 197.7 18.1002 199.5 18.0002C201.4 17.9002 203.2 17.7002 205.1 17.6002C205.3 17.6002 205.6 17.5002 205.8 17.5002C207 17.6002 208.2 17.6002 209.5 17.5002C211.1 17.3002 212.8 17.3002 214.4 17.3002C215.7 17.3002 217.1 17.3002 218.4 17.2002C220.3 17.1002 222.2 16.8002 224.1 16.7002C226.1 16.6002 228.1 16.7002 230.1 16.6002C231.9 16.5002 233.6 16.3002 235.4 16.2002C238.7 16.1002 242 16.0002 245.3 15.8002C246.3 15.8002 247.2 15.6002 248.2 15.6002C249.7 15.6002 251.3 15.6002 252.8 15.6002C253.9 15.6002 255 15.3002 256.1 15.3002C257.4 15.3002 258.8 15.4002 260.1 15.4002C260.5 15.4002 260.9 15.0002 261.3 15.0002C262.2 15.0002 263.2 15.0002 264.1 15.0002C266.4 14.9002 268.7 14.9002 271 14.8002C272.9 14.7002 274.8 14.5002 276.7 14.4002C278.1 14.3002 279.6 14.4002 281 14.4002C283 14.3002 285.1 14.2002 287.1 14.1002C287.7 14.1002 288.3 14.3002 288.8 14.2002C290.4 14.1002 292 13.9002 293.6 13.8002C294.9 13.7002 296.2 13.9002 297.5 13.9002C299.4 13.9002 301.2 13.9002 303.1 13.9002C303.3 13.9002 303.4 13.8002 303.6 13.6002C303.3 13.6002 302.9 13.5002 302.6 13.5002C300.5 13.4002 298.4 13.2002 296.3 13.2002C295 13.2002 293.8 13.3002 292.5 13.2002C291.4 13.1002 290.4 12.8002 289.3 12.7002C284.9 12.5002 280.5 12.4002 276.1 12.2002C275.2 12.2002 274.3 11.9002 273.3 11.9002C272.9 11.9002 272.6 12.0002 272.2 12.1002C271.6 12.3002 271 12.5002 270.3 11.9002C270 11.7002 269.6 11.6002 269.2 11.6002C266.2 11.5002 263.2 11.5002 260.1 11.5002C258.9 11.5002 257.7 11.4002 256.5 11.4002C255.4 11.4002 254.3 11.3002 253.2 11.3002C249.2 11.2002 245.1 11.0002 241.1 10.9002C239.5 10.9002 237.8 11.1002 236.2 11.0002C234.3 11.0002 232.4 10.8002 230.6 10.7002C228.9 10.6002 227.3 10.7002 225.6 10.6002C222.3 10.5002 219.1 10.4002 215.8 10.4002C213.5 10.4002 211.3 10.5002 209 10.5002C206.8 10.5002 204.6 10.5002 202.4 10.5002C200.5 10.5002 198.6 10.6002 196.8 10.6002C193.2 10.6002 189.6 10.7002 186.1 10.7002C184.9 10.7002 183.7 10.8002 182.6 10.8002C180.4 10.8002 178.1 10.8002 175.9 10.8002C173.4 10.8002 171 10.9002 168.5 10.9002C167.5 10.9002 166.5 11.1002 165.5 11.1002C164 11.1002 162.4 11.1002 160.9 11.1002C158.9 11.1002 156.8 11.2002 154.8 11.4002C152.2 11.6002 149.7 11.8002 147.1 11.9002C143.5 12.0002 139.9 12.0002 136.3 12.1002C133.9 12.2002 131.5 12.4002 129 12.6002C127.4 12.7002 125.7 13.0002 124.1 13.0002C123.4 13.0002 122.7 12.8002 122.1 12.7002C118.9 12.5002 115.7 13.1002 112.5 13.4002C108.8 13.7002 105.1 13.6002 101.5 13.8002C99.6999 13.9002 97.8999 14.1002 96.1999 14.3002C92.9999 14.6002 89.8999 14.8002 86.6999 15.1002C82.9999 15.5002 79.2999 15.9002 75.5999 16.3002C73.7999 16.5002 71.9999 16.6002 70.1999 16.8002C68.4999 17.0002 66.6999 17.1002 64.9999 17.3002C62.6999 17.5002 60.4999 17.8002 58.1999 18.0002C57.5999 18.1002 56.9999 18.1002 56.2999 18.2002C52.8999 18.6002 49.4999 18.9002 46.0999 19.3002C45.4999 19.4002 44.8999 19.5002 44.3999 19.6002C41.1999 20.0002 37.9999 20.3002 34.7999 20.8002C33.8999 20.9002 33.0999 21.3002 32.1999 21.5002C30.8999 21.7002 29.4999 21.7002 28.1999 21.8002C27.0999 21.9002 26.0999 22.0002 24.9999 22.2002C22.9999 22.5002 20.7999 22.5002 18.9999 23.2002C17.2999 23.8002 15.5999 23.8002 13.9999 24.3002C13.0999 24.6002 12.0999 24.6002 11.0999 24.8002C9.09992 25.2002 7.09992 25.7002 5.09992 26.1002C4.79992 26.2002 4.29992 26.1002 3.99992 25.9002C3.09992 25.2002 2.29992 24.3002 1.49992 23.5002C1.39992 23.4002 1.49992 23.1002 1.59992 23.0002C1.59992 22.8002 1.79992 22.5002 1.69992 22.4002C1.29992 21.5002 0.899917 20.6002 0.499917 19.6002C0.399917 19.4002 0.499917 19.0002 0.599917 18.8002C0.699917 18.5002 0.799917 18.2002 0.799917 17.8002C0.799917 16.0002 1.59992 15.2002 3.49992 15.1002C4.49992 15.0002 5.49992 14.6002 6.59992 14.4002C7.99992 14.1002 9.49992 13.8002 10.8999 13.5002C14.3999 12.8002 17.7999 12.0002 21.2999 11.3002C22.7999 11.0002 24.2999 11.1002 25.8999 10.9002C26.9999 10.8002 28.0999 10.4002 29.1999 10.2002C29.8999 10.1002 30.4999 9.9002 31.1999 9.8002C34.2999 9.6002 37.2999 9.4002 40.3999 9.1002C42.8999 8.9002 45.2999 8.6002 47.6999 8.3002C51.1999 7.9002 54.7999 7.5002 58.2999 7.1002C59.8999 6.9002 61.4999 6.9002 63.0999 6.6002C65.5999 6.0002 68.1999 6.2002 70.7999 5.8002C73.5999 5.4002 76.3999 5.5002 79.1999 5.3002C82.2999 5.0002 85.2999 4.6002 88.3999 4.2002C88.9999 4.1002 89.5999 4.2002 90.2999 4.2002C90.8999 4.1002 91.3999 3.9002 91.9999 3.8002C95.7999 3.5002 99.4999 3.2002 103.3 3.0002C104.8 2.9002 106.3 3.0002 107.8 2.9002C109.5 2.8002 111.2 2.6002 112.8 2.5002C113.1 2.5002 113.4 2.5002 113.7 2.5002C114.3 2.5002 115 2.6002 115.6 2.6002C117.1 2.6002 118.7 2.5002 120.2 2.4002C121.5 2.3002 122.7 2.0002 124 2.0002C127 1.9002 130 2.1002 132.9 2.0002C135.3 1.9002 137.6 1.6002 139.9 1.5002C142.4 1.4002 145 1.3002 147.5 1.2002C149.6 1.1002 151.8 1.0002 153.9 1.0002C155.7 0.900195 157.4 0.900195 159.2 0.900195C161.4 0.900195 163.6 0.800195 165.7 0.800195C167.5 0.800195 169.2 0.800195 171 0.700195C174.4 0.600195 177.9 0.500195 181.3 0.500195C183.5 0.500195 185.7 0.500195 187.9 0.500195C188.8 0.500195 189.7 0.300195 190.6 0.200195C192.3 0.200195 193.9 0.300195 195.6 0.300195C198.5 0.300195 201.4 0.200195 204.3 0.200195C207.5 0.200195 210.8 0.300195 214 0.300195C216.5 0.300195 218.9 0.200195 221.4 0.200195C225.2 0.200195 229 0.400195 232.8 0.500195C235.2 0.500195 237.6 0.500195 239.9 0.500195C243.2 0.600195 246.5 0.700195 249.8 0.800195C252.1 0.800195 254.4 0.800195 256.7 0.900195C258.9 1.0002 261.1 1.1002 263.2 1.2002C266 1.3002 268.7 1.4002 271.5 1.5002C273.3 1.6002 275.1 1.4002 276.9 1.7002C278.5 2.0002 280 2.0002 281.5 1.8002C283.3 1.6002 285 2.3002 286.8 2.4002C288 2.5002 289.2 2.6002 290.4 2.6002C291.3 2.6002 292.2 2.6002 293.1 2.6002C295.2 2.7002 297.4 3.1002 299.5 2.9002C300.8 2.8002 301.8 3.3002 303 3.4002C304.3 3.5002 305.5 3.5002 306.8 3.6002C308.6 3.7002 310.4 3.9002 312.2 4.1002C313.2 4.2002 314.3 4.1002 315.3 4.2002C318 4.4002 320.7 4.6002 323.5 4.8002C327 5.0002 330.4 5.2002 333.9 5.5002C336.8 5.8002 339.7 6.2002 342.6 6.5002C345.8 6.8002 348.9 7.1002 352.1 7.4002C354.1 7.6002 356.2 7.9002 358.2 8.1002C360.9 8.4002 363.6 8.7002 366.3 9.1002C370.7 9.6002 375.2 10.2002 379.6 10.7002C382.3 11.0002 385 11.3002 387.7 11.6002C388.6 11.7002 389.5 12.1002 390.5 12.1002C393.5 12.4002 396.6 12.7002 399.6 12.9002C400.8 13.0002 402 13.1002 403.2 13.3002C403.5 13.3002 403.9 13.6002 404.2 13.8002C405.4 15.0002 406.6 16.2002 407.7 17.5002C408.5 18.4002 408.6 19.7002 408.2 20.8002C407.8 21.8002 407.2 22.9002 406.4 23.7002C405.8 24.2002 404.8 24.3002 404 24.6002C403 25.0002 402.1 25.0002 401.1 24.9002C398.7 24.6002 396.3 24.6002 393.9 24.5002C392.2 24.4002 390.6 24.2002 388.9 24.1002C386.9 24.0002 384.9 24.0002 382.9 23.9002C380.1 23.8002 377.3 23.7002 374.5 23.5002C372.1 23.4002 369.7 23.3002 367.3 23.2002C366.5 23.2002 365.8 23.4002 365 23.5002C364.8 23.5002 364.5 23.6002 364.3 23.6002C361.7 23.5002 359.1 23.4002 356.5 23.2002C355.7 23.2002 354.9 23.0002 354 22.9002C353.6 22.9002 353.2 22.8002 352.9 22.9002C351.5 23.0002 350.1 23.1002 348.7 23.1002C345.6 23.1002 342.5 23.1002 339.4 23.1002C337.9 23.1002 336.5 23.0002 335 23.1002C333.3 23.2002 331.5 23.4002 329.8 23.4002C327.2 23.4002 324.7 23.3002 322.1 23.2002C321.4 23.2002 320.7 23.3002 319.9 23.3002C318.6 23.3002 317.2 23.3002 315.9 23.2002C314.7 23.1002 313.5 22.6002 312.5 23.0002C311.5 23.3002 310.6 23.3002 309.6 23.4002C308.8 23.4002 308 23.4002 307.2 23.3002C307.1 23.3002 307 23.2002 306.9 23.3002C305.5 24.0002 304.1 23.6002 302.7 23.6002C301.2 23.5002 299.7 23.8002 298.3 23.9002C297.5 24.0002 296.7 24.1002 296 24.1002C294.8 24.2002 293.6 24.1002 292.4 24.2002C290.5 24.2002 288.7 24.3002 286.8 24.4002C285.9 24.4002 285.1 24.3002 284.2 24.3002C283.4 24.3002 282.7 24.5002 281.9 24.6002C281.8 24.6002 281.6 24.8002 281.5 24.8002C279.9 23.9002 278.2 25.1002 276.5 24.7002C275.6 24.5002 274.7 24.3002 273.8 24.6002C273 24.2002 272.4 23.8002 271.7 23.5002Z" fill="#21C0FB"/>
        <path d="M390.2 50.9004C390.5 51.4004 390.9 51.9004 391.2 52.4004C391 52.5004 390.8 52.7004 390.5 52.9004C390.2 52.2004 390 51.7004 389.8 51.1004C389.9 51.0004 390.1 50.9004 390.2 50.9004Z" fill="black"/>
        <path d="M215.1 47.4004C215.2 47.8004 215.3 48.2004 215.5 48.8004C215 48.7004 214.7 48.7004 214.4 48.7004C214.6 48.3004 214.7 47.9004 214.9 47.4004C214.9 47.4004 215 47.4004 215.1 47.4004Z" fill="black"/>
    </g>
    <defs>
        <clipPath id="clip0">
            <rect width="408" height="52.8"/>
        </clipPath>
    </defs>
</svg>
