<svg width="4" height="170" viewBox="0 0 4 170" fill="none" xmlns="http://www.w3.org/2000/svg">
<path d="M3.26265 39.5713L3.26298 39.5713C3.17061 37.9344 3.09095 36.1483 3.01414 34.2762C2.92551 32.1115 2.82447 30.2561 2.70256 29.4724C2.69136 29.426 2.68045 29.3835 2.66936 29.341C2.54923 26.873 2.42716 24.534 2.28056 23.8373C2.27739 23.8492 2.27412 23.8572 2.27095 23.869C2.25526 23.7135 2.23973 23.5696 2.22393 23.4335C2.07561 21.0762 1.92098 19.2037 1.7893 15.986C1.63803 12.2885 1.49088 8.35246 1.28696 5.29822C1.09838 2.47383 0.913565 -0.503131 0.739007 0.157399C0.585701 0.738807 0.664192 4.09184 0.698063 6.80997C0.785834 13.8474 0.927544 21.2536 0.925215 27.6426C0.924178 30.3663 0.928965 33.1756 0.930726 35.9382C0.934883 42.4011 1.01075 49.5407 1.03245 56.1826C1.04529 60.0935 1.06989 64.1797 1.10727 68.3669C1.1453 72.6166 1.17385 76.9489 1.10373 80.0312C1.05041 82.3743 0.993762 84.487 1.12938 88.6932C1.16258 89.7232 1.16171 90.6611 1.14236 91.3185C1.06031 94.1161 1.0981 98.0181 1.19386 102.566C1.25342 105.392 1.28777 108.306 1.23874 109.984C1.19414 111.51 1.21166 113.428 1.23444 115.545C1.23825 115.924 1.24177 116.299 1.24557 116.678C1.25694 119.53 1.40312 123.622 1.29844 125.409C1.35835 129.74 1.42546 134.129 1.47739 138.397C1.49929 142.206 1.53588 146.147 1.56387 150.011C1.5641 150.456 1.56415 150.902 1.56348 151.339C1.56154 152.465 1.57541 153.761 1.59408 155.085C1.59805 156.023 1.60084 156.949 1.60185 157.859C1.60354 159.133 1.63232 160.546 1.70858 161.887C1.80577 163.598 1.85516 165.221 1.85903 166.956C1.86081 167.749 1.87657 168.69 1.93771 169.36C1.98595 169.889 2.0067 169.458 2.0192 168.996C2.07531 166.923 2.17882 165.793 2.27171 164.452C2.38944 160.512 2.49721 156.447 2.52123 151.088C2.53059 149.009 2.55723 147.031 2.62873 145.816C2.71151 143.245 2.76433 140.246 2.76884 136.564C2.77297 136.275 2.77694 135.986 2.78108 135.696C2.95244 131.734 2.97463 125.719 2.98636 119.568C2.98729 119.076 2.96875 118.362 2.95917 117.749L2.95949 117.737C3.05285 116.545 3.10523 114.792 3.04142 111.438C3.09542 108.911 3.16313 106.564 3.12514 102.834C3.15192 101.805 3.17882 100.78 3.2056 99.7507C3.19092 99.7279 3.17628 99.7012 3.1616 99.6784L3.16143 99.6784C3.18037 96.6218 3.14333 92.9074 3.19627 90.2518C3.29329 90.8335 3.31171 89.8675 3.3274 88.5538C3.38527 83.7409 3.45046 79.0254 3.4978 74.0567C3.50806 72.6652 3.49538 70.9777 3.53615 70.0106C3.50315 67.2534 3.6049 66.2758 3.59517 63.8261C3.60115 62.7591 3.56898 61.3382 3.573 60.2556C3.57479 59.8335 3.57485 59.392 3.57401 58.9426C3.57286 57.7392 3.61705 57.1666 3.61489 55.9515C3.60547 55.1313 3.59483 54.3034 3.57957 53.46C3.61211 53.0444 3.61927 52.4618 3.53758 51.2854C3.50693 50.2396 3.47639 49.1977 3.44558 48.1519C3.45628 47.7606 3.45213 47.2372 3.43396 46.5933C3.42975 46.062 3.42582 45.5347 3.42161 45.0034C3.4251 44.7493 3.4287 44.499 3.43235 44.2449C3.44659 42.3569 3.40487 40.7332 3.26265 39.5713Z" fill="#A395F9"/>
</svg>
