<svg width="4" height="171" viewBox="0 0 4 171" fill="none" xmlns="http://www.w3.org/2000/svg">
<path d="M3.26265 40.3223L3.26298 40.3222C3.17061 38.6853 3.09095 36.8992 3.01414 35.0271C2.92551 32.8624 2.82447 31.007 2.70256 30.2233C2.69136 30.1769 2.68045 30.1344 2.66936 30.0919C2.54923 27.6239 2.42716 25.2849 2.28056 24.5883C2.27739 24.6001 2.27412 24.6081 2.27095 24.62C2.25526 24.4644 2.23973 24.3205 2.22393 24.1844C2.07561 21.8271 1.92098 19.9546 1.7893 16.7369C1.63803 13.0394 1.49088 9.10337 1.28696 6.04914C1.09838 3.22474 0.913565 0.247785 0.739007 0.908314C0.585701 1.48972 0.664192 4.84275 0.698063 7.56088C0.785834 14.5983 0.927544 22.0045 0.925215 28.3935C0.924178 31.1172 0.928965 33.9265 0.930726 36.6891C0.934883 43.152 1.01075 50.2916 1.03245 56.9335C1.04529 60.8444 1.06989 64.9306 1.10727 69.1179C1.1453 73.3676 1.17385 77.6998 1.10373 80.7821C1.05041 83.1252 0.993762 85.2379 1.12938 89.4441C1.16258 90.4742 1.16171 91.412 1.14236 92.0694C1.06031 94.867 1.0981 98.769 1.19386 103.317C1.25342 106.143 1.28777 109.057 1.23874 110.735C1.19414 112.261 1.21166 114.179 1.23444 116.296C1.23825 116.675 1.24177 117.05 1.24557 117.429C1.25694 120.281 1.40312 124.373 1.29844 126.16C1.35835 130.491 1.42546 134.88 1.47739 139.148C1.49929 142.957 1.53588 146.898 1.56387 150.762C1.5641 151.207 1.56415 151.652 1.56348 152.09C1.56154 153.216 1.57541 154.512 1.59408 155.836C1.59805 156.774 1.60084 157.7 1.60185 158.61C1.60354 159.884 1.63232 161.297 1.70858 162.638C1.80577 164.349 1.85516 165.972 1.85903 167.707C1.86081 168.5 1.87657 169.441 1.93771 170.11C1.98595 170.64 2.0067 170.209 2.0192 169.747C2.07531 167.674 2.17882 166.544 2.27171 165.203C2.38944 161.263 2.49721 157.198 2.52123 151.839C2.53059 149.76 2.55723 147.782 2.62873 146.567C2.71151 143.996 2.76433 140.996 2.76884 137.315C2.77297 137.026 2.77694 136.737 2.78108 136.447C2.95244 132.485 2.97463 126.47 2.98636 120.319C2.98729 119.827 2.96875 119.112 2.95917 118.499L2.95949 118.488C3.05285 117.296 3.10523 115.543 3.04142 112.189C3.09542 109.662 3.16313 107.314 3.12514 103.584C3.15192 102.556 3.17882 101.53 3.2056 100.502C3.19092 100.479 3.17628 100.452 3.1616 100.429L3.16143 100.429C3.18037 97.3728 3.14333 93.6583 3.19627 91.0027C3.29329 91.5844 3.31171 90.6184 3.3274 89.3047C3.38527 84.4918 3.45046 79.7763 3.4978 74.8076C3.50806 73.4161 3.49538 71.7286 3.53615 70.7615C3.50315 68.0043 3.6049 67.0267 3.59517 64.5771C3.60115 63.51 3.56898 62.0891 3.573 61.0065C3.57479 60.5844 3.57485 60.1429 3.57401 59.6936C3.57286 58.4901 3.61705 57.9175 3.61489 56.7024C3.60547 55.8822 3.59483 55.0543 3.57957 54.211C3.61211 53.7953 3.61927 53.2127 3.53758 52.0364C3.50693 50.9905 3.47639 49.9486 3.44558 48.9028C3.45628 48.5115 3.45213 47.9881 3.43396 47.3442C3.42975 46.8129 3.42582 46.2856 3.42161 45.7544C3.4251 45.5002 3.4287 45.2499 3.43235 44.9958C3.44659 43.1078 3.40487 41.4841 3.26265 40.3223Z" fill="#ED356A"/>
</svg>
