<svg xmlns="http://www.w3.org/2000/svg" xmlns:xlink="http://www.w3.org/1999/xlink" viewBox="0 0 220.33137 231.01409">
    <path fill="white" d="M1.06512,191.58248A89.25024,89.25024,0,0,1,0,177.82314V108.03829A88.59271,88.59271,0,0,1,88.59271,19.44558h.00012a88.61786,88.61786,0,0,1,86.923,71.41772l-44.46674,25.67286v-8.49787A42.4563,42.4563,0,0,0,88.59283,65.582h-.00006a42.45636,42.45636,0,0,0-42.45636,42.4563v57.52228ZM174.195,92.11462v50.30676a42.4563,42.4563,0,0,1-42.4563,42.4563h-.00006a42.45635,42.45635,0,0,1-42.45636-42.4563V141.139l-42.972,24.80994a88.62648,88.62648,0,0,0,85.42829,65.06518h.00012a88.59269,88.59269,0,0,0,88.59271-88.59265V72.63659q0-3.53439-.27466-7.00031Zm46.13641-64.36073a27.7539,27.7539,0,1,0-27.75389,27.7539A27.75389,27.75389,0,0,0,220.33137,27.75389Z"/>
</svg>