<svg width="204" height="117" viewBox="0 0 204 117" fill="none" xmlns="http://www.w3.org/2000/svg">
    <path d="M25.9852 26.0154V17.3436C25.9852 16.1551 25.7535 15.0372 25.2902 13.9897C24.8471 12.9221 24.2327 11.9955 23.4471 11.2099C22.6615 10.4243 21.7349 9.80991 20.6673 9.36675C19.6198 8.90345 18.5019 8.6718 17.3134 8.6718C16.1249 8.6718 14.9969 8.90345 13.9293 9.36675C12.8818 9.80991 11.9653 10.4243 11.1797 11.2099C10.3941 11.9955 9.76963 12.9221 9.30632 13.9897C8.86317 15.0372 8.64159 16.1551 8.64159 17.3436V26.0154H25.9852ZM34.657 43.3288H25.9852V34.657H8.64159V43.3288H0V17.3436C0 14.9465 0.45323 12.7005 1.35969 10.6056C2.26615 8.49051 3.49491 6.64737 5.04596 5.07618C6.61716 3.50498 8.45022 2.26615 10.5452 1.35969C12.6602 0.45323 14.9163 0 17.3134 0C19.7105 0 21.9565 0.45323 24.0514 1.35969C26.1665 2.26615 28.0096 3.50498 29.5808 5.07618C31.152 6.64737 32.3908 8.49051 33.2973 10.6056C34.2038 12.7005 34.657 14.9465 34.657 17.3436V43.3288Z" fill="currentColor"/>
    <path d="M69.2838 17.404L63.2407 23.4773C62.9385 22.6313 62.5256 21.8759 62.0019 21.2112C61.4781 20.5263 60.8839 19.9522 60.2192 19.4889C59.5746 19.0256 58.8695 18.6731 58.1041 18.4314C57.3386 18.1896 56.553 18.0688 55.7473 18.0688C54.6193 18.0688 53.5517 18.3004 52.5445 18.7637C51.5574 19.227 50.6913 19.8817 49.946 20.7277C49.2208 21.5536 48.6467 22.5406 48.2237 23.6888C47.8007 24.837 47.5892 26.1061 47.5892 27.496C47.5892 28.624 47.8007 29.6815 48.2237 30.6686C48.6467 31.6556 49.2208 32.5218 49.946 33.2671C50.6913 34.0124 51.5574 34.5966 52.5445 35.0196C53.5517 35.4426 54.6193 35.6541 55.7473 35.6541C56.553 35.6541 57.3286 35.5433 58.0739 35.3217C58.8192 35.1002 59.5141 34.7879 60.1587 34.3851C60.8235 33.962 61.4076 33.4585 61.9112 32.8743C62.435 32.27 62.858 31.6052 63.1803 30.8801L69.2233 36.9534C68.4579 38.0411 67.5716 39.0181 66.5644 39.8842C65.5774 40.7504 64.4997 41.4857 63.3313 42.09C62.1832 42.6943 60.9645 43.1475 59.6753 43.4497C58.4062 43.772 57.0969 43.9331 55.7473 43.9331C53.4711 43.9331 51.3258 43.5101 49.3114 42.6641C47.3172 41.7979 45.5647 40.6195 44.054 39.1289C42.5633 37.6382 41.3849 35.8958 40.5188 33.9016C39.6526 31.9074 39.2195 29.7722 39.2195 27.496C39.2195 25.0183 39.6526 22.7018 40.5188 20.5464C41.3849 18.3911 42.5633 16.5177 44.054 14.9264C45.5647 13.3149 47.3172 12.0458 49.3114 11.1192C51.3258 10.1926 53.4711 9.72934 55.7473 9.72934C57.0969 9.72934 58.4163 9.90056 59.7055 10.243C61.0148 10.5854 62.2537 11.089 63.422 11.7538C64.6105 12.3984 65.6982 13.194 66.6853 14.1408C67.6924 15.0875 68.5586 16.1753 69.2838 17.404Z" fill="currentColor"/>
    <path d="M101.131 17.404L95.0877 23.4773C94.7855 22.6313 94.3726 21.8759 93.8488 21.2112C93.3251 20.5263 92.7309 19.9522 92.0661 19.4889C91.4215 19.0256 90.7165 18.6731 89.9511 18.4314C89.1856 18.1896 88.4 18.0688 87.5943 18.0688C86.4662 18.0688 85.3986 18.3004 84.3914 18.7637C83.4044 19.227 82.5382 19.8817 81.7929 20.7277C81.0678 21.5536 80.4937 22.5406 80.0706 23.6888C79.6476 24.837 79.4361 26.1061 79.4361 27.496C79.4361 28.624 79.6476 29.6815 80.0706 30.6686C80.4937 31.6556 81.0678 32.5218 81.7929 33.2671C82.5382 34.0124 83.4044 34.5966 84.3914 35.0196C85.3986 35.4426 86.4662 35.6541 87.5943 35.6541C88.4 35.6541 89.1755 35.5433 89.9208 35.3217C90.6662 35.1002 91.3611 34.7879 92.0057 34.3851C92.6704 33.962 93.2546 33.4585 93.7582 32.8743C94.2819 32.27 94.7049 31.6052 95.0272 30.8801L101.07 36.9534C100.305 38.0411 99.4185 39.0181 98.4114 39.8842C97.4243 40.7504 96.3466 41.4857 95.1783 42.09C94.0301 42.6943 92.8114 43.1475 91.5223 43.4497C90.2532 43.772 88.9439 43.9331 87.5943 43.9331C85.318 43.9331 83.1728 43.5101 81.1584 42.6641C79.1642 41.7979 77.4117 40.6195 75.9009 39.1289C74.4103 37.6382 73.2319 35.8958 72.3657 33.9016C71.4996 31.9074 71.0665 29.7722 71.0665 27.496C71.0665 25.0183 71.4996 22.7018 72.3657 20.5464C73.2319 18.3911 74.4103 16.5177 75.9009 14.9264C77.4117 13.3149 79.1642 12.0458 81.1584 11.1192C83.1728 10.1926 85.318 9.72934 87.5943 9.72934C88.9439 9.72934 90.2633 9.90056 91.5525 10.243C92.8618 10.5854 94.1006 11.089 95.269 11.7538C96.4574 12.3984 97.5452 13.194 98.5322 14.1408C99.5394 15.0875 100.406 16.1753 101.131 17.404Z" fill="currentColor"/>
    <path d="M117.568 35.4124C117.89 35.5131 118.212 35.5836 118.535 35.6239C118.857 35.644 119.179 35.6541 119.502 35.6541C120.307 35.6541 121.083 35.5433 121.828 35.3217C122.574 35.1002 123.269 34.7879 123.913 34.3851C124.578 33.962 125.162 33.4585 125.666 32.8743C126.189 32.27 126.612 31.6052 126.935 30.8801L132.978 36.9534C132.212 38.0411 131.326 39.0181 130.319 39.8842C129.332 40.7504 128.254 41.4857 127.086 42.09C125.938 42.6943 124.719 43.1475 123.43 43.4497C122.161 43.772 120.851 43.9331 119.502 43.9331C117.225 43.9331 115.08 43.5101 113.066 42.6641C111.072 41.818 109.319 40.6396 107.808 39.1289C106.318 37.6181 105.139 35.8253 104.273 33.7505C103.407 31.6556 102.974 29.3592 102.974 26.8614C102.974 24.3032 103.407 21.9666 104.273 19.8515C105.139 17.7364 106.318 15.9336 107.808 14.4429C109.319 12.9523 111.072 11.7941 113.066 10.9682C115.08 10.1423 117.225 9.72934 119.502 9.72934C120.851 9.72934 122.171 9.89049 123.46 10.2128C124.749 10.5351 125.968 10.9984 127.116 11.6027C128.284 12.207 129.372 12.9523 130.379 13.8386C131.386 14.7048 132.273 15.6818 133.038 16.7695L117.568 35.4124ZM121.798 18.4011C121.415 18.2601 121.033 18.1695 120.65 18.1292C120.287 18.0889 119.905 18.0688 119.502 18.0688C118.374 18.0688 117.306 18.2803 116.299 18.7033C115.312 19.1062 114.446 19.6903 113.7 20.4558C112.975 21.2212 112.401 22.1478 111.978 23.2356C111.555 24.3032 111.344 25.5118 111.344 26.8614C111.344 27.1636 111.354 27.506 111.374 27.8888C111.414 28.2715 111.464 28.6643 111.525 29.0672C111.605 29.4499 111.696 29.8225 111.797 30.1851C111.897 30.5477 112.028 30.87 112.19 31.152L121.798 18.4011Z" fill="currentColor"/>
    <path d="M154.974 43.3288H136.12V35.1102H154.974C155.538 35.1102 156.022 34.9088 156.425 34.5059C156.828 34.103 157.029 33.6196 157.029 33.0556C157.029 32.4714 156.828 32.0887 156.425 31.9074C156.022 31.7261 155.538 31.6355 154.974 31.6355H146.393C144.963 31.6355 143.624 31.3635 142.375 30.8196C141.126 30.2758 140.038 29.5405 139.111 28.6139C138.185 27.6672 137.45 26.5694 136.906 25.3205C136.382 24.0716 136.12 22.732 136.12 21.3018C136.12 19.8716 136.382 18.5321 136.906 17.2832C137.45 16.0343 138.185 14.9465 139.111 14.0199C140.038 13.0933 141.126 12.3681 142.375 11.8444C143.624 11.3005 144.963 11.0286 146.393 11.0286H163.102V19.2472H146.393C145.829 19.2472 145.346 19.4486 144.943 19.8515C144.54 20.2543 144.339 20.7378 144.339 21.3018C144.339 21.886 144.54 22.3896 144.943 22.8126C145.346 23.2155 145.829 23.4169 146.393 23.4169H154.974C156.385 23.4169 157.714 23.6586 158.963 24.1421C160.212 24.6054 161.3 25.26 162.226 26.1061C163.153 26.9521 163.888 27.9693 164.432 29.1578C164.976 30.3463 165.248 31.6455 165.248 33.0556C165.248 34.4858 164.976 35.8253 164.432 37.0742C163.888 38.303 163.153 39.3907 162.226 40.3375C161.3 41.2641 160.212 41.9993 158.963 42.5432C157.714 43.0669 156.385 43.3288 154.974 43.3288Z" fill="currentColor"/>
    <path d="M187.426 43.3288H168.571V35.1102H187.426C187.99 35.1102 188.473 34.9088 188.876 34.5059C189.279 34.103 189.48 33.6196 189.48 33.0556C189.48 32.4714 189.279 32.0887 188.876 31.9074C188.473 31.7261 187.99 31.6355 187.426 31.6355H178.845C177.414 31.6355 176.075 31.3635 174.826 30.8196C173.577 30.2758 172.489 29.5405 171.563 28.6139C170.636 27.6672 169.901 26.5694 169.357 25.3205C168.833 24.0716 168.571 22.732 168.571 21.3018C168.571 19.8716 168.833 18.5321 169.357 17.2832C169.901 16.0343 170.636 14.9465 171.563 14.0199C172.489 13.0933 173.577 12.3681 174.826 11.8444C176.075 11.3005 177.414 11.0286 178.845 11.0286H195.554V19.2472H178.845C178.281 19.2472 177.797 19.4486 177.394 19.8515C176.991 20.2543 176.79 20.7378 176.79 21.3018C176.79 21.886 176.991 22.3896 177.394 22.8126C177.797 23.2155 178.281 23.4169 178.845 23.4169H187.426C188.836 23.4169 190.165 23.6586 191.414 24.1421C192.663 24.6054 193.751 25.26 194.677 26.1061C195.604 26.9521 196.339 27.9693 196.883 29.1578C197.427 30.3463 197.699 31.6455 197.699 33.0556C197.699 34.4858 197.427 35.8253 196.883 37.0742C196.339 38.303 195.604 39.3907 194.677 40.3375C193.751 41.2641 192.663 41.9993 191.414 42.5432C190.165 43.0669 188.836 43.3288 187.426 43.3288Z" fill="currentColor"/>
    <path d="M41.0458 92.6402H34V57.4355H58.6482V64.4814H41.0458V71.5272H51.6023V78.5731H41.0458V92.6402Z" fill="currentColor"/>
    <path d="M83.8855 79.2605C83.8855 81.2245 83.5336 83.0575 82.8299 84.7597C82.1261 86.4454 81.1687 87.9102 79.9575 89.1541C78.7464 90.3816 77.3225 91.3554 75.6858 92.0755C74.0655 92.7793 72.3225 93.1312 70.4567 93.1312C68.6073 93.1312 66.8642 92.7793 65.2276 92.0755C63.6073 91.3554 62.1834 90.3816 60.9559 89.1541C59.7447 87.9102 58.7873 86.4454 58.0835 84.7597C57.3797 83.0575 57.0279 81.2245 57.0279 79.2605C57.0279 77.2637 57.3797 75.4143 58.0835 73.7122C58.7873 72.01 59.7447 70.5452 60.9559 69.3177C62.1834 68.0739 63.6073 67.1 65.2276 66.3963C66.8642 65.6925 68.6073 65.3406 70.4567 65.3406C72.3225 65.3406 74.0655 65.6762 75.6858 66.3472C77.3225 67.0018 78.7464 67.9429 79.9575 69.1704C81.1687 70.3816 82.1261 71.8464 82.8299 73.5649C83.5336 75.267 83.8855 77.1655 83.8855 79.2605ZM77.1343 79.2605C77.1343 78.1803 76.9543 77.2064 76.5942 76.339C76.2505 75.4552 75.7759 74.7024 75.1703 74.0804C74.5647 73.4421 73.8528 72.9593 73.0344 72.632C72.2325 72.2883 71.3732 72.1164 70.4567 72.1164C69.5402 72.1164 68.6727 72.2883 67.8544 72.632C67.0524 72.9593 66.3487 73.4421 65.7431 74.0804C65.1539 74.7024 64.6875 75.4552 64.3438 76.339C64.0001 77.2064 63.8282 78.1803 63.8282 79.2605C63.8282 80.2752 64.0001 81.2163 64.3438 82.0837C64.6875 82.9511 65.1539 83.704 65.7431 84.3423C66.3487 84.9806 67.0524 85.488 67.8544 85.8644C68.6727 86.2245 69.5402 86.4045 70.4567 86.4045C71.3732 86.4045 72.2325 86.2327 73.0344 85.889C73.8528 85.5453 74.5647 85.0624 75.1703 84.4405C75.7759 83.8186 76.2505 83.0657 76.5942 82.1819C76.9543 81.2981 77.1343 80.3243 77.1343 79.2605Z" fill="currentColor"/>
    <path d="M94.2947 92.6402H87.5926V66.3472H89.2129L91.4224 69.465C92.5026 68.483 93.7301 67.7302 95.1049 67.2064C96.4797 66.6663 97.9036 66.3963 99.3765 66.3963H105.293V73.0739H99.3765C98.6728 73.0739 98.0099 73.2048 97.388 73.4667C96.7661 73.7285 96.226 74.0886 95.7677 74.5469C95.3094 75.0051 94.9494 75.5452 94.6875 76.1672C94.4256 76.7891 94.2947 77.4519 94.2947 78.1557V92.6402Z" fill="currentColor"/>
    <path d="M148.21 91.9245V79.4588C148.21 77.7504 147.877 76.1433 147.211 74.6376C146.574 73.1029 145.691 71.7709 144.562 70.6416C143.432 69.5123 142.1 68.6291 140.566 67.9921C139.06 67.3261 137.453 66.9931 135.744 66.9931C134.036 66.9931 132.414 67.3261 130.88 67.9921C129.374 68.6291 128.057 69.5123 126.927 70.6416C125.798 71.7709 124.9 73.1029 124.234 74.6376C123.597 76.1433 123.279 77.7504 123.279 79.4588V91.9245H148.21ZM160.676 116.813H148.21V104.347H123.279V116.813H110.856V79.4588C110.856 76.013 111.508 72.7844 112.811 69.7729C114.114 66.7325 115.88 64.083 118.11 61.8244C120.369 59.5658 123.004 57.785 126.015 56.4819C129.056 55.1789 132.299 54.5274 135.744 54.5274C139.19 54.5274 142.419 55.1789 145.43 56.4819C148.471 57.785 151.12 59.5658 153.379 61.8244C155.637 64.083 157.418 66.7325 158.721 69.7729C160.024 72.7844 160.676 76.013 160.676 79.4588V116.813Z" fill="currentColor"/>
    <path d="M182.176 116.813H170.231V51.791H182.176V116.813Z" fill="currentColor"/>
    <path d="M203.198 116.813H191.254V51.791H203.198V116.813Z" fill="currentColor"/>
</svg>
