<svg width="191" height="122" viewBox="0 0 191 122" fill="none" xmlns="http://www.w3.org/2000/svg">
    <path d="M29.7162 35.4886V25.5615C29.7162 24.2009 29.4513 22.9211 28.9214 21.7221C28.4146 20.4999 27.7121 19.4392 26.8137 18.5398C25.9153 17.6405 24.8556 16.9372 23.6347 16.4299C22.4369 15.8995 21.1584 15.6343 19.7993 15.6343C18.4401 15.6343 17.1501 15.8995 15.9292 16.4299C14.7314 16.9372 13.6833 17.6405 12.7849 18.5398C11.8865 19.4392 11.1724 20.4999 10.6425 21.7221C10.1357 22.9211 9.88235 24.2009 9.88235 25.5615V35.4886H29.7162ZM39.6331 55.3082H29.7162V45.3811H9.88235V55.3082H0V25.5615C0 22.8174 0.518305 20.2462 1.55492 17.8481C2.59153 15.4268 3.99671 13.3169 5.77046 11.5182C7.56726 9.71958 9.66351 8.30142 12.0592 7.26374C14.478 6.22607 17.058 5.70723 19.7993 5.70723C22.5405 5.70723 25.109 6.22607 27.5047 7.26374C29.9235 8.30142 32.0313 9.71958 33.8281 11.5182C35.6248 13.3169 37.0415 15.4268 38.0782 17.8481C39.1148 20.2462 39.6331 22.8174 39.6331 25.5615V55.3082Z" fill="currentColor"/>
    <path d="M58.8104 55.3082H49.3772V27.6714H44.7816V18.2631H49.3772V16.4991C49.3772 14.2162 49.8034 12.0716 50.6557 10.0655C51.5311 8.0593 52.7174 6.3183 54.2147 4.8425C55.7351 3.34363 57.4973 2.16759 59.5014 1.31439C61.5056 0.43813 63.6479 0 65.9284 0H73.0119V9.40828H65.9284C64.9149 9.40828 63.9704 9.59275 63.095 9.96171C62.2427 10.3076 61.494 10.8034 60.849 11.449C60.2271 12.0716 59.7318 12.8211 59.3632 13.6973C58.9947 14.5505 58.8104 15.4845 58.8104 16.4991V18.2631H70.3858V27.6714H58.8104V55.3082Z" fill="currentColor"/>
    <path d="M93.4332 55.3082C91.1526 55.3082 89.0103 54.8816 87.0062 54.0284C85.0021 53.1522 83.2398 51.9646 81.7195 50.4657C80.2221 48.9438 79.0358 47.1797 78.1604 45.1736C77.3081 43.1674 76.8819 41.0229 76.8819 38.74V27.7406H72.2863V18.3323H76.8819V3.5281H86.2805V18.3323H100.586V27.7406H86.2805V38.74C86.2805 39.7315 86.4648 40.6654 86.8334 41.5417C87.202 42.3949 87.7088 43.1443 88.3538 43.79C88.9988 44.4357 89.7589 44.9545 90.6343 45.3465C91.5097 45.7155 92.4426 45.8999 93.4332 45.8999H100.586V55.3082H93.4332Z" fill="currentColor"/>
    <path d="M120.627 46.2458C120.995 46.3611 121.364 46.4418 121.733 46.488C122.101 46.511 122.47 46.5225 122.838 46.5225C123.76 46.5225 124.647 46.3957 125.499 46.1421C126.351 45.8884 127.146 45.531 127.883 45.0698C128.643 44.5855 129.311 44.0091 129.887 43.3403C130.486 42.6486 130.97 41.8876 131.339 41.0574L138.249 48.0099C137.374 49.2551 136.36 50.3735 135.209 51.365C134.08 52.3566 132.847 53.1983 131.511 53.8901C130.198 54.5818 128.805 55.1007 127.33 55.4466C125.879 55.8155 124.382 56 122.838 56C120.235 56 117.782 55.5158 115.478 54.5473C113.198 53.5788 111.194 52.2298 109.466 50.5003C107.761 48.7708 106.414 46.7186 105.423 44.3434C104.433 41.9452 103.937 39.3165 103.937 36.4571C103.937 33.5285 104.433 30.8536 105.423 28.4324C106.414 26.0111 107.761 23.9473 109.466 22.2409C111.194 20.5345 113.198 19.2086 115.478 18.2631C117.782 17.3177 120.235 16.845 122.838 16.845C124.382 16.845 125.891 17.0294 127.365 17.3984C128.839 17.7673 130.233 18.2977 131.546 18.9895C132.882 19.6813 134.126 20.5345 135.278 21.5491C136.429 22.5407 137.443 23.659 138.318 24.9043L120.627 46.2458ZM125.464 26.7721C125.027 26.6107 124.589 26.5069 124.151 26.4608C123.737 26.4147 123.299 26.3916 122.838 26.3916C121.548 26.3916 120.327 26.6337 119.176 27.118C118.047 27.5792 117.056 28.2479 116.204 29.1242C115.375 30.0004 114.718 31.0611 114.234 32.3064C113.751 33.5285 113.509 34.9121 113.509 36.4571C113.509 36.803 113.52 37.195 113.543 37.6331C113.589 38.0712 113.647 38.5209 113.716 38.9821C113.808 39.4202 113.912 39.8468 114.027 40.2619C114.142 40.677 114.292 41.0459 114.476 41.3687L125.464 26.7721Z" fill="currentColor"/>
    <path d="M152.52 55.3082H143.087V18.2631H145.367L148.477 22.656C149.998 21.2724 151.725 20.2117 153.66 19.4737C155.595 18.7128 157.599 18.3323 159.673 18.3323H168V27.7406H159.673C158.682 27.7406 157.749 27.9251 156.874 28.294C155.998 28.663 155.238 29.1703 154.593 29.8159C153.948 30.4616 153.441 31.2226 153.073 32.0988C152.704 32.9751 152.52 33.909 152.52 34.9006V55.3082Z" fill="currentColor"/>
    <path d="M63.2178 114.688C60.4804 117.043 57.4145 118.851 54.0201 120.11C50.6257 121.37 47.1081 122 43.4674 122C40.6752 122 37.9789 121.63 35.3783 120.891C32.8052 120.179 30.3825 119.166 28.1105 117.851C25.8658 116.509 23.8128 114.907 21.9513 113.045C20.0899 111.183 18.4885 109.129 17.1472 106.883C15.8332 104.611 14.8067 102.187 14.0676 99.6128C13.3559 97.0112 13 94.3138 13 91.5205C13 88.7273 13.3559 86.0299 14.0676 83.4283C14.8067 80.8267 15.8332 78.4031 17.1472 76.1576C18.4885 73.8846 20.0899 71.8171 21.9513 69.9549C23.8128 68.0927 25.8658 66.5044 28.1105 65.1899C30.3825 63.848 32.8052 62.8211 35.3783 62.1091C37.9789 61.3697 40.6752 61 43.4674 61C47.1081 61 50.6257 61.6299 54.0201 62.8896C57.4145 64.1219 60.4804 65.9293 63.2178 68.3118L56.9765 78.5811C55.2519 76.719 53.2125 75.2949 50.8584 74.3091C48.5042 73.2958 46.0405 72.7892 43.4674 72.7892C40.8668 72.7892 38.4305 73.2822 36.1585 74.268C33.8864 75.2539 31.9018 76.5957 30.2046 78.2936C28.5074 79.9641 27.1661 81.9495 26.1806 84.2498C25.1952 86.5228 24.7024 88.9464 24.7024 91.5205C24.7024 94.0947 25.1952 96.5183 26.1806 98.7912C27.1661 101.037 28.5074 103.009 30.2046 104.706C31.9018 106.404 33.8864 107.746 36.1585 108.732C38.4305 109.718 40.8668 110.211 43.4674 110.211C46.0405 110.211 48.5042 109.718 50.8584 108.732C53.2125 107.719 55.2519 106.281 56.9765 104.419L63.2178 114.688Z" fill="currentColor"/>
    <path d="M109.904 120.727H107.194L102.842 114.688C101.774 115.647 100.638 116.55 99.4337 117.399C98.2566 118.221 97.0111 118.947 95.6971 119.576C94.3832 120.179 93.0281 120.658 91.6321 121.014C90.2634 121.37 88.8673 121.548 87.4438 121.548C84.3506 121.548 81.4352 121.028 78.6978 119.987C75.9878 118.947 73.6062 117.44 71.5532 115.469C69.5275 113.47 67.9261 111.032 66.749 108.157C65.5719 105.281 64.9834 102.009 64.9834 98.3394C64.9834 94.9163 65.5719 91.7807 66.749 88.9327C67.9261 86.0572 69.5275 83.5926 71.5532 81.5387C73.6062 79.4848 75.9878 77.8965 78.6978 76.7737C81.4352 75.6236 84.3506 75.0485 87.4438 75.0485C88.8673 75.0485 90.277 75.2265 91.6731 75.5825C93.0692 75.9385 94.4242 76.4314 95.7382 77.0613C97.0521 77.6911 98.2977 78.4305 99.4747 79.2795C100.679 80.1284 101.802 81.0458 102.842 82.0316L107.194 76.8148H109.904V120.727ZM98.6125 98.3394C98.6125 96.8058 98.3113 95.327 97.7091 93.903C97.1343 92.4516 96.3404 91.1782 95.3276 90.0828C94.3147 88.96 93.124 88.07 91.7552 87.4128C90.4139 86.7282 88.9768 86.3859 87.4438 86.3859C85.9109 86.3859 84.4601 86.646 83.0913 87.1663C81.75 87.6866 80.5729 88.4534 79.5601 89.4667C78.5746 90.4799 77.7945 91.7396 77.2196 93.2458C76.6447 94.7246 76.3573 96.4224 76.3573 98.3394C76.3573 100.256 76.6447 101.968 77.2196 103.474C77.7945 104.953 78.5746 106.199 79.5601 107.212C80.5729 108.225 81.75 108.992 83.0913 109.512C84.4601 110.033 85.9109 110.293 87.4438 110.293C88.9768 110.293 90.4139 109.964 91.7552 109.307C93.124 108.622 94.3147 107.732 95.3276 106.637C96.3404 105.514 97.1343 104.241 97.7091 102.817C98.3113 101.365 98.6125 99.873 98.6125 98.3394Z" fill="currentColor"/>
    <path d="M129.696 120.727H118.486V76.7327H121.196L124.892 81.9495C126.698 80.3064 128.751 79.0467 131.051 78.1704C133.35 77.2667 135.732 76.8148 138.195 76.8148H148.091V87.9879H138.195C137.018 87.9879 135.91 88.207 134.869 88.6451C133.829 89.0833 132.926 89.6857 132.159 90.4525C131.393 91.2193 130.791 92.123 130.353 93.1636C129.915 94.2043 129.696 95.3134 129.696 96.4909V120.727Z" fill="currentColor"/>
    <path d="M169.977 109.964C170.415 110.101 170.853 110.197 171.291 110.252C171.729 110.279 172.167 110.293 172.605 110.293C173.7 110.293 174.753 110.142 175.766 109.841C176.779 109.54 177.724 109.115 178.6 108.568C179.503 107.993 180.297 107.308 180.981 106.514C181.693 105.692 182.268 104.789 182.706 103.803L190.918 112.059C189.878 113.538 188.673 114.866 187.305 116.044C185.963 117.221 184.499 118.221 182.911 119.042C181.351 119.864 179.695 120.48 177.943 120.891C176.218 121.329 174.439 121.548 172.605 121.548C169.511 121.548 166.596 120.973 163.859 119.823C161.149 118.673 158.767 117.071 156.714 115.017C154.688 112.963 153.087 110.526 151.91 107.705C150.733 104.857 150.144 101.735 150.144 98.3394C150.144 94.8615 150.733 91.6848 151.91 88.8094C153.087 85.934 154.688 83.4831 156.714 81.4566C158.767 79.4301 161.149 77.8554 163.859 76.7327C166.596 75.6099 169.511 75.0485 172.605 75.0485C174.439 75.0485 176.232 75.2676 177.984 75.7057C179.736 76.1439 181.392 76.7737 182.952 77.5953C184.54 78.4168 186.018 79.4301 187.387 80.635C188.755 81.8126 189.96 83.1407 191 84.6195L169.977 109.964ZM175.725 86.8377C175.205 86.646 174.685 86.5228 174.165 86.468C173.672 86.4132 173.152 86.3859 172.605 86.3859C171.072 86.3859 169.621 86.6734 168.252 87.2485C166.911 87.7962 165.734 88.5903 164.721 89.631C163.735 90.6716 162.955 91.9313 162.38 93.4101C161.806 94.8615 161.518 96.5046 161.518 98.3394C161.518 98.7502 161.532 99.2157 161.559 99.736C161.614 100.256 161.682 100.79 161.764 101.338C161.874 101.858 161.997 102.365 162.134 102.858C162.271 103.351 162.449 103.789 162.668 104.172L175.725 86.8377Z" fill="currentColor"/>
</svg>
