<svg width="265" height="235" viewBox="0 0 265 235" fill="none" xmlns="http://www.w3.org/2000/svg">
    <g opacity="0.86">
        <path d="M103.008 65.5433L102.51 63.6062L103.008 65.5432C110.119 63.716 117.687 65.6721 122.862 70.6352L122.862 70.6353L171.868 117.629C177.034 122.584 179.029 129.772 177.151 136.494L159.214 200.691C157.333 207.421 151.836 212.726 144.73 214.553L77.7932 231.755C70.6825 233.583 63.1141 231.626 57.9392 226.663L8.9363 179.666C3.7704 174.712 1.77612 167.524 3.65416 160.801L1.72792 160.263L3.65417 160.801L21.5879 96.6048C21.5879 96.6048 21.5879 96.6048 21.5879 96.6048C23.4681 89.8749 28.9655 84.569 36.0716 82.7429C36.0716 82.7429 36.0716 82.7429 36.0716 82.7429L103.008 65.5433Z" fill="#333333"/>
        <path d="M103.008 65.5433L102.51 63.6062L103.008 65.5432C110.119 63.716 117.687 65.6721 122.862 70.6352L122.862 70.6353L171.868 117.629C177.034 122.584 179.029 129.772 177.151 136.494L159.214 200.691C157.333 207.421 151.836 212.726 144.73 214.553L77.7932 231.755C70.6825 233.583 63.1141 231.626 57.9392 226.663L8.9363 179.666C3.7704 174.712 1.77612 167.524 3.65416 160.801L1.72792 160.263L3.65417 160.801L21.5879 96.6048C21.5879 96.6048 21.5879 96.6048 21.5879 96.6048C23.4681 89.8749 28.9655 84.569 36.0716 82.7429C36.0716 82.7429 36.0716 82.7429 36.0716 82.7429L103.008 65.5433Z" fill="#ED356A"/>
        <path d="M103.008 65.5433L102.51 63.6062L103.008 65.5432C110.119 63.716 117.687 65.6721 122.862 70.6352L122.862 70.6353L171.868 117.629C177.034 122.584 179.029 129.772 177.151 136.494L159.214 200.691C157.333 207.421 151.836 212.726 144.73 214.553L77.7932 231.755C70.6825 233.583 63.1141 231.626 57.9392 226.663L8.9363 179.666C3.7704 174.712 1.77612 167.524 3.65416 160.801L1.72792 160.263L3.65417 160.801L21.5879 96.6048C21.5879 96.6048 21.5879 96.6048 21.5879 96.6048C23.4681 89.8749 28.9655 84.569 36.0716 82.7429C36.0716 82.7429 36.0716 82.7429 36.0716 82.7429L103.008 65.5433Z" stroke="#ED356A" stroke-width="4"/>
    </g>
    <path d="M177.087 60.214C177.099 60.1982 177.075 60.1544 177.069 60.124C177.036 60.1191 176.997 60.1009 176.973 60.1118C176.95 60.1228 176.926 60.1727 176.935 60.1934C176.97 60.2761 177.031 60.2846 177.087 60.214Z" fill="currentColor"/>
    <path d="M100.37 67.2637L100.31 67.3026L100.375 67.3306L100.37 67.2637Z" fill="currentColor"/>
    <path d="M99.8704 65.8643L99.8032 65.8898L99.8602 65.9324L99.8704 65.8643Z" fill="currentColor"/>
    <path d="M219.69 64.2489C219.692 64.2294 219.646 64.2075 219.619 64.1855C219.597 64.1929 219.553 64.1965 219.541 64.216C219.529 64.2355 219.538 64.2867 219.557 64.3013C219.631 64.3561 219.684 64.3342 219.69 64.2489Z" fill="currentColor"/>
    <path d="M207.932 63.4547C207.956 63.4572 207.987 63.4134 208.013 63.3916C207.999 63.3588 207.996 63.3126 207.97 63.2981C207.946 63.2835 207.883 63.2871 207.868 63.3053C207.805 63.3819 207.831 63.4414 207.932 63.4547Z" fill="currentColor"/>
    <path d="M240.775 126.849C240.865 126.383 240.934 125.824 240.703 125.362C240.698 125.231 240.689 125.099 240.674 124.965C240.694 124.824 240.721 124.684 240.74 124.546C240.739 124.185 240.551 123.874 240.439 123.545C240.372 123.423 240.295 123.31 240.206 123.202C239.88 122.985 239.549 122.786 239.158 122.724C239.157 122.721 239.158 122.719 239.157 122.715C238.841 121.515 237.919 121.852 237.083 121.956C235.787 122.118 234.555 120.883 234.918 119.733C235.459 118.013 236.041 116.312 235.586 114.471C235.56 114.362 235.633 114.041 235.639 113.883C235.721 111.767 235.504 109.671 234.941 107.614C234.804 107.124 234.853 106.613 234.742 106.123C234.714 105.997 234.664 105.877 234.607 105.759C234.526 105.576 234.468 105.393 234.422 105.209C234.419 104.912 234.416 104.614 234.413 104.318C234.498 104.316 234.583 104.315 234.668 104.314C234.767 103.153 234.562 102.003 234.531 100.848C234.515 100.22 234.345 99.6718 233.929 99.1913L233.927 99.1926C233.749 98.8386 233.657 98.4543 233.539 98.0773C233.552 97.828 233.534 97.5774 233.541 97.3281C233.04 94.8993 231.863 92.7016 230.983 90.4018C230.505 89.1503 229.646 88.0557 229.37 86.7251C227.967 85.4664 227.613 83.3854 225.695 82.5024C225.175 82.2629 225.013 81.5684 224.703 81.071C224.296 80.4179 223.961 79.7039 223.172 79.3512C222.304 78.8185 221.634 78.1265 220.98 77.3652C220.503 76.8106 220.195 75.947 219.212 75.913C219.079 75.8643 218.951 75.812 218.823 75.7549C219.154 75.0969 208.997 67.9407 208.356 67.9419C207.632 67.9431 206.916 67.8981 206.205 67.7765C205.984 67.6622 205.704 67.7449 205.499 67.5819C205.212 67.5102 204.851 67.4725 204.714 67.2304C204.217 66.3511 203.316 66.2891 202.459 66.0981C201.886 65.9704 201.323 65.7965 200.756 65.6421C199.421 65.2808 198.1 64.9135 196.695 64.7944C194.602 64.6168 192.48 64.7092 190.417 64.2227C190.045 64.1352 189.662 64.185 189.292 64.2896C188.502 64.5134 187.703 64.4891 186.916 64.3103C186.023 64.1072 185.168 64.1753 184.308 64.4635C182.798 64.9707 181.269 65.4025 179.645 65.4098C179.172 65.1519 178.717 65.0157 178.22 65.4049C177.912 65.6469 177.573 65.8792 177.157 65.9473C177.033 65.9814 176.911 66.0215 176.792 66.0689C175.163 66.5031 173.719 67.1721 173.064 68.8212C170.621 69.956 168.179 71.0895 165.737 72.2242L165.733 72.2181C165.177 72.8712 164.713 73.6302 164.047 74.1531C162.883 75.0665 161.737 76.0285 160.52 76.8495C159.012 77.865 157.599 79.0058 156.051 79.9642C155.867 79.9715 155.682 79.9727 155.516 80.0664C155.333 80.1758 155.167 80.2938 155.012 80.4203C154.949 80.4458 154.885 80.4714 154.821 80.4981C154.758 80.5881 154.696 80.6793 154.634 80.7693C154.34 81.0795 154.107 81.4273 153.921 81.8068C153.721 82.0999 153.52 82.3918 153.318 82.6849C152.826 83.4791 152.714 83.5192 152.048 83.0607C151.515 82.6922 151.104 82.1692 150.477 81.9162C148.944 80.0007 146.977 78.6519 144.629 77.803C144.695 77.8796 144.759 77.9562 144.825 78.0329C144.745 77.9757 144.677 77.9039 144.629 77.803C142.511 75.7756 140.204 73.9768 137.643 72.4869C137.428 72.3616 137.204 72.2169 136.965 72.1707C135.359 71.8533 133.86 71.143 132.214 70.9752C131.641 70.3208 130.896 70.0411 130.02 70.0216C129.434 70.0083 128.852 69.9621 128.394 69.54C127.184 68.19 127.184 68.19 125.651 68.7471C125.029 68.1122 124.498 67.346 123.36 67.6014C123.13 67.6525 122.794 67.4457 122.563 67.2839C121.179 66.3171 119.656 67.1818 118.217 66.9617C118.186 66.9568 118.139 66.9921 118.11 67.02C117.656 67.4627 117.09 67.3667 116.56 67.2669C115.092 66.9945 113.626 67.4627 112.157 67.2511C111.962 67.2231 111.731 67.2876 111.543 67.3654C110.591 67.7631 109.587 67.8483 108.57 67.8215C107.322 67.7875 106.147 68.0623 105.009 68.5221C104.338 68.7933 103.662 68.9806 102.923 68.7568C102.457 68.6157 102.078 68.7385 101.916 69.2177C101.727 69.7748 101.283 70.0399 100.753 70.2442C100.404 70.3792 100.079 70.5726 99.7447 70.7404C99.4999 70.8 99.259 70.8742 99.0104 70.9192C96.8255 71.3084 94.8599 72.2826 92.959 73.2775C91.1252 74.2358 89.5325 75.6053 88.1223 77.1158C87.1687 78.1375 86.2556 79.1919 85.1587 80.0822C84.9736 80.2318 84.8696 80.4726 84.7288 80.672C84.0428 80.7596 83.7194 81.313 83.2756 81.7131C82.904 81.8287 82.6592 82.067 82.5337 82.421C81.8971 83.552 80.9447 84.435 79.863 85.1234C78.9398 85.712 78.3109 86.471 77.8074 87.3637C77.5639 87.7942 77.2583 88.17 76.9565 88.5604C75.9065 89.9201 74.9681 91.3516 74.1096 92.8318C73.4742 93.9276 73.2181 95.2009 72.461 96.2323C71.7851 97.1542 71.5023 98.1782 71.2474 99.2558C70.7465 101.381 70.309 103.532 69.3452 105.53C69.2488 105.525 69.1525 105.521 69.0573 105.517C68.7226 105.956 68.3459 106.374 68.2635 106.942C68.1798 107.109 68.0974 107.277 68.0137 107.443C67.3948 108.106 67.074 108.954 66.5262 109.661C65.816 110.141 65.7552 110.856 65.7666 111.597C65.1236 112.593 64.3856 113.546 64.2347 114.761C63.8707 116.282 63.508 117.803 63.1441 119.323C63.1948 119.357 63.2443 119.39 63.2937 119.424C63.21 120.09 63.2937 120.681 63.8048 121.224C64.1472 121.589 64.3222 122.1 64.5758 122.552C63.1022 123.064 62.7979 123.563 63.0794 124.946C63.1352 125.222 63.2088 125.507 63.3381 125.756C63.664 126.381 63.6196 126.978 63.3964 127.633C63.1365 128.398 62.8867 129.2 63.2354 130.005C63.5473 130.727 63.6577 131.482 63.787 132.242C64.0115 133.559 64.1091 134.924 64.5542 136.172C65.2707 138.176 65.4888 140.276 66.1064 142.289C66.6149 143.948 66.8914 145.703 68.0352 147.133C68.0289 147.707 68.1595 148.255 68.4284 148.763C69.3655 150.534 69.9412 152.418 70.3686 154.352C70.4447 155.219 70.3077 156.115 70.7313 156.938C70.9278 157.138 71.1193 157.341 71.3095 157.545C71.3324 157.615 71.3565 157.684 71.3844 157.751C72.1541 159.688 72.2556 159.938 73.8306 160.48C73.9815 160.664 74.1324 160.846 74.2846 161.03C74.8717 162.306 75.9953 162.987 77.1987 163.673C78.1676 164.225 79.2543 163.974 80.2105 164.384C80.2866 164.35 80.3538 164.314 80.4134 164.275C80.5047 164.317 80.5973 164.359 80.6886 164.401C81.0868 164.531 81.485 164.666 81.8844 164.792C82.5071 164.987 82.9509 165.273 82.729 166.02C82.6136 166.409 82.8495 166.717 83.1094 166.999C83.5 167.423 83.8817 167.854 84.266 168.283V168.282C84.829 168.983 85.7319 169.434 86.21 170.099C87.2638 171.565 88.3912 172.84 90.1298 173.543C90.2223 173.581 90.2135 173.756 90.2439 173.869C90.2655 173.95 90.2997 174.025 90.3428 174.096C89.6834 175.474 89.2002 177.927 89.3993 178.598C89.9345 180.403 89.4361 182.114 89.1077 183.853L89.1153 183.861C89.0823 184.545 89.1241 185.243 88.9999 185.912C88.8033 186.968 88.9999 187.896 89.5959 188.796C90.2604 189.801 90.2794 190.845 89.62 191.877C89.5008 193.133 89.6732 194.408 89.3486 195.654C89.2484 196.042 89.4361 196.351 89.8508 196.496L89.852 196.495C91.091 197.156 92.0852 197.069 93.2722 196.108C94.6164 195.019 95.4851 193.63 96.5604 192.374C97.107 191.737 97.6307 191.11 98.0391 190.32C98.5907 189.252 99.0954 187.885 100.585 187.527C100.715 187.58 100.85 187.625 100.958 187.718C101.015 187.789 101.086 187.856 101.146 187.925C101.351 188.162 101.556 188.401 101.761 188.638C101.902 188.828 102.035 189.022 102.166 189.218C103.68 189.629 105.1 190.266 106.533 190.873C107.295 190.962 107.885 191.517 108.458 191.852C109.419 192.415 110.713 192.454 111.4 193.532C111.742 194.068 112.039 194.661 112.516 195.124C112.82 195.421 113.361 195.383 113.555 195.838C114.071 197.044 114.885 198.111 115.357 199.339C115.634 199.866 116.363 199.836 116.673 200.369C117.011 200.952 117.607 201.065 118.262 200.868C118.961 201.059 119.563 201.408 120.134 201.84C120.929 202.442 121.796 202.955 122.58 203.569C123.752 204.486 125.083 205.199 126.085 206.345C126.666 207.009 127.377 207.658 128.272 207.966C129.442 208.367 130.432 209.054 131.496 209.631C132.541 210.195 133.331 211.07 134.329 211.65C135.805 212.51 137.184 213.522 138.52 214.526C139.883 215.55 141.262 216.518 142.738 217.373C143.207 217.645 143.694 217.894 144.132 218.207C145.377 219.098 146.551 220.086 147.952 220.762C149.172 221.084 150.334 221.524 151.364 222.25C152.513 223.062 153.673 223.855 154.821 224.667C155.069 224.843 155.332 224.981 155.631 224.938C156.76 224.776 157.967 225.05 158.997 224.318C159.284 224.112 159.702 224.075 160.059 223.959C161.007 223.632 162.013 223.402 162.641 222.54C162.729 222.528 162.816 222.516 162.904 222.505C163.583 222.464 164.269 222.36 164.818 221.973C165.895 221.215 166.924 220.393 167.971 219.599C168.717 219.007 169.323 218.245 170.181 217.794C171.098 217.313 171.751 216.584 172.387 215.828C172.73 215.418 173.027 214.968 173.399 214.585C174.974 212.961 176.575 211.363 178.152 209.74C178.841 209.031 179.441 208.235 180.175 207.574C181.593 206.297 182.913 204.949 184.116 203.481C184.893 202.531 185.885 201.749 186.564 200.711C186.67 200.551 186.884 200.457 187.045 200.328C189.163 198.628 191.576 197.223 193 194.831C193.103 194.659 193.254 194.502 193.413 194.375C194.778 193.281 195.907 191.989 196.987 190.642C197.626 189.847 198.334 189.092 199.164 188.462C199.403 187.908 199.668 187.367 200.249 187.065C200.955 186.699 201.463 186.128 201.991 185.574C202.548 185.359 202.994 184.999 203.356 184.554C204.351 183.33 205.617 182.311 206.347 180.882C206.485 180.611 206.796 180.42 207.027 180.192C207.112 180.009 207.16 179.795 207.288 179.646C209.222 177.412 210.056 174.507 212.135 172.361C212.243 172.249 212.281 172.074 212.35 171.928C212.421 171.938 212.491 171.949 212.561 171.96C212.747 171.544 212.934 171.128 213.12 170.712C213.287 170.468 213.456 170.223 213.624 169.979L213.629 169.981C214.396 168.942 214.871 167.73 215.717 166.737C216.183 166.191 216.429 165.577 216.412 164.869C216.662 164.677 216.826 164.43 216.916 164.137C217.212 163.876 217.37 163.545 217.428 163.168C217.684 162.981 217.853 162.737 217.935 162.438L217.94 162.441C219.568 160.951 220.736 159.131 221.927 157.328C221.97 157.262 221.979 157.176 222.005 157.098C222.006 157.098 222.006 157.098 222.007 157.098C223.12 156.156 224.395 155.363 225.098 154.041C225.219 153.812 225.403 153.664 225.633 153.559C226.42 153.199 227.133 152.691 228.056 152.616C228.694 152.564 229.23 152.224 229.711 151.813C230.336 151.281 230.979 150.766 231.614 150.244C231.82 149.822 232.184 149.549 232.6 149.346C233.197 149.054 233.574 148.611 233.766 147.996C233.863 147.69 234.028 147.405 234.162 147.11C235.641 145.259 236.597 143.138 237.566 141.025C237.875 140.35 237.987 139.627 238.004 138.891C238.075 138.775 238.106 138.651 238.096 138.518C238.074 138.503 238.054 138.49 238.034 138.476C238.872 137.068 239.316 135.539 239.501 133.937C239.443 133.746 239.401 133.554 239.369 133.363C239.369 133.362 239.37 133.361 239.37 133.36C240.148 131.251 240.357 129.026 240.775 126.849ZM209.827 145.397C207.133 145.161 204.432 145.225 201.734 145.174C200.049 145.142 198.368 145.397 196.679 145.191C196.047 145.114 195.413 145.124 194.909 144.669C194.821 144.59 194.689 144.521 194.572 144.51C192.94 144.364 191.389 143.746 189.749 143.7C187.727 143.643 185.701 143.879 183.683 143.578C183.343 143.527 183.011 143.595 182.688 143.704C182.629 143.768 182.565 143.8 182.491 143.798C182.414 143.797 182.376 143.789 182.376 143.773C182.325 143.746 182.279 143.716 182.236 143.684C181.447 143.846 180.652 143.914 179.855 143.942C179.885 144.023 179.908 144.116 179.919 144.222C178.727 144.554 177.483 144.403 176.27 144.576C175.523 144.681 174.756 144.655 174.015 144.848C173.816 144.9 173.595 144.892 173.385 144.886C171.902 144.843 171.626 144.428 172.062 143.059C172.988 140.155 173.903 137.245 174.361 134.227C174.483 133.422 174.556 132.619 174.569 131.808C174.596 129.992 175.656 128.559 177.445 127.94C177.96 127.763 178.495 127.619 179.034 127.53C182.027 127.04 185.017 126.534 188.02 126.117C189.097 125.968 190.21 126.003 191.303 126.043C192.45 126.084 193.581 126.045 194.706 125.831C197.13 125.37 199.588 125.486 202.035 125.466C203.304 125.457 204.567 125.533 205.832 125.622C207.729 125.755 209.63 125.775 211.527 125.539C212.916 125.367 214.316 125.428 215.707 125.463C219.722 125.563 223.722 125.031 227.738 125.229C228.371 125.261 229.008 125.233 229.611 125.466C230.32 125.672 231.032 125.524 231.741 125.477C232.611 125.42 233.192 125.778 233.537 126.527C233.963 127.451 234.324 128.381 234.342 129.425C234.355 130.185 234.593 130.941 234.626 131.702C234.725 133.979 234.308 136.19 233.57 138.349C233.203 139.419 232.817 140.483 232.437 141.55C231.84 142.417 231.248 143.286 230.865 144.268C230.564 145.039 230.029 145.643 229.352 146.14C229.053 146.237 228.803 146.405 228.601 146.638C228.601 146.638 228.601 146.638 228.603 146.638C228.316 146.897 227.951 147.013 227.593 147.139H227.592C226.617 147.476 225.702 147.193 224.789 146.889C222.809 146.169 220.731 146.339 218.681 146.301C217.707 146.283 216.737 146.258 215.828 145.896C214.911 145.533 213.965 145.433 212.986 145.443C211.931 145.448 210.878 145.412 209.827 145.397C210.186 145.349 210.546 145.302 210.905 145.26C210.543 145.26 210.182 145.288 209.827 145.397ZM155.382 167.809C155.732 168.319 156.081 168.793 156.563 169.182C156.785 169.316 157.063 169.35 157.335 169.396C158.037 170.494 158.896 171.5 159.624 172.584C159.15 173.401 159.568 174.265 160.118 174.662C160.498 174.938 160.83 175.249 161.14 175.576C161.184 175.692 161.221 175.813 161.242 175.939C161.311 176.355 161.512 176.718 161.878 176.951C162.992 177.663 163.353 178.771 163.618 179.931C163.708 180.324 163.68 180.776 163.974 181.078C164.472 181.589 164.507 182.249 164.717 182.854C164.627 182.857 164.538 182.862 164.449 182.866C164.186 183.377 164.884 183.47 164.915 183.854C165.014 184.092 165.111 184.329 165.21 184.566C165.128 184.627 165.045 184.662 164.963 184.683C164.78 184.474 164.604 184.258 164.37 184.099C164.28 184.03 164.201 183.946 164.101 183.881C163.738 183.418 163.207 183.256 162.654 183.131C162.341 183.036 162.044 182.902 161.761 182.745C160.35 182.22 159.101 181.214 157.604 181.038C156.266 180.88 154.965 180.56 153.631 180.419C153.295 180.383 152.953 180.304 152.623 180.374C151.927 180.52 151.139 180.523 151.092 181.505C150.485 181.748 149.867 181.943 149.158 181.696C149.09 181.671 148.954 181.69 148.919 181.736C148.675 182.063 148.32 182.286 147.977 182.517C147.628 182.569 147.401 182.777 147.199 183.096C146.557 184.116 145.785 185.061 145.296 186.171C144.463 186.581 144.454 185.867 144.417 185.481C144.262 183.807 143.565 182.297 142.748 180.885C141.659 178.998 141.966 176.571 140.17 174.99C140.153 174.975 140.174 174.93 140.162 174.903C139.764 173.969 139.457 172.973 138.499 172.404C138.882 171.833 138.788 171.143 138.471 170.696C137.586 169.45 137.352 168.012 136.82 166.663C136.711 166.387 136.818 165.846 136.382 165.801C136.481 165.085 136.388 164.402 135.966 163.782C135.773 163.468 135.65 163.117 135.393 162.838C135.194 162.617 135.014 162.387 134.926 162.104C134.595 161.151 134.326 160.177 133.99 159.225C133.867 158.876 133.77 158.444 133.36 158.447C133.358 158.048 133.427 157.638 133.208 157.268C132.273 155.693 131.528 154.032 130.715 152.4C130.475 151.919 130.393 151.655 130.678 151.266C131.02 150.799 131.417 150.298 131.287 149.729C131.17 149.224 131.406 149.062 131.719 148.765C132.528 147.998 133.672 147.634 134.334 146.695C135.458 145.103 135.759 145.072 137.203 146.306C137.317 146.404 137.46 146.518 137.65 146.464C137.821 146.453 137.99 146.464 138.131 146.513C138.234 146.607 138.339 146.698 138.445 146.787C138.467 146.839 138.483 146.897 138.488 146.965C138.563 147.891 139.328 148.233 139.947 148.714C140.052 148.765 140.162 148.809 140.273 148.854C140.573 148.984 140.852 149.14 141.119 149.314C141.247 149.5 141.385 149.68 141.529 149.856C141.948 150.365 142.428 150.721 143.019 150.808C143.149 150.91 143.279 151.011 143.413 151.108C143.514 151.168 143.613 151.231 143.708 151.299C143.919 151.422 144.163 151.512 144.4 151.609C144.646 151.913 144.946 152.154 145.321 152.305C145.398 152.464 145.442 152.657 145.43 152.903C145.573 153.1 145.723 153.293 145.85 153.501C146.698 154.415 147.118 155.567 147.747 156.602C147.799 156.712 147.843 156.828 147.89 156.942C148.551 157.936 148.794 159.158 149.479 160.09C150.546 161.542 151.501 163.041 152.392 164.588C152.695 165.115 152.972 165.72 153.574 165.971C154.467 166.342 154.907 167.116 155.382 167.809ZM97.4405 144.638C96.9256 144.706 96.8863 145.344 96.3968 145.444C95.1718 145.69 93.9633 146.008 92.7193 146.168C92.3097 146.238 91.9001 146.242 91.4892 146.187C90.7626 145.994 90.0423 145.99 89.3308 146.258C88.2149 146.587 87.2105 147.197 86.0654 147.453C85.7776 147.536 85.5075 147.67 85.2094 147.723C85.1689 147.735 85.1283 147.751 85.0877 147.765C84.6781 147.273 84.1303 147.318 83.4265 147.546C81.7944 148.073 80.4908 149.153 78.9576 149.849C77.8391 150.356 77.0719 150.231 76.5482 149.125C76.1335 148.25 76.1728 147.216 75.5337 146.418C75.157 145.438 74.6295 144.501 74.4773 143.451C74.3568 142.619 73.3893 142.279 73.2853 141.434C73.147 140.299 72.6766 139.245 72.215 138.212C71.2017 135.943 70.7262 133.624 71.1815 131.169C71.2144 130.992 71.1282 130.864 71.1155 130.711C70.9266 128.418 70.503 126.132 70.8213 123.822C70.9709 122.735 71.0432 121.656 70.8606 120.569C70.6793 119.497 71.0623 118.446 71.0027 117.379C70.9912 117.183 70.9507 116.964 71.1777 116.873C71.8117 116.616 71.671 116.065 71.7914 115.581C72.0007 114.747 71.7344 113.713 72.8858 113.225C73.2853 113.056 73.7773 113.107 74.0994 112.767C74.4659 112.657 74.7576 112.461 75.0213 112.232C75.1596 112.403 75.3688 112.448 75.6047 112.444C76.2311 112.269 76.9362 112.288 77.4257 111.767C77.5753 111.407 77.9165 111.191 78.2436 111.086C80.4096 110.401 82.4348 109.375 84.6337 108.761C86.3457 108.283 87.7825 108.544 89.0836 109.678C89.7278 110.238 90.3961 110.768 91.1341 111.211C91.3548 111.356 91.5767 111.498 91.8012 111.637C92.0662 111.744 92.2589 111.951 92.4745 112.123C92.5037 112.517 92.9336 112.801 93.3026 113.017C94.3019 113.602 95.395 114.034 96.407 114.606C96.5262 114.696 96.6771 114.784 96.861 114.877C96.9561 114.936 97.0499 114.997 97.1425 115.061C97.2655 115.144 97.3885 115.176 97.5115 115.169C97.5508 115.186 97.5914 115.202 97.6333 115.219C99.3998 116.418 101.559 116.972 103.274 118.264C103.311 118.301 103.349 118.337 103.385 118.375C103.432 118.425 103.492 118.462 103.558 118.487C103.652 118.564 103.744 118.642 103.836 118.726C104.382 119.228 105.035 119.591 105.686 119.957C105.691 119.961 105.697 119.964 105.702 119.969C105.917 120.135 106.15 120.261 106.395 120.368C106.825 120.63 107.236 120.917 107.594 121.273C108.037 121.758 108.179 122.247 107.791 122.866C107.535 123.276 107.489 123.766 108.123 124.003C108.132 124 108.141 123.995 108.15 123.991C107.897 125.019 107.833 126.061 108.246 127.054C108.478 127.611 108.483 128.123 108.414 128.668C108.322 129.381 108.085 130.12 108.544 130.776C109.117 131.597 109.21 132.518 109.342 133.456C109.549 134.927 109.542 136.416 110.344 137.811C110.813 138.628 111.04 139.537 110.053 140.579C109.036 141.653 107.863 142.455 106.714 143.317C106.274 143.648 106.059 144.287 105.326 144.269C104.047 144.238 102.774 144.225 101.492 144.309C100.158 144.393 98.7898 144.492 97.4405 144.638ZM79.4661 108.685C79.4648 108.684 79.4648 108.683 79.4636 108.683C79.4648 108.683 79.4661 108.684 79.4674 108.684C79.4674 108.683 79.4674 108.681 79.4686 108.681C79.4699 108.683 79.4712 108.685 79.4737 108.686C79.4725 108.686 79.4699 108.685 79.4686 108.685C79.4661 108.684 79.4661 108.684 79.4661 108.685ZM79.461 108.68L79.4648 108.678C79.4636 108.679 79.4623 108.679 79.461 108.68ZM79.461 108.674C79.461 108.677 79.461 108.678 79.461 108.68C79.4585 108.678 79.4572 108.675 79.4547 108.674C79.456 108.673 79.4585 108.673 79.461 108.674ZM91.0086 176.13C91.0137 176.169 91.0187 176.207 91.0238 176.243C91.0149 176.245 91.0073 176.246 90.9997 176.247C91.0022 176.208 91.006 176.169 91.0086 176.13ZM94.8104 160.384C94.7572 160.593 94.7267 160.885 94.6101 161.139C93.8187 162.85 93.5474 164.708 92.9539 166.475C92.4631 167.933 91.6756 168.204 90.3111 167.376C88.8807 166.509 88.3519 165.103 87.8205 163.695C87.6937 163.359 87.8167 162.993 88.1604 162.864C89.8077 162.247 90.8653 160.833 92.3782 160.039C92.8207 159.806 93.2405 159.52 93.7401 159.412C94.4845 159.25 94.8649 159.58 94.8104 160.384ZM95.5256 153.849C95.3798 153.965 95.2276 154.071 95.0704 154.172C94.818 154.32 94.5466 154.394 94.2512 154.426C92.7256 154.585 91.2457 154.86 90.1513 156.032C89.7176 156.362 89.2383 156.599 88.7006 156.73C88.0386 156.838 87.4502 157.106 86.9138 157.486C85.9424 158 85.0421 158.647 83.9603 158.956C83.7359 159.039 83.5812 159.197 83.4328 159.362C83.1792 159.316 82.9243 159.272 82.6681 159.236C82.204 159.17 82.0848 158.945 82.2852 158.565C82.658 157.859 82.625 157.177 82.2661 156.473C82.2458 156.433 82.2357 156.387 82.2319 156.339C82.327 156.295 82.4259 156.254 82.5274 156.216C82.8761 155.748 83.7625 155.677 83.8132 154.989C83.902 154.967 83.9857 154.93 84.0643 154.881C84.8125 154.299 85.5341 153.67 86.546 153.54C87.4477 153.144 88.3937 152.813 89.1216 152.13C89.3664 151.9 89.6491 151.869 89.9243 151.965C91.1379 152.39 92.0852 151.896 92.9792 151.191C93.9392 150.735 94.9753 150.673 96.0215 150.642C96.6682 150.624 97.3175 150.662 97.9642 150.642C97.8805 150.67 97.7981 150.704 97.7157 150.744C98.3903 150.754 99.0637 150.764 99.7383 150.773C99.7371 150.728 99.7345 150.683 99.732 150.638C99.7358 150.638 99.7396 150.64 99.7434 150.64C100.31 150.703 100.937 150.621 101.383 151.343C99.8208 151.761 98.3599 152.303 97.2909 153.487C96.6606 153.416 96.0164 153.287 95.5256 153.849ZM99.1778 150.522C99.1652 150.522 99.1525 150.52 99.1398 150.52C99.1499 150.518 99.1601 150.517 99.1702 150.514C99.1728 150.517 99.1753 150.519 99.1778 150.522ZM119.796 144.346C118.032 143.891 117.807 143.73 117.597 142.058C117.582 141.938 117.526 141.827 117.476 141.715C116.956 140.032 116.126 138.425 115.771 136.723C115.319 134.55 114.639 132.457 113.969 130.352C113.924 130.24 113.873 130.129 113.821 130.02C113.822 130.004 113.823 129.988 113.823 129.973C113.831 128.152 114.019 126.306 113.754 124.519C113.538 123.071 113.806 121.925 114.691 120.814C114.769 120.716 114.858 120.577 114.867 120.43C115.415 120.356 115.869 119.816 116.48 120.042C116.696 120.059 116.869 119.951 117.052 119.868C117.246 119.786 117.521 119.706 117.563 119.536C117.818 118.501 118.575 118.371 119.492 118.488C119.754 118.522 119.992 118.37 120.226 118.366C121.738 118.346 123.168 117.733 124.734 117.945C125.637 118.068 126.283 118.285 126.453 119.141C126.586 119.811 127.055 120.075 127.584 120.343C128.096 120.729 128.474 121.221 128.792 121.758C129.246 122.562 129.319 123.489 129.637 124.322C130.446 126.438 131.235 128.562 132.024 130.685C132.219 131.212 132.348 131.762 132.632 132.266C133.044 133 133.157 133.705 132.996 134.459C132.97 134.537 132.94 134.615 132.907 134.693C132.882 134.751 132.874 134.822 132.876 134.891C132.819 135.059 132.75 135.229 132.668 135.404C132.174 136.45 131.341 137.441 131.312 138.61C131.311 138.662 131.306 138.713 131.301 138.765C131.239 138.82 131.176 138.875 131.114 138.93C130.722 139.272 130.503 139.589 130.659 140.079C130.271 140.608 129.873 141.125 129.982 141.845C130.002 141.979 129.707 141.964 129.552 142.009C128.808 142.228 128.458 142.627 128.544 143.217C128.516 143.234 128.488 143.251 128.459 143.268C127.648 142.973 127.319 143.123 126.919 143.854C126.843 143.823 126.767 143.79 126.69 143.753C124.422 144.276 122.187 144.962 119.796 144.346ZM149.964 149.141C149.413 149.051 148.9 148.898 148.444 148.583C148.239 148.538 147.997 148.545 147.834 148.441C146.582 147.634 145.275 146.902 144.043 146.079C143.264 145.558 142.482 144.975 141.81 144.3C141.605 144.095 141.365 143.916 141.196 143.689C140.781 143.13 140.978 142.656 141.673 142.538C142.09 142.467 142.524 142.47 142.927 142.613C144.39 143.132 145.977 143.178 147.435 143.71C147.609 143.722 147.783 143.733 147.956 143.745C149.574 144.092 151.222 144.329 152.775 144.917C153.289 145.145 153.802 145.373 154.317 145.601C155.155 145.727 156.033 145.517 156.843 145.876L156.846 145.877C157.091 145.952 157.335 146.027 157.581 146.102C158.194 146.023 158.756 146.13 159.246 146.508C159.925 147.031 160.856 146.95 161.571 147.425C162.121 147.791 162.763 148.03 163.256 148.487C163.607 148.813 164.049 148.928 164.515 148.995C164.952 149.059 165.327 149.19 165.431 149.686C165.543 150.215 165.441 150.625 164.928 150.934C164.537 151.169 164.196 151.479 163.829 151.751C162.916 152.429 161.97 152.492 160.861 152.13C158.953 151.506 157.054 150.829 155.025 150.597C153.85 150.462 152.705 150.156 151.659 149.599C151.124 149.313 150.542 149.236 149.964 149.141ZM163.657 144.309C162.02 144.127 160.658 143.33 159.301 142.673C157.191 141.654 154.899 141.004 152.908 139.753C152.776 139.671 152.581 139.68 152.419 139.64C150.933 139.268 149.472 138.785 147.917 138.732C146.715 138.499 145.755 137.792 144.725 137.224C144.603 137.181 144.475 137.163 144.343 137.164C142.945 137.399 141.616 136.952 140.257 136.775C139.04 136.866 138.039 136.536 137.413 135.452C137.336 135.318 137.225 135.213 137.087 135.149C137.234 134.884 137.162 134.563 137.107 134.255C136.584 131.293 135.672 128.424 134.825 125.542C134.656 124.968 134.049 124.665 133.838 124.042C133.422 122.811 132.815 121.641 132.424 120.392C132.342 120.127 132.221 119.811 131.956 119.748C132.188 119.346 132.562 119.095 133.014 118.87C133.89 118.433 134.06 117.285 134.702 116.831C136.168 115.796 136.49 114.139 137.536 112.913C137.711 112.707 137.662 112.459 137.463 112.256C137.455 112.247 137.447 112.239 137.44 112.23C137.654 112.424 137.857 112.334 138.075 112.194C138.771 111.746 139.352 111.169 139.989 110.658C140.841 109.973 141.494 109.031 142.837 108.944C143.675 108.891 144.499 107.851 144.684 107.006C144.943 107.12 145.177 106.826 145.435 106.694C147.003 105.894 148.14 104.234 150.234 104.481C150.314 104.451 150.391 104.419 150.47 104.389C152.476 103.622 154.827 103.65 156.454 102.004C156.586 101.871 156.649 102.007 156.734 102.059C157.401 102.465 158.186 102.133 158.913 102.416C159.532 102.656 160.253 102.322 160.818 102.004C161.411 101.671 161.559 101.008 161.301 100.453C161.331 100.427 161.363 100.404 161.392 100.377C161.453 100.274 161.491 100.166 161.504 100.046C161.488 99.9551 161.478 99.8724 161.476 99.7946C162.069 99.5696 162.687 99.4626 163.318 99.4334C163.432 99.5173 163.543 99.617 163.652 99.7301C163.846 99.8542 164.031 99.9892 164.244 100.082C164.595 100.456 165.024 100.741 165.458 101.021C165.825 101.637 166.002 102.326 166.007 103.103C166.011 103.73 166.15 104.347 166.41 104.928C166.232 105.139 166.293 105.512 166.524 105.787C166.632 105.854 166.724 105.939 166.794 106.041C167.002 106.314 167.191 106.596 167.362 106.884C167.403 107.173 167.428 107.465 167.461 107.756C167.582 108.819 167.82 109.848 168.242 110.831C168.258 111.228 168.359 111.542 168.67 111.777C168.724 111.937 168.77 112.1 168.838 112.255C169.322 113.346 169.144 114.555 169.521 115.666C169.702 116.201 169.949 116.761 169.935 117.304C169.895 118.841 170.515 120.272 170.749 121.766C170.614 122.098 170.719 122.45 170.837 122.804C170.837 122.877 170.838 122.949 170.836 123.023C170.813 123.611 170.998 124.215 170.894 124.822C170.85 125.08 170.845 125.329 170.874 125.573C170.777 125.685 170.659 125.794 170.515 125.898C170.312 126.045 170.505 126.363 170.516 126.599C170.542 127.031 170.836 127.472 170.681 127.876C169.943 129.801 170.689 131.835 170.131 133.79C169.765 135.07 170.285 136.515 169.472 137.753C169.33 137.968 169.45 138.237 169.393 138.465C168.978 140.121 169.385 141.856 168.77 143.509C168.241 144.93 167.7 145.512 166.32 145.62C165.349 145.319 164.605 144.415 163.657 144.309ZM210.665 70.8621C210.288 70.6225 209.918 70.3744 209.559 70.108C209.415 69.9998 209.879 70.3233 210.665 70.8621ZM163.07 86.2143C163.213 86.0708 163.446 85.9687 163.634 85.9674C164.181 85.9638 164.33 85.5831 164.627 85.2511C165.564 84.2015 166.307 82.9026 167.905 82.5827C169.412 81.538 170.407 80.0639 171.495 78.6677C171.826 78.3612 172.162 78.0608 172.5 77.7616C172.642 77.7714 172.767 77.7312 172.874 77.6412C173.31 77.0514 173.954 76.7303 174.625 76.4907C176.154 75.9458 177.441 74.9656 178.949 74.366C180.372 73.7992 181.735 73.1133 183.318 73.0658C184.415 73.033 185.489 72.8323 186.615 72.9053C187.22 72.9442 187.976 72.4346 188.681 72.5745C189.613 72.7593 190.232 72.5854 190.542 71.6733C190.712 71.1722 191.231 71.1223 191.615 71.1904C192.158 71.2865 192.693 71.1758 193.197 71.2403C194.15 71.3619 195.175 71.4227 195.959 72.0929C196.286 72.3726 196.637 72.5587 197.086 72.5708C198.131 72.6 199.039 73.0318 199.934 73.4915C200.51 73.9731 201.286 74.057 201.921 74.4183C202.332 74.5156 202.74 74.5873 203.123 74.3319C203.137 74.2796 203.142 74.231 203.146 74.186C203.489 74.2748 203.834 74.3599 204.153 74.5229C206.101 75.5165 207.869 76.796 209.889 77.6875C210.721 78.0547 211.64 78.5923 211.879 79.6383C211.934 79.6456 211.989 79.6553 212.043 79.6662C211.922 80.1722 212.263 80.4811 212.674 80.7584C212.732 80.7511 212.792 80.7426 212.851 80.7353C213.202 80.8423 213.554 80.9493 213.905 81.0551C213.975 81.195 214.037 81.3422 214.09 81.4991C214.903 82.1047 215.805 82.6374 215.803 83.8172C215.803 84.0969 216.051 84.3389 216.384 84.3803C217.006 84.4569 217.229 84.9726 217.623 85.3204C218.776 86.3372 219.615 87.6008 220.67 88.6918C222.247 90.3215 223.53 92.1555 224.716 94.0638C225.486 95.3031 225.617 96.7309 226.184 98.0201C226.205 98.0347 226.226 98.0505 226.246 98.0651C226.211 98.3558 226.348 98.6453 226.494 98.9226C226.815 99.5319 227.099 100.111 226.709 100.809C226.549 101.096 226.755 101.435 226.825 101.749C226.861 101.874 226.898 101.998 226.941 102.122C227.01 102.993 227.1 103.863 227.219 104.728C227.229 104.856 227.237 104.985 227.247 105.114C227.251 105.866 227.203 106.579 227.872 107.206C227.948 107.278 228.014 107.352 228.074 107.429C228.081 107.681 228.089 107.932 228.097 108.183C228.449 108.961 228.209 109.854 228.614 110.621C228.986 111.991 229.145 113.358 229.09 114.725C229.064 114.791 229.036 114.854 229.006 114.917C228.614 115.732 228.608 116.39 228.781 117.055C228.721 117.326 228.653 117.598 228.575 117.869C228.405 118.164 228.312 118.482 228.24 118.804C228.086 119.261 228.002 119.743 227.797 120.187C227.601 120.416 227.305 120.507 226.808 120.537C225.975 120.588 225.134 120.647 224.301 120.507C224.105 120.474 223.908 120.448 223.711 120.428C223.356 120.101 222.807 120.287 222.319 120.276C221.02 120.249 219.728 120.768 218.417 120.287C218.071 120.16 217.673 120.31 217.318 120.441C217.197 120.481 217.077 120.521 216.956 120.563C216.602 120.695 216.203 120.729 215.902 120.993C215.395 121.399 214.783 121.485 214.18 121.407C211.988 121.127 209.785 121.229 207.586 121.201C206.445 121.187 205.32 121.078 204.232 120.737C203.74 120.581 203.248 120.49 202.756 120.738C201.07 121.306 199.248 121.266 197.603 121.036C194.698 120.631 191.841 120.78 188.951 120.842C187.564 120.872 186.233 121.432 184.878 121.412C184.742 121.381 184.606 121.35 184.471 121.319C184.471 121.342 184.471 121.364 184.469 121.387C184.387 121.379 184.306 121.369 184.223 121.354C183.197 121.178 182.251 121.238 181.269 121.43C179.637 121.713 177.992 121.716 176.346 121.689C175.965 121.683 175.596 121.688 175.359 121.88C175.103 121.892 174.848 121.893 174.593 121.866C174.573 121.803 174.554 121.74 174.532 121.678C174.499 121.442 174.488 121.202 174.477 120.963C174.279 120.013 174.244 119.062 174.272 118.111C174.281 117.92 174.29 117.728 174.296 117.537C174.367 116.134 174.527 114.731 174.45 113.329C174.45 113.192 174.447 113.059 174.442 112.922C174.417 111.661 174.201 110.424 173.993 109.184C173.974 109.065 173.955 108.947 173.938 108.826C173.813 108.328 173.712 107.828 173.689 107.316C173.681 107.204 173.659 107.094 173.622 106.989C173.272 106.278 173.03 105.539 172.923 104.76C172.9 104.646 172.865 104.534 172.818 104.427C172.675 104.062 172.478 103.705 172.298 103.345C172.185 102.759 172.046 102.181 171.839 101.627C171.912 99.4638 170.354 98.413 168.986 97.2369C168.911 96.8331 168.709 96.5169 168.338 96.3211C168.308 96.3041 168.278 96.287 168.244 96.2724L168.242 96.2688C167.35 95.5926 166.411 95.2678 165.412 95.4235C164.981 95.3591 164.546 95.3153 164.108 95.2861C164.014 95.2703 163.932 95.2703 163.859 95.2812C163.791 95.2593 163.722 95.2399 163.653 95.2216C162.862 95.0076 162.102 95.0988 161.381 95.4272C161.266 95.432 161.151 95.4393 161.037 95.4393C160.634 95.522 160.145 95.3153 159.826 95.6169C159.784 95.6558 159.742 95.6923 159.7 95.7264C158.979 95.4953 158.241 95.5464 157.496 95.6449C155.258 95.9404 153.339 97.0836 151.26 97.8024C151.146 97.7611 151.03 97.71 150.91 97.648C150.551 97.5896 150.208 97.6127 149.907 97.8365C149.842 97.9423 149.773 98.0359 149.701 98.1211C149.7 98.0578 149.697 97.9934 149.696 97.9301C149.273 97.9593 148.891 98.1186 148.493 98.2439C148.072 98.3765 147.672 98.548 147.283 98.7389C147.022 98.8435 146.782 98.9761 146.554 99.1257C146.125 99.3665 145.705 99.6219 145.284 99.8688C144.649 100.241 143.971 100.524 143.296 100.814C142.486 100.427 141.821 100.751 141.129 101.124C140.547 101.434 140.017 101.849 139.649 102.347C139.433 102.641 139.017 102.911 138.947 103.295C138.811 103.382 138.674 103.47 138.538 103.559C138.28 103.617 138.04 103.725 137.82 103.873C137.622 104.005 137.461 104.2 137.298 104.383C137.049 104.552 136.803 104.725 136.558 104.899C135.373 105.182 134.911 106.119 134.319 106.959C134.245 107.178 134.159 107.392 134.058 107.598C132.623 108.618 130.989 109.445 130.336 111.218C130.285 111.357 130.133 111.482 129.996 111.569C129.198 112.069 128.693 112.815 128.161 113.539C127.214 113.816 126.252 113.83 125.282 113.68C125.03 113.641 124.777 113.607 124.525 113.578C124.448 113.527 124.353 113.489 124.266 113.456C123.84 113.398 123.395 113.45 122.96 113.461C122.79 113.455 122.622 113.448 122.453 113.447C122.259 113.426 122.071 113.383 121.89 113.306C120.377 112.648 118.917 113.314 117.436 113.327C117.036 113.331 116.758 113.616 116.592 113.976C116.552 114.028 116.512 114.077 116.471 114.125C115.709 114.297 114.949 114.493 114.191 114.711C114.105 114.758 114.02 114.803 113.934 114.848C113.868 114.82 113.802 114.789 113.735 114.754C112.565 114.788 111.619 115.208 110.893 116.014C109.891 115.504 108.685 115.373 107.873 114.516C107.451 113.421 106.301 112.977 105.56 112.162C104.924 111.461 104.103 110.94 103.156 110.648C102.663 110.496 102.256 110.211 101.904 109.854C101.356 109.294 100.781 108.757 100.281 108.16C99.7561 107.533 99.1246 107.12 98.3168 106.923C96.7583 106.541 95.3126 105.868 93.8707 105.213C92.978 104.807 92.0827 104.41 91.1798 104.033C91.1798 104.032 91.1798 104.032 91.1798 104.031C90.4328 103.475 89.5895 103.194 88.6943 103.058C88.0754 102.834 87.4515 102.621 86.8212 102.426C86.5334 102.231 86.2709 102.012 86.1529 101.663C85.6977 101.475 85.2399 101.402 84.7631 101.59C84.4587 101.46 84.2254 101.355 84.0504 101.255C83.9756 101.038 83.9629 100.769 83.9844 100.46C84.0643 99.2655 84.8113 98.357 85.2919 97.3366C85.4022 97.1043 85.5277 96.9085 85.458 96.7577C85.5734 96.692 85.6672 96.5959 85.6774 96.54C86.0413 94.6159 87.5745 93.5055 88.8857 92.2382C88.9174 92.2042 88.9491 92.1701 88.9796 92.1349C89.024 92.1373 89.0696 92.1397 89.114 92.1434C89.7544 91.3443 90.3758 90.5331 91.1925 89.8788C91.5488 89.593 91.7479 89.171 91.9204 88.7526C92.0028 88.6735 92.0852 88.5957 92.1676 88.5166C92.2425 88.3974 92.4479 88.3391 92.4809 88.2004C92.562 88.125 92.6457 88.052 92.7332 87.9851C93.3749 87.152 94.061 86.3542 94.7546 85.5624C94.7356 85.5916 94.7166 85.6208 94.6976 85.65C94.8485 85.5211 94.9689 85.3727 95.064 85.2097C95.3773 84.8522 95.6918 84.4958 96.0025 84.137C96.3296 84.1358 96.6035 83.861 96.8293 83.6226C97.5724 82.8381 98.6541 82.517 99.415 81.7897C99.4898 81.718 99.5684 81.6596 99.6483 81.611C99.7612 81.5635 99.874 81.5173 99.9856 81.4699C100.156 81.4297 100.322 81.4346 100.469 81.4881C101.35 81.8116 102.103 81.5003 102.886 81.2291C103.34 81.0174 103.798 80.7657 104.293 80.7146C105.142 80.627 105.891 80.2646 106.321 79.6602C107.464 79.2552 108.63 78.9219 109.79 78.5729C109.791 78.5729 109.792 78.5729 109.795 78.5729C110.729 78.647 111.576 78.6239 112.459 78.4354C114.541 77.8285 116.67 77.7008 118.808 77.6753C119.825 77.8273 120.848 77.9343 121.879 77.9623C121.924 77.9927 121.969 78.0231 122.014 78.056C123.035 78.7784 124.018 79.5945 125.379 79.6772C126.35 79.8438 127.121 80.4884 128.083 80.6927C128.742 80.8326 129.368 81.0333 129.97 81.2862C130.318 81.5246 130.693 81.6997 131.071 81.8214C131.6 82.1145 132.107 82.4477 132.597 82.815C134.253 84.1151 136.225 84.5664 138.291 84.7646C139.965 85.1416 141.307 86.0635 142.574 87.1253C142.88 87.3819 143.178 87.7078 143.555 87.7796C143.608 87.8234 143.662 87.8672 143.716 87.911C143.998 88.0861 144.228 88.3707 144.488 88.5823C144.497 88.592 144.507 88.6018 144.516 88.6115C145.197 89.3473 145.922 90.0272 146.688 90.6584C147.017 91.0597 147.416 91.3687 147.871 91.5718C148.935 92.3392 150.065 93.0239 151.258 93.632C151.78 93.7731 152.288 93.9531 152.798 94.1307C153.499 94.3751 154.199 94.4347 154.897 94.397C155.029 94.453 155.162 94.5089 155.294 94.5649C155.89 94.4238 156.588 94.622 157.06 94.0735C157.06 94.0759 157.06 94.0784 157.059 94.0808L157.068 94.0638C157.068 94.0638 157.068 94.0638 157.066 94.0638C157.064 94.0638 157.061 94.0638 157.059 94.0638C157.065 93.9774 157.075 93.8923 157.084 93.8059C157.146 93.6466 157.178 93.4423 157.178 93.1905C157.178 93.1869 157.178 93.1832 157.178 93.1784C157.254 92.7843 157.361 92.3988 157.503 92.0218C157.597 91.8673 157.707 91.7201 157.835 91.5766C158.844 89.1345 161.305 87.9839 163.07 86.2143ZM106.109 187.551C105.463 187.532 104.889 187.26 104.314 187.006C104.23 186.927 104.16 186.839 104.101 186.742C104.106 186.709 104.113 186.676 104.122 186.643C103.905 186.522 103.69 186.398 103.498 186.242C103.406 186.266 103.29 186.254 103.139 186.184C102.795 185.85 102.549 185.532 102.399 185.224C102.127 185.026 102.078 184.808 102.23 184.504C102.239 184.191 102.362 183.889 102.599 183.593C103.314 183.649 103.997 183.384 104.703 183.344C104.703 183.361 104.703 183.378 104.703 183.394C104.867 183.598 105 183.82 105.061 184.09C105.8 184.949 105.79 186.148 106.529 187.023C106.768 187.309 106.471 187.56 106.109 187.551ZM118.178 188.094C117.831 188.257 117.775 188.543 117.807 188.898C117.899 189.947 117.585 190.983 117.812 192.058C117.947 192.702 117.685 193.421 117.501 194.087C117.419 194.387 116.982 194.738 116.842 194.369C116.625 193.797 116.022 193.678 115.779 193.227C114.168 190.243 112.018 187.582 110.245 184.696C109.788 184.224 109.518 183.644 109.226 183.077C108.686 181.684 107.757 180.488 107.071 179.17C107.001 179.105 106.927 179.043 106.847 178.993C107.205 178.512 106.396 178.239 106.344 177.831C106.212 177.683 106.065 177.553 105.884 177.465C104.342 177.33 103.056 177.985 102.417 179.237C102.394 179.283 102.379 179.325 102.368 179.367C102.157 179.509 101.979 179.691 101.77 179.836C101.649 179.922 101.534 180.014 101.421 180.107C101.203 179.927 100.995 179.729 100.665 179.741C99.0726 181.137 97.5711 182.615 96.1711 184.188C96.1039 184.263 96.057 184.339 96.0278 184.413C95.9847 184.466 95.9416 184.521 95.8997 184.578C95.7006 184.848 95.4736 184.992 95.1351 184.791C94.7407 184.454 94.8383 183.996 94.8053 183.563C94.8003 183.49 94.7977 183.418 94.7939 183.345C94.889 182.186 95.0552 181.032 95.1427 179.871C95.1896 179.696 95.2416 179.522 95.2986 179.347C95.2733 179.206 95.2492 179.066 95.2454 178.924C95.2707 178.733 95.395 178.587 95.4952 178.433C95.5358 178.337 95.565 178.234 95.5789 178.132C95.6423 177.784 95.7476 177.443 95.8084 177.092C95.816 176.968 95.8211 176.843 95.8211 176.719C95.8097 176.584 95.8148 176.447 95.8211 176.309C95.8921 176.08 95.9276 175.845 95.9467 175.605C96.1064 175.482 96.1876 175.222 96.341 175.09C96.6771 174.034 97.1146 173.011 97.3898 171.931C98.3827 168.034 99.642 164.204 100.466 160.262C100.687 159.209 100.588 157.958 101.379 157.133C102.147 156.334 102.396 155.095 103.624 154.685C103.808 154.623 103.931 154.393 103.954 154.19C104.059 153.229 104.731 153.12 105.535 153.197C105.572 153.143 105.608 153.088 105.647 153.033C106.724 152.899 108.723 151.653 109.213 150.781C109.399 150.872 109.647 150.834 109.91 150.797C110.859 150.658 111.624 150.182 112.389 149.668C113.836 148.694 115.353 147.948 117.209 148.559C117.282 148.583 117.356 148.601 117.431 148.611C117.523 148.655 117.621 148.69 117.706 148.73C118.272 148.975 118.868 149.129 119.464 149.29C119.923 149.382 120.24 149.702 120.617 149.929C120.618 149.932 120.618 149.933 120.618 149.935C120.008 151.27 119.933 152.768 120.003 154.055C120.175 157.241 119.884 160.334 119.219 163.397C118.803 165.315 118.349 167.181 118.646 169.147C118.674 170.093 118.605 171.033 118.677 171.985C118.614 172.106 118.547 172.225 118.471 172.341C118.292 172.617 118.373 172.971 118.384 173.297C118.428 174.69 118.697 176.077 118.659 177.473C118.244 178.79 118.248 180.129 118.763 181.367C118.815 182.216 118.819 183.068 118.808 183.92C118.767 184.027 118.721 184.134 118.669 184.242C118.796 184.964 118.671 185.695 118.845 186.426C118.995 187.057 118.942 187.734 118.178 188.094ZM215.914 157.075C213.427 159.928 211.326 163.067 208.793 165.893C206.372 168.595 204.551 171.715 202.38 174.595C201.852 175.163 201.395 175.793 200.779 176.285C200.686 176.386 200.594 176.485 200.526 176.597C200.526 176.599 200.526 176.599 200.525 176.6C200.493 176.653 200.469 176.71 200.453 176.77C199.844 178.16 199.247 178.445 198.823 178.771C198.652 178.796 198.521 178.986 198.41 179.133C198.332 179.224 198.254 179.316 198.176 179.407C197.274 180.413 196.173 181.265 196.037 182.766C195.688 183.137 195.346 183.514 195.023 183.906C194.92 183.934 194.813 183.951 194.703 183.953C194.207 183.965 193.9 184.094 193.71 184.514C193.616 184.669 193.577 184.846 193.496 185.006C193.047 186.075 192.45 187.221 191.49 187.75C189.519 188.837 188.35 190.596 186.881 192.1C184.695 194.341 182.637 196.698 180.108 198.61C179.398 199.281 178.328 199.704 178.314 200.854C178.092 201.027 177.871 201.204 177.652 201.38C176.725 201.144 176.145 201.801 175.466 202.207C175.365 202.273 175.264 202.337 175.164 202.403C174.905 202.555 174.667 202.733 174.431 202.914C172.526 204.443 170.625 205.976 168.677 207.456C167.901 208.046 167.298 209.029 166.624 209.413C165.68 209.952 165.129 210.653 164.546 211.394C164.08 211.986 163.586 212.515 162.948 212.922C162.789 213.027 162.627 213.126 162.434 213.159C161.77 213.357 161.245 213.689 161.195 214.439C161.178 214.501 161.159 214.56 161.137 214.619C160.285 215.216 159.302 215.656 158.671 216.516C157.876 217.6 156.9 217.602 156.039 216.522C155.872 216.312 155.712 216.094 155.484 215.936C155.143 215.693 154.777 215.43 154.348 215.465C154.038 215.491 153.755 215.463 153.489 215.397C153.139 215.178 152.784 214.967 152.428 214.754C152.202 214.619 151.975 214.486 151.747 214.354C150.397 213.188 148.802 212.309 147.578 210.992C147.23 210.616 146.613 210.501 146.157 210.238C144.698 209.401 143.302 208.467 141.83 207.645C140.922 206.931 140.022 206.209 139.045 205.581C138.79 205.418 138.542 205.247 138.294 205.07C137.643 204.496 137.541 203.524 136.686 203.178C136.013 202.904 135.507 202.508 135.029 201.965C134.637 201.52 134.168 201.055 133.421 200.978C133.283 200.963 133.139 200.929 133.001 200.877C132.996 200.872 132.991 200.867 132.986 200.862C132.986 200.551 133.12 200.2 132.715 200.006C132.041 199.529 131.439 198.96 130.724 198.54C130.65 198.497 130.575 198.447 130.499 198.397C130.271 198.231 130.039 198.07 129.812 197.901C128.809 197.86 128.094 197.255 127.334 196.74C126.339 196.172 125.452 195.449 124.485 194.843C123.828 194.432 123.399 193.92 123.143 193.284C123.211 192.47 123.26 191.657 122.855 190.874C122.859 191.127 122.85 191.382 122.841 191.636C122.822 190.63 122.998 189.624 122.745 188.601C122.364 187.07 122.794 185.472 122.705 183.902C122.562 181.345 122.906 178.806 123.015 176.258C123.064 175.089 122.946 173.845 123.181 172.774C123.589 170.904 123.356 169.073 123.446 167.23C123.475 166.643 123.5 166.007 123.158 165.477C123.164 165.44 123.171 165.403 123.178 165.366C123.197 165.234 123.208 165.102 123.209 164.968C123.194 163.634 123.247 162.312 123.85 161.072C124.481 159.011 124.189 156.898 124.226 154.8C124.231 154.692 124.232 154.583 124.232 154.474C125.912 154.532 124.561 152.903 125.077 152.293C125.564 152.639 125.701 153.171 125.546 153.523C125.167 154.386 125.737 154.871 126.101 155.498C126.341 155.913 126.997 156.081 126.929 156.605C126.836 157.347 127.178 157.939 127.451 158.567C128.167 159.908 128.53 161.364 128.934 162.808C129.382 164.406 129.822 166.009 130.606 167.498C131.507 168.433 131.691 169.857 132.899 170.587C133.035 170.67 133.115 170.854 133.068 171.017C132.73 172.213 133.388 173.22 133.789 174.25C134.181 175.257 134.312 176.325 134.742 177.336C134.981 177.896 134.572 178.729 135.019 179.387C135.114 179.559 135.213 179.73 135.309 179.902C135.658 180.621 136.366 181.218 136.251 182.095C136.056 183.608 136.387 184.958 137.452 186.111C137.49 186.152 137.525 186.196 137.556 186.239C137.615 186.496 137.672 186.753 137.726 187.011C137.755 187.146 137.787 187.281 137.818 187.414C137.724 189.314 138.268 191.091 138.955 192.829C139.517 194.249 139.89 195.767 141.022 196.928C141.637 197.714 142.522 198.227 143.404 198.59C144.165 198.904 144.709 198.031 145.359 197.704C145.509 197.628 145.327 197.74 145.472 197.657C146.963 196.806 147.933 195.575 148.367 193.965C149.014 191.565 150.021 189.278 150.744 186.904C151.004 186.646 150.982 186.096 151.195 185.793C151.331 185.701 151.483 185.629 151.654 185.584C151.783 185.589 151.939 185.622 152.135 185.695C152.251 185.737 152.372 185.758 152.497 185.782C153.265 186.047 154.079 185.492 154.816 185.889C155.833 186.439 156.846 186.458 157.977 186.237C158.967 186.044 159.951 186.171 160.573 187.204C160.885 187.721 161.464 188.003 162.168 187.975C163.946 187.903 165.411 189.085 167.158 189.161C167.243 189.164 167.308 189.236 167.345 189.302C167.707 189.968 168.398 190.101 169.062 190.276C169.268 190.282 169.474 190.274 169.661 190.175C169.753 190.074 169.834 189.967 169.911 189.858C169.956 189.814 169.999 189.77 170.043 189.726C170.082 189.656 170.117 189.585 170.132 189.515C170.205 189.39 170.278 189.262 170.345 189.133C170.435 187.887 170.427 186.637 170.368 185.394C170.361 185.248 170.346 185.106 170.328 184.964C170.386 185.078 170.448 185.191 170.516 185.302C170.506 184.939 170.407 184.611 170.207 184.322C169.949 183.311 169.415 182.394 168.736 181.547C168.634 181.421 168.511 181.3 168.363 181.266C168.215 181.03 168.023 180.821 167.871 180.588C167.778 180.262 167.56 179.997 167.416 179.696C167.366 179.601 167.317 179.507 167.265 179.413C167.124 179.19 167.001 178.96 166.893 178.723C166.851 178.627 166.808 178.53 166.766 178.435C166.622 178.138 166.505 177.832 166.418 177.516C166.347 177.064 166.12 176.697 165.83 176.331C165.214 175.55 164.632 174.671 164.546 173.722C164.449 172.664 163.98 171.927 163.228 171.261C162.415 169.356 161.351 167.571 159.972 166.016C159.312 165.273 158.624 164.58 158.218 163.687C157.92 163.03 157.476 162.522 156.871 162.126C155.606 161.545 155.626 159.98 154.495 159.268C154.275 159.13 153.873 158.918 153.883 158.551C153.927 157.069 153.129 155.989 152.107 154.997C151.847 154.746 151.554 154.461 151.837 154.046C152.083 153.685 152.448 153.653 152.842 153.705C153.093 153.736 153.334 153.813 153.582 153.866C156.658 154.536 159.697 155.39 162.849 155.702C163.181 155.734 163.525 155.674 163.732 156.021C164.058 156.57 164.571 156.417 165.075 156.355C166.447 156.187 167.389 155.255 168.491 154.609C168.902 154.281 169.128 153.804 169.504 153.449C169.578 153.36 169.65 153.27 169.72 153.179C169.92 152.882 170.336 152.64 170.574 152.358C171.821 152.176 173.08 152.187 174.355 152.392C174.859 152.474 175.346 152.336 175.806 152.108C175.97 152.15 176.134 152.198 176.298 152.254C176.764 152.413 177.346 152.341 177.691 151.917C177.854 151.717 178.042 151.611 178.245 151.538C178.247 151.538 178.248 151.538 178.25 151.538C179.431 151.478 180.581 151.23 181.738 151.024C182.395 151.046 183.053 151.114 183.712 151.186C184.458 151.616 185.239 151.846 186.11 151.554C187.121 151.216 188.162 151.126 189.226 151.12C191.587 151.107 193.974 151.45 196.296 151.267C200.718 150.922 205.131 150.872 209.554 150.889C212.003 150.899 214.434 151.188 216.861 151.457C218.316 151.618 218.738 152.308 218.116 153.551C217.5 154.783 216.85 156 215.914 157.075Z" fill="currentColor"/>
    <path d="M219.784 120.225C219.801 120.214 219.794 120.163 219.798 120.13C219.761 120.129 219.715 120.116 219.689 120.132C219.671 120.143 219.678 120.194 219.673 120.229C219.711 120.229 219.757 120.241 219.784 120.225Z" fill="currentColor"/>
    <path d="M173.919 80.207L173.867 80.2555L173.938 80.2737L173.919 80.207Z" fill="currentColor"/>
    <path d="M180.663 151.973C180.363 152.072 180.11 152.24 179.892 152.458C180.149 152.296 180.405 152.134 180.663 151.973Z" fill="currentColor"/>
    <path d="M153.753 186.29C153.844 186.279 153.935 186.268 154.025 186.257C153.679 186.186 153.333 186.114 152.987 186.041C153.243 186.125 153.498 186.208 153.753 186.29Z" fill="currentColor"/>
    <path d="M224.165 98.3499C224.15 98.3243 224.133 98.3 224.118 98.2745C224.089 98.2562 224.058 98.238 224.029 98.2197C224.048 98.2477 224.064 98.2805 224.088 98.3036C224.109 98.3243 224.14 98.3353 224.165 98.3499Z" fill="currentColor"/>
    <path d="M163.663 165.037L163.711 164.976L163.633 164.966L163.663 165.037Z" fill="currentColor"/>
    <path d="M169.361 136.104L169.292 136.134L169.352 136.175L169.361 136.104Z" fill="currentColor"/>
    <path d="M167.662 138.26C167.686 138.276 167.731 138.263 167.767 138.262C167.708 138.22 167.65 138.179 167.592 138.138C167.519 138.128 167.5 138.095 167.497 138.072C167.494 138.082 167.489 138.097 167.481 138.116C167.473 138.139 167.593 138.217 167.662 138.26Z" fill="currentColor"/>
    <path d="M167.496 138.072C167.507 138.035 167.494 138.048 167.496 138.072V138.072Z" fill="currentColor"/>
    <path d="M175.92 121.171C175.934 121.144 175.967 121.109 175.96 121.084C175.954 121.058 175.904 121.024 175.878 121.026C175.774 121.037 175.747 121.095 175.812 121.169C175.827 121.186 175.88 121.171 175.92 121.171Z" fill="currentColor"/>
    <path d="M206.455 78.0314L206.382 77.9961L206.386 78.0715L206.455 78.0314Z" fill="currentColor"/>
    <path d="M92.4758 113.533C92.4872 113.538 92.524 113.493 92.5493 113.472C92.524 113.447 92.4986 113.421 92.4732 113.396C92.3718 113.433 92.3705 113.483 92.4758 113.533Z" fill="currentColor"/>
    <path d="M229.175 32.8819C229.152 32.9121 229.132 32.9413 229.111 32.9705C228.2 33.2727 227.271 33.5472 226.526 34.1034C226.481 34.1316 226.439 34.1632 226.402 34.1994C225.794 35.2102 225.941 36.0258 226.54 36.708C226.825 37.032 227.2 37.3048 227.974 37.2576C228.363 37.2337 228.548 37.3834 228.617 37.6061C228.723 37.9468 228.845 38.2821 228.968 38.6162C229.34 39.6206 229.687 40.641 230.57 41.4214C231.35 42.1099 232.004 42.8435 232.198 43.7951C232.222 43.9151 232.334 44.0082 232.41 44.1117C233.139 45.1029 233.584 46.2127 234.111 47.2884C234.244 47.3818 234.424 47.454 234.502 47.5723C234.897 48.1748 235.713 48.5771 235.792 49.3335C235.814 49.5425 235.998 49.7118 236.155 49.8748C236.735 50.4791 237.166 51.1495 237.474 51.8754C237.62 52.22 237.823 52.5393 238.03 52.8591C238.25 53.1974 238.658 53.44 238.819 53.7957C239.197 54.6277 239.7 55.4021 240.293 56.1375C240.502 56.555 240.711 56.9729 240.921 57.39C241.107 57.429 241.314 57.4325 241.552 57.3821C242.367 57.1168 242.774 56.8256 242.927 56.3592C242.991 56.1645 242.971 55.979 242.977 55.7923C243.011 54.7528 242.304 53.999 241.795 53.1742C241.114 52.069 240.319 51.0137 239.572 49.9375C239.471 49.8266 239.338 49.7291 239.276 49.6028C238.746 48.5254 238.115 47.491 237.427 46.4823C236.667 45.3668 236.028 44.1993 235.321 43.061C235.214 42.8891 235.161 42.6917 235.261 42.4683C235.611 41.6904 235.28 41.1427 234.856 40.6129C234.451 40.1066 233.884 39.6752 233.56 39.1392C233.028 38.2575 232.413 37.4123 231.925 36.5094C231.234 35.2303 230.49 33.9698 229.446 32.8484C229.366 32.8357 229.276 32.8467 229.175 32.8819Z" fill="currentColor"/>
    <path d="M208.625 57.1473C208.633 57.1834 208.641 57.2169 208.65 57.2505C208.243 58.0434 207.803 58.8277 207.713 59.6946C207.704 59.7431 207.699 59.7923 207.701 59.8418C208.066 60.9426 208.811 61.4263 209.772 61.5273C210.228 61.5755 210.708 61.5299 211.218 61.005C211.474 60.7407 211.723 60.729 211.947 60.8424C212.29 61.0161 212.64 61.1759 212.99 61.3339C214.043 61.8077 215.091 62.3087 216.33 62.2987C217.422 62.2901 218.462 62.3929 219.348 62.9425C219.459 63.012 219.611 63.0069 219.747 63.0317C221.042 63.2691 222.23 63.7713 223.448 64.1968C223.616 64.1786 223.8 64.1153 223.948 64.1493C224.701 64.324 225.595 64.0895 226.245 64.5747C226.425 64.7086 226.689 64.7108 226.928 64.7265C227.814 64.7848 228.646 64.9852 229.435 65.3025C229.809 65.4533 230.204 65.5505 230.602 65.645C231.023 65.7447 231.503 65.6567 231.896 65.8056C232.818 66.1535 233.783 66.3816 234.781 66.5249C235.257 66.6872 235.734 66.8497 236.21 67.0112C236.373 66.9204 236.522 66.7914 236.65 66.6047C237.017 65.8992 237.076 65.4346 236.818 65.0074C236.71 64.8288 236.55 64.7103 236.407 64.5747C235.613 63.8182 234.52 63.7347 233.512 63.4745C232.161 63.1261 230.768 62.8854 229.394 62.599C229.235 62.5847 229.064 62.6006 228.921 62.5503C227.699 62.1255 226.439 61.7953 225.159 61.519C223.744 61.2133 222.374 60.794 220.979 60.4383C220.768 60.385 220.575 60.2793 220.47 60.0576C220.105 59.2854 219.441 59.1082 218.724 59.0034C218.039 58.9028 217.299 58.9581 216.648 58.7847C215.578 58.4997 214.478 58.293 213.423 57.9643C211.929 57.4991 210.411 57.0807 208.79 56.9517C208.724 56.9935 208.669 57.0584 208.625 57.1473Z" fill="currentColor"/>
    <path d="M215.706 46.1628C215.711 46.1991 215.718 46.233 215.725 46.2669C215.282 47.0438 214.805 47.8108 214.676 48.6736C214.664 48.7217 214.657 48.7707 214.656 48.8203C214.971 49.9337 215.693 50.445 216.648 50.582C217.102 50.6472 217.583 50.6197 218.117 50.1144C218.385 49.86 218.634 49.8576 218.853 49.9793C219.187 50.1657 219.529 50.3385 219.872 50.5094C220.902 51.0224 221.925 51.5623 223.164 51.5988C224.256 51.6311 225.29 51.7729 226.15 52.3553C226.258 52.4288 226.41 52.4295 226.544 52.4593C227.827 52.7451 228.99 53.2914 230.188 53.7623C230.356 53.7504 230.543 53.694 230.69 53.7335C231.434 53.9364 232.338 53.7357 232.965 54.2448C233.139 54.3854 233.403 54.3974 233.641 54.4221C234.523 54.5136 235.345 54.745 236.118 55.0917C236.485 55.2564 236.875 55.3683 237.268 55.4776C237.685 55.593 238.168 55.5231 238.554 55.6867C239.459 56.0689 240.413 56.3329 241.403 56.5135C241.871 56.6936 242.34 56.8739 242.808 57.0531C242.975 56.9684 243.13 56.8452 243.267 56.6634C243.667 55.9724 243.747 55.5103 243.508 55.0738C243.409 54.8914 243.255 54.767 243.118 54.6261C242.36 53.8405 241.272 53.716 240.277 53.4183C238.943 53.0194 237.563 52.7267 236.203 52.389C236.045 52.3687 235.873 52.3782 235.733 52.3226C234.531 51.8523 233.288 51.4752 232.022 51.1511C230.623 50.7925 229.273 50.3222 227.895 49.9144C227.687 49.8532 227.499 49.7404 227.405 49.515C227.076 48.7298 226.42 48.5278 225.709 48.3962C225.029 48.27 224.287 48.2974 223.646 48.0998C222.59 47.7749 221.5 47.5272 220.462 47.1592C218.99 46.6382 217.493 46.1633 215.879 45.9736C215.811 46.0128 215.753 46.0756 215.706 46.1628Z" fill="currentColor"/>
    <path d="M228.542 33.6588C228.548 33.6952 228.555 33.7291 228.562 33.763C228.119 34.5399 227.642 35.3069 227.512 36.1697C227.501 36.2178 227.493 36.2668 227.493 36.3164C227.807 37.4298 228.529 37.9411 229.484 38.0781C229.938 38.1433 230.42 38.1158 230.953 37.6105C231.222 37.3561 231.47 37.3536 231.689 37.4754C232.024 37.6618 232.366 37.8346 232.708 38.0055C233.738 38.5185 234.762 39.0583 236 39.0949C237.093 39.1272 238.127 39.269 238.986 39.8514C239.094 39.9249 239.246 39.9256 239.38 39.9554C240.664 40.2412 241.827 40.7875 243.025 41.2584C243.193 41.2465 243.38 41.1901 243.526 41.2296C244.271 41.4325 245.175 41.2318 245.802 41.7409C245.975 41.8815 246.239 41.8935 246.477 41.9182C247.359 42.0097 248.181 42.2411 248.955 42.5877C249.322 42.7525 249.711 42.8643 250.104 42.9737C250.521 43.0891 251.004 43.0192 251.391 43.1827C252.296 43.5649 253.249 43.829 254.239 44.0096C254.707 44.1897 255.176 44.3699 255.645 44.5492C255.811 44.4645 255.966 44.3413 256.103 44.1595C256.503 43.4685 256.583 43.0064 256.345 42.5699C256.245 42.3875 256.091 42.2631 255.955 42.1222C255.197 41.3366 254.108 41.2121 253.113 40.9144C251.779 40.5155 250.399 40.2228 249.039 39.8851C248.881 39.8648 248.71 39.8743 248.569 39.8187C247.368 39.3484 246.124 38.9713 244.858 38.6472C243.459 38.2886 242.109 37.8183 240.732 37.4105C240.523 37.3493 240.335 37.2365 240.241 37.0111C239.912 36.2259 239.257 36.0239 238.545 35.8923C237.866 35.7661 237.124 35.7935 236.482 35.5959C235.426 35.271 234.337 35.0233 233.298 34.6553C231.826 34.1343 230.329 33.6594 228.716 33.4697C228.647 33.5089 228.59 33.5717 228.542 33.6588Z" fill="currentColor"/>
    <path d="M218.049 45.5243C218.035 45.559 218.024 45.5919 218.013 45.6248C217.22 46.1287 216.402 46.6098 215.842 47.3205C215.807 47.3581 215.775 47.3985 215.749 47.4422C215.454 48.5599 215.83 49.3136 216.606 49.833C216.974 50.0797 217.415 50.2559 218.148 50.0304C218.518 49.9168 218.739 50.0183 218.87 50.2173C219.071 50.5218 219.285 50.8174 219.5 51.1115C220.148 51.9951 220.777 52.9 221.856 53.4482C222.807 53.9318 223.65 54.4882 224.111 55.3622C224.169 55.4725 224.304 55.5365 224.407 55.6187C225.397 56.4065 226.146 57.3751 226.965 58.2914C227.12 58.3508 227.314 58.3787 227.424 58.4748C227.979 58.9648 228.884 59.1634 229.177 59.8758C229.258 60.0726 229.486 60.1931 229.684 60.3141C230.419 60.7628 231.028 61.3101 231.535 61.9396C231.775 62.2384 232.062 62.4998 232.354 62.7605C232.664 63.0362 233.128 63.1756 233.386 63.4815C233.991 64.1972 234.7 64.8282 235.484 65.4007C235.806 65.7553 236.129 66.1103 236.452 66.4644C236.643 66.4587 236.843 66.4139 237.059 66.31C237.769 65.8642 238.078 65.4882 238.092 65.0021C238.098 64.799 238.026 64.6245 237.977 64.4428C237.711 63.4309 236.811 62.8673 236.082 62.1888C235.106 61.2798 234.034 60.4456 233.003 59.5798C232.873 59.4961 232.716 59.4329 232.621 59.3252C231.798 58.408 230.89 57.5557 229.936 56.7413C228.881 55.8406 227.927 54.8616 226.917 53.9265C226.764 53.7854 226.655 53.6072 226.688 53.3681C226.802 52.5354 226.325 52.0833 225.762 51.6703C225.225 51.2754 224.553 50.9907 224.086 50.5482C223.318 49.8205 222.481 49.1472 221.75 48.3884C220.714 47.3136 219.633 46.2693 218.301 45.4291C218.22 45.4354 218.136 45.4669 218.049 45.5243Z" fill="currentColor"/>
    <path d="M237.022 21.9755C237.009 22.0101 236.997 22.043 236.986 22.076C236.193 22.5799 235.375 23.061 234.815 23.7716C234.78 23.8093 234.748 23.8497 234.722 23.8934C234.427 25.011 234.803 25.7648 235.579 26.2841C235.947 26.5309 236.388 26.7071 237.122 26.4816C237.491 26.368 237.712 26.4695 237.844 26.6685C238.044 26.973 238.258 27.2686 238.473 27.5626C239.121 28.4463 239.75 29.3511 240.829 29.8994C241.78 30.383 242.623 30.9394 243.085 31.8134C243.143 31.9237 243.277 31.9877 243.38 32.0699C244.37 32.8577 245.119 33.8263 245.938 34.7426C246.093 34.8019 246.288 34.8299 246.397 34.926C246.953 35.4159 247.857 35.6146 248.15 36.327C248.232 36.5238 248.459 36.6443 248.657 36.7653C249.392 37.2139 250.001 37.7613 250.508 38.3908C250.748 38.6896 251.035 38.951 251.327 39.2117C251.637 39.4874 252.101 39.6267 252.359 39.9327C252.964 40.6483 253.673 41.2794 254.457 41.8519C254.779 42.2065 255.102 42.5615 255.425 42.9155C255.616 42.9099 255.816 42.8651 256.032 42.7612C256.742 42.3154 257.052 41.9393 257.065 41.4532C257.071 41.2502 256.999 41.0756 256.951 40.894C256.684 39.8821 255.784 39.3185 255.055 38.64C254.079 37.731 253.007 36.8967 251.976 36.0309C251.846 35.9473 251.689 35.8841 251.594 35.7764C250.771 34.8591 249.864 34.0068 248.909 33.1925C247.854 32.2918 246.9 31.3128 245.89 30.3777C245.737 30.2366 245.628 30.0584 245.661 29.8193C245.775 28.9866 245.298 28.5344 244.735 28.1215C244.198 27.7266 243.526 27.4419 243.06 26.9993C242.291 26.2716 241.454 25.5984 240.723 24.8396C239.687 23.7648 238.606 22.7204 237.274 21.8803C237.193 21.8866 237.109 21.9181 237.022 21.9755Z" fill="currentColor"/>
    <path d="M184.57 23.3579C184.565 23.3943 184.562 23.4287 184.559 23.463C183.905 24.1091 183.223 24.7377 182.847 25.5402C182.822 25.5839 182.8 25.6294 182.786 25.6772C182.766 26.8258 183.314 27.4887 184.197 27.8451C184.616 28.0145 185.088 28.1009 185.75 27.7383C186.083 27.5557 186.324 27.6117 186.5 27.7806C186.769 28.039 187.049 28.286 187.33 28.5314C188.175 29.2682 189.006 30.0296 190.191 30.3554C191.236 30.6429 192.193 31.0224 192.854 31.7861C192.937 31.8825 193.084 31.9189 193.204 31.9791C194.36 32.5561 195.324 33.3563 196.344 34.092C196.51 34.1199 196.706 34.1093 196.836 34.1819C197.496 34.5524 198.427 34.5707 198.885 35.2094C199.011 35.3857 199.263 35.4592 199.485 35.5388C200.31 35.8342 201.036 36.2504 201.683 36.7666C201.989 37.0117 202.332 37.211 202.68 37.4089C203.049 37.618 203.535 37.6639 203.861 37.9124C204.624 38.4937 205.467 38.9723 206.371 39.379C206.771 39.6626 207.171 39.9466 207.571 40.2296C207.756 40.1869 207.942 40.1042 208.127 39.961C208.713 39.3877 208.925 38.9605 208.822 38.4831C208.779 38.2837 208.666 38.1274 208.575 37.9594C208.071 37.0232 207.057 36.6477 206.183 36.1268C205.011 35.4288 203.764 34.8225 202.549 34.1773C202.402 34.1208 202.234 34.0896 202.115 34.003C201.091 33.2671 200 32.6112 198.872 32.0014C197.626 31.3269 196.459 30.5563 195.248 29.8395C195.064 29.7315 194.916 29.5785 194.89 29.3387C194.801 28.5036 194.227 28.1548 193.578 27.8608C192.959 27.5796 192.234 27.432 191.672 27.0906C190.747 26.5293 189.768 26.0345 188.872 25.4356C187.602 24.5873 186.295 23.7777 184.793 23.216C184.715 23.2379 184.641 23.2849 184.57 23.3579Z" fill="currentColor"/>
    <path d="M178.794 53.4095C178.819 53.4384 178.844 53.4647 178.869 53.491C178.915 54.3631 178.927 55.2416 179.292 56.0478C179.309 56.0948 179.33 56.1405 179.357 56.1837C180.246 57.0086 181.155 57.1287 182.06 56.8199C182.489 56.6733 182.892 56.4338 183.074 55.7568C183.166 55.416 183.381 55.3025 183.638 55.3101C184.031 55.3221 184.423 55.3188 184.815 55.3138C185.992 55.2975 187.179 55.3073 188.273 54.7845C189.238 54.3236 190.214 53.9836 191.282 54.1039C191.416 54.1193 191.549 54.0517 191.681 54.0175C192.952 53.6909 194.264 53.644 195.563 53.516C195.702 53.4305 195.833 53.298 195.982 53.2666C196.74 53.1091 197.413 52.5304 198.239 52.6912C198.467 52.7353 198.703 52.6277 198.923 52.5426C199.738 52.227 200.579 52.0597 201.442 52.014C201.852 51.9925 202.252 51.9152 202.653 51.834C203.078 51.7476 203.458 51.4707 203.884 51.4394C204.881 51.3657 205.854 51.168 206.812 50.8813C207.318 50.8278 207.825 50.7743 208.33 50.7199C208.428 50.572 208.494 50.3958 208.512 50.1768C208.476 49.3986 208.289 48.962 207.841 48.6901C207.653 48.5765 207.451 48.5377 207.254 48.4765C206.162 48.1346 205.149 48.5139 204.121 48.7013C202.743 48.9525 201.384 49.3166 200.018 49.6326C199.87 49.6856 199.726 49.7706 199.574 49.7852C198.271 49.9154 196.984 50.1451 195.707 50.4307C194.294 50.7463 192.863 50.9426 191.443 51.2057C191.228 51.2459 191.003 51.2322 190.796 51.079C190.076 50.5452 189.396 50.6636 188.706 50.868C188.047 51.0627 187.418 51.4187 186.752 51.5347C185.657 51.7257 184.575 51.9985 183.47 52.1444C181.905 52.3516 180.344 52.6099 178.84 53.1676C178.802 53.2323 178.787 53.3126 178.794 53.4095Z" fill="currentColor"/>
    <path d="M179.437 40.7275C179.461 40.7573 179.485 40.7845 179.508 40.8117C179.514 41.6848 179.485 42.563 179.813 43.3822C179.827 43.4298 179.846 43.4763 179.871 43.5205C180.721 44.378 181.624 44.5321 182.542 44.2575C182.978 44.1272 183.391 43.903 183.605 43.2334C183.712 42.8964 183.932 42.791 184.189 42.8083C184.581 42.835 184.973 42.8464 185.365 42.8561C186.542 42.884 187.727 42.9383 188.845 42.4571C189.83 42.0327 190.82 41.7297 191.882 41.8899C192.016 41.9103 192.151 41.8477 192.285 41.8186C193.57 41.54 194.883 41.5423 196.187 41.4632C196.33 41.383 196.467 41.2555 196.617 41.2297C197.382 41.1008 198.081 40.5478 198.899 40.7395C199.125 40.7922 199.365 40.6935 199.589 40.6167C200.418 40.332 201.266 40.1964 202.131 40.183C202.541 40.177 202.944 40.1147 203.349 40.0487C203.777 39.9783 204.17 39.7159 204.597 39.7006C205.596 39.6644 206.577 39.5033 207.549 39.2529C208.056 39.2184 208.565 39.1839 209.073 39.1486C209.177 39.0044 209.251 38.8309 209.279 38.6128C209.279 37.8338 209.113 37.3906 208.678 37.1021C208.496 36.9815 208.295 36.9352 208.102 36.8667C207.026 36.4841 205.997 36.825 204.961 36.9737C203.573 37.173 202.198 37.4857 200.818 37.7502C200.668 37.7976 200.52 37.8772 200.367 37.8861C199.06 37.9672 197.763 38.1485 196.474 38.3859C195.048 38.6482 193.609 38.7907 192.178 39.0002C191.961 39.0324 191.737 39.0102 191.537 38.8494C190.843 38.289 190.157 38.3817 189.459 38.5601C188.791 38.7299 188.147 39.062 187.476 39.1529C186.372 39.3027 185.279 39.5346 184.168 39.6389C182.595 39.7872 181.023 39.9867 179.494 40.4875C179.454 40.5507 179.435 40.6304 179.437 40.7275Z" fill="currentColor"/>
    <path d="M184.407 24.3094C184.431 24.3392 184.454 24.3664 184.478 24.3936C184.484 25.2666 184.454 26.1448 184.782 26.9639C184.797 27.0116 184.815 27.058 184.84 27.1022C185.691 27.9597 186.594 28.1138 187.512 27.8392C187.947 27.7089 188.361 27.4847 188.575 26.8152C188.682 26.4781 188.902 26.3728 189.158 26.39C189.551 26.4168 189.943 26.4282 190.334 26.4378C191.512 26.4657 192.697 26.5201 193.814 26.0389C194.8 25.6146 195.79 25.3115 196.852 25.4717C196.985 25.4921 197.121 25.4296 197.255 25.4004C198.54 25.1219 199.852 25.1241 201.157 25.045C201.3 24.9648 201.437 24.8373 201.587 24.8116C202.352 24.6827 203.051 24.1298 203.868 24.3214C204.095 24.3741 204.335 24.2754 204.558 24.1986C205.388 23.9139 206.236 23.7783 207.1 23.765C207.511 23.7589 207.914 23.6967 208.318 23.6306C208.747 23.5603 209.14 23.2979 209.567 23.2826C210.566 23.2463 211.547 23.0853 212.518 22.8349C213.026 22.8004 213.535 22.7659 214.043 22.7306C214.147 22.5864 214.221 22.4129 214.249 22.1948C214.249 21.4159 214.083 20.9727 213.648 20.6843C213.466 20.5636 213.265 20.5173 213.072 20.4488C211.996 20.0663 210.967 20.4072 209.931 20.5558C208.543 20.7551 207.168 21.0678 205.788 21.3323C205.638 21.3797 205.49 21.4593 205.337 21.4682C204.03 21.5493 202.733 21.7305 201.443 21.968C200.018 22.2302 198.579 22.3727 197.148 22.5822C196.931 22.6144 196.707 22.5922 196.507 22.4314C195.812 21.871 195.127 21.9638 194.428 22.1421C193.761 22.3119 193.116 22.644 192.446 22.7349C191.342 22.8846 190.248 23.1166 189.138 23.2209C187.565 23.3691 185.993 23.5686 184.464 24.0695C184.424 24.1326 184.405 24.2123 184.407 24.3094Z" fill="currentColor"/>
    <path d="M181.188 39.1893C181.194 39.2256 181.201 39.2595 181.208 39.2934C180.763 40.0695 180.284 40.8355 180.153 41.698C180.141 41.7461 180.133 41.7951 180.133 41.8447C180.444 42.9588 181.165 43.4715 182.12 43.6105C182.573 43.6766 183.055 43.65 183.59 43.1458C183.859 42.892 184.108 42.8901 184.326 43.0122C184.66 43.1993 185.002 43.3728 185.344 43.5444C186.372 44.0595 187.395 44.6015 188.633 44.6405C189.725 44.6751 190.759 44.819 191.617 45.4031C191.725 45.4769 191.877 45.4778 192.011 45.5079C193.293 45.7964 194.455 46.345 195.652 46.8184C195.82 46.8068 196.007 46.7508 196.154 46.7906C196.898 46.995 197.802 46.7961 198.428 47.3065C198.601 47.4474 198.865 47.46 199.103 47.4851C199.985 47.5785 200.806 47.8116 201.579 48.1598C201.945 48.3253 202.335 48.4379 202.727 48.5481C203.144 48.6643 203.627 48.5954 204.013 48.7597C204.917 49.1438 205.87 49.4098 206.859 49.5924C207.327 49.7734 207.796 49.9547 208.264 50.1348C208.43 50.0505 208.586 49.9276 208.723 49.7461C209.125 49.0559 209.206 48.594 208.969 48.157C208.87 47.9743 208.716 47.8496 208.58 47.7084C207.824 46.9213 206.736 46.7946 205.741 46.4949C204.409 46.0933 203.029 45.7978 201.67 45.4573C201.512 45.4367 201.341 45.4458 201.2 45.3899C200 44.9172 198.757 44.5375 197.492 44.2109C196.094 43.8494 194.745 43.3763 193.369 42.9658C193.161 42.9041 192.973 42.7909 192.879 42.5653C192.552 41.7794 191.897 41.5761 191.186 41.4431C190.507 41.3155 189.765 41.3414 189.124 41.1424C188.068 40.8155 186.98 40.5655 185.942 40.1954C184.471 39.6714 182.976 39.1934 181.363 39.0004C181.294 39.0395 181.236 39.1022 181.188 39.1893Z" fill="currentColor"/>
    <path d="M185.934 10.4275C185.939 10.4639 185.946 10.4978 185.953 10.5317C185.508 11.3077 185.029 12.0738 184.898 12.9363C184.886 12.9844 184.878 13.0334 184.878 13.0829C185.189 14.197 185.91 14.7098 186.865 14.8487C187.318 14.9149 187.8 14.8883 188.335 14.3841C188.604 14.1302 188.853 14.1283 189.071 14.2505C189.405 14.4376 189.747 14.6111 190.089 14.7827C191.117 15.2978 192.14 15.8397 193.378 15.8788C194.47 15.9133 195.504 16.0573 196.362 16.6414C196.47 16.7151 196.622 16.7161 196.756 16.7462C198.039 17.0346 199.2 17.5833 200.397 18.0566C200.565 18.0451 200.752 17.9891 200.899 18.0289C201.643 18.2333 202.547 18.0344 203.173 18.5448C203.346 18.6857 203.61 18.6983 203.848 18.7234C204.73 18.8168 205.551 19.0498 206.324 19.3981C206.69 19.5635 207.08 19.6762 207.472 19.7864C207.889 19.9026 208.372 19.8337 208.758 19.998C209.662 20.3821 210.615 20.6481 211.605 20.8307C212.072 21.0117 212.541 21.1929 213.009 21.3731C213.175 21.2888 213.331 21.1659 213.468 20.9844C213.87 20.2942 213.951 19.8323 213.714 19.3953C213.615 19.2126 213.461 19.0879 213.325 18.9467C212.569 18.1596 211.481 18.0329 210.486 17.7331C209.154 17.3316 207.774 17.0361 206.415 16.6956C206.257 16.675 206.086 16.6841 205.945 16.6282C204.745 16.1554 203.502 15.7758 202.237 15.4491C200.839 15.0877 199.49 14.6146 198.114 14.2041C197.906 14.1424 197.718 14.0292 197.624 13.8036C197.298 13.0177 196.642 12.8144 195.931 12.6813C195.252 12.5537 194.51 12.5797 193.869 12.3807C192.813 12.0537 191.725 11.8037 190.687 11.4336C189.216 10.9097 187.721 10.4317 186.108 10.2387C186.039 10.2778 185.981 10.3405 185.934 10.4275Z" fill="currentColor"/>
</svg>