<svg width="271" height="269" viewBox="0 0 271 269" fill="none" xmlns="http://www.w3.org/2000/svg">
    <g opacity="0.96">
        <path d="M102.747 70.8294L102.25 68.8923L102.747 70.8294C109.858 69.0021 117.427 70.9582 122.602 75.9214L122.602 75.9215L171.608 122.915C176.774 127.87 178.768 135.058 176.89 141.78L158.953 205.977C157.073 212.707 151.575 218.013 144.469 219.839L77.5325 237.042C70.4218 238.869 62.8534 236.913 57.6784 231.95L8.67556 184.953C3.50966 179.998 1.51538 172.81 3.39342 166.088L1.46797 165.55L3.39343 166.088L21.3272 101.891C21.3272 101.891 21.3272 101.891 21.3272 101.891C23.2074 95.161 28.7048 89.8551 35.8108 88.0291C35.8108 88.0291 35.8109 88.0291 35.8109 88.0291L102.747 70.8294Z" fill="#333333"/>
        <path d="M102.747 70.8294L102.25 68.8923L102.747 70.8294C109.858 69.0021 117.427 70.9582 122.602 75.9214L122.602 75.9215L171.608 122.915C176.774 127.87 178.768 135.058 176.89 141.78L158.953 205.977C157.073 212.707 151.575 218.013 144.469 219.839L77.5325 237.042C70.4218 238.869 62.8534 236.913 57.6784 231.95L8.67556 184.953C3.50966 179.998 1.51538 172.81 3.39342 166.088L1.46797 165.55L3.39343 166.088L21.3272 101.891C21.3272 101.891 21.3272 101.891 21.3272 101.891C23.2074 95.161 28.7048 89.8551 35.8108 88.0291C35.8108 88.0291 35.8109 88.0291 35.8109 88.0291L102.747 70.8294Z" fill="#21C0FB"/>
        <path d="M102.747 70.8294L102.25 68.8923L102.747 70.8294C109.858 69.0021 117.427 70.9582 122.602 75.9214L122.602 75.9215L171.608 122.915C176.774 127.87 178.768 135.058 176.89 141.78L158.953 205.977C157.073 212.707 151.575 218.013 144.469 219.839L77.5325 237.042C70.4218 238.869 62.8534 236.913 57.6784 231.95L8.67556 184.953C3.50966 179.998 1.51538 172.81 3.39342 166.088L1.46797 165.55L3.39343 166.088L21.3272 101.891C21.3272 101.891 21.3272 101.891 21.3272 101.891C23.2074 95.161 28.7048 89.8551 35.8108 88.0291C35.8108 88.0291 35.8109 88.0291 35.8109 88.0291L102.747 70.8294Z" stroke="#21C0FB" stroke-width="4"/>
    </g>
    <path d="M177.759 31.6586L177.731 31.7202L177.798 31.7116L177.759 31.6586Z" fill="currentColor"/>
    <path d="M216.404 62.4248L216.411 62.4872L216.465 62.4479L216.404 62.4248Z" fill="currentColor"/>
    <path d="M135.186 56.6122C135.231 55.107 135.004 53.6343 134.73 52.1602C134.163 49.1043 133.275 46.127 132.554 43.1089C131.97 40.663 131.709 38.1096 130.475 35.8373C130.259 35.4389 130.146 34.975 130.042 34.5285C129.264 31.1752 128.159 27.8939 127.827 24.4403C127.693 23.0453 126.427 22.513 125.508 21.7344C125.274 21.5366 124.897 21.6613 124.591 21.7477C124.133 21.8781 123.674 22.0118 123.195 21.9843C122.328 21.9354 121.63 22.3067 121.123 22.9308C120.379 23.8475 119.485 24.6055 118.631 25.4108C118.093 25.9199 117.642 26.5177 117.158 27.0807C116.951 27.3214 116.793 27.5873 116.769 28.0423C116.774 28.7286 117.005 29.5056 117.229 30.277C117.576 31.4763 117.763 32.7757 119.036 33.4826C119.163 33.5531 119.264 33.7005 119.329 33.8352C119.953 35.1134 120.903 36.211 121.471 37.5191C122.234 39.2764 123.234 40.9334 123.743 42.7992C123.842 43.1598 124.083 43.4857 124.277 43.8159C125.778 46.3673 127.251 48.9314 128.251 51.7254C128.396 52.1295 128.595 52.5047 128.909 52.7994C130.279 54.0905 131.188 55.7074 132.211 57.2416C133.063 58.5174 134.104 59.6749 134.68 61.1263C134.85 61.5571 134.95 62.3913 135.47 62.2272C136.172 62.0057 135.774 61.2333 135.661 60.7157C135.365 59.3634 135.144 58.0058 135.186 56.6122Z" fill="currentColor"/>
    <path d="M220.01 34.0157L220.013 34.0161C219.771 33.4939 219.655 32.9442 219.581 32.3743C219.497 31.7156 219.248 31.1272 218.587 30.8037C218.52 30.7808 218.454 30.7591 218.386 30.7374C218.156 29.9682 217.88 29.2316 217.024 28.9078C216.999 28.9079 216.974 28.9069 216.949 28.9071C216.877 28.8509 216.804 28.798 216.727 28.7469C216.271 27.9805 215.651 27.3369 215.525 26.3577C215.382 25.2326 215.327 24.0481 214.654 23.044C214.031 22.1154 213.473 21.1499 212.084 21.1601C210.863 21.1693 210.581 22.1341 210.144 22.8879C209.011 24.8399 208.166 26.9408 206.563 28.6352C205.879 29.3575 205.215 30.1081 204.541 30.8433C202.964 32.5635 201.723 34.5313 200.225 36.3157C199.344 37.3664 198.501 38.4748 197.724 39.6221C196.935 40.7866 196.059 41.9641 194.801 42.7163C193.844 43.288 192.922 43.7954 192.829 45.0408C192.806 45.3458 192.567 45.594 192.268 45.7502C190.997 46.4155 190.293 47.4874 189.835 48.7858C189.551 49.5928 189.068 50.399 188.307 50.7983C187.615 51.1613 187.261 51.6872 186.896 52.2709C186.828 52.3751 186.76 52.4781 186.692 52.5823C186.063 53.3504 186.073 54.5755 184.894 54.9509C184.239 56.1577 183.62 57.3867 182.924 58.5694C182.131 59.6017 181.409 60.6829 180.646 61.7353C180.537 61.8538 180.426 61.9721 180.313 62.0877C180.02 62.3848 179.795 62.7422 179.597 63.1115C179.392 63.3642 179.182 63.6128 178.963 63.8555C178.658 64.1953 178.509 64.5979 178.711 65.0261C178.969 65.5725 178.912 66.0503 178.508 66.5147C178.324 66.727 178.201 66.9918 178.464 67.2274C178.671 67.4136 178.923 67.3189 179.126 67.2081C180.035 66.7106 181.043 66.5084 182.028 66.2404C183.833 65.3055 185.6 64.328 187.1 62.9278C187.682 62.3845 188.361 61.8844 189.164 61.6295C190.384 61.0251 191.5 60.2786 192.446 59.3053C192.547 59.2324 192.647 59.1593 192.748 59.0864C194.936 58.1964 196.586 56.6201 198.196 54.9978C198.325 54.8679 198.372 54.6607 198.457 54.4888L198.463 54.486C199.414 54.2578 200.217 53.8419 200.603 52.8909C201.61 52.271 202.668 51.7117 203.328 50.6852C203.772 50.4373 204.215 50.1906 204.659 49.9427C204.561 49.9227 204.465 49.9018 204.368 49.8818L204.367 49.8817C205.259 49.0879 205.922 48.0665 206.953 47.4114C207.49 47.6577 207.859 47.4186 208.296 47.0846C209.898 45.8613 211.527 44.6708 213.094 43.3961C213.512 43.0363 213.842 42.5762 214.368 42.358C214.822 41.5945 215.779 41.4313 216.319 40.7715C216.626 40.4938 216.753 40.0861 217.05 39.8024C217.168 39.692 217.278 39.5748 217.384 39.4547C217.675 39.134 218.127 39.0238 218.414 38.699C218.552 38.4723 218.683 38.2424 218.785 38.004C219.117 37.9244 219.312 37.7765 219.03 37.3868C219.075 37.08 219.119 36.7744 219.163 36.4675C219.335 36.3738 219.436 36.2308 219.469 36.0426C219.571 35.8976 219.674 35.7538 219.777 35.6088C219.864 35.5446 219.952 35.4815 220.041 35.4175C220.61 34.9296 220.72 34.4589 220.01 34.0157Z" fill="currentColor"/>
    <path d="M184.732 37.4589C186.155 36.1053 187.239 34.4477 188.72 33.1588C190.051 32.0006 191.172 30.7116 191.995 29.1768C191.596 28.262 192.386 27.9577 192.93 27.595C193.612 27.1387 193.7 26.7097 193.128 26.1403C192.966 25.98 192.811 25.8101 192.651 25.6466C191.799 24.8079 190.813 24.116 189.944 23.2902C189.281 22.6621 188.454 22.1789 187.644 21.7226C186.317 20.9748 185.055 21.3096 184.194 22.5713C183.994 22.8653 183.791 23.1649 183.465 23.3128C182.623 23.6965 182.131 24.3738 181.735 25.1469C181.619 25.5536 181.555 25.9836 181.376 26.3633C180.338 28.5669 179.306 30.7761 178.205 32.9515C176.771 35.7871 174.986 38.4372 173.517 41.2599C171.675 44.7981 169.937 48.3816 168.186 51.9598C168.086 52.1647 168.064 52.4043 168.006 52.6274C169.052 52.4015 170.151 52.2899 171.065 51.7035C171.643 51.3326 172.397 51.182 172.762 50.5064C173.564 49.0248 174.638 47.7914 176.175 46.9754C176.633 46.7331 177.029 46.3951 177.221 45.9086C177.614 44.9114 178.818 44.9058 179.429 44.1159C180.503 42.7275 181.155 41.0463 182.631 39.9294C183.499 39.2705 184.175 38.3995 184.732 37.4589Z" fill="currentColor"/>
    <path d="M153.995 50.2562C154.07 49.9118 154.001 49.5084 153.937 49.1409C153.715 47.8486 153.742 46.5242 153.884 45.2524C154.312 41.4525 153.626 37.7259 153.371 33.9796C153.247 32.1653 152.838 30.4051 153.469 28.6084C153.541 28.4035 153.566 28.1328 153.444 27.9323C152.947 27.12 153.013 26.2602 153.263 25.4062C153.404 24.9236 153.194 24.5948 152.953 24.2444C152.7 24.0068 152.47 23.7523 152.28 23.4636C151.297 21.9687 150.405 21.7382 148.673 22.5082C147.105 23.2045 145.584 24.048 143.792 24.0581C143.724 24.1027 143.66 24.1501 143.594 24.1961C143.51 24.2012 143.41 24.2183 143.298 24.243C142.376 24.4481 141.661 25.1761 140.609 25.1144C140.097 25.0848 139.776 25.6822 139.907 26.2231C140.007 26.6328 140.008 27.0457 140.081 27.453C140.084 27.4673 140.087 27.4818 140.091 27.4963C140.051 27.5026 140.008 27.5341 139.961 27.5956L139.953 27.6049C140.181 28.1821 140.409 28.7581 140.638 29.3353C140.72 29.415 140.802 29.4948 140.884 29.5733C140.875 29.5698 140.867 29.5651 140.856 29.5614C141.211 30.2277 141.508 30.9178 141.768 31.6275C142.143 32.6509 142.604 33.6379 143.208 34.5554C143.249 35.0843 143.408 35.5742 143.699 36.0221C143.736 36.4911 143.9 36.907 144.232 37.252C144.223 37.9864 144.526 38.619 144.89 39.2306C145.016 39.3966 145.142 39.5625 145.268 39.7286C145.317 40.2516 145.407 40.7614 145.744 41.1921C145.924 41.6149 146.104 42.0376 146.285 42.4603C146.332 42.8012 146.448 43.1175 146.637 43.4072C146.77 44.8729 147.15 46.2655 147.9 47.5464C148.218 48.0655 148.498 48.6157 149.109 48.8824C149.166 48.975 149.222 49.0677 149.279 49.1591C149.769 49.7315 149.835 50.4899 150.164 51.133C150.808 52.3915 151.587 52.7424 152.927 52.4471C154.267 52.1509 153.819 51.0513 153.995 50.2562Z" fill="currentColor"/>
    <path d="M213.235 79.2833L213.284 79.2282L213.21 79.2148L213.235 79.2833Z" fill="currentColor"/>
    <path d="M249.271 173.365C249.32 173.431 249.371 173.498 249.423 173.564C249.373 173.498 249.322 173.432 249.271 173.365Z" fill="currentColor"/>
    <path d="M247.135 162.966C247.156 162.925 247.177 162.88 247.197 162.831C247.182 162.213 246.507 162.311 246.217 161.99C246.114 161.966 246.01 161.94 245.907 161.916C245.471 160.829 244.222 161.551 243.567 160.954C239.388 159.087 235.291 159.434 231.284 161.556C230.068 162.2 228.904 162.937 227.716 163.63L227.72 163.624C226.162 165.02 224.607 166.42 223.045 167.812C222.292 168.484 221.275 168.872 220.76 169.802C220.395 170.142 220.063 170.712 219.496 170.492C218.8 170.222 219.122 169.542 219.149 169.02C219.173 168.579 219.27 168.141 219.339 167.701C219.634 165.778 219.931 163.857 220.227 161.934C220.584 160.344 220.965 158.76 221.289 157.166C222.051 153.424 223.042 149.732 223.854 145.999C225.44 138.705 228.16 131.68 229.747 124.377C230.094 122.78 230.398 121.185 230.439 119.556C230.485 117.699 230.782 115.877 231.211 114.069C231.326 113.577 231.517 113.078 231.508 112.589C231.479 110.999 231.821 109.286 230.258 108.105C229.388 106.986 229.523 105.525 228.931 104.318C227.494 101.391 227.388 98.1485 226.616 95.0645C225.8 92.8153 224.641 90.8558 222.109 90.0549C222 90.0336 221.889 90.0104 221.78 89.9875C221.185 89.5544 220.469 89.7742 219.898 89.8939C218.88 90.1058 218.363 89.753 218.317 88.8808C218.203 86.6925 217.659 84.5849 217.27 82.4487C216.746 79.5678 216.56 76.5753 214.403 74.2246C213.402 73.1353 212.841 73.0726 211.616 74.0398C210.071 75.2589 208.618 76.4375 207.696 78.306C206.528 80.6745 204.373 82.483 203.021 84.8016C202.096 86.3889 201.095 87.9457 199.942 89.3991C199.714 89.687 199.55 90.237 199.055 90.0283C198.65 89.857 198.334 89.4493 198.439 88.9374C198.682 87.7358 198.447 86.5304 198.539 85.3225C198.73 82.8072 198.525 80.3295 197.446 77.9944C197.391 77.9616 197.339 77.9257 197.287 77.8865C197.301 77.7795 197.318 77.6728 197.333 77.5641C196.733 76.6642 195.814 76.3226 194.762 76.2169C194.451 76.5517 194.159 76.906 193.824 77.2154C190.095 80.6698 187.061 84.6895 184.698 89.0554C182.46 93.1894 179.25 96.7721 177.525 101.18C177.221 101.955 176.823 102.179 176.216 101.971C176.193 101.903 176.168 101.835 176.14 101.765C176.065 101.604 175.993 101.445 175.925 101.281C175.752 100.894 175.594 100.505 175.451 100.108C175.402 99.9486 175.332 99.798 175.239 99.6581C174.846 99.0511 174.596 98.3066 174.154 97.802C173.345 96.8794 173.12 95.095 171.173 95.541C170.997 95.5703 170.843 95.6435 170.711 95.7603C170.204 96.4315 169.11 96.453 168.833 97.3674C168.138 98.3455 167.213 99.247 166.735 100.29C166.012 101.865 165.207 103.354 164.146 104.731C163.179 105.984 162.249 107.26 161.811 108.799C161.636 109.413 161.146 109.906 160.615 110.124C159.772 110.472 159.446 111.174 158.975 111.795C158.298 112.483 158.163 113.357 157.841 114.207C156.94 116.586 155.505 118.783 153.934 120.841C152.595 122.593 151.552 124.493 151.065 126.564C150.622 128.447 149.904 130.218 149.129 131.951C146.267 138.347 143.653 144.853 140.207 150.999C139.909 151.53 139.421 151.829 138.954 151.803C138.374 151.77 138.244 151.137 138.289 150.649C138.452 148.881 137.932 147.187 137.81 145.452C137.809 145.434 137.804 145.417 137.804 145.398C138.36 144.912 138.16 144.166 137.696 143.629C136.079 141.757 136.08 139.73 136.678 137.548C136.746 137.164 136.886 136.757 136.82 136.395C136.243 133.231 135.448 130.122 135.234 126.876C135.073 124.402 134.336 121.979 134.195 119.459C133.948 115.048 133.041 110.719 132.075 106.413C131.623 104.399 131.008 102.422 130.476 100.425C129.976 98.5462 129.933 96.5325 128.8 94.8385C128.66 94.6174 128.417 94.6345 128.201 94.6109C126.753 94.4559 125.844 93.9524 125.348 92.3804C124.847 90.7977 124.56 89.0203 123.246 87.7363C122.835 87.3345 123.021 86.7313 122.901 86.2303C122.841 86.0693 122.772 85.9104 122.696 85.7589C121.331 84.2247 121.046 82.1533 120.004 80.4919C119.015 78.914 119.211 76.8215 117.602 75.5731C117.076 74.8889 116.665 74.0787 115.937 73.6111C114.806 72.4091 113.215 72.5211 111.455 74.0094C110.752 74.6036 110.527 74.5941 110.101 73.6406C108.696 70.4965 106.53 67.8195 104.606 64.9926C104.088 64.233 103.473 63.5931 102.556 63.2874L102.547 63.2846C102.483 63.2369 102.417 63.1958 102.349 63.1579C102.327 63.1447 102.304 63.1331 102.281 63.1199C102.279 63.1197 102.278 63.1178 102.276 63.1176C101.752 62.8352 101.161 62.7499 100.566 62.6743C100.096 62.6033 99.7445 62.6621 99.4648 62.8019C98.6831 62.9738 98.5235 63.3729 98.1359 64.7202C97.2266 66.102 95.8848 67.406 95.7445 69.0074C95.6098 70.55 94.7373 71.6457 94.0282 72.8329C93.9299 72.8215 93.8327 72.8018 93.7424 72.7609C93.4006 72.5726 93.1026 72.3168 92.7834 72.0958C92.6399 72.012 92.4927 71.9295 92.345 71.8503C90.9146 70.983 89.5898 71.5235 88.2763 72.1845C88.1182 72.2877 87.9715 72.4078 87.8371 72.5397C86.5979 74.1483 85.7048 76.0428 84.4445 77.5481C82.6231 79.7226 83.3048 82.7452 81.2146 84.6679C81.5947 86.3129 80.4525 87.6093 80.0559 89.0729C79.3023 91.8555 78.8548 94.7043 78.0185 97.4657C77.9713 98.0823 77.5143 98.5542 77.3686 99.1372C76.2055 103.754 74.5109 108.252 73.6629 112.933C72.7429 118.014 71.1593 123.025 71.4764 128.264C71.4978 128.617 71.5437 129.097 71.0623 129.269C70.6349 129.422 70.495 129.005 70.2587 128.793C68.8004 127.478 67.3974 126.1 65.6938 125.067C65.59 125.045 65.484 125.026 65.3778 125.008C63.7137 123.993 61.8824 123.38 60 122.837C56.2953 121.772 53.089 122.748 50.1534 125.006C49.6555 125.389 49.233 125.876 48.7056 126.211C47.8706 126.741 47.6539 127.478 47.644 128.367C47.6276 129.837 48.0412 131.229 48.3589 132.64C48.3337 132.861 48.3086 133.082 48.2817 133.303C49.212 135.77 49.826 138.295 49.9539 140.943C50.0202 142.32 50.0769 143.749 51.0557 144.903C51.0033 145.783 51.4391 146.389 52.1769 146.836C52.6189 147.104 53.0232 147.411 53.3015 147.853C54.3857 149.579 55.2882 151.381 55.5481 153.42C55.6971 154.59 55.9797 155.725 56.3217 156.851C57.2469 159.901 58.1519 162.957 59.0643 166.01C59.607 166.904 59.3498 168.042 59.9754 168.912C60.0402 169.153 60.1047 169.397 60.1713 169.639C60.1517 169.961 60.1323 170.282 60.1127 170.604C60.7044 171.706 60.9881 172.88 60.987 174.124C61.3297 175.383 61.2236 176.659 61.0998 177.935C60.7979 181.06 60.7852 184.178 61.3156 187.271C61.5901 188.871 61.7021 190.477 61.6854 192.098C61.6535 194.997 61.6114 197.895 61.7981 200.789C61.9268 200.797 62.0535 200.807 62.1822 200.816C62.1822 200.816 62.1822 200.816 62.1824 200.814C62.4318 202.212 62.1453 203.61 62.0673 205C61.9204 207.631 61.581 210.255 60.819 212.795C59.8831 215.92 58.8071 219.006 57.8019 222.113C57.5049 223.03 57.0972 223.89 56.5825 224.715C53.9711 228.901 51.3725 233.096 48.7771 237.293C48.3009 238.062 47.7515 238.826 48.0884 239.802C48.3152 239.915 48.5649 240.017 48.8204 240.103C49.0387 240.192 49.2583 240.272 49.4851 240.328C50.2859 240.524 50.9094 240.925 51.3656 241.582C52.4008 241.716 53.1201 241.275 53.7359 240.479C55.8933 237.694 57.2675 234.541 58.5198 231.324C60.6664 227.178 62.8131 223.032 64.96 218.884C64.96 218.884 64.96 218.884 64.9603 218.883C65.9253 217.447 66.6278 215.914 66.6489 214.184C66.6674 212.781 66.8393 211.396 67.0465 210.011C67.5258 206.256 68.2936 202.545 68.378 198.731C68.4478 195.515 69.0653 192.303 68.4962 189.084C68.4691 187.91 68.5279 186.725 68.3987 185.562C67.8675 180.825 66.5241 176.253 65.4362 171.63C65.2587 170.874 64.9181 170.152 64.603 169.434C64.3307 168.816 64.0472 168.202 63.9512 167.534C63.513 164.492 63.0931 161.447 62.6657 158.403C62.3189 157.813 62.1146 157.175 62.0228 156.502C61.774 154.665 61.3086 152.878 60.8107 151.097C60.4782 149.909 60.2112 148.706 60.1069 147.474C59.7531 146.596 59.6926 145.617 59.07 144.831C56.9807 142.19 55.6069 139.201 54.5524 136.044C53.7059 133.512 53.8579 130.974 54.3318 128.411C54.4248 127.908 54.5693 127.31 55.0276 127.093C56.6106 126.347 58.164 125.267 60.0666 126.079C61.1201 126.529 62.1552 127.019 63.1985 127.489C64.7461 128.394 65.8955 129.708 67.0474 131.016C67.7162 131.775 68.3523 132.564 69.066 133.282C70.0417 134.263 70.4929 135.398 70.3964 136.76C70.2726 138.541 70.3362 140.348 70.0088 142.093C69.6814 143.838 70.0044 145.271 71.1591 146.573C71.8027 146.866 72.2204 147.407 72.7028 147.881C72.947 148.121 73.2419 148.341 73.6121 148.126C73.8995 147.958 73.891 147.647 73.8581 147.369C73.754 146.479 73.6588 145.576 73.9344 144.707C74.6414 142.48 74.617 140.188 74.758 137.906C74.9723 134.39 75.8232 130.962 76.5104 127.512C76.5587 126.957 76.5293 126.381 76.669 125.848C77.3711 123.183 77.8717 120.481 78.461 117.795C78.9894 115.381 79.3165 112.928 79.9476 110.543C81.2577 105.586 82.1728 100.57 82.8886 95.5141C83.1095 93.9592 83.3177 92.4076 84.0639 90.9667C84.4037 90.309 84.4506 89.5563 84.4536 88.8267C84.4567 88.0851 84.6523 87.3828 84.8341 86.6786C84.9257 86.4474 85.0191 86.2165 85.1209 85.9883C85.7884 84.4995 86.9318 83.2066 86.8598 81.5345C87.6729 80.1841 88.5904 78.8868 89.3247 77.5004C89.6144 76.9518 89.9907 76.4453 90.2657 75.8897C90.2988 75.8226 90.3351 75.7577 90.3712 75.6944C90.5498 75.7096 90.7469 75.7528 90.9722 75.8304C92.275 76.8764 93.1978 77.9724 92.8692 79.8857C91.1418 89.9568 89.9556 100.107 88.1033 110.156C87.3402 114.295 87.1583 118.481 86.4108 122.599C85.8828 125.503 86.3127 128.404 85.8536 131.294C85.4464 133.857 85.9428 136.45 85.8203 139.035C85.794 139.573 86.1567 140.232 86.4053 140.822C86.644 141.384 86.9509 141.639 87.4713 141.533C88.7315 141.277 89.884 140.703 90.8611 139.911C91.7397 139.199 91.133 138.356 90.8575 137.564C90.7943 137.38 90.9156 137.127 90.8835 136.902C90.8556 136.82 90.8317 136.735 90.8079 136.65C91.1279 136.213 90.8311 135.697 90.8066 135.215C91.3261 133.569 91.1922 131.969 90.5025 130.407C90.384 127.571 90.2591 124.675 90.6999 121.916C91.2087 118.725 91.1131 115.511 91.693 112.338C92.3922 108.512 92.2894 104.567 93.62 100.828C93.6571 100.62 93.6942 100.413 93.7334 100.203C94.0218 99.949 94.0025 99.5941 94.056 99.2677C94.6611 95.6094 95.0859 91.9238 96.4123 88.3953C98.1679 83.7293 98.0214 78.603 100.281 74.0294C100.829 72.9212 100.862 71.5505 100.77 70.2468C100.729 69.6764 100.659 69.0255 101.048 68.4799C101.231 68.0209 101.409 67.6957 101.593 67.504C101.767 67.6156 101.844 67.859 101.953 68.03C102.449 68.8158 103.074 69.2885 103.877 69.3543C104.767 70.6892 105.511 72.1018 105.834 73.7086C106.275 75.9029 106.653 78.1109 107.53 80.1979C107.813 80.8703 107.911 81.6048 107.93 82.3374C107.986 84.586 107.706 86.7985 107.309 89.026C106.764 92.0729 105.68 95.0073 105.307 98.0787C104.615 103.769 103.599 109.422 102.278 114.998C101.118 119.895 100.726 124.866 99.9071 129.791C99.5133 132.164 99.3442 134.583 99.0072 136.975C99.2674 137.65 99.5468 138.313 100.112 138.812C101.548 140.338 101.684 140.331 102.848 138.639C102.977 138.452 102.818 138.69 102.948 138.503L102.95 138.525C103.974 136.878 103.44 134.986 103.835 133.214C104.457 130.418 104.783 127.503 104.87 124.62C104.946 122.136 105.737 119.727 105.658 117.239C106.146 116.684 106.132 116.027 106.2 115.346C106.538 111.917 107.027 108.534 108.5 105.308C109.013 104.183 109.642 102.87 109.25 101.574C108.92 100.478 109.035 99.4265 109.366 98.4392C110.917 93.8124 111.401 89.008 112.185 84.252C112.304 83.5311 112.42 82.8079 112.694 82.1228C112.908 81.5879 113.164 81.0502 113.832 80.9602C114.502 80.8706 114.89 81.3305 115.217 81.7977C116.128 83.1013 116.77 84.5276 117.25 86.0311C117.917 88.1123 118.328 90.2618 119.019 92.3327C119.092 92.5517 119.15 92.8095 119.234 93.0352C119.238 93.0544 119.243 93.0737 119.245 93.0927C119.688 94.2713 120.259 95.3768 121.011 96.3837C121.038 96.4706 121.064 96.5591 121.093 96.6446C121.017 96.6669 120.941 96.6942 120.869 96.7289C119.959 97.4861 120.283 98.317 120.764 99.0855C121.071 99.5773 121.257 99.9797 120.691 100.374C119.766 101.022 119.876 102.01 119.687 102.909C119.65 103.738 119.388 104.503 118.988 105.246C118.404 106.086 118.183 107.057 117.861 107.991C117.796 108.172 117.732 108.35 117.667 108.53C117.415 109.387 117.326 110.279 116.999 111.113C116.937 111.286 116.876 111.459 116.818 111.632C116.379 113.407 116.373 115.261 115.739 117.002C115.629 117.286 115.525 117.571 115.4 117.849C114.915 120.247 114.891 122.705 114.354 125.096C114.076 126.333 114.13 127.503 114.676 128.629C114.665 128.702 114.653 128.777 114.642 128.85C114.629 128.961 114.615 129.07 114.6 129.18C114.516 129.739 114.431 130.296 114.347 130.855C114.382 130.798 114.414 130.741 114.445 130.684C114.415 130.742 114.384 130.799 114.347 130.855L114.354 130.858C114.235 130.84 114.117 130.821 113.998 130.804C113.995 131.421 114.117 132.007 114.42 132.553C114.416 132.66 114.409 132.764 114.398 132.87C114.471 133.026 114.492 133.184 114.487 133.343C114.467 133.185 114.439 133.027 114.398 132.87C114.313 133.376 114.268 133.88 114.319 134.384C114.305 134.573 114.326 134.761 114.42 134.947C114.339 135.498 114.258 136.05 114.177 136.601C114.066 136.98 114.152 137.325 114.348 137.652C114.342 137.76 114.334 137.868 114.323 137.975C114.675 138.791 115.406 139.058 116.226 139.254C118.439 139.783 119.156 139.245 119.041 137.062C119.011 136.5 118.964 135.947 119.097 135.39C119.863 132.18 119.893 128.939 119.628 125.689C119.544 124.662 119.584 123.672 120.14 122.75C120.683 119.538 121.395 116.352 122.08 113.17C122.655 110.498 123.386 107.818 124.42 105.243C124.798 104.299 125.17 103.353 125.575 102.418C125.716 102.095 125.811 101.67 126.522 101.62C126.192 102.522 125.889 103.318 125.953 104.16C126.081 105.835 126.208 107.511 126.347 109.185C126.393 109.751 126.558 110.283 126.891 110.756C127.112 110.721 127.298 110.671 127.451 110.608C127.946 115.843 127.687 121.13 128.5 126.357C128.702 127.662 129.055 128.772 129.766 129.736C129.889 130.015 130.066 130.302 130.175 130.579C130.791 132.713 131.734 134.807 131.717 137.037C131.705 138.652 131.647 140.288 132.068 141.804C132.483 143.299 131.723 144.8 132.357 146.23C133.161 148.042 133.15 148.047 133.059 149.407C133.311 149.617 133.521 149.841 133.692 150.078C133.742 150.694 133.886 151.297 134.053 151.892C134.079 151.986 134.103 152.081 134.128 152.174C134.113 152.246 134.097 152.318 134.079 152.391C133.984 152.756 133.822 153.138 134.069 153.528C134.259 153.825 134.405 154.132 134.517 154.443C134.632 155.687 134.591 156.943 134.423 158.219C134.197 159.945 134.213 161.676 134.388 163.42C134.323 163.901 134.197 164.38 133.971 164.852C133.889 165.023 133.907 165.34 134.04 165.506C134.38 165.932 134.608 166.38 134.761 166.839C134.935 168.81 135.021 170.792 134.998 172.78C134.97 175.2 134.228 177.531 134.094 179.945C134.048 180.812 134.106 181.679 134.092 182.547C134.058 183.012 134.02 183.477 133.979 183.941C133.969 184.004 133.958 184.068 133.946 184.131C133.368 187.107 133.019 190.108 132.007 193.02C131.107 195.606 130.112 198.077 128.162 200.116C127.813 200.481 127.538 200.933 127.302 201.382C125.793 204.248 123.945 206.905 121.97 209.485C121.85 209.578 121.731 209.669 121.611 209.762C120.974 210.35 120.675 211.193 119.796 211.64C119.554 211.762 119.128 212.09 119.086 212.469C118.976 212.582 118.847 212.678 118.707 212.754C118.463 212.878 118.274 213.032 118.14 213.21C118.088 213.252 118.041 213.295 118.003 213.335C116.659 214.711 115.551 216.24 115.142 218.138C115.095 218.356 115.176 218.573 115.277 218.774C115.506 219.56 115.128 220.177 114.686 220.793C113.149 222.931 112.137 225.33 111.203 227.731C109.981 230.874 109.013 234.106 107.906 237.289C107.665 237.981 107.576 238.651 108.124 239.168C109.002 239.994 109.446 241.119 110.285 241.962L110.286 241.964C112.079 242.986 112.67 242.745 113.154 240.883C113.715 238.726 114.67 236.692 115.09 234.488C115.374 233.003 115.481 231.359 116.649 230.121C116.734 229.695 116.818 229.269 116.903 228.844C117.225 226.729 120.059 225.756 119.653 223.305C119.636 223.2 119.759 223.116 119.838 223.028C120.831 221.923 121.764 220.789 122.488 219.48C123.648 217.384 125.318 215.666 127.148 214.092C127.665 212.448 128.911 211.384 130.305 210.459C130.493 210.334 130.676 210.282 130.849 210.288C130.857 210.364 130.861 210.438 130.872 210.504C131.225 212.675 132.132 214.672 132.785 216.75C133.272 218.304 135.076 219.539 134.062 221.502C133.957 221.706 134.091 222.056 134.256 222.296C134.68 222.912 135.031 223.547 135.332 224.196C135.9 226.707 136.487 229.215 136.811 231.777C136.859 232.169 136.93 232.555 137.042 232.929C136.782 233.158 136.489 233.367 136.507 233.77C136.637 235.764 136.482 237.782 136.942 239.753C137.066 240.28 137.57 240.284 137.962 240.475C138.939 240.954 139.456 241.111 140.49 240.04C141.411 239.087 141.809 237.753 142.974 237.042C143.004 236.945 143.036 236.851 143.067 236.755C143.279 235.638 143.297 234.544 142.813 233.476C142.508 232.806 142.521 232.069 142.499 231.341C142.476 230.564 142.459 229.77 142.284 229.018C141.777 226.838 141.551 224.626 141.431 222.398C141.395 221.724 141.344 221.062 141.023 220.451C140.996 219.049 140.697 217.684 140.13 216.422C139.33 214.643 138.775 212.796 138.251 210.933C138.545 208.879 138.677 206.871 137.893 204.849C137.336 203.41 136.859 201.845 136.984 200.299C137.093 198.932 137.507 197.566 138.091 196.253C139.311 193.512 140.176 190.644 140.578 187.699C141.139 183.594 141.504 179.466 141.953 175.348L141.953 175.346C141.777 174.627 141.81 173.896 141.929 173.177C142.428 170.187 142.732 167.195 142.452 164.168C142.39 163.508 142.517 162.829 142.556 162.158C142.34 161.197 141.762 160.181 142.315 159.252C143.445 157.36 143.761 155.144 145.022 153.32C146.226 152.449 147.117 151.388 147.31 149.892L147.231 149.821C147.67 148.722 148.07 147.608 148.557 146.529C149.927 143.491 150.84 140.301 152.022 137.201C152.454 136.594 152.774 135.936 153.06 135.254C154.309 132.284 155.486 129.283 156.982 126.414C158.458 123.583 159.403 120.574 160.311 117.549C161.171 115.458 162.054 113.375 163.3 111.458C163.44 111.485 163.58 111.512 163.72 111.541C163.922 111.163 164.125 110.786 164.329 110.408C164.573 110.019 164.774 109.596 165.016 109.198C165.418 108.535 165.763 107.842 166.09 107.142C166.481 106.411 166.871 105.682 167.255 104.948C167.943 103.636 168.785 102.419 169.634 101.206C169.818 101.077 170.029 101.018 170.285 101.107C170.827 101.293 171.351 101.759 171.441 102.433C171.457 102.554 171.472 102.675 171.487 102.795C171.516 103.246 171.519 103.699 171.495 104.155C171.481 104.417 171.48 104.676 171.501 104.927C171.46 105.197 171.397 105.468 171.306 105.74C171.074 106.439 171.211 106.944 171.761 107.112C171.727 107.244 171.735 107.388 171.768 107.539C171.712 108.92 171.683 110.257 170.796 111.507C170.276 112.238 170.245 113.09 170.589 113.895C170.522 114.024 170.455 114.151 170.388 114.28C169.507 115.453 168.675 116.686 168.177 118.033C166.968 121.301 165.438 124.45 164.264 127.723C163.804 129.007 163.259 130.26 162.714 131.511C162.738 131.39 162.76 131.269 162.779 131.146C162.279 131.629 162.173 132.232 162.133 132.858C161.581 134.158 161.063 135.471 160.674 136.827C160.414 137.734 159.188 138.508 159.932 139.536C160.635 140.508 161.894 140.005 162.902 140.19C165.047 140.582 165.243 140.514 166.407 138.734C167.672 136.797 167.78 134.412 169.057 132.476C169.798 130.64 170.645 128.845 171.425 127.024C171.465 126.976 171.503 126.927 171.545 126.88C172.034 127.299 172.406 127.258 172.756 126.67C173.161 125.99 173.51 125.291 173.846 124.58C175.068 121.987 176.381 119.439 177.905 116.992C178.571 116.27 178.832 115.359 179.186 114.492C179.232 114.33 179.281 114.17 179.325 114.007C180.04 113.195 179.759 112.014 180.472 111.207C180.593 111.104 180.703 110.991 180.796 110.865C181.442 110.18 181.125 109.251 181.435 108.474C181.686 108.179 181.842 107.836 182.023 107.507C184.678 102.413 186.861 97.0854 190.025 92.2356C189.992 91.9146 189.794 91.6791 189.606 91.438C189.653 91.3711 189.701 91.3025 189.746 91.2354C190.67 89.8742 191.553 88.4837 192.552 87.1768C193.023 86.562 193.47 85.7893 194.306 85.6843C194.354 85.8199 194.389 85.9676 194.421 86.0774C194.424 87.868 194.202 89.6729 194.705 91.4346C194.717 91.5264 194.734 91.6087 194.754 91.6878C194.754 91.9245 194.82 92.1817 194.869 92.3992C195.277 94.1976 194.876 95.8154 193.936 97.3838C193.561 98.0112 193.401 98.7541 193.049 99.3897C191.703 101.806 191.118 104.558 189.441 106.822C188.922 107.9 188.273 108.981 189.017 110.034C188.774 110.724 188.561 111.422 188.349 112.12C188.318 112.186 188.288 112.252 188.256 112.316C188.102 112.619 187.939 112.917 187.835 113.238C187.768 113.274 187.703 113.309 187.636 113.343L187.636 113.345C187.444 113.45 187.098 113.539 187.083 113.661C186.911 115.129 185.816 116.365 185.904 117.891C185.348 120.278 184.669 122.63 183.918 124.96C183.844 125.182 183.771 125.405 183.702 125.627C182.992 127.791 182.227 129.939 181.447 132.084C181.177 132.822 180.978 133.595 180.847 134.368C180.706 135.207 180.489 136.001 180.11 136.778C179.477 138.079 179.321 139.474 179.433 140.893C179.489 141.583 179.713 142.207 180.285 142.667C181.042 143.275 181.65 143.17 182.063 142.299C182.33 141.737 182.505 141.136 182.907 140.638C183.23 140.235 183.527 139.822 183.806 139.4C184.428 139.346 184.918 138.989 185.308 138.371C186.285 136.822 186.93 135.148 187.521 133.438C188.307 131.164 188.338 128.658 189.881 126.605C190.234 126.134 190.506 125.517 190.422 124.863C190.25 123.512 190.948 122.545 191.672 121.423C192.591 120 192.927 118.268 193.404 116.623C193.431 116.585 193.454 116.548 193.481 116.51C193.495 116.429 193.509 116.349 193.525 116.268C193.795 116.264 194.028 116.139 194.265 116.024C195.25 115.651 195.557 114.773 195.928 113.944C196.004 113.781 196.082 113.619 196.158 113.457C196.972 111.86 197.252 110.058 198.222 108.517C198.3 108.364 198.374 108.213 198.468 108.062C198.748 107.588 198.495 107.131 198.441 106.668C198.48 106.515 198.555 106.368 198.647 106.227C201.562 101.576 203.489 96.3997 207.046 92.0786C208.802 89.9463 209.973 87.4047 211.452 84.9653C212.182 85.7054 212.074 86.4671 212.189 87.1613C212.485 88.9382 212.98 90.6614 213.968 92.1881C214.17 92.4991 214.382 92.9492 214.738 93.1156C214.839 93.226 214.941 93.3366 215.051 93.4465C215.134 93.546 215.208 93.6444 215.278 93.7421C214.734 95.2609 214.448 96.8686 213.563 98.2808C212.086 100.637 210.878 103.142 209.747 105.656C208.115 109.29 205.212 112.295 204.335 116.329C203.978 117.969 202.816 119.467 202.374 121.167C202.272 121.56 202.001 121.867 201.717 122.139C200.631 123.176 200.488 124.324 200.936 125.55C200.823 125.531 200.706 125.524 200.587 125.531C200.008 125.816 200.036 126.504 199.592 126.881C198.301 129.308 197.15 131.782 196.387 134.422C195.563 137.272 194.798 140.138 194.202 143.034C193.825 144.859 194.678 145.595 196.593 145.39C196.936 145.354 197.277 145.292 197.619 145.24C199.484 145.289 200.385 143.879 201.509 142.808C202.113 141.651 202.255 140.482 202.221 139.159C202.178 137.446 204.062 136.054 203.505 134.131C203.431 133.874 203.781 133.824 203.846 133.694C204.331 132.721 204.977 131.797 205.262 130.762C206.252 127.175 207.736 123.793 209.602 120.549C209.777 120.246 209.999 119.865 209.8 119.524C210.187 119.327 210.354 118.869 210.496 118.456C211.166 116.52 212.264 114.797 213.266 113.019C214.239 111.293 215.254 109.585 216.041 107.767C216.188 107.424 216.34 107.095 216.298 106.799C216.575 106.725 216.82 106.434 217.057 106.04C217.994 104.49 218.787 102.86 219.818 101.363C220.245 100.743 220.484 99.755 221.5 99.8814C222.474 100.001 222.644 100.942 222.784 101.677C223.152 103.608 223.543 105.493 225 106.997C225.393 107.403 225.384 108.031 225.369 108.599C225.356 109.29 225.198 109.969 225.167 110.659C225.174 110.811 225.182 110.962 225.196 111.112C225.248 111.716 225.208 112.317 225.123 112.916C225.102 113.068 225.08 113.222 225.058 113.374C225.004 113.763 224.937 114.153 224.947 114.547C224.962 114.862 224.961 115.177 224.944 115.493C224.916 115.972 224.815 116.439 224.664 116.895C224.61 117.051 224.556 117.208 224.504 117.364C224.384 117.78 224.326 118.207 224.324 118.64C224.326 119.35 224.226 120.047 224.016 120.73C223.761 121.571 223.659 122.449 223.331 123.27C223.269 123.435 223.208 123.602 223.156 123.771C222.786 125.336 222.759 126.965 222.193 128.494C222.13 128.666 222.068 128.84 222.009 129.014C221.729 130.221 221.585 131.448 221.414 132.669C221.358 133.274 221.328 133.869 221.98 134.211C221.844 134.809 221.714 135.408 221.587 136.009C221.511 136.55 221.418 137.085 221.311 137.619C220.768 139.615 220.245 141.615 219.702 143.61C219.263 145.041 218.819 146.469 218.441 147.913C217.729 150.633 216.655 153.281 216.112 156.03C215.931 156.757 215.759 157.484 215.607 158.216C214.85 161.819 214.205 165.441 213.589 169.069C213.334 170.368 213.09 171.668 212.868 172.971C212.778 173.498 212.644 173.984 212.471 174.432C212.135 175.087 211.632 175.623 210.886 176.073C208.472 177.531 206.169 179.146 203.872 180.769C202.904 181.231 201.928 181.682 200.944 182.109C200.561 182.348 200.367 182.81 199.902 182.946C199.346 183.205 198.801 183.494 198.214 183.686C197.049 184.09 196.101 184.98 194.656 184.807C193.95 184.721 193.234 185.373 192.998 186.28C192.717 187.365 192.181 188.438 191.341 189.169C190.548 189.86 190.297 190.594 190.265 191.51C190.359 193.09 191.474 193.808 193.056 193.246C193.909 192.942 194.521 192.205 195.306 191.824C200.243 189.429 204.844 186.514 209.457 183.594C210.212 183.116 210.796 182.159 211.923 182.22C212.735 182.265 213.195 181.761 213.521 181.103C213.727 180.685 213.901 180.24 214.234 179.893C216 178.044 217.963 176.431 220.246 175.201C221.1 174.384 221.853 173.499 223.047 173.191C223.056 173.189 223.065 173.187 223.074 173.185L223.076 173.183C223.356 173.115 223.662 173.077 223.997 173.079C224.82 173.086 225.713 172.373 225.836 171.314C225.851 171.185 225.885 171.068 225.928 170.96C227.917 169.337 229.879 167.678 232.116 166.343C232.482 166.125 232.84 165.9 233.197 165.68C234.561 165.865 235.814 165.107 237.149 165.097C237.321 165.071 237.497 165.047 237.67 165.02C238.729 164.017 239.513 164.869 240.35 165.359C241.417 165.618 242.519 165.678 243.602 165.847C244.413 165.974 245.352 166.371 245.036 167.331C244.118 170.124 242.95 172.789 240.939 175.112C238.731 177.664 235.799 179.211 233.02 180.962C231.69 181.801 230.606 183.072 228.719 183.165C227.889 183.206 226.659 184.06 226.352 184.969C225.898 186.319 224.887 186.78 223.764 187.227C222.947 187.551 222.269 188.044 221.668 188.638C218.857 191.425 216.913 194.859 214.921 198.134C213.119 201.099 210.95 203.742 208.578 206.105C205.822 208.85 203.681 211.928 201.466 215.008C199.854 217.251 198.183 219.437 195.521 220.668C194.788 221.008 193.825 221.697 193.84 222.252C193.88 223.715 192.715 224.475 192.23 225.598C191.842 226.288 191.477 226.992 191.06 227.665C190.444 228.653 190.089 229.709 190.067 230.851C190.023 232.978 190.11 235.089 190.402 237.206C190.716 239.48 191.27 241.705 191.612 243.966C191.809 245.272 192.218 246.453 192.877 247.575C193.22 248.158 193.521 248.872 194.374 248.728C195.288 248.574 195.419 247.781 195.537 247.045C195.554 246.935 195.559 246.821 195.564 246.71C195.65 244.693 195.6 242.695 195.155 240.706C194.618 238.305 194.261 235.869 194.517 233.386C194.676 232.388 194.815 231.387 194.998 230.392C195.335 228.551 196.333 227.048 198.129 226.402C200.388 225.589 201.748 223.83 203.374 222.336C204.047 221.717 204.609 220.983 205.27 220.351C206.914 218.781 208.179 216.987 208.948 214.877C210.367 212.751 211.678 210.558 213.364 208.604C213.997 207.871 214.472 207.027 214.915 206.166C215.741 204.558 216.553 202.958 217.827 201.59C220.163 199.083 222.475 196.548 224.401 193.718C224.589 193.441 224.842 193.19 225.106 192.977C227.208 191.287 229.245 189.509 231.443 187.947C236.513 184.348 241.448 180.608 245.792 176.182C246.076 175.759 246.385 175.347 246.641 174.908C247.47 173.483 248.315 172.028 248.34 170.367C248.356 169.333 248.561 168.411 248.935 167.449C249.853 165.087 249.378 163.992 247.135 162.966Z" fill="currentColor"/>
    <path d="M143.526 88.4436C143.571 88.436 143.64 88.3771 143.64 88.3431C143.636 88.198 143.549 88.1559 143.424 88.238C143.393 88.2576 143.399 88.3332 143.39 88.383C143.434 88.4058 143.484 88.4517 143.526 88.4436Z" fill="currentColor"/>
    <path d="M143.053 95.7811L143.023 95.8827L143.129 95.856L143.053 95.7811Z" fill="currentColor"/>
    <path d="M125.545 69.0037L125.455 69.0666L125.557 69.1074L125.545 69.0037Z" fill="currentColor"/>
    <path d="M144.832 109.612L144.804 109.704L144.898 109.681L144.832 109.612Z" fill="currentColor"/>
    <path d="M59.8216 170.111C59.8222 170.107 59.8228 170.103 59.8215 170.1C59.8215 170.1 59.8215 170.1 59.8218 170.098L59.8216 170.111Z" fill="currentColor"/>
    <path d="M60.7216 173.613C60.7219 173.612 60.7219 173.612 60.7222 173.61C60.7209 173.606 60.7197 173.602 60.7188 173.597L60.7216 173.613Z" fill="currentColor"/>
    <path d="M113.525 130.554C113.541 130.591 113.55 130.632 113.575 130.664C113.605 130.7 113.646 130.726 113.682 130.756C113.662 130.715 113.648 130.669 113.621 130.631C113.597 130.599 113.558 130.578 113.525 130.554Z" fill="currentColor"/>
    <path d="M132.144 104.307L132.036 104.298L132.079 104.396L132.144 104.307Z" fill="currentColor"/>
    <path d="M131.311 99.2242C131.344 99.2133 131.357 99.1417 131.378 99.0951C131.332 99.0753 131.276 99.0303 131.241 99.0427C131.207 99.0553 131.195 99.1252 131.173 99.1718C131.22 99.1915 131.274 99.2363 131.311 99.2242Z" fill="currentColor"/>
    <path d="M84.7475 74.0395L84.6809 74.1073L84.7758 74.1301L84.7475 74.0395Z" fill="currentColor"/>
    <path d="M106.274 111.796C106.174 112.46 106.073 113.126 105.973 113.79C106.371 113.166 106.471 112.502 106.274 111.796Z" fill="currentColor"/>
    <path d="M123.285 87.7881L123.248 87.8783L123.344 87.8673L123.285 87.7881Z" fill="currentColor"/>
</svg>