<svg width="161" height="37" viewBox="0 0 161 37" fill="currentColor" xmlns="http://www.w3.org/2000/svg">
    <path d="M17.6968 36.7211C14.2882 36.7211 11.6267 34.0716 11.4866 30.539C11.4399 29.8417 11.4399 29.1445 11.2998 28.4473C10.9729 26.9598 10.0391 25.9837 8.54487 25.5653C7.75107 25.3329 6.95728 25.24 6.11679 25.24C2.80154 25.2864 0.139993 22.7764 -8.8362e-05 19.3367C-0.14017 16.0829 2.2879 13.4334 5.323 13.0151C5.78994 12.9686 6.30357 12.9221 6.7705 12.8756C9.89898 12.8292 11.4399 11.2952 11.4866 8.18092C11.4866 6.18218 12.0936 4.46233 13.6345 3.06786C15.9692 0.929665 19.8447 1.02263 22.1327 3.30027C24.4207 5.57791 24.6075 9.34298 22.5063 11.7136C21.2456 13.1081 19.7047 13.8983 17.8369 13.8983C17.2299 13.8983 16.5762 13.9912 15.9692 14.0842C13.7279 14.5025 12.6539 15.8505 12.4671 18.5465C12.4204 19.4297 12.4671 20.2663 12.6539 21.103C13.0742 23.1018 14.6151 24.3103 16.903 24.3103C18.5373 24.3568 20.0782 24.5892 21.4323 25.5653C23.6736 27.2387 24.5141 29.9347 23.5802 32.5842C22.7865 35.0942 20.3584 36.7676 17.6968 36.7211Z" fill="currentColor"/>
    <path d="M81.2935 7.99497C81.2935 5.71734 81.2935 3.48618 81.2935 1.20854C81.2935 0.232412 81.4802 0.0464824 82.4608 0C83.0678 0 83.7215 0 84.3286 0C85.2624 0 85.4025 0.18593 85.4025 1.0691C85.4025 2.41709 85.4025 3.81156 85.4025 5.15955C85.4025 5.67085 85.4492 5.8103 86.0095 5.53141C88.2975 4.32286 91.0524 5.39196 91.9396 7.80904C92.5466 9.43593 92.5466 11.0628 92.1264 12.7362C91.3326 15.7575 88.2508 16.9196 85.5426 15.2462C85.2624 15.0603 85.1223 15.1068 84.9356 15.2927C84.0484 16.0829 82.9744 15.9435 81.9472 15.897C81.3401 15.8505 81.2935 15.3392 81.2935 14.8744C81.2935 14.8279 81.2935 14.7814 81.2935 14.7349C81.2935 12.5038 81.2935 10.2261 81.2935 7.99497ZM85.4025 10.5515C85.4025 10.9234 85.4025 11.2952 85.4025 11.6671C85.3558 12.2249 85.636 12.5038 86.1963 12.5503C87.5504 12.6897 88.1107 12.2714 88.2041 10.9234C88.2508 10.505 88.2041 10.0867 88.1107 9.66834C87.8773 8.78517 87.3169 8.50628 86.243 8.59925C85.3091 8.69221 85.4025 9.29648 85.4025 9.94724C85.4025 10.1332 85.4025 10.3191 85.4025 10.5515Z" fill="currentColor"/>
    <path d="M34.0399 8.83164C33.9932 7.80903 34.0399 6.78642 34.32 5.81028C35.0204 3.30023 36.5146 1.95224 39.1295 1.58038C40.577 1.39445 41.9778 1.44094 43.3786 1.95224C44.3592 2.27762 44.6393 2.69596 44.6393 3.71858C44.6393 4.1834 44.6393 4.64822 44.6393 5.06657C44.5926 6.0427 44.3125 6.27511 43.4253 5.81028C42.5381 5.29898 41.5575 5.06657 40.5303 5.15953C39.4563 5.2525 38.7559 5.7638 38.4758 6.78642C38.1022 8.04144 38.1022 9.29647 38.3824 10.5515C38.7092 12.0854 39.9233 12.7826 41.6042 12.5038C42.2113 12.4108 42.8183 12.1784 43.3319 11.8995C44.2658 11.3882 44.5926 11.5741 44.5926 12.6897C44.5926 13.0615 44.5926 13.4334 44.5926 13.8053C44.5926 15.0138 44.3592 15.4321 43.1451 15.804C41.2774 16.4083 39.4096 16.4083 37.5886 15.7575C35.0671 14.8744 34.2733 12.7826 33.9932 10.412C33.9932 9.85425 34.0399 9.34295 34.0399 8.83164Z" fill="currentColor"/>
    <path d="M54.258 30.4462C54.258 31.4688 54.258 32.4914 54.258 33.514C54.258 33.9788 54.3047 34.3972 54.5382 34.8155C54.9585 35.4663 54.4915 36.3494 53.651 36.6748C52.4837 37.1861 51.1763 36.9072 50.3358 35.9311C50.0089 35.5592 49.8688 35.7452 49.6354 35.9311C48.8416 36.5818 47.9077 36.9072 46.8337 36.8607C45.1528 36.8143 44.1722 35.9776 43.892 34.3507C43.8453 33.9788 43.752 33.607 43.752 33.2351C43.752 31.1899 43.752 29.1447 43.752 27.0994C43.752 26.1698 43.9387 26.0303 44.8259 25.9839C45.5263 25.9839 46.2267 26.0303 46.9271 25.9839C47.7209 25.9374 48.0011 26.3092 47.9544 27.053C47.9544 28.6798 47.9544 30.3067 47.9544 31.9801C47.9544 33.0027 48.3746 33.3281 49.4019 33.0492C49.9155 32.9097 50.0556 32.5844 50.0556 32.0731C50.0556 30.3997 50.0556 28.7263 50.0556 27.0994C50.0556 26.1233 50.1957 26.0303 51.1296 26.0303C51.7833 26.0303 52.4837 26.0768 53.1374 26.0303C53.8845 25.9839 54.2114 26.2628 54.2114 27.053C54.2114 28.215 54.2114 29.3306 54.258 30.4462Z" fill="currentColor"/>
    <path d="M74.4763 30.539C74.4763 31.5616 74.4763 32.5843 74.4763 33.6069C74.4763 34.0252 74.523 34.4436 74.7098 34.8619C75.0366 35.5126 74.6631 36.3029 74.0094 36.6282C72.842 37.2325 71.3478 36.9536 70.5073 35.8845C70.1805 35.4662 70.0404 35.7451 69.8069 35.931C68.7797 36.7677 67.6123 37.093 66.3049 36.8142C64.9041 36.5353 64.0169 35.5591 64.0169 33.9787C63.9702 31.6081 63.9702 29.191 63.9702 26.8204C63.9702 26.3091 64.2037 26.0302 64.764 26.0302C65.5578 26.0302 66.3983 26.0302 67.1921 26.0302C67.8458 26.0302 68.126 26.3091 68.126 26.9599C68.126 28.6333 68.126 30.3531 68.126 32.0265C68.126 33.0491 68.5462 33.328 69.5268 33.0956C70.0404 32.9561 70.2272 32.6772 70.2272 32.1659C70.2272 30.539 70.2272 28.9121 70.2272 27.2388C70.2272 26.1697 70.3673 26.0302 71.4412 26.0302C72.0949 26.0302 72.7953 26.0767 73.449 26.0302C74.1495 25.9838 74.4296 26.3091 74.4296 27.0064C74.4763 28.2149 74.4763 29.377 74.4763 30.539Z" fill="currentColor"/>
    <path d="M98.7107 16.1763C95.2086 16.1763 93.1074 14.0381 93.1074 10.5984C93.1074 7.1587 95.2553 5.02051 98.7107 5.02051C102.166 5.02051 104.407 7.25166 104.361 10.6914C104.361 14.0846 102.213 16.1763 98.7107 16.1763ZM100.158 10.6914C100.158 10.366 100.158 10.1801 100.111 9.99413C100.018 9.06448 99.6446 8.59965 98.8975 8.55317C97.9636 8.46021 97.5433 8.83207 97.3099 9.76171C97.1698 10.4125 97.2165 11.0167 97.4033 11.6675C97.59 12.3182 98.1037 12.5507 98.7574 12.5507C99.4111 12.5507 99.8313 12.2718 100.018 11.621C100.111 11.2956 100.111 10.9238 100.158 10.6914Z" fill="currentColor"/>
    <path d="M56.4995 10.5981C56.4995 14.0843 54.3516 16.1295 50.8496 16.1295C47.3942 16.1295 45.1996 13.9448 45.2463 10.5051C45.293 7.11192 47.4876 4.92725 50.943 4.92725C54.3516 4.97373 56.4995 7.1584 56.4995 10.5981ZM49.4488 10.5051C49.4955 10.877 49.5422 11.2953 49.6356 11.6672C49.7289 12.0855 49.9624 12.3644 50.4293 12.5039C51.4099 12.7828 52.0636 12.4109 52.2971 11.4348C52.6239 9.99383 52.2037 8.7388 51.3165 8.55287C51.2698 8.55287 51.2231 8.55287 51.1764 8.55287C49.9624 8.45991 49.4955 9.0177 49.4488 10.5051Z" fill="currentColor"/>
    <path d="M34.5067 29.6094C34.5067 27.6106 34.5067 25.6584 34.5067 23.6596C34.5067 22.6835 34.6934 22.4976 35.6273 22.4976C37.7752 22.4976 39.9698 22.4976 42.1177 22.4976C42.9115 22.4976 43.2384 22.8229 43.2384 23.6131C43.2384 24.1709 43.2384 24.7287 43.2384 25.2865C43.2384 25.8908 42.9582 26.1697 42.3512 26.1232C41.4173 26.1232 40.4368 26.1232 39.5029 26.1232C39.0359 26.1232 38.7558 26.2162 38.7558 26.7739C38.7558 27.3317 38.9893 27.4712 39.5029 27.4712C40.2967 27.4712 41.0905 27.4712 41.8376 27.4712C42.4913 27.4712 42.7714 27.7501 42.7714 28.4008C42.7714 29.0051 42.7714 29.6558 42.7714 30.2601C42.7714 30.8644 42.4446 31.1433 41.8376 31.1433C41.0905 31.1433 40.3901 31.1898 39.643 31.1433C38.8959 31.0968 38.7091 31.4222 38.7091 32.0729C38.7558 33.2815 38.7091 34.49 38.7091 35.6986C38.7091 36.5817 38.5223 36.7677 37.5884 36.7677C36.888 36.7677 36.1876 36.7677 35.4872 36.7677C34.6934 36.8141 34.46 36.3493 34.46 35.6521C34.5533 33.6533 34.5067 31.6546 34.5067 29.6094Z" fill="currentColor"/>
    <path d="M79.5191 11.0166C79.6592 12.0392 79.3791 13.1548 79.846 14.3168C80.1262 14.9676 79.6592 15.5718 79.0055 15.8507C77.9782 16.2691 76.951 16.2691 76.0171 15.6183C75.6903 15.3859 75.5035 15.3859 75.1766 15.5718C73.9626 16.2691 72.6552 16.2691 71.3477 15.8043C70.1337 15.3394 69.48 14.1309 69.48 12.6899C69.48 11.2955 70.2738 10.1334 71.6279 9.66858C72.5618 9.29672 73.589 9.25023 74.5696 9.3432C74.8965 9.38968 75.3634 9.52913 75.4101 9.01782C75.5035 8.50651 75.1299 8.2741 74.663 8.22762C73.7291 8.13466 72.7952 8.32059 71.8614 8.553C71.301 8.69244 70.694 9.29672 70.2271 8.46003C69.7601 7.71631 70.1804 6.18239 70.8341 5.76405C71.7213 5.25275 72.7952 5.1133 73.7758 5.02033C74.8498 4.88089 75.877 4.92737 76.9043 5.15978C78.5853 5.57812 79.3791 6.64722 79.4724 8.59948C79.5658 9.38968 79.5191 10.1334 79.5191 11.0166ZM75.4101 12.2716C75.5035 11.6673 75.3634 11.2025 74.5696 11.2025C73.8692 11.2025 73.5423 11.6208 73.5423 12.3646C73.5423 13.1548 73.8692 13.4801 74.5696 13.5266C75.5035 13.5266 75.4568 12.9223 75.4101 12.2716Z" fill="currentColor"/>
    <path d="M124.065 10.6444C124.065 11.4346 124.065 12.1783 124.065 12.9685C124.065 13.2474 124.065 13.4798 124.205 13.7587C124.719 14.7348 124.345 15.6645 123.271 15.9434C122.291 16.2223 121.31 16.1758 120.517 15.525C120.19 15.2926 120.003 15.3391 119.723 15.525C118.695 16.1293 117.575 16.1758 116.407 15.8969C115.147 15.618 114.26 14.6418 114.073 13.3868C113.839 11.7135 114.353 10.5049 115.614 9.80768C116.641 9.24989 117.715 9.20341 118.836 9.24989C119.209 9.24989 119.863 9.57527 119.863 8.78506C119.863 8.08783 119.256 8.08783 118.789 8.13431C117.808 8.18079 116.874 8.36672 115.941 8.6921C114.913 9.01748 114.68 8.83155 114.68 7.76245C114.68 6.08908 114.913 5.71722 116.594 5.34537C118.135 4.97351 119.676 4.83406 121.264 5.15944C123.085 5.5313 123.972 6.64687 124.019 8.50617C124.065 9.20341 124.019 9.94712 124.065 10.6444C124.019 10.6444 124.065 10.6444 124.065 10.6444ZM119.956 12.5037C119.956 11.4346 119.816 11.2022 119.162 11.2022C118.509 11.2022 118.042 11.7135 118.042 12.4107C118.042 13.1079 118.415 13.4798 119.116 13.5263C120.003 13.5263 119.956 12.9685 119.956 12.5037Z" fill="currentColor"/>
    <path d="M157.872 11.4814C157.125 11.4814 156.377 11.4814 155.584 11.4814C155.07 11.4814 155.023 11.7138 155.21 12.0857C155.444 12.597 155.957 12.7829 156.471 12.8294C157.545 12.9223 158.572 12.9223 159.599 12.597C160.486 12.3181 160.767 12.5505 160.813 13.5266C160.86 14.6887 160.58 15.1535 159.506 15.5718C158.012 16.1761 156.471 16.3156 154.883 16.0367C152.689 15.6183 151.475 14.2703 151.008 12.0857C150.494 9.38968 151.288 6.92612 153.156 5.76405C155.023 4.64848 156.984 4.60199 158.899 5.57813C160.673 6.50777 160.953 8.22762 160.953 9.99395C160.953 10.2264 160.86 10.4588 160.86 10.6912C160.86 11.2025 160.58 11.3884 160.113 11.3884C159.413 11.4814 158.619 11.4814 157.872 11.4814ZM156.097 9.3432C156.564 9.20375 157.265 9.57561 157.218 8.73893C157.218 8.08818 156.844 7.7628 156.191 7.7628C155.537 7.7628 155.023 8.18114 155.07 8.83189C155.117 9.6221 155.77 9.20375 156.097 9.3432Z" fill="currentColor"/>
    <path d="M92.1265 32.2587C91.4261 32.2587 90.7257 32.2587 90.0253 32.2587C89.7918 32.2587 89.4183 32.1658 89.3249 32.5376C89.2315 32.9095 89.4183 33.1884 89.6984 33.3743C90.3988 33.7926 91.1926 33.8391 91.9864 33.7462C92.5934 33.6997 93.2005 33.5602 93.8075 33.4208C94.648 33.2348 94.8814 33.4208 94.9281 34.3039C94.9748 35.5125 94.6947 36.0238 93.574 36.4886C91.893 37.1394 90.1654 37.2323 88.4844 36.7675C86.4299 36.2097 85.2158 34.4899 85.029 32.0263C84.9824 31.2361 85.029 30.4924 85.2158 29.7022C86.0563 26.216 90.4455 24.6356 93.3872 26.6808C94.7414 27.6105 95.5351 30.3065 94.9748 31.8869C94.8347 32.2587 94.6013 32.3052 94.2744 32.3052C93.574 32.2587 92.8736 32.2587 92.1265 32.2587ZM90.2121 30.167C90.679 30.074 91.3794 30.3994 91.3794 29.5163C91.3794 28.8655 91.0058 28.5401 90.3521 28.5401C89.6984 28.5401 89.2315 29.0514 89.2782 29.7022C89.2782 30.4459 89.8852 29.9811 90.2121 30.167Z" fill="currentColor"/>
    <path d="M144.891 10.8305C145.498 9.15711 146.058 7.66967 146.525 6.18223C146.758 5.43851 147.225 5.11314 148.019 5.15962C148.673 5.2061 149.327 5.15962 149.98 5.15962C150.961 5.2061 151.194 5.53148 150.821 6.41464C149.747 9.06414 148.533 11.6207 147.552 14.3167C147.039 15.6182 146.338 15.99 144.984 15.99C143.583 15.99 142.789 15.6182 142.276 14.2237C141.295 11.6207 140.128 9.06414 139.054 6.50761C138.634 5.485 138.821 5.15962 139.894 5.15962C140.595 5.15962 141.295 5.15962 141.996 5.15962C142.603 5.15962 142.976 5.43851 143.21 6.04279C143.723 7.57671 144.284 9.11062 144.891 10.8305Z" fill="currentColor"/>
    <path d="M126.307 10.9237C126.307 10.1799 126.307 9.43621 126.307 8.6925C126.307 8.27415 126.213 7.94878 125.7 7.90229C125.093 7.85581 124.906 7.53043 124.953 6.97265C124.953 6.64727 124.953 6.27541 124.953 5.95003C124.953 5.67114 125.046 5.34576 125.326 5.29928C126.4 5.2528 126.26 4.50908 126.307 3.81184C126.307 2.88219 126.494 2.69626 127.474 2.69626C128.128 2.69626 128.828 2.74275 129.482 2.69626C130.276 2.64978 130.556 3.02164 130.509 3.76536C130.509 3.90481 130.509 4.09074 130.509 4.23018C130.416 4.92742 130.696 5.20631 131.396 5.20631C132.377 5.20631 132.47 5.39224 132.424 6.69375C132.424 7.71636 132.284 7.90229 131.396 7.90229C130.649 7.90229 130.462 8.18119 130.509 8.87842C130.556 9.994 130.556 11.0631 130.509 12.1787C130.509 12.8759 130.743 13.2478 131.443 13.0154C132.19 12.8294 132.424 13.1548 132.424 13.8056C132.47 15.1536 132.05 15.7113 130.743 15.9902C130.276 16.0832 129.855 16.1297 129.389 16.1297C127.427 16.1297 126.494 15.3395 126.307 13.3872C126.26 12.597 126.353 11.7603 126.307 10.9237Z" fill="currentColor"/>
    <path d="M56.7327 31.9799C56.7327 31.1432 56.7327 30.2601 56.7327 29.4234C56.7327 29.005 56.6393 28.6797 56.1256 28.7262C55.4719 28.7262 55.2852 28.4008 55.2852 27.7965C55.2852 27.5176 55.2852 27.1922 55.2852 26.9133C55.2852 26.402 55.4719 26.0767 56.0323 26.0767C56.5459 26.1231 56.7327 25.8442 56.7327 25.3329C56.6393 23.2877 56.7794 23.4736 58.6471 23.4736C60.6549 23.4736 60.7016 23.4736 60.8417 25.4259C60.8884 25.9372 61.1686 26.0302 61.5888 26.0302C62.0091 26.0302 62.5694 25.8907 62.7095 26.4485C62.8962 27.0993 62.9429 27.7965 62.6628 28.4008C62.476 28.7726 62.0557 28.6797 61.6822 28.6797C61.0285 28.6332 60.8417 28.9121 60.8417 29.5164C60.8884 30.6784 60.8884 31.8405 60.8417 32.9561C60.8417 33.6068 61.0285 33.9322 61.7289 33.7927C62.6161 33.6533 62.7562 33.7927 62.7562 34.6759C62.8028 35.9309 62.4293 36.4422 61.1686 36.7211C60.2814 36.9535 59.3475 37 58.4603 36.7211C57.3864 36.4422 56.7327 35.6055 56.686 34.49C56.7327 33.6998 56.7327 32.8631 56.7327 31.9799Z" fill="currentColor"/>
    <path d="M68.173 7.94859C68.173 10.1797 68.173 12.4109 68.173 14.6421C68.173 15.8041 68.0329 15.9436 66.8655 15.9436C66.2118 15.9436 65.5581 15.9436 64.9044 15.9436C64.2507 15.9436 63.9238 15.6647 63.9238 14.9674C63.9238 14.2237 63.9238 13.48 63.9238 12.6898C63.9238 8.92472 63.9238 5.11316 63.9238 1.34809C63.9238 0.139543 64.0639 -0.0463867 65.3246 -0.0463867C65.885 -0.0463867 66.3986 -0.0463867 66.9589 -0.0463867C67.9395 9.5699e-05 68.1263 0.186025 68.173 1.16216C68.173 3.43979 68.173 5.71743 68.173 7.94859Z" fill="currentColor"/>
    <path d="M62.0093 7.99537C62.0093 10.3195 62.0093 12.5971 62.0093 14.9212C62.0093 15.665 61.7291 16.0368 60.982 15.9903C60.2349 15.9903 59.4878 15.9903 58.694 15.9903C58.1337 15.9903 57.8535 15.7114 57.8535 15.1537C57.8535 10.4125 57.8535 5.67125 57.8535 0.930041C57.8535 0.325769 58.1804 0.046875 58.7407 0.046875C59.4411 0.046875 60.1415 0.046875 60.8419 0.046875C61.8225 0.046875 61.9626 0.232805 61.9626 1.16245C62.0092 3.44009 62.0093 5.71773 62.0093 7.99537Z" fill="currentColor"/>
    <path d="M109.87 12.7363C109.87 13.5265 109.87 14.2702 109.87 15.0604C109.87 15.6647 109.59 15.9436 108.983 15.9436C108.189 15.9436 107.349 15.9436 106.555 15.9436C105.948 15.9436 105.668 15.6182 105.668 15.0604C105.668 12.0855 105.668 9.11067 105.668 6.1358C105.668 5.53153 105.995 5.15967 106.602 5.20615C107.629 5.20615 108.75 5.0667 109.497 6.04283C109.777 6.36821 109.964 6.08932 110.197 5.94987C110.804 5.48504 111.505 5.20615 112.298 5.15967C113.326 5.15967 113.793 5.57801 113.793 6.60062C113.793 7.43731 113.793 8.27399 113.793 9.11067C113.746 9.94736 113.419 10.1333 112.719 9.76143C112.018 9.38957 111.318 9.34309 110.618 9.52902C110.151 9.66846 109.87 9.90087 109.917 10.4587C109.917 11.1559 109.87 11.9461 109.87 12.7363Z" fill="currentColor"/>
    <path d="M80.5464 33.5606C80.5464 34.3508 80.5464 35.1875 80.5464 35.9777C80.5464 36.489 80.3129 36.7679 79.7526 36.7679C78.8654 36.7679 78.0249 36.7679 77.1377 36.7679C76.6241 36.7679 76.3906 36.489 76.3906 36.0242C76.3906 32.9564 76.3906 29.8885 76.3906 26.8672C76.3906 26.3559 76.6708 26.077 77.1844 26.077C78.3051 26.1234 79.4724 25.8445 80.3129 26.9601C80.4997 27.239 80.6864 26.9601 80.8265 26.8207C81.4335 26.3559 82.0872 26.077 82.8343 25.984C83.9083 25.8446 84.562 26.4023 84.562 27.4714C84.562 28.3081 84.6087 29.1448 84.562 29.9815C84.5153 30.7252 84.1885 30.9111 83.4881 30.6322C83.2079 30.4928 82.881 30.3533 82.6009 30.2604C81.2935 29.9815 80.5931 30.5393 80.5931 31.8408C80.5464 32.3986 80.5464 32.9564 80.5464 33.5606Z" fill="currentColor"/>
    <path d="M133.731 10.5051C133.731 9.06419 133.731 7.66972 133.731 6.22876C133.731 5.48504 134.058 5.15967 134.805 5.15967C135.552 5.15967 136.252 5.15967 137 5.15967C137.607 5.15967 137.98 5.43856 137.98 6.08932C137.98 9.11067 137.98 12.0855 137.98 15.1069C137.98 15.7112 137.607 15.9436 137.046 15.9436C136.299 15.9436 135.552 15.9436 134.758 15.9436C134.011 15.9436 133.731 15.6182 133.731 14.921C133.731 13.48 133.731 11.9926 133.731 10.5051Z" fill="currentColor"/>
    <path d="M135.832 0.0927734C136.906 0.0927734 137.793 0.929457 137.84 1.99855C137.887 3.06765 136.953 4.04378 135.879 4.04378C134.851 4.04378 133.918 3.16061 133.871 2.09152C133.824 0.975939 134.711 0.0927734 135.832 0.0927734Z" fill="currentColor"/>
</svg>