<svg width="41" height="43" viewBox="0 0 41 43" fill="currentColor" xmlns="http://www.w3.org/2000/svg">
    <path d="M40.7247 14.5854C40.3962 13.8764 39.8244 13.3607 39.1546 13.0899L4.01846 0.201979L3.88193 0.154707C3.58326 0.051569 3.2718 0 2.94753 0C2.77686 0 2.60619 0.0171897 2.43553 0.0472716C0.831254 0.330901 -0.239683 1.87368 0.0461846 3.48951L6.52727 40.5419C6.65954 41.2896 7.07341 41.9901 7.73901 42.4628C8.25101 42.8238 8.84408 43 9.42435 43C10.1156 43 10.7982 42.755 11.3401 42.2952L11.3444 42.2909L11.3529 42.2823L39.8756 18.1781L39.897 18.1609L40.0164 18.0578C40.9637 17.2026 41.2837 15.8059 40.7247 14.5854ZM12.6713 27.6625C12.6713 29.9831 11.6772 31.1434 9.68462 31.1434C9.34328 31.1434 9.15555 31.1348 8.96781 31.109C8.86115 31.0918 8.77581 31.0059 8.75448 30.8985L8.46861 29.2955C8.45155 29.1881 8.54541 29.0978 8.65208 29.1107C8.86541 29.1408 9.07448 29.158 9.28355 29.158C9.68035 29.158 9.97048 29.0592 10.1497 28.8572C10.3332 28.6552 10.427 28.3243 10.427 27.8559V14.9421C10.427 14.8519 10.4996 14.7831 10.5892 14.7831H12.5134C12.603 14.7831 12.6713 14.8562 12.6713 14.9421V27.6625ZM11.5534 12.2605C10.7001 12.2605 10.0089 11.5644 10.0089 10.7049C10.0089 9.84539 10.7001 9.14921 11.5534 9.14921C12.4068 9.14921 13.098 9.84539 13.098 10.7049C13.098 11.5644 12.4068 12.2605 11.5534 12.2605ZM25.4713 25.4364C25.4713 25.5267 25.4031 25.5997 25.3135 25.5997H23.3892C23.2996 25.5997 23.2271 25.5267 23.2271 25.4364V18.9774C23.2271 17.2713 22.4591 16.4162 20.9188 16.4162H20.8975C19.9375 16.4162 18.9774 16.7814 18.4228 17.4991C17.8638 18.2168 17.7828 18.8313 17.7828 20.4256V25.4321C17.7828 25.5224 17.7102 25.5954 17.6206 25.5954H15.6964C15.6068 25.5954 15.5342 25.5224 15.5342 25.4321V8.71947C15.5342 8.60773 15.6452 8.53038 15.7476 8.56906L17.6761 9.27384C17.7401 9.29532 17.7828 9.35549 17.7828 9.42425V15.2601C17.7828 15.2601 17.9577 15.1226 17.9876 15.1054C18.0601 15.0539 18.1326 15.0023 18.2052 14.955C18.3545 14.8605 18.5081 14.7745 18.666 14.6929C18.9817 14.5382 19.3102 14.4178 19.6516 14.3319C20.3385 14.16 21.0596 14.1342 21.7593 14.2417C22.5231 14.3577 23.2612 14.6069 23.914 15.0625C24.4857 15.4578 24.8953 16.0509 25.1428 16.6998C25.3903 17.353 25.4756 18.0621 25.4756 18.7582L25.4713 25.4364Z" fill="currentColor"/>
</svg>