<svg width="262" height="168" viewBox="0 0 262 168" fill="none" xmlns="http://www.w3.org/2000/svg">
    <path d="M261.268 104.733C261.268 104.59 261.414 104.448 261.414 104.305C261.853 103.735 262.146 103.023 261.561 102.31C261.414 102.168 261.414 101.74 261.414 101.598C261.414 101.313 261.414 101.028 261.414 100.743C261.414 99.4605 261.414 98.0356 261.561 96.7532C261.561 95.8982 261.561 94.9008 261.561 94.0458C261.561 92.0509 261.414 90.056 261.414 88.0611C261.414 86.6361 261.414 85.3537 261.414 83.9287C261.414 81.9338 261.414 79.7964 261.414 77.8015C261.414 76.8041 261.414 75.6641 261.561 74.6667C261.561 72.2443 261.707 69.9644 261.707 67.542C261.707 63.9796 261.707 60.4173 261.561 56.855C261.561 56.57 261.561 56.285 261.561 56C261.561 55.43 261.561 54.86 261.561 54.2901C261.561 53.0076 261.561 51.5827 261.414 50.3003C261.414 50.0153 261.414 49.5878 261.414 49.3028C261.414 48.1628 261.268 46.8804 261.268 45.7405C261.268 44.6005 261.268 43.4606 261.268 42.4631C261.268 41.1807 261.121 40.0407 261.121 38.7583C261.121 36.6209 261.121 34.341 261.121 32.2036C261.121 30.2087 261.414 28.0712 261.121 26.0763C260.828 24.5089 260.682 22.799 260.535 21.2316C260.389 20.5191 260.389 19.8066 260.242 19.0941C259.803 16.1018 259.51 13.1094 259.071 10.117C258.924 9.26209 258.778 8.54962 258.632 7.69466C258.339 6.41221 258.046 5.27226 257.606 3.98982C257.606 3.70483 257.46 3.56234 257.313 3.27735C257.167 2.84987 257.021 2.56489 256.728 2.2799C256.435 1.85242 256.142 1.56743 255.703 1.28244C255.117 0.712468 254.384 0.569975 253.652 0.427481C253.359 0.427481 252.92 0.427481 252.627 0.284987C251.602 0.142494 250.577 0.142494 249.698 0C248.526 0 247.355 0 246.33 0C244.865 0 243.547 0.142494 242.229 0.712468C241.936 0.854962 241.643 0.854962 241.35 0.997455C240.325 1.28244 239.3 1.42494 238.275 1.56743C237.396 1.70992 236.518 1.99491 235.639 2.2799C234.467 2.56489 233.296 2.84987 232.27 3.13486C231.831 3.27735 231.392 3.27735 230.952 3.41985C229.488 3.84733 228.17 4.27481 226.705 4.5598C224.509 4.98728 222.312 5.55725 220.115 5.84224C217.186 6.26972 214.257 6.83969 211.328 7.12468C210.156 7.26718 209.131 7.40967 208.106 7.69466C206.788 7.97964 205.616 8.40712 204.298 8.69211C202.834 8.9771 201.516 9.26209 200.051 9.40458C199.905 9.40458 199.905 9.40458 199.758 9.40458C197.855 9.68957 195.804 9.97455 193.9 10.402C191.557 10.8295 189.36 11.3995 187.017 11.827C185.699 12.112 184.381 12.3969 183.063 12.6819C181.891 12.9669 180.72 13.3944 179.548 13.6794H179.402C178.962 13.8219 178.523 13.8219 178.23 13.9644C177.205 14.2494 176.326 14.5344 175.301 14.6768C173.983 14.9618 172.519 15.2468 171.201 15.5318C170.029 15.8168 168.711 16.1018 167.539 16.2443C165.343 16.6718 163.146 17.2417 161.095 17.6692C160.07 17.9542 159.045 18.0967 158.02 18.2392C157.581 18.2392 156.995 18.3817 156.556 18.3817C154.798 18.6667 153.187 18.9517 151.43 19.3791C150.844 19.5216 150.112 19.6641 149.526 19.8066C148.501 20.0916 147.622 20.3766 146.597 20.5191C145.718 20.8041 144.839 20.9466 143.814 21.2316C141.178 21.944 138.542 22.6565 135.906 23.369C133.27 24.0814 130.634 24.6514 127.998 25.3639C127.558 25.5064 127.265 25.5064 126.826 25.3639C126.826 25.3639 126.826 25.3639 126.68 25.3639C126.24 25.2214 125.947 25.3639 125.508 25.5064C124.483 25.7913 123.458 26.0763 122.433 26.5038C121.554 26.7888 120.675 26.7888 119.943 27.2163C119.65 27.5013 119.211 27.5013 118.771 27.6438C117.453 28.0712 116.135 28.3562 114.817 28.7837C114.231 28.9262 113.646 29.0687 113.206 29.2112C112.767 29.3537 112.327 29.3537 111.888 29.3537C111.009 29.3537 110.131 29.4962 109.398 29.7812C109.252 29.7812 108.959 29.9237 108.813 29.9237C107.641 30.0662 106.616 30.6361 105.591 31.0636C104.858 31.3486 104.273 31.6336 103.54 31.9186C103.248 32.0611 102.955 32.2036 102.662 32.2036C102.515 32.2036 102.369 32.3461 102.222 32.3461C102.076 32.3461 102.076 32.3461 101.929 32.4885C101.344 32.4885 101.051 32.916 100.611 33.201C100.318 33.486 99.8792 33.771 99.5863 33.9135C99.4398 34.056 99.1469 34.1985 99.0004 34.341C99.0004 34.4835 98.854 34.626 98.854 34.7684C98.5611 35.1959 98.1218 35.6234 97.8288 36.0509C97.6824 36.1934 97.5359 36.3359 97.3895 36.4784C96.6572 37.1908 96.2179 37.9033 96.0714 38.9008C96.0714 39.4707 95.925 39.8982 95.7785 40.3257C95.6321 40.8957 95.4856 41.4656 95.3392 41.8931C95.1927 42.7481 95.1927 43.6031 95.0463 44.458C94.7534 45.8829 94.8998 47.3079 94.7534 48.8753C94.7534 50.3003 94.7534 51.7252 94.6069 53.0076C94.6069 54.2901 94.6069 55.43 94.4605 56.7125C94.4605 56.855 94.4605 56.9975 94.4605 57.2824C94.314 58.4224 94.314 59.5623 94.0211 60.7023C93.7282 61.6997 93.8747 62.8397 93.8747 63.9796C93.8747 64.9771 94.0211 65.9746 94.0211 66.972C94.0211 67.6845 94.1676 68.2545 94.1676 68.9669C94.1676 69.5369 94.1676 70.1069 94.1676 70.6768C94.1676 71.5318 94.1676 72.2443 94.6069 73.0992C94.6069 73.2417 94.6069 73.3842 94.6069 73.6692C94.6069 73.9542 94.6069 74.0967 94.6069 74.2392C94.6069 74.3817 94.4605 74.3817 94.4605 74.3817C94.314 74.3817 94.1676 74.3817 93.8747 74.3817C93.4353 74.2392 93.1424 74.2392 92.8495 74.6667C92.7031 74.8092 92.4102 74.9516 92.2637 74.9516C90.9457 75.2366 89.6276 75.6641 88.3096 75.9491C87.4308 76.2341 86.5521 76.3766 85.6734 76.6616C85.2341 76.8041 84.7947 76.9466 84.2089 77.0891C84.0625 77.0891 84.0625 77.0891 83.916 77.2315C83.0373 77.5165 82.1586 77.8015 81.2799 78.0865C80.8406 78.229 80.4012 78.3715 79.9619 78.514C79.5225 78.6565 79.2296 78.6565 78.7903 78.799C77.9116 78.9415 77.1793 79.2265 76.3006 79.369C76.0077 79.369 75.7148 79.5114 75.5684 79.5114C73.518 79.9389 71.4677 80.2239 69.5639 80.9364C68.9781 81.0789 68.5387 81.3639 67.9529 81.5064C65.9026 82.0763 63.9988 82.6463 61.9485 83.0738C61.6556 83.2163 61.3627 83.2163 61.0698 83.2163C60.0446 83.5013 59.0194 83.9287 57.9943 84.3562C57.7014 84.4987 57.4085 84.4987 56.9691 84.6412C56.8227 84.6412 56.5298 84.7837 56.3833 84.9262C55.944 85.0687 55.6511 85.2112 55.2117 85.3537C53.6008 85.9237 51.8434 86.3511 50.2324 86.7786C49.3537 87.0636 48.3286 87.4911 47.4499 87.6336C46.1318 88.0611 44.6673 88.2036 43.2028 88.631C42.4705 88.916 41.5918 89.0585 40.8596 89.3435C38.9557 89.9135 37.0519 90.4835 35.148 90.9109C35.0016 90.9109 35.0016 90.9109 34.8551 90.9109C34.2693 91.0534 33.6835 91.1959 32.9512 91.3384C31.9261 91.6234 31.0474 91.9084 30.1687 92.3359C28.4113 93.0483 26.5074 93.3333 24.6036 94.0458C23.432 94.4733 22.1139 94.7583 20.7959 95.1857C20.0636 95.4707 19.1849 95.6132 18.4526 95.7557H18.3062C16.5488 96.3257 14.9378 96.8957 13.1804 97.4656C12.4482 97.7506 11.5695 98.0356 10.8372 98.3206C9.81206 98.7481 8.78691 99.1756 7.90821 99.603C7.76176 99.7455 7.46885 99.7455 7.3224 99.7455C7.17595 99.7455 7.0295 99.7455 6.88305 99.7455C6.1508 99.888 5.565 100.173 5.12565 100.743C4.39339 101.455 3.51469 102.025 2.78244 102.88L2.63599 103.023C2.48954 103.165 2.34309 103.308 2.34309 103.45C2.05018 103.878 1.61083 104.163 1.31793 104.59C1.17148 104.733 0.87858 105.018 0.87858 105.16C0.585679 106.015 0.292778 106.87 0.585679 107.868C0.585679 108.01 0.585679 108.153 0.585679 108.438C0.585679 108.58 0.585679 108.865 0.585679 109.008C0.585679 109.15 0.585679 109.293 0.585679 109.435C0.585679 110.005 0.73213 110.575 0.87858 111.145C0.87858 111.43 1.02503 111.573 1.02503 111.857C1.02503 112 1.17148 112.142 1.31793 112.285C0.87858 112.57 1.02503 112.57 1.02503 112.712C1.17148 112.855 1.02503 112.997 1.17148 113.14C1.31793 113.282 1.46438 113.425 1.46438 113.567C1.90373 114.28 2.34309 114.992 3.07534 115.562C3.36824 115.705 3.51469 115.847 3.80759 115.99C4.83274 116.702 6.00435 117.415 7.17595 117.985C7.3224 118.555 7.46885 119.125 7.76176 119.41C8.78691 120.407 9.81206 121.405 10.9837 121.975C10.9837 121.975 11.1301 121.975 11.1301 122.117C12.4482 122.83 13.7662 123.399 15.0843 124.112C16.5488 124.967 18.1597 125.537 19.6242 126.249C20.3565 126.534 21.0888 126.819 21.6746 127.104C23.5784 127.959 25.6287 128.529 27.5326 129.384C28.7042 129.812 29.7293 130.382 30.9009 130.952C31.0474 130.952 31.1938 131.094 31.1938 131.237C32.0725 131.807 32.9512 132.377 33.9764 132.804C34.7087 133.089 35.5874 133.517 36.3196 133.802C36.759 133.944 37.0519 134.229 37.4912 134.371C38.8093 134.941 40.2738 135.511 41.4454 136.224C42.9099 137.079 44.3744 137.649 45.6924 138.789C45.8389 138.931 46.1318 139.074 46.2782 139.216C46.8641 139.644 47.4499 139.929 48.0357 140.214C48.6215 140.641 49.3537 140.926 49.9395 141.211C50.8182 141.781 51.8434 142.494 52.8685 142.779C53.015 142.779 53.1614 142.921 53.3079 142.921C53.6008 143.064 53.8937 143.206 54.1866 143.349C54.6259 143.634 55.0653 143.919 55.5046 144.061C55.944 144.204 56.3833 144.489 56.8227 144.774C56.9691 144.774 57.1156 144.916 57.1156 144.916C58.873 146.198 60.9233 146.911 62.8272 147.766C62.9736 147.766 63.1201 147.908 63.1201 147.908C64.8775 148.621 66.6349 149.476 68.3923 150.473C69.271 150.901 70.1497 151.471 71.0284 152.041C71.1748 152.041 71.3213 152.183 71.3213 152.183C72.7858 153.038 74.2503 153.751 75.8613 154.463C76.4471 154.748 76.8864 155.033 77.4722 155.176C78.3509 155.603 79.2296 156.031 80.1083 156.458C80.4012 156.601 80.6941 156.743 80.987 156.885C81.7193 157.17 82.598 157.455 83.1838 158.025L83.3302 158.168C83.3302 158.168 83.3302 158.168 83.4767 158.168C83.6231 158.168 83.6231 158.31 83.7696 158.31C84.3554 158.31 84.6483 158.595 84.9412 159.023C84.9412 159.023 84.9412 159.023 85.0876 159.165C85.527 159.593 85.8199 159.878 86.4057 159.735C86.5521 159.735 86.6986 159.878 86.9915 160.02C87.7238 160.448 88.456 160.875 89.0418 161.303C89.3347 161.588 89.7741 161.873 90.067 162.158C90.2134 162.3 90.3599 162.3 90.3599 162.3C90.6528 162.3 90.7992 162.3 91.0921 162.443C91.8244 162.585 92.4102 163.013 93.1424 163.155C93.7282 163.298 94.314 163.44 94.8998 163.44C95.4856 163.44 96.0714 163.44 96.8037 163.298C96.9501 163.155 97.3895 163.155 97.3895 163.298L97.5359 163.44C97.8288 163.725 98.2682 164.01 98.5611 164.295C98.854 164.438 99.0004 164.723 99.1469 165.008C99.1469 165.15 99.4398 165.293 99.5863 165.435C99.5863 165.435 99.5862 165.435 99.7327 165.435C100.026 165.578 100.319 165.863 100.465 166.005C100.465 166.005 100.611 166.005 100.611 166.148C100.904 166.433 101.344 166.718 101.783 166.86C102.076 167.003 102.369 167.003 102.662 167.145C103.248 167.288 103.687 167.43 104.273 167.573C104.566 167.573 104.858 167.715 105.005 167.715C105.151 167.715 105.298 167.715 105.444 167.715L237.103 129.669C238.128 129.384 239.007 128.957 240.032 128.672C240.179 128.672 240.325 128.529 240.472 128.529C241.497 128.102 242.522 127.817 243.547 127.389C244.133 127.104 244.865 126.819 245.451 126.677C245.744 126.534 245.89 126.534 246.183 126.534C246.623 126.392 247.062 126.392 247.355 126.107C247.501 126.107 247.501 125.964 247.648 125.964C247.794 125.822 247.941 125.822 248.087 125.822C248.087 125.822 248.087 125.822 248.234 125.822C249.405 125.679 250.137 124.967 251.163 124.539C251.748 124.254 252.334 123.969 252.774 123.542C253.359 123.114 253.945 122.545 254.677 122.26C254.824 122.26 254.97 122.117 255.117 122.117C255.263 122.117 255.263 121.975 255.41 121.832C255.703 121.547 255.995 121.12 256.435 120.835C256.581 120.692 256.581 120.692 256.728 120.55C257.021 120.265 257.167 120.122 257.46 119.837C257.606 119.695 257.606 119.552 257.753 119.41C257.753 119.41 257.753 119.267 257.899 119.267C258.046 118.982 258.339 118.697 258.485 118.412C258.485 118.412 258.485 118.27 258.632 118.27C259.071 117.7 259.364 116.987 259.657 116.417C259.657 116.275 259.803 116.132 259.803 116.132C260.096 115.705 260.243 115.135 260.389 114.707C260.682 113.14 260.828 111.43 260.975 109.863C260.975 109.435 261.121 109.008 261.268 108.58C261.414 108.295 261.414 107.868 261.414 107.583C261.414 107.298 261.121 107.013 260.975 106.728C260.975 106.585 260.975 106.585 260.975 106.443C261.121 106.3 261.268 106.015 261.121 105.73C261.121 105.73 261.121 105.588 261.121 105.445C261.268 105.16 261.268 105.018 261.268 104.733C261.268 104.733 261.268 104.875 261.268 104.733ZM94.8998 86.7786C94.8998 87.4911 94.8998 88.2036 95.0463 88.916C95.0463 89.486 95.1927 90.1985 95.1927 90.7684C95.1927 91.4809 95.1927 92.1934 95.1927 92.9058C95.1927 93.6183 95.1927 94.1883 95.3392 94.9008C95.3392 95.0432 95.3392 95.3282 95.3392 95.4707C95.3392 96.4682 95.1927 97.4656 95.1927 98.4631C95.1927 99.1756 94.8998 99.7455 94.1676 100.031C92.996 100.6 91.6779 101.028 90.5063 101.455C89.9205 101.598 89.4812 101.883 88.8954 102.168C88.3096 102.453 87.8702 102.595 87.1379 102.453C86.9915 102.453 86.845 102.453 86.845 102.453C85.8199 102.453 85.0876 102.025 84.3554 101.455C84.0625 101.17 83.6231 101.028 83.3302 100.885C82.4515 100.173 81.7193 99.603 80.8406 98.8906L68.6852 94.3308C67.8065 94.4733 67.3671 93.9033 66.7813 93.6183C66.7813 93.6183 66.7813 93.6183 66.7813 93.4758C66.9278 93.1908 67.0742 93.1908 67.3671 93.3333C68.8316 92.9058 72.2 92.1934 72.4929 92.0509C73.6645 91.7659 74.9826 91.3384 76.1542 91.0534C76.74 90.9109 77.3258 91.0534 77.9116 91.0534C78.7903 91.0534 79.5225 90.7684 80.4012 90.6259C82.1586 90.1985 84.0625 89.6285 85.8199 89.0585C86.6986 88.7735 87.7238 88.631 88.6025 88.3461C88.7489 88.3461 88.8954 88.2036 89.0418 88.2036C89.9205 88.3461 90.7992 87.9186 91.5315 87.6336C92.4102 87.3486 93.2889 87.0636 94.1676 86.7786C94.4605 86.7786 94.6069 86.7786 94.8998 86.7786ZM95.3392 152.753C95.4856 153.608 95.3392 154.463 95.1927 155.318C95.0463 156.031 95.1927 156.743 95.1927 157.455C95.3392 158.025 95.3392 158.595 95.3392 159.165C95.3392 159.735 95.1927 159.735 94.6069 159.878C93.7282 159.878 93.2889 159.45 92.7031 158.88C92.5566 158.738 92.4102 158.595 92.2637 158.595C91.0921 158.31 90.3599 157.598 89.3347 157.17C89.1883 157.17 89.0418 157.028 89.0418 157.028C88.7489 156.316 88.0167 156.173 87.5773 155.746C87.2844 155.461 86.845 155.176 86.4057 155.176C86.2592 155.176 85.9663 154.891 85.8199 154.748C85.3805 154.321 84.9412 154.036 84.2089 154.178C83.916 154.178 83.6231 154.178 83.3302 154.036C82.3051 153.608 81.1335 153.038 80.1083 152.611C79.2296 152.183 78.3509 151.756 77.3258 151.328C76.74 151.043 76.3006 150.901 75.7148 150.616C74.3968 149.903 73.0787 149.191 71.7606 148.336C71.6142 148.193 71.3213 148.051 71.0284 148.051C69.4174 147.338 67.9529 146.483 66.342 145.771C65.7562 145.486 65.1704 145.344 64.5846 145.059C63.7059 144.631 62.6807 144.346 61.802 143.776C60.0446 142.779 58.2872 141.781 56.3833 140.784C55.2117 140.071 53.8937 139.644 52.7221 138.931C51.2576 138.076 49.9395 137.221 48.475 136.366C47.8892 135.939 47.3034 135.654 46.7176 135.369C45.6924 134.799 44.8137 134.371 43.7886 133.802C43.3492 133.517 42.9099 133.232 42.3241 132.947C41.5918 132.662 40.8596 132.377 40.2738 131.949C38.8093 131.237 37.3448 130.667 35.8803 129.954C35.4409 129.669 35.0016 129.384 34.5622 129.099C34.4158 129.099 34.4158 128.957 34.2693 128.957C33.2441 128.529 32.3654 127.959 31.3403 127.389C31.0474 127.247 30.608 127.104 30.3151 126.962C29.1435 126.534 27.9719 126.107 26.8003 125.537C25.3358 124.967 23.8713 124.254 22.5533 123.684C21.5281 123.257 20.3565 122.83 19.3313 122.402C18.4526 121.975 17.5739 121.547 16.6952 121.12C16.4023 120.977 15.963 120.835 15.6701 120.692C15.5236 120.692 15.3772 120.692 15.2307 120.55C14.6449 119.695 13.7662 119.125 12.8875 118.697C12.7411 118.555 12.4482 118.412 12.3017 118.27C11.8624 118.127 11.5695 117.7 11.423 117.272C11.2766 116.845 10.9837 116.56 10.6908 116.417C9.81206 115.847 8.93336 115.277 8.20111 114.707C7.90821 114.565 7.61531 114.28 7.3224 114.137C5.71145 113.282 4.53984 112 3.95404 110.29C3.51469 109.15 3.80759 108.01 4.24694 107.013C4.68629 106.015 5.565 105.303 6.29725 104.733C6.4437 104.59 6.59015 104.59 6.88305 104.59C7.0295 104.59 7.17595 104.448 7.3224 104.448C7.90821 103.735 8.78691 103.45 9.51916 103.165C10.105 102.88 10.6908 102.738 11.2766 102.453C12.0088 102.168 12.8875 101.883 13.6198 101.598C14.352 101.313 14.9378 101.028 15.6701 100.743C16.2559 100.458 16.9881 100.173 17.5739 100.031C19.9172 99.3181 22.1139 98.6056 24.4571 97.8931C24.75 97.7506 24.8965 97.7506 25.1894 97.7506C27.679 97.1807 30.1687 96.4682 32.5119 95.6132C33.0977 95.3282 33.83 95.1857 34.4158 95.0432C36.0267 94.6158 37.4912 94.1883 39.1022 93.7608C41.006 93.1908 43.0563 92.4784 44.9602 91.9084C46.1318 91.6234 47.3034 91.3384 48.475 90.9109H48.6215C50.2324 90.7684 51.5505 89.9135 53.1614 89.486C54.333 89.201 55.5046 88.7735 56.6762 88.3461C57.9943 87.9186 59.3123 87.3486 60.7769 86.9211C61.9485 86.4936 63.1201 86.2086 64.2917 85.9237C65.0239 85.7812 65.9026 85.6387 66.6349 85.4962C67.9529 85.0687 69.271 84.6412 70.589 84.2137C71.3213 83.9287 71.9071 83.7863 72.6393 83.5013C74.3968 83.0738 76.1542 82.6463 77.9116 82.3613C79.3761 82.0763 80.6941 81.6488 82.1586 81.2214C84.5018 80.5089 86.8451 79.6539 89.1883 79.2265C90.7992 78.9415 92.2637 78.3715 93.7282 77.944C94.4605 77.659 94.6069 77.8015 94.6069 78.514C94.6069 78.9415 94.6069 79.5114 94.6069 79.9389C94.6069 80.5089 94.4605 80.5089 94.0211 80.6514C93.4353 80.7939 92.8495 81.0789 92.2637 81.2214C91.9708 81.3639 91.8244 81.3639 91.5315 81.3639C90.9457 81.3639 90.3599 81.7913 89.9205 82.0763C89.6276 82.2188 89.4812 82.6463 89.3347 82.9313C89.0418 83.6438 88.7489 84.0712 87.8702 84.2137C86.9915 84.3562 86.1128 84.6412 85.0876 84.9262C83.916 85.2112 82.8909 85.4962 81.7193 85.7812C78.6438 86.6361 75.5684 87.3486 72.4929 88.2036C71.7606 88.3461 70.8819 88.631 70.1497 88.7735C69.8568 88.7735 69.5639 88.7735 69.4174 88.631C68.9781 88.4885 68.3923 88.2036 67.9529 88.2036C67.66 88.2036 67.2207 88.346 66.7813 88.4885C66.4884 88.631 66.0491 88.7735 65.7562 88.916C64.5846 89.486 63.413 89.486 62.2414 89.486C62.0949 89.486 61.9485 89.486 61.802 89.486C61.3627 90.1985 60.6304 90.7684 60.6304 91.6234C60.6304 92.1934 60.484 92.6209 60.6304 93.1908C60.7769 93.6183 61.0698 94.0458 61.3627 94.3308C61.9485 95.0432 62.6807 95.6132 63.5594 95.8982C64.4381 96.3257 65.1704 96.6107 66.0491 97.0382C66.7813 97.3231 67.66 97.6081 68.5387 97.8931C69.271 98.1781 70.0032 98.3206 70.7355 98.6056C71.7606 99.0331 72.9322 99.1756 73.811 99.7455C74.8361 100.316 76.0077 100.885 77.1793 101.455C77.3258 101.455 77.3258 101.455 77.4722 101.598C77.9116 101.883 78.3509 102.025 78.7903 102.31C79.0832 102.453 79.5225 102.738 79.8154 102.88C79.9619 103.023 80.2548 103.165 80.4012 103.308C80.5477 103.45 80.6941 103.593 80.8406 103.735C82.0122 104.305 82.8909 105.303 83.7696 106.3C84.6483 107.155 85.6734 107.725 86.845 107.725C87.1379 107.725 87.5773 107.725 88.0167 107.725C88.3096 107.298 88.7489 106.87 89.4812 107.013C89.6276 107.013 89.9205 106.87 90.067 106.585C90.5063 105.73 91.385 105.588 92.2637 105.303C93.1424 105.018 94.0211 104.59 94.7534 104.305C94.8998 104.163 95.1927 104.163 95.4856 104.163C95.4856 105.303 95.3392 106.3 95.3392 107.298C95.3392 108.01 95.3392 108.723 95.3392 109.435C95.3392 110.005 95.3392 110.575 95.3392 111.003C95.3392 111.43 94.8998 111.715 94.4605 111.43C93.7282 111.003 93.2889 111.288 92.7031 111.573C92.2637 111.858 91.6779 112.142 91.0921 112.285C88.1631 113.567 85.2341 114.992 82.3051 116.275C80.4012 117.13 78.4974 117.842 76.74 118.697C75.5684 119.125 74.3968 119.695 73.2251 120.122C72.7858 120.265 72.2 120.407 71.7606 120.55C71.0284 120.835 70.2961 121.262 69.5639 121.547C69.1245 121.69 68.5387 121.832 68.0994 121.975C67.9529 121.975 67.8065 121.975 67.66 122.117C66.7813 122.687 65.9026 123.115 64.8775 123.684C63.1201 124.682 62.3878 126.534 62.8272 128.387C62.9736 129.242 63.2665 130.239 63.5594 131.094C63.8523 131.807 64.1452 132.519 64.731 133.089C65.6097 133.944 66.0491 134.941 67.0742 135.511C67.5136 136.366 68.2458 136.651 68.9781 136.936C69.7103 137.364 70.4426 137.649 71.1748 137.934C72.2 138.219 73.0787 138.789 73.9574 139.216C75.7148 140.071 77.1793 141.211 78.9367 141.924C79.8154 142.351 80.6941 142.636 81.5728 143.064C82.3051 143.349 83.0373 143.776 83.7696 144.204C85.2341 145.201 86.845 145.771 88.3096 146.483C89.0418 146.768 89.7741 147.196 90.3599 147.766C90.7992 148.336 91.385 148.621 91.9708 149.048C92.1173 149.191 92.4102 149.191 92.5566 149.191C92.8495 149.333 93.1424 149.333 93.4353 149.476C94.0211 149.903 94.6069 149.903 95.3392 149.476C95.6321 150.331 95.3392 151.043 95.3392 151.756C95.3392 152.183 95.3392 152.468 95.3392 152.753ZM66.1955 93.4758C66.0491 93.6183 66.0491 93.6183 65.9026 93.4758L65.7562 93.3333C65.7562 93.3333 65.7562 93.3333 65.9026 93.1908C66.0491 93.3333 66.1955 93.3333 66.1955 93.4758ZM95.7785 144.346C95.7785 144.774 95.7785 145.201 95.7785 145.628C95.6321 145.486 95.4856 145.486 95.3392 145.344C95.1927 145.201 95.0463 145.059 94.7534 144.916C94.4605 144.916 94.314 144.489 94.0211 144.489C93.7282 144.346 93.4353 144.204 93.1424 144.061C92.7031 143.776 92.2637 143.206 91.6779 142.921C91.5315 142.921 91.385 142.779 91.2386 142.779C89.9205 142.494 88.8954 142.066 87.7238 141.354C86.6986 140.784 85.527 140.214 84.3554 139.786C83.916 139.644 83.6231 139.359 83.3302 139.216C82.7444 138.931 82.1586 138.789 81.5728 138.504C81.1335 138.219 80.5477 137.934 80.1083 137.791C79.3761 137.506 78.6438 137.079 78.058 136.794C77.7651 136.651 77.4722 136.509 77.3258 136.366C76.5935 135.939 75.8613 135.511 75.129 135.226C74.2503 134.941 73.518 134.514 72.6393 134.087C72.0535 133.802 71.6142 133.659 71.0284 133.517C70.7355 133.374 70.4426 133.374 70.2961 133.232C69.4174 132.234 68.0994 131.807 67.5136 130.667C67.3671 130.382 67.0742 130.097 66.9278 129.954C66.342 129.242 66.342 128.244 67.2207 127.674C67.8065 127.389 68.2458 126.677 68.9781 126.677C69.1245 126.677 69.271 126.392 69.5639 126.249C70.2961 125.822 71.0284 125.252 71.7606 124.824C73.518 124.112 75.129 123.257 76.74 122.545C78.6438 121.69 80.5477 120.977 82.3051 120.265C83.0373 119.98 83.7696 119.552 84.3554 119.267C86.6986 118.412 88.7489 116.987 91.0921 116.132C92.1173 115.705 93.2889 115.135 94.314 114.565C94.4605 114.422 94.7534 114.422 95.0463 114.422C95.0463 116.417 95.0463 118.127 95.0463 119.98C95.0463 120.977 95.0463 121.975 94.8998 123.114C94.6069 124.539 95.0463 125.822 95.0463 127.247C95.0463 128.672 95.0463 130.239 95.1927 131.664C95.1927 132.234 95.3392 132.804 95.4856 133.374C95.6321 135.369 95.7785 137.221 95.6321 139.216C95.6321 139.359 95.6321 139.644 95.6321 139.786C96.0714 141.354 95.7785 142.779 95.7785 144.346ZM258.485 73.8117C258.485 75.6641 258.339 77.659 258.339 79.5114C258.339 81.7913 258.192 84.2137 258.192 86.4936C258.192 87.6336 258.192 88.631 258.192 89.771C258.192 92.3359 258.192 94.7583 258.192 97.3232C258.192 98.0356 258.192 98.7481 258.192 99.3181C258.192 100.6 258.046 101.883 258.046 103.165C257.899 104.59 257.606 106.015 257.753 107.44C257.753 108.865 257.606 110.148 257.46 111.43C257.313 112.57 257.021 113.71 256.288 114.565C255.995 115.135 255.703 115.705 255.41 116.275C255.263 116.56 255.117 116.702 254.97 116.987C253.945 117.842 253.066 118.697 252.041 119.552C250.723 120.55 249.259 121.547 247.501 122.117C246.33 122.545 245.305 122.972 244.133 123.399C242.522 123.969 241.057 124.397 239.447 124.967C238.421 125.252 237.543 125.679 236.518 126.107L104.273 163.583C104.126 163.583 103.833 163.583 103.687 163.583C103.54 163.583 103.248 163.583 103.101 163.583C102.515 163.155 101.783 162.728 101.197 162.3C101.197 162.3 101.197 162.158 101.051 162.158C99.1469 161.018 99.7327 160.59 98.854 159.023C98.7075 158.738 98.7076 158.453 98.7076 158.168C98.5611 156.458 98.7076 154.748 98.7076 153.181C98.7076 152.468 98.7076 151.613 98.5611 150.901C98.5611 150.758 98.5611 150.473 98.5611 150.331C98.7076 148.906 98.7075 147.481 98.854 146.056C99.0004 144.631 99.1469 143.349 99.1469 141.924C99.1469 140.356 99.0004 138.789 99.0004 137.079C99.0004 135.796 99.0004 134.514 99.0004 133.232C99.0004 133.089 99.0004 132.947 99.0004 132.947C99.2933 132.377 99.1469 131.807 98.854 131.237C98.854 131.094 98.854 131.094 98.854 130.952C99.0004 129.527 98.4147 128.244 98.5611 126.962C98.5611 126.392 98.5611 125.822 98.4146 125.252C98.2682 123.684 98.4147 121.975 98.5611 120.407C98.5611 120.265 98.7076 120.122 98.5611 119.98C98.5611 118.982 98.4146 117.985 98.4146 116.987C98.4146 116.275 98.5611 115.562 98.5611 114.85C98.7076 113.425 98.7075 112 98.4146 110.575C98.4146 110.29 98.4146 109.863 98.4146 109.578C98.5611 108.723 98.5611 108.01 98.4146 107.298C98.4146 107.155 98.4146 106.87 98.4146 106.585C98.4146 105.303 98.5611 104.02 98.5611 102.738C98.5611 102.453 98.7076 102.31 98.7076 102.025C99.2934 101.313 99.1469 100.458 98.854 99.7455C98.4146 98.7481 98.2682 97.7506 98.4146 96.7532C98.5611 96.0407 98.4146 95.1857 98.4146 94.4733C98.4146 92.7634 98.2682 90.9109 98.1217 89.201C97.9753 87.3486 97.9753 85.3537 97.8288 83.5013C97.8288 82.2188 97.5359 80.7939 97.5359 79.5114C97.3895 78.3715 97.3895 77.2315 97.3895 76.0916C97.3895 75.3791 97.243 74.6667 97.0966 73.9542C97.0966 73.2417 97.0966 72.6718 96.9501 71.9593C96.8037 70.3919 96.6572 68.9669 96.5108 67.3995C96.3643 65.8321 96.3643 64.4071 96.5108 62.8397C96.6572 61.6997 96.8037 60.4173 96.9501 59.2773C96.9501 59.1349 96.9501 58.9924 96.9501 58.8499C97.0966 56 97.0966 53.2926 97.243 50.4427C97.243 49.3028 97.5359 48.0204 97.6824 46.8804C97.6824 46.4529 97.6824 46.0254 97.6824 45.4555C97.6824 44.0305 97.9753 42.7481 98.4146 41.3232C98.4146 41.1807 98.4147 41.0382 98.5611 41.0382C99.2934 40.3257 99.5863 39.3282 100.172 38.4733C100.319 38.3308 100.319 38.1883 100.465 38.1883C101.051 38.0458 101.344 37.6183 101.637 37.1908C101.783 36.9059 102.076 36.7634 102.369 36.6209C102.955 36.1934 103.54 35.7659 104.126 35.3384C104.566 35.0534 105.005 34.9109 105.591 34.626C105.884 34.4835 106.323 34.4835 106.616 34.1985C107.495 33.771 108.373 33.3435 109.398 33.3435C111.009 33.201 112.62 32.916 114.085 32.631C115.11 32.4885 116.282 32.0611 117.307 31.7761C118.332 31.4911 119.504 31.0636 120.529 30.7786C120.822 30.6361 121.114 30.6361 121.407 30.6361C122.725 30.3511 123.897 30.0662 125.069 29.3537C125.215 29.2112 125.508 29.2112 125.654 29.2112C126.24 29.0687 126.826 29.0687 127.412 29.0687C128.437 29.0687 129.316 28.7837 130.194 28.4987C131.366 28.2137 132.538 27.9288 133.709 27.7863C134.734 27.5013 135.613 27.3588 136.638 27.0738C138.396 26.6463 140.153 26.2188 141.91 25.7913C143.375 25.3639 144.839 25.0789 146.304 24.5089C147.183 24.0814 148.208 23.9389 149.233 23.7964C150.844 23.369 152.308 23.084 153.919 22.799C156.263 22.3715 158.606 21.944 160.949 21.5165C162.999 21.0891 165.05 20.6616 167.1 20.2341C167.979 20.0916 168.857 19.9491 169.59 19.6641C171.054 19.3791 172.372 19.0941 173.837 18.8092C174.862 18.6667 175.741 18.5242 176.766 18.2392C177.937 17.9542 178.962 17.6692 179.988 17.3842C181.745 16.9567 183.649 16.3868 185.406 15.9593C186.431 15.6743 187.457 15.3893 188.482 15.2468C189.946 14.9618 191.264 14.6768 192.729 14.3919C194.486 14.1069 196.244 13.6794 197.855 13.3944C199.612 13.1094 201.369 12.8244 203.127 12.5394C203.713 12.3969 204.298 12.2545 204.884 12.112C206.056 11.827 207.081 11.542 208.253 11.257C209.278 10.972 210.449 10.972 211.474 10.8295C212.353 10.687 213.232 10.5445 214.111 10.402C216.6 10.2595 218.943 9.54707 221.287 9.26209C222.898 8.9771 224.509 8.69211 226.12 8.40712C227.145 8.12214 228.17 7.83715 229.195 7.55216C230.659 7.26718 231.978 6.6972 233.442 6.41221C235.199 6.12723 236.957 5.55725 238.714 5.12977C241.057 4.5598 243.401 4.13232 245.89 3.56234C246.476 3.41985 247.062 3.41985 247.648 3.56234C249.405 3.56234 251.163 3.56234 252.92 3.98982C253.799 4.13232 254.384 4.5598 254.531 5.41476C254.97 6.98219 255.41 8.54962 255.703 10.2595C255.703 10.5445 255.703 10.687 255.703 10.972C255.703 10.972 255.703 10.972 255.556 10.972C255.703 12.112 255.849 13.3944 255.995 14.5343C256.142 15.9593 256.435 17.2417 256.581 18.6667C256.728 19.8066 257.021 20.8041 257.167 21.944C257.313 23.369 257.606 24.7939 257.606 26.2188C257.46 27.9288 257.606 29.6387 257.606 31.3486C257.606 33.486 257.46 35.6234 257.46 37.7608C257.46 38.4733 257.46 39.3282 257.46 40.0407C257.46 41.8931 257.606 43.6031 257.606 45.4555C257.753 48.8753 257.753 52.2952 257.899 55.5725C257.899 58.5649 258.046 61.6997 258.046 64.6921C258.632 67.542 258.632 70.6768 258.485 73.8117Z" fill="currentColor"/>
    <path d="M0.146459 108.723C0.146459 108.865 0.146459 109.15 0.146459 109.293C8.4571e-06 109.008 8.4571e-06 108.865 0.146459 108.723Z" fill="currentColor"/>
    <path d="M173.104 87.2062C171.493 86.4937 169.882 85.9237 168.272 85.4963C166.953 85.0688 165.635 84.6413 164.317 84.3563C163.732 84.2138 163.292 84.0713 162.56 83.7863C162.853 83.5013 162.853 83.3589 162.999 83.2164C164.024 82.3614 165.196 81.5064 166.221 80.509C167.393 79.5115 168.418 78.5141 169.59 77.3741C170.615 76.3767 171.64 75.3792 172.226 74.0968C172.372 73.8118 172.519 73.3843 172.372 73.2418C172.079 72.6718 171.493 72.1019 171.054 71.6744C170.615 71.2469 170.175 71.3894 169.736 71.8169C169.297 72.2443 168.857 72.8143 168.418 73.2418C166.953 74.8092 165.489 76.2342 163.878 77.5166C163.146 78.0866 162.414 78.6566 161.681 79.369C160.363 80.509 159.045 81.6489 157.874 82.7889C157.288 83.2164 156.995 83.7863 157.288 84.6413C157.434 85.2113 157.727 85.6388 157.874 86.0662L158.02 86.2087C158.606 86.3512 159.192 86.6362 159.777 86.6362C161.242 86.6362 162.56 87.0637 164.024 87.4912C165.489 87.9187 167.1 88.3461 168.564 88.9161C169.443 89.2011 170.175 89.6286 170.908 90.0561C171.493 90.4835 172.079 90.7685 172.812 90.911C173.251 90.911 173.837 90.911 174.13 90.4835C175.008 89.0586 174.422 87.7762 173.104 87.2062Z" fill="#21C0FB"/>
    <path d="M199.319 62.8396C199.319 62.2697 199.173 61.6997 198.441 61.5572C198.001 61.4147 197.562 61.1297 197.122 60.9872C196.39 60.7022 195.658 61.1297 195.658 61.8422C195.658 62.2697 195.511 62.8396 195.365 63.2671C194.926 64.6921 194.34 66.117 193.754 67.5419C193.315 68.5394 192.875 69.5368 192.29 70.5343C191.704 71.6742 191.118 72.6717 190.532 73.8116C189.8 75.0941 189.214 76.519 188.335 77.8015C186.578 80.7938 184.967 83.7862 183.942 87.0636C183.795 87.6335 183.795 88.061 184.088 88.4885C184.381 89.3435 184.967 89.7709 185.846 90.0559C187.017 90.4834 187.75 89.9134 187.75 88.7735C187.75 87.9185 187.75 87.2061 188.189 86.4936C188.482 85.6386 188.775 84.7837 189.214 84.0712C189.8 82.7887 190.532 81.5063 191.264 80.3664C191.704 79.5114 192.29 78.7989 192.729 77.944C193.754 76.0915 194.779 74.0966 195.658 72.2442C196.537 70.5343 197.122 68.6819 198.001 66.972C198.441 65.9745 198.587 64.8345 199.319 63.9796C199.466 63.8371 199.466 63.5521 199.466 63.4096C199.319 62.9821 199.319 62.8396 199.319 62.8396Z" fill="#21C0FB"/>
    <path d="M218.211 70.6768C218.065 70.6768 218.065 70.5344 218.065 70.3919C217.479 69.9644 216.893 69.3944 216.014 69.8219C215.721 69.9644 215.282 69.9644 214.989 69.8219C213.818 69.5369 212.5 69.2519 211.328 68.9669C210.449 68.6819 209.571 68.3969 208.692 67.9695C207.96 67.6845 207.227 67.1145 206.495 66.687C205.909 66.402 205.324 66.402 205.031 66.8295C204.884 67.1145 204.738 67.542 204.738 67.9695C204.884 68.8244 205.324 69.6794 206.056 70.1069C207.227 70.8193 208.399 71.2468 209.717 71.6743C210.303 71.9593 211.035 72.1018 211.621 72.3868C212.06 72.5293 212.353 72.6718 212.939 72.9567C212.5 73.2417 212.207 73.5267 211.914 73.6692C211.035 74.3817 210.01 75.2366 209.131 75.9491C207.813 77.0891 206.349 78.229 205.031 79.369C204.591 79.7964 204.298 80.2239 204.005 80.6514C203.566 81.3639 203.713 82.3613 204.298 82.9313C204.738 83.3588 205.324 83.7863 205.909 84.2137C206.349 83.9288 206.642 83.7863 206.788 83.5013C207.52 82.6463 208.106 81.7914 208.838 81.0789C209.863 80.0814 210.889 79.2265 211.914 78.3715C213.232 77.374 214.55 76.3766 216.014 75.3791C216.893 74.6667 217.772 73.9542 218.797 73.5267C219.09 73.3842 219.236 73.2417 219.236 72.9567C219.09 72.3868 219.383 71.3893 218.211 70.6768Z" fill="#21C0FB"/>
</svg>
