<svg width="36" height="43" viewBox="0 0 36 43" fill="currentColor" xmlns="http://www.w3.org/2000/svg">
    <path d="M18.0353 43.0002C17.9998 43.0002 17.9998 43.0002 17.9642 43.0002C17.9286 43.0002 17.9286 42.9645 17.893 42.9645C16.897 42.7498 15.901 42.4636 14.9405 42.1417C11.7389 41.0327 8.8219 39.4944 6.26064 37.2407C4.69542 35.8813 3.37922 34.3072 2.38317 32.4828C0.782377 29.6924 0.0709147 26.6516 0.0353415 23.4678C-0.000231597 16.2415 0.0353415 9.05098 0.0353415 1.82469C0.0353415 1.64582 0.0709146 1.61005 0.24878 1.57427C1.74285 1.21654 3.23692 1.00189 4.73099 0.787251C5.76261 0.644157 6.79424 0.536835 7.82586 0.465288C8.8219 0.393741 9.85352 0.322193 10.8496 0.250646C11.7745 0.214872 12.6994 0.143325 13.6243 0.143325C14.7626 0.107551 15.901 0.0717773 17.0393 0.0717773C19.316 0.107551 21.5927 0.143325 23.8693 0.179098C24.2962 0.179098 24.7231 0.214872 25.15 0.250646C26.1104 0.322193 27.0353 0.393741 27.9958 0.465288C28.6717 0.536835 29.3476 0.572609 30.0235 0.644157C30.8417 0.751478 31.6954 0.823025 32.5136 0.96612C33.5808 1.14499 34.648 1.35963 35.7152 1.57427C35.9286 1.61005 35.9286 1.61005 35.9286 1.86046C35.9286 8.90788 35.9286 15.9911 35.9286 23.0385C35.9286 24.1117 35.8575 25.1849 35.7152 26.2581C35.5373 27.546 35.2172 28.7981 34.7547 30.0144C33.5808 33.1982 31.5887 35.7739 28.9919 37.8488C26.0037 40.2457 22.5887 41.8197 18.8891 42.7856C18.6401 42.8571 18.3199 42.9287 18.0353 43.0002ZM11.4187 11.9844C11.4187 14.5244 11.4187 17.0285 11.4187 19.5684C11.3832 19.4969 11.3476 19.4254 11.312 19.3538C10.1737 16.957 9.07092 14.5244 7.93258 12.1275C7.897 12.0202 7.82586 11.9844 7.68356 11.9844C6.9721 11.9844 6.29621 11.9844 5.58475 11.9844C5.44246 11.9844 5.40688 12.0202 5.40688 12.1633C5.40688 12.6999 5.40688 13.2723 5.40688 13.8089C5.40688 16.635 5.40688 19.4611 5.40688 22.2872C5.40688 22.5019 5.40688 22.5019 5.62032 22.5019C6.15392 22.5019 6.72309 22.5019 7.25669 22.5019C7.47012 22.5019 7.47012 22.5019 7.47012 22.2872C7.47012 19.962 7.47012 17.6009 7.47012 15.2756C7.47012 15.2398 7.47012 15.1683 7.47012 15.1325C7.5057 15.1683 7.54127 15.2041 7.57684 15.2756C7.93258 15.9911 8.28831 16.7423 8.60846 17.4578C9.39107 19.1034 10.1737 20.749 10.9563 22.3946C10.9919 22.4661 11.0274 22.5377 11.1342 22.5377C11.8812 22.5377 12.5927 22.5377 13.3397 22.5377C13.4464 22.5377 13.482 22.5019 13.482 22.3946C13.482 22.3588 13.482 22.3588 13.482 22.323C13.482 18.9603 13.482 15.5976 13.482 12.1991C13.482 11.9844 13.482 11.9844 13.2685 11.9844C12.6994 11.9844 12.1658 11.9844 11.5966 11.9844C11.5255 11.9844 11.4899 11.9844 11.4187 11.9844ZM22.8733 12.0202C22.8733 12.0917 22.8733 12.1275 22.8733 12.1991C22.8733 14.417 22.8733 16.635 22.8733 18.853C22.8733 19.2465 22.9089 19.6042 22.98 19.9977C23.2646 21.2856 24.0472 22.1442 25.3278 22.5377C26.2172 22.7881 27.1421 22.7881 28.067 22.5377C29.063 22.2515 29.7745 21.6433 30.1658 20.6417C30.3792 20.1051 30.4859 19.5684 30.4859 18.9961C30.4859 16.7423 30.4859 14.4528 30.4859 12.1991C30.4859 12.1633 30.4859 12.0917 30.4859 12.0202C30.4148 12.0202 30.3436 12.0202 30.3081 12.0202C29.7033 12.0202 29.0986 12.0202 28.4938 12.0202C28.2804 12.0202 28.2804 12.0202 28.2804 12.2348C28.2804 14.4886 28.2804 16.7781 28.2804 19.0318C28.2804 19.318 28.2448 19.5684 28.1737 19.8546C28.067 20.427 27.7468 20.8205 27.1421 20.9278C26.9642 20.9636 26.7508 20.9636 26.5729 20.9636C25.7903 20.9278 25.3634 20.6059 25.2211 19.8546C25.15 19.4611 25.1144 19.0676 25.1144 18.6741C25.1144 16.5635 25.1144 14.417 25.1144 12.3064C25.1144 12.2348 25.1144 12.1633 25.1144 12.056C24.3674 12.0202 23.6203 12.0202 22.8733 12.0202ZM14.6915 12.0202C14.6915 12.5568 14.6915 13.0934 14.6915 13.63C14.6915 13.7731 14.727 13.8089 14.8693 13.8089C15.5096 13.8089 16.1855 13.8089 16.8259 13.8089C17.1104 13.8089 17.1104 13.8089 17.1104 14.0951C17.1104 16.8496 17.1104 19.6042 17.1104 22.3588C17.1104 22.5734 17.1104 22.5734 17.3239 22.5734C17.9286 22.5734 18.5334 22.5734 19.1381 22.5734C19.3515 22.5734 19.3515 22.5734 19.3515 22.3588C19.3515 19.5684 19.3515 16.8139 19.3515 14.0235C19.3515 13.952 19.3515 13.8804 19.3515 13.8089C19.4227 13.8089 19.4938 13.8089 19.565 13.8089C20.2409 13.8089 20.9168 13.8089 21.5927 13.8089C21.7349 13.8089 21.7705 13.7731 21.7705 13.63C21.7705 13.1292 21.7705 12.6641 21.7705 12.1633C21.7705 12.1275 21.7705 12.0917 21.7705 12.0202C19.3871 12.0202 17.0393 12.0202 14.6915 12.0202Z" fill="currentColor"/>
</svg>
