<svg width="167" height="22" viewBox="0 0 167 22" fill="none" xmlns="http://www.w3.org/2000/svg">
    <path fill-rule="evenodd" clip-rule="evenodd" d="M12.9977 7.94698C12.9977 6.04095 11.6253 4.3989 9.50503 4.3989H6.04393V11.494H9.50503C11.6253 11.494 12.9977 9.853 12.9977 7.94698ZM0.992485 0.528809H10.1284C14.9619 0.528809 18.0805 3.95965 18.0805 7.94698C18.0805 11.9343 14.9619 15.3641 10.1284 15.3641H6.04393V21.0526H0.992485V0.528809Z" fill="currentColor"/>
    <path fill-rule="evenodd" clip-rule="evenodd" d="M32.7046 6.39161L30.0228 14.8362H35.3234L32.7046 6.39161ZM37.4134 21.0516L36.5723 18.5595H28.8076L27.9654 21.0516H22.5704L30.3664 0.527832H35.0124L42.9017 21.0516H37.4134Z" fill="currentColor"/>
    <path fill-rule="evenodd" clip-rule="evenodd" d="M51.3829 4.63239H46.4573V0.527832H61.3925V4.63239H56.4343V21.0516H51.3829V4.63239Z" fill="currentColor"/>
    <path fill-rule="evenodd" clip-rule="evenodd" d="M81.2557 7.946C81.2557 6.03998 79.8832 4.39792 77.7627 4.39792H74.3014V11.493H77.7627C79.8832 11.493 81.2557 9.85202 81.2557 7.946ZM69.2504 0.527832H78.4187C83.2512 0.527832 86.3698 3.95868 86.3698 7.946C86.3698 10.8193 84.748 13.3694 82.0347 14.5722L86.4013 21.0516H80.5392L76.6712 15.3631H74.3014V21.0516H69.2504V0.527832Z" fill="currentColor"/>
    <path fill-rule="evenodd" clip-rule="evenodd" d="M99.9968 4.33988V9.00092H108.26V12.7253H99.9968V17.2395H108.26V21.0516H94.9453V0.527832H108.26V4.33988H99.9968Z" fill="currentColor"/>
    <path fill-rule="evenodd" clip-rule="evenodd" d="M134.422 10.7899C134.422 7.41821 131.989 4.28095 128.03 4.28095C124.038 4.28095 121.637 7.41821 121.637 10.7899C121.637 14.1617 124.038 17.299 128.03 17.299C131.989 17.299 134.422 14.1617 134.422 10.7899ZM116.46 10.7899C116.46 5.16054 120.764 0 128.03 0C135.263 0 139.566 5.16054 139.566 10.7899C139.566 16.4194 135.263 21.5799 128.03 21.5799C120.764 21.5799 116.46 16.4194 116.46 10.7899Z" fill="currentColor"/>
    <path fill-rule="evenodd" clip-rule="evenodd" d="M161.114 13.8974V0.527832H166.134V21.0516H160.865L153.006 7.8573V21.0516H147.954V0.527832H153.224L161.114 13.8974Z" fill="currentColor"/>
</svg>
