<svg width="275" height="29" viewBox="0 0 275 29" fill="none" xmlns="http://www.w3.org/2000/svg">
    <path
            d="M4.08268 28.5767H0V7.51839H0.979841L2.59807 9.35511C2.97484 9.01455 3.37672 8.7005 3.8006 8.41539C4.22977 8.1247 4.68419 7.86991 5.15885 7.65385C5.62819 7.4404 6.11798 7.27105 6.62136 7.14817C7.12102 7.02549 7.63474 6.96331 8.15051 6.96307C9.23123 6.95605 10.3029 7.152 11.3051 7.53989C12.2712 7.91217 13.1496 8.46646 13.8884 9.16999C14.642 9.89609 15.2353 10.7604 15.6329 11.7113C16.0694 12.7592 16.2864 13.8793 16.2713 15.0076C16.2898 16.164 16.0729 17.3127 15.6329 18.3894C15.2393 19.3443 14.6455 20.2116 13.8884 20.9377C13.1509 21.6358 12.2716 22.1811 11.3051 22.5396C10.2994 22.9136 9.22913 23.102 8.15051 23.0949C7.79332 23.0948 7.43724 23.0566 7.08884 22.981C6.73487 22.9042 6.38746 22.8018 6.04961 22.6747C5.7085 22.5469 5.37199 22.4022 5.04008 22.2406C4.70863 22.0794 4.3895 21.9133 4.08268 21.7423V28.5767ZM12.2035 15.0077C12.2133 14.4145 12.105 13.8249 11.8845 13.2706C11.6892 12.7847 11.3937 12.3416 11.0158 11.9677C10.6492 11.6118 10.2093 11.3331 9.7242 11.1492C9.22353 10.9583 8.68926 10.8616 8.15051 10.8643C7.61407 10.8612 7.08208 10.9579 6.58407 11.1491C6.1019 11.3343 5.66478 11.613 5.30006 11.9676C4.92201 12.3414 4.62666 12.7846 4.43176 13.2706C4.21095 13.8248 4.10255 14.4144 4.11239 15.0076C4.10509 15.5868 4.21349 16.1619 4.43176 16.702C4.62769 17.1896 4.92286 17.6348 5.30006 18.0119C5.66487 18.3718 6.10157 18.6575 6.58407 18.8519C7.0797 19.0524 7.61264 19.1541 8.15051 19.151C8.69068 19.1536 9.22588 19.0519 9.7242 18.8519C10.2096 18.6588 10.6491 18.373 11.0158 18.0119C11.3929 17.6347 11.6882 17.1894 11.8845 16.702C12.1025 16.1619 12.2107 15.5868 12.2035 15.0077V15.0077Z"
            fill="currentColor" />
    <path
            d="M24.0862 22.7666H20.0332V7.51758H21.013L22.3492 9.32582C23.6668 8.18068 25.3812 7.54632 27.1593 7.54605H30.7372V11.4188H27.1594C26.7466 11.4165 26.3376 11.4939 25.9568 11.6466C25.3991 11.8711 24.9235 12.2494 24.5904 12.7336C24.2574 13.2178 24.0819 13.7861 24.0862 14.3661V22.7666Z"
            fill="currentColor" />
    <path
            d="M49.2118 15.0068C49.2214 16.0977 49.0044 17.1795 48.5734 18.1891C48.1706 19.1378 47.5809 20.003 46.8364 20.7374C46.1 21.4567 45.2252 22.0322 44.2604 22.4321C43.2606 22.8407 42.185 23.0513 41.0982 23.0513C40.0114 23.0513 38.9358 22.8407 37.936 22.4321C35.9673 21.6194 34.4123 20.0947 33.6085 18.1891C33.1774 17.1795 32.9604 16.0977 32.9701 15.0068C32.959 13.9042 33.176 12.8105 33.6085 11.789C34.0107 10.8361 34.6032 9.96787 35.3528 9.2331C36.0918 8.5156 36.9691 7.94264 37.936 7.54606C38.9324 7.13574 40.0066 6.9273 41.091 6.93383C42.1766 6.9259 43.2533 7.12185 44.2604 7.51063C45.2262 7.88274 46.1027 8.43977 46.8364 9.14768C47.5852 9.87901 48.1755 10.7453 48.5734 11.6966C49.0108 12.7491 49.2277 13.8739 49.2118 15.0068ZM45.1291 15.0068C45.1377 14.4252 45.0293 13.8475 44.8101 13.3052C44.6112 12.8189 44.3163 12.3741 43.9414 11.9953C43.5791 11.6325 43.1416 11.3464 42.657 11.1556C41.6524 10.7662 40.5294 10.7662 39.5248 11.1556C39.0419 11.3453 38.6067 11.6316 38.2481 11.9953C37.8776 12.3747 37.5876 12.8196 37.3943 13.3052C37.1798 13.8486 37.074 14.4259 37.0825 15.0068C37.077 15.5666 37.1828 16.1224 37.3943 16.6442C37.5899 17.1287 37.8796 17.5732 38.2481 17.9541C38.6089 18.3242 39.0429 18.6218 39.5249 18.8295C40.0166 19.0438 40.5509 19.1531 41.091 19.1501C41.6287 19.1532 42.1615 19.0515 42.6571 18.8511C43.1397 18.6567 43.5765 18.371 43.9414 18.011C44.3185 17.6338 44.6138 17.1886 44.8101 16.7011C45.0281 16.161 45.1363 15.5859 45.1291 15.0068V15.0068Z"
            fill="currentColor" />
    <path
            d="M46.9316 28.5761V24.6606L49.1734 24.6891C49.6969 24.6935 50.2146 24.584 50.6877 24.3689C51.1444 24.1612 51.5551 23.8712 51.8975 23.5146C52.2421 23.1539 52.5162 22.7367 52.7068 22.2829C52.9048 21.8173 53.0057 21.3191 53.0037 20.8163V7.51793H57.1458V20.8163H57.1161C57.1081 21.5142 57.0058 22.2082 56.8119 22.8809C56.6243 23.5326 56.3471 24.1575 55.9878 24.7391C55.6332 25.311 55.2041 25.8373 54.711 26.3053C54.2191 26.7727 53.668 27.1792 53.0707 27.5152C52.4652 27.8549 51.8165 28.1182 51.1407 28.2987C50.4422 28.4849 49.7203 28.5783 48.9952 28.5761L46.9316 28.5761ZM57.8138 3.37463C57.8166 3.72236 57.7432 4.06677 57.5984 4.38555C57.322 5.00493 56.8059 5.49738 56.1587 5.75936C55.8283 5.8968 55.4719 5.96715 55.1118 5.96597C54.742 5.96908 54.3755 5.89873 54.0353 5.75936C53.7126 5.62752 53.4181 5.43934 53.167 5.20441C52.9184 4.97015 52.7193 4.69212 52.5804 4.38555C52.4385 4.06712 52.3653 3.72441 52.3653 3.37812C52.3653 3.03182 52.4385 2.68911 52.5804 2.37069C52.7179 2.06137 52.9172 1.78083 53.167 1.54487C53.4181 1.30993 53.7126 1.12176 54.0353 0.989915C54.3755 0.850541 54.742 0.780195 55.1118 0.783302C55.4719 0.782125 55.8283 0.852473 56.1587 0.989915C56.8084 1.25189 57.3252 1.74757 57.5984 2.37069C57.7417 2.68748 57.8151 3.02931 57.8138 3.37463V3.37463Z"
            fill="currentColor" />
    <path
            d="M68.0488 19.036C68.2033 19.0828 68.3626 19.1139 68.5239 19.1287C68.682 19.1426 68.8403 19.1497 68.9989 19.1499C69.3859 19.1512 69.771 19.0985 70.1421 18.9933C70.5059 18.8899 70.8532 18.7389 71.1741 18.5446C71.4963 18.3495 71.7865 18.1096 72.0351 17.8327C72.2873 17.5528 72.4949 17.2386 72.6511 16.9003L75.6203 19.7621C75.2473 20.2713 74.8111 20.735 74.3214 21.1432C73.8362 21.5483 73.3029 21.8971 72.7326 22.1826C72.1634 22.4674 71.5603 22.6849 70.9366 22.8306C70.3022 22.9782 69.6517 23.0523 68.999 23.0511C67.9337 23.0578 66.8777 22.8611 65.8926 22.4724C64.9074 22.0838 64.0127 21.5109 63.2608 20.7873C62.5115 20.0579 61.9188 19.1944 61.5165 18.246C61.0817 17.2175 60.8647 16.1164 60.8781 15.0067C60.8634 13.8761 61.0803 12.7538 61.5165 11.7035C61.9037 10.7605 62.4871 9.90309 63.2311 9.18342C63.9751 8.46375 64.8641 7.89693 65.844 7.51752C66.8452 7.12534 67.9175 6.92695 68.999 6.93376C69.6545 6.93301 70.3077 7.00951 70.9438 7.16157C72.2022 7.4609 73.3678 8.04417 74.3436 8.86283C74.8359 9.27339 75.2745 9.73957 75.65 10.2512L68.0488 19.036ZM70.1272 11.0201C69.9478 10.9559 69.7609 10.9128 69.5707 10.8919C69.3808 10.8727 69.1899 10.8632 68.9989 10.8634C68.4619 10.8602 67.9295 10.9595 67.4328 11.1555C66.9512 11.3444 66.5163 11.6281 66.1561 11.9882C65.7846 12.3642 65.4944 12.8071 65.3023 13.2912C65.0869 13.8391 64.9812 14.4211 64.9905 15.0067C64.9905 15.149 64.9979 15.3104 65.0126 15.4908C65.0278 15.6712 65.0526 15.8539 65.0872 16.0387C65.1217 16.2242 65.1637 16.4022 65.2132 16.5728C65.2574 16.7318 65.3223 16.8849 65.4062 17.0284L70.1272 11.0201Z"
            fill="currentColor" />
    <path
            d="M92.9811 10.5501L90.0119 13.412C89.8699 13.0248 89.6644 12.6619 89.4032 12.3368C89.1566 12.0292 88.864 11.7582 88.5349 11.5326C88.2151 11.3153 87.8619 11.1472 87.4881 11.0342C87.1135 10.9206 86.7229 10.863 86.3301 10.8634C85.7892 10.8605 85.2545 10.9724 84.764 11.1908C84.276 11.4077 83.841 11.7206 83.4872 12.109C83.1143 12.5217 82.8248 12.9973 82.6334 13.5116C82.4194 14.0872 82.3138 14.6946 82.3216 15.3056C82.3178 15.8191 82.4239 16.328 82.6334 16.8006C82.8348 17.2568 83.1245 17.6723 83.4872 18.0251C83.8517 18.3786 84.2856 18.6593 84.764 18.8509C85.6238 19.1929 86.5796 19.2431 87.4732 18.9933C87.8371 18.8899 88.1843 18.7389 88.5052 18.5446C88.8274 18.3495 89.1176 18.1096 89.3663 17.8327C89.6184 17.5528 89.826 17.2385 89.9822 16.9003L92.9514 19.7621C92.5784 20.2713 92.1423 20.735 91.6526 21.1432C91.1673 21.5483 90.634 21.8971 90.0637 22.1826C89.4945 22.4674 88.8914 22.685 88.2677 22.8306C87.6333 22.9782 86.9828 23.0523 86.3301 23.0511C85.2464 23.0579 84.1727 22.8519 83.1751 22.4458C81.2298 21.6622 79.6782 20.1843 78.8476 18.3241C78.4192 17.3712 78.2018 16.3433 78.2093 15.3056C78.2001 14.1848 78.4168 13.0728 78.8476 12.0309C79.2511 11.049 79.8427 10.1483 80.5919 9.37536C81.324 8.62475 82.2014 8.0179 83.1751 7.58866C84.164 7.15128 85.2411 6.92769 86.3301 6.93371C86.9889 6.93324 87.6451 7.0146 88.2822 7.17576C89.5688 7.50056 90.7487 8.13242 91.712 9.01246C92.2075 9.46591 92.6347 9.98346 92.9811 10.5501V10.5501Z"
            fill="currentColor" />
    <path
            d="M104.448 22.7674C103.499 22.7733 102.559 22.5916 101.687 22.2337C99.9801 21.5359 98.6209 20.2323 97.8934 18.5955C97.5202 17.7588 97.3307 16.8572 97.3368 15.9471V11.4192H95.3623V7.5463H97.3368V1.45215H101.375V7.5463H107.521V11.4192H101.375V15.9471C101.372 16.3407 101.453 16.7307 101.613 17.0932C101.765 17.4417 101.987 17.7585 102.266 18.026C102.547 18.295 102.88 18.51 103.246 18.6595C103.625 18.817 104.035 18.8971 104.448 18.8946H107.521V22.7675L104.448 22.7674Z"
            fill="currentColor" />
    <path
            d="M116.464 22.7676H112.412V11.391H110.437V7.5181H112.412V6.79194C112.405 5.88185 112.595 4.98031 112.968 4.14356C113.327 3.33587 113.846 2.60314 114.498 1.98659C115.151 1.37085 115.918 0.878205 116.761 0.534261C117.634 0.175874 118.574 -0.00595551 119.523 0.000148753H122.566V3.87303H119.523C119.108 3.86914 118.697 3.94421 118.313 4.09389C117.952 4.23443 117.624 4.44245 117.348 4.70582C117.064 4.98006 116.84 5.3057 116.688 5.66382C116.536 6.02194 116.46 6.4054 116.464 6.79194V7.5181H121.438V11.391H116.464V22.7676Z"
            fill="#21C0FB" />
    <path
            d="M136.438 20.9871C136.107 21.2756 135.758 21.5442 135.392 21.7913C135.024 22.0414 134.634 22.2605 134.226 22.4463C133.823 22.6306 133.403 22.7785 132.972 22.888C132.543 22.9968 132.102 23.0518 131.658 23.0516C130.713 23.0578 129.775 22.8886 128.896 22.5532C128.036 22.2279 127.255 21.7355 126.602 21.1071C125.95 20.4787 125.439 19.7277 125.103 18.9013C124.72 17.9602 124.531 16.9568 124.547 15.9466V7.51758H128.585V15.9467C128.577 16.4153 128.66 16.8812 128.83 17.3205C128.977 17.6989 129.201 18.0452 129.49 18.3387C129.764 18.6119 130.096 18.8255 130.463 18.9652C130.844 19.1093 131.249 19.1818 131.658 19.1788C132.069 19.1797 132.475 19.0845 132.839 18.9013C133.208 18.7175 133.538 18.4687 133.811 18.1679C134.089 17.8625 134.31 17.5133 134.464 17.1357C134.621 16.7574 134.702 16.3539 134.702 15.9467V7.51758H138.754V22.7668H137.775L136.438 20.9871Z"
            fill="#21C0FB" />
    <path
            d="M147.416 22.7671H143.363V7.51785H144.343L145.679 8.99864C146.995 7.85081 148.71 7.21602 150.489 7.21885C151.433 7.21395 152.368 7.39565 153.236 7.75262C154.079 8.09774 154.846 8.59581 155.492 9.21949C156.139 9.84627 156.655 10.5855 157.014 11.3976C157.387 12.2369 157.577 13.1408 157.571 14.0532V22.7671H153.518V14.0532C153.52 13.6644 153.439 13.2793 153.28 12.9215C152.972 12.22 152.391 11.6608 151.661 11.3622C151.291 11.2096 150.892 11.132 150.489 11.1344C150.076 11.1321 149.667 11.2096 149.286 11.3622C148.549 11.6549 147.962 12.2154 147.654 12.9215C147.495 13.2792 147.414 13.6644 147.416 14.0532V22.7671Z"
            fill="#21C0FB" />
    <path
            d="M175.867 10.5501L172.897 13.412C172.755 13.0248 172.55 12.6618 172.288 12.3368C172.042 12.0291 171.749 11.7581 171.42 11.5326C171.101 11.3152 170.747 11.1471 170.373 11.0342C169.999 10.9206 169.608 10.8629 169.215 10.8634C168.675 10.8605 168.14 10.9724 167.649 11.1908C167.161 11.4077 166.726 11.7206 166.373 12.109C166 12.5218 165.71 12.9974 165.518 13.5116C165.305 14.0873 165.199 14.6947 165.207 15.3056C165.203 15.8191 165.309 16.3279 165.518 16.8006C165.72 17.2567 166.01 17.6722 166.373 18.0251C166.737 18.3786 167.171 18.6592 167.649 18.8509C168.509 19.1929 169.465 19.2431 170.359 18.9933C170.723 18.8899 171.07 18.7389 171.391 18.5446C171.713 18.3494 172.003 18.1095 172.252 17.8327C172.504 17.5528 172.711 17.2386 172.868 16.9003L175.837 19.7621C175.464 20.2713 175.028 20.735 174.538 21.1432C174.053 21.5482 173.519 21.897 172.949 22.1826C172.38 22.4674 171.777 22.6849 171.153 22.8306C170.519 22.9782 169.868 23.0523 169.215 23.0511C168.132 23.0579 167.058 22.8519 166.06 22.4458C164.115 21.6622 162.564 20.1843 161.733 18.3241C161.305 17.3711 161.088 16.3433 161.095 15.3056C161.086 14.1848 161.303 13.0729 161.733 12.0309C162.136 11.049 162.728 10.1482 163.477 9.37536C164.209 8.62475 165.087 8.01791 166.061 7.58866C167.049 7.15125 168.126 6.92765 169.215 6.93371C169.874 6.93324 170.531 7.0146 171.168 7.17576C172.454 7.50056 173.634 8.13242 174.597 9.01246C175.093 9.46591 175.52 9.98346 175.867 10.5501V10.5501Z"
            fill="#21C0FB" />
    <path
            d="M187.335 22.7674C186.386 22.7733 185.445 22.5916 184.573 22.2337C182.866 21.5358 181.507 20.2322 180.78 18.5955C180.407 17.7588 180.217 16.8572 180.223 15.9471V11.4192H178.249V7.5463H180.223V1.45215H184.261V7.5463H190.408V11.4192H184.261V15.9471C184.258 16.3407 184.339 16.7307 184.499 17.0932C184.652 17.4417 184.874 17.7584 185.152 18.026C185.434 18.295 185.766 18.51 186.132 18.6595C186.512 18.817 186.921 18.8971 187.335 18.8946H190.408V22.7675L187.335 22.7674Z"
            fill="#21C0FB" />
    <path
            d="M198.98 3.37456C198.982 3.72229 198.909 4.0667 198.764 4.38548C198.625 4.69198 198.426 4.96999 198.178 5.20435C197.927 5.4393 197.632 5.62747 197.309 5.75931C196.973 5.89567 196.613 5.96593 196.248 5.96593C195.883 5.96593 195.522 5.89567 195.187 5.75931C194.865 5.62869 194.573 5.44032 194.326 5.20435C194.081 4.96865 193.884 4.69086 193.746 4.38548C193.604 4.06711 193.531 3.72438 193.531 3.37804C193.531 3.03171 193.604 2.68898 193.746 2.3706C194.02 1.74761 194.537 1.25203 195.187 0.989819C195.522 0.853465 195.883 0.783203 196.248 0.783203C196.613 0.783203 196.973 0.853465 197.309 0.989819C197.632 1.12166 197.927 1.30983 198.178 1.54478C198.428 1.78085 198.627 2.06137 198.764 2.3706C198.908 2.6874 198.981 3.02923 198.98 3.37456ZM198.282 22.7671H194.199V7.5179H198.282V22.7671Z"
            fill="#21C0FB" />
    <path
            d="M218.255 15.0068C218.265 16.0977 218.048 17.1795 217.617 18.1891C217.215 19.1379 216.625 20.0032 215.88 20.7374C215.144 21.4568 214.269 22.0323 213.305 22.4321C212.305 22.8407 211.229 23.0513 210.142 23.0513C209.055 23.0513 207.98 22.8407 206.98 22.4321C205.011 21.6194 203.456 20.0947 202.653 18.1891C202.222 17.1795 202.005 16.0977 202.015 15.0068C202.003 13.9043 202.22 12.8106 202.653 11.789C203.055 10.8361 203.647 9.96778 204.397 9.2331C205.136 8.5156 206.013 7.94264 206.98 7.54606C207.977 7.1357 209.051 6.92727 210.135 6.93383C211.221 6.9259 212.297 7.12185 213.305 7.51063C214.27 7.88267 215.147 8.4397 215.88 9.14768C216.629 9.87883 217.22 10.7452 217.617 11.6966C218.055 12.7491 218.272 13.8739 218.255 15.0068V15.0068ZM214.173 15.0068C214.182 14.4252 214.073 13.8475 213.854 13.3052C213.655 12.819 213.36 12.3742 212.985 11.9953C212.623 11.6324 212.186 11.3463 211.701 11.1555C210.697 10.7662 209.574 10.7662 208.569 11.1555C208.086 11.3453 207.651 11.6316 207.292 11.9953C206.922 12.3748 206.632 12.8196 206.438 13.3052C206.224 13.8487 206.118 14.4259 206.127 15.0068C206.121 15.5666 206.227 16.1222 206.438 16.6442C206.634 17.1287 206.924 17.5731 207.292 17.9541C207.653 18.3242 208.087 18.6218 208.569 18.8295C209.061 19.0438 209.595 19.1531 210.135 19.1501C210.673 19.1533 211.206 19.0515 211.701 18.8511C212.184 18.6568 212.621 18.3711 212.985 18.011C213.362 17.6337 213.658 17.1885 213.854 16.7011C214.072 16.161 214.18 15.5859 214.173 15.0068H214.173Z"
            fill="#21C0FB" />
    <path
            d="M226.07 22.7671H222.017V7.51785H222.997L224.333 8.99864C225.649 7.85081 227.365 7.21602 229.143 7.21885C230.087 7.21395 231.022 7.39565 231.89 7.75262C232.734 8.09774 233.5 8.59581 234.147 9.21949C234.793 9.84626 235.31 10.5855 235.668 11.3976C236.041 12.2369 236.231 13.1408 236.225 14.0532V22.7671H232.172V14.0532C232.174 13.6644 232.093 13.2793 231.934 12.9215C231.626 12.22 231.046 11.6608 230.316 11.3622C229.945 11.2096 229.546 11.132 229.143 11.1344C228.73 11.1321 228.321 11.2096 227.94 11.3622C227.203 11.6549 226.616 12.2154 226.308 12.9215C226.149 13.2792 226.068 13.6644 226.07 14.0532V22.7671Z"
            fill="#21C0FB" />
    <path
            d="M245.615 21.3149C245.617 21.6443 245.551 21.9709 245.421 22.2757C245.299 22.566 245.117 22.8299 244.887 23.0518C244.656 23.272 244.385 23.4484 244.086 23.5716C243.772 23.6984 243.435 23.7637 243.095 23.7637C242.754 23.7637 242.417 23.6984 242.103 23.5716C241.8 23.4485 241.523 23.2723 241.287 23.0518C241.047 22.825 240.858 22.5544 240.729 22.2561C240.6 21.9578 240.535 21.6377 240.537 21.3149C240.535 20.9917 240.604 20.6718 240.737 20.3752C240.867 20.0872 241.054 19.8261 241.287 19.6064C241.523 19.3859 241.8 19.2096 242.103 19.0866C242.417 18.9598 242.754 18.8945 243.095 18.8945C243.435 18.8945 243.772 18.9598 244.086 19.0866C244.385 19.2098 244.656 19.3862 244.887 19.6064C245.116 19.8266 245.297 20.0878 245.421 20.3752C245.551 20.6728 245.617 20.9924 245.615 21.3149V21.3149Z"
            fill="currentColor" />
    <path
            d="M254.929 3.37457C254.932 3.7223 254.858 4.06671 254.713 4.38549C254.575 4.69199 254.376 4.97 254.127 5.20436C253.876 5.43931 253.581 5.62748 253.259 5.75932C252.923 5.89568 252.562 5.96594 252.197 5.96594C251.833 5.96594 251.472 5.89568 251.136 5.75932C250.815 5.62869 250.522 5.44032 250.275 5.20436C250.03 4.96866 249.833 4.69087 249.695 4.38549C249.553 4.06712 249.48 3.72439 249.48 3.37805C249.48 3.03172 249.553 2.68898 249.695 2.37061C249.969 1.74761 250.486 1.25203 251.136 0.989826C251.472 0.853468 251.833 0.783203 252.197 0.783203C252.562 0.783203 252.923 0.853468 253.259 0.989826C253.581 1.12166 253.876 1.30984 254.127 1.54479C254.377 1.78085 254.576 2.06137 254.713 2.37061C254.857 2.68741 254.93 3.02924 254.929 3.37457V3.37457ZM254.231 22.7671H250.148V7.51791H254.231L254.231 22.7671Z"
            fill="currentColor" />
    <path
            d="M274.205 15.0068C274.214 16.0977 273.998 17.1795 273.567 18.1891C273.164 19.1379 272.574 20.0032 271.829 20.7374C271.093 21.4568 270.218 22.0323 269.254 22.4321C268.254 22.8407 267.178 23.0513 266.092 23.0513C265.005 23.0513 263.929 22.8407 262.929 22.4321C260.961 21.6194 259.406 20.0947 258.602 18.1891C258.171 17.1795 257.954 16.0977 257.964 15.0068C257.953 13.9043 258.17 12.8106 258.602 11.789C259.004 10.8361 259.596 9.96778 260.346 9.2331C261.085 8.5156 261.962 7.94264 262.929 7.54606C263.926 7.1357 265 6.92727 266.084 6.93383C267.17 6.9259 268.247 7.12185 269.254 7.51063C270.219 7.88266 271.096 8.4397 271.829 9.14768C272.578 9.87882 273.169 10.7452 273.567 11.6966C274.004 12.7491 274.221 13.8739 274.205 15.0068V15.0068ZM270.122 15.0068C270.131 14.4252 270.023 13.8475 269.803 13.3052C269.604 12.819 269.309 12.3742 268.935 11.9953C268.572 11.6324 268.135 11.3463 267.65 11.1555C266.646 10.7662 265.523 10.7662 264.518 11.1555C264.035 11.3453 263.6 11.6316 263.241 11.9953C262.871 12.3747 262.581 12.8196 262.387 13.3052C262.173 13.8487 262.068 14.4259 262.076 15.0068C262.07 15.5666 262.176 16.1222 262.387 16.6442C262.583 17.1286 262.873 17.5731 263.241 17.9541C263.602 18.3242 264.036 18.6218 264.518 18.8295C265.01 19.0438 265.544 19.1531 266.084 19.15C266.622 19.1532 267.155 19.0515 267.65 18.851C268.133 18.6568 268.57 18.371 268.935 18.011C269.312 17.6337 269.607 17.1885 269.803 16.7011C270.021 16.161 270.13 15.5859 270.122 15.0068H270.122Z"
            fill="currentColor" />
</svg>