<svg width="286" height="217" viewBox="0 0 286 217" fill="none" xmlns="http://www.w3.org/2000/svg">
    <g opacity="0.96">
        <path d="M102.048 47.8294L101.55 45.8923L102.048 47.8294C109.158 46.0021 116.727 47.9582 121.902 52.9214L121.902 52.9215L170.908 99.9153C176.074 104.87 178.068 112.058 176.19 118.78L158.253 182.977C156.373 189.707 150.875 195.013 143.769 196.839L76.8328 214.042C69.7221 215.869 62.1537 213.913 56.9787 208.95L7.97586 161.953C2.80995 156.998 0.815674 149.81 2.69372 143.088L0.76826 142.55L2.69373 143.088L20.6275 78.891C20.6275 78.891 20.6275 78.891 20.6275 78.8909C22.5077 72.161 28.0051 66.8551 35.1111 65.0291C35.1111 65.0291 35.1111 65.0291 35.1112 65.0291L102.048 47.8294Z" fill="#333333"/>
        <path d="M102.048 47.8294L101.55 45.8923L102.048 47.8294C109.158 46.0021 116.727 47.9582 121.902 52.9214L121.902 52.9215L170.908 99.9153C176.074 104.87 178.068 112.058 176.19 118.78L158.253 182.977C156.373 189.707 150.875 195.013 143.769 196.839L76.8328 214.042C69.7221 215.869 62.1537 213.913 56.9787 208.95L7.97586 161.953C2.80995 156.998 0.815674 149.81 2.69372 143.088L0.76826 142.55L2.69373 143.088L20.6275 78.891C20.6275 78.891 20.6275 78.891 20.6275 78.8909C22.5077 72.161 28.0051 66.8551 35.1111 65.0291C35.1111 65.0291 35.1111 65.0291 35.1112 65.0291L102.048 47.8294Z" fill="#A395F9"/>
        <path d="M102.048 47.8294L101.55 45.8923L102.048 47.8294C109.158 46.0021 116.727 47.9582 121.902 52.9214L121.902 52.9215L170.908 99.9153C176.074 104.87 178.068 112.058 176.19 118.78L158.253 182.977C156.373 189.707 150.875 195.013 143.769 196.839L76.8328 214.042C69.7221 215.869 62.1537 213.913 56.9787 208.95L7.97586 161.953C2.80995 156.998 0.815674 149.81 2.69372 143.088L0.76826 142.55L2.69373 143.088L20.6275 78.891C20.6275 78.891 20.6275 78.891 20.6275 78.8909C22.5077 72.161 28.0051 66.8551 35.1111 65.0291C35.1111 65.0291 35.1111 65.0291 35.1112 65.0291L102.048 47.8294Z" stroke="#A395F9" stroke-width="4"/>
    </g>
    <path d="M66.9499 177.606L66.9795 177.536L66.8984 177.548L66.9499 177.606Z" fill="currentColor"/>
    <path d="M72.2002 169.672C72.0009 170.146 71.9559 170.642 71.9546 171.147C72.1578 170.674 72.2028 170.177 72.2002 169.672Z" fill="currentColor"/>
    <path d="M236.518 147.386C237.306 146.196 236.659 144.913 236.456 143.897C236.115 142.194 235.8 140.581 236.145 138.868C236.214 138.523 236.044 138.205 235.863 137.878C235.365 136.98 235.287 135.987 235.249 134.979C235.207 133.789 235.508 132.579 234.986 131.409C234.798 130.99 234.681 130.473 234.826 130.042C235.013 129.493 234.793 129.107 234.537 128.689C234.458 128.037 234.375 127.387 234.301 126.735C233.931 123.436 233.707 120.126 233.45 116.817C233.368 115.755 233.209 114.699 233.244 113.63C233.516 111.408 233.177 109.186 233.24 106.964C233.245 106.803 233.251 106.642 233.256 106.481C233.341 106.147 233.427 105.815 233.512 105.482C233.51 105.234 233.51 104.987 233.51 104.739C233.826 103.917 233.831 103.095 233.499 102.276L233.496 102.284C233.408 102.288 233.319 102.292 233.229 102.295L233.231 102.277C233.24 102.151 233.24 102.025 233.238 101.901C233.261 101.165 233.332 100.423 233.099 99.7147C232.799 98.8014 232.731 97.877 232.719 96.9328C232.707 95.9442 232.584 94.9704 231.962 94.1287C231.957 94.0472 231.953 93.9658 231.95 93.8856C231.958 92.8957 231.967 91.9071 231.975 90.9173C231.971 89.045 231.964 87.1727 231.966 85.3004C231.966 84.6882 231.955 84.0785 231.735 83.4923C231.735 81.3262 231.742 79.1639 231.463 77.004C231.347 76.1129 231.325 75.2144 231.128 74.327C230.853 73.0854 230.552 71.8314 230.73 70.554C230.853 69.6654 230.697 68.8558 230.376 68.035C229.569 65.9825 229.211 63.8399 229.175 61.6579C229.157 60.5026 228.87 59.477 228.12 58.5748C228.023 58.4872 227.915 58.4501 227.794 58.4625C227.34 57.19 226.875 55.92 226.44 54.6414C226.107 53.6626 225.697 52.7296 224.994 51.936C224.832 51.9261 224.672 51.9162 224.509 51.9064C223.609 51.9101 222.704 51.9829 221.811 51.9051C219.817 51.7323 217.752 51.9113 215.884 51.0412C214.801 50.5364 213.687 50.3957 212.518 50.429C211.876 50.4463 211.232 50.4352 210.59 50.4475C209.34 50.471 208.108 50.4093 206.928 49.9427C206.361 49.7181 205.732 49.6416 205.16 49.8304C202.974 50.55 200.763 50.3414 198.546 50.0871C197.971 50.0205 197.434 50.0908 196.96 50.4327C195.28 51.135 194.868 50.8634 195 49.1417C195.002 49.101 195.009 49.0603 195.011 49.0195C195.329 45.37 195.052 41.7007 195.342 38.0511C195.377 37.7388 195.407 37.4254 195.428 37.1106L195.438 37.1143C195.6 36.6959 195.715 36.2566 195.798 35.8271C196.004 34.7767 195.665 34.5398 194.492 34.662C194.142 34.699 193.779 34.7854 193.356 34.5571C192.185 33.9276 190.74 34.0337 189.554 33.3809C189.291 33.2364 188.954 33.2192 188.697 33.3525C187.78 33.8289 186.745 33.8104 185.771 33.935C184.107 34.1473 182.31 34.4435 181.298 32.5552C181.236 32.0911 181.049 31.653 180.904 31.2111C180.846 30.9359 180.787 30.6607 180.724 30.3879C180.724 30.3805 180.723 30.3718 180.721 30.3644C180.669 29.3783 180.329 28.5107 179.893 27.6837C179.764 27.3739 179.623 27.0654 179.465 26.7618C178.928 25.7324 178.382 24.7142 177.798 23.7133C177.757 23.6306 177.709 23.5528 177.656 23.4775C177.517 23.243 177.38 23.0085 177.237 22.7765C176.244 21.1622 175.032 19.7873 173.214 18.9801C172.873 18.8283 172.583 18.5703 172.27 18.3605C170.842 18.1038 169.684 17.3053 168.503 16.5783C167.442 15.9254 166.38 15.3811 165.069 15.3564C163.909 15.3355 162.794 15.059 161.706 14.6344C160.719 14.2494 159.757 13.7902 158.682 13.6224C156.713 13.3163 154.761 13.3262 152.817 13.7729C151.942 13.9741 151.067 14.1765 150.157 14.158L150.156 14.1568C149 14.2197 147.83 14.2259 146.832 14.9208C146.832 14.9208 146.832 14.9208 146.833 14.9208C146.833 14.9208 146.833 14.9208 146.832 14.9208C146.312 15.2441 145.793 15.5675 145.272 15.8896C145.017 15.9711 144.795 16.0945 144.603 16.2549C144.311 16.4179 144.023 16.5894 143.736 16.7647C143.614 16.8214 143.506 16.8967 143.4 16.9831C143.288 17.1448 143.21 17.3287 143.122 17.5064C142.982 17.5422 142.841 17.578 142.701 17.6138C142.127 18.052 141.557 18.4926 141.155 19.0949C140.78 19.3602 140.376 19.5935 140.037 19.8946C138.771 21.019 137.36 22.0175 136.511 23.5158C135.599 24.5254 135.235 25.8349 134.479 26.9346C134.192 27.3517 134.217 27.8787 134.282 28.3786C134.325 28.7044 134.39 29.0327 134.384 29.3586C134.367 30.3212 134.025 30.6903 133.027 30.7976C131.878 30.9223 130.725 31.0161 129.573 31.1148C127.099 31.3271 124.624 31.5814 122.134 31.337C121.616 31.2864 121.114 31.3765 120.608 31.4888C118.777 31.8973 116.944 32.3046 115.103 32.6761C113.991 32.9007 113.512 33.2315 113.551 34.2855C113.605 35.732 113.276 37.1514 113.364 38.5917L113.363 38.5905C112.934 39.4112 112.687 40.2949 112.661 41.1983C112.597 43.4495 112.391 45.702 112.612 47.9556C112.683 48.1482 112.783 48.3345 112.818 48.532C112.966 49.3836 112.792 49.5688 111.897 49.5268C111.427 49.5046 110.959 49.4441 110.488 49.4367C105.741 49.3602 101.001 49.707 96.2551 49.7144C95.9181 49.7144 95.5708 49.7749 95.2454 49.8662C93.7482 50.2858 92.2151 50.3624 90.6742 50.2883C89.9333 50.2525 89.2182 50.3364 88.5172 50.5216C87.1165 50.8931 85.7261 51.3016 84.3318 51.6941C84.2405 51.7558 84.2148 51.8175 84.2585 51.8792C84.1402 51.9347 84.0308 51.994 83.9511 51.9816C82.4964 51.7768 81.3902 53.085 79.9111 52.8098C79.6384 52.7592 79.1638 53.0986 79.1175 53.3491C78.9438 54.297 78.0525 54.3661 77.4274 54.7426C76.7714 55.1375 76.1913 55.5707 75.7334 56.1928C75.1906 56.9296 74.6105 57.6393 73.9623 58.3119C73.3526 58.9438 72.559 59.3622 72.0227 60.0077C70.9165 61.3407 70.5898 62.9279 70.8535 64.6027C70.9204 65.0309 71.0528 65.5666 70.9127 65.8603C70.3107 67.1168 70.7789 68.4164 70.5782 69.6666C70.3866 70.8527 70.8741 71.9931 70.6811 73.1607L70.6837 73.1644C70.4946 73.2323 70.4908 73.3088 70.6734 73.394C71.0477 75.4267 70.9435 77.4928 71.1223 79.5391C71.1699 80.0908 70.9885 80.5968 70.5924 81.0164C70.0354 81.6052 69.8631 82.3235 69.9274 83.08C70.1229 85.3621 69.5853 87.5775 69.283 89.8114C68.9627 92.1749 68.5409 94.5249 68.1653 96.8822C68.0933 97.3364 68.0315 97.819 68.3724 98.1831C69.3589 99.2346 69.5377 100.55 69.6766 101.855C70.0277 105.124 70.3531 108.394 70.5126 111.683C70.6593 114.728 70.5409 117.765 70.6027 120.806C70.6593 123.599 70.5577 126.397 70.829 129.184C71.1647 132.626 71.1892 136.082 71.2548 139.533C71.3127 142.571 71.166 145.613 71.1956 148.651C71.2111 150.209 71.4194 151.756 72.0085 153.245C72.4973 154.48 72.7892 155.764 72.595 157.113C72.532 157.555 72.5822 158.015 72.6169 158.466C72.7841 160.602 72.7352 162.736 72.5732 164.871C72.3584 167.705 72.4806 170.544 72.4934 173.38C72.4947 173.783 72.6465 174.186 72.7275 174.589C72.64 174.84 72.5526 175.09 72.4664 175.342C72.6002 177.348 72.7172 179.355 72.8767 181.358C72.9359 182.096 73.1417 182.868 72.896 183.56C72.3301 185.144 72.7481 186.736 72.6979 188.321C72.6761 188.989 72.9385 189.596 73.161 190.223C73.6832 191.694 74.2787 193.138 74.6826 194.653C75.008 195.877 75.5855 197.037 75.7347 198.313C75.7527 198.468 75.8646 198.616 75.9521 198.756C76.4537 199.569 76.9875 200.363 77.4569 201.193C77.9637 202.088 78.6904 202.637 79.7464 202.791C80.1722 202.853 80.567 203.021 80.9349 203.239C81.2822 203.572 81.6295 203.907 81.9767 204.24C82.9002 205.116 84.2495 205.437 85.0778 206.436V206.431C86.3936 207.091 87.6091 207.959 89.2529 207.793C90.1571 207.702 91.1565 207.426 91.9835 207.767C92.7874 208.101 93.4447 207.954 94.1663 207.766C94.4762 207.685 94.7618 207.448 95.0988 207.681H95.1026C97.4127 208.044 99.7382 208.227 102.07 207.996C102.864 207.917 103.633 207.739 104.443 207.867C106.081 208.127 107.679 207.891 109.251 207.434L109.254 207.433C109.42 207.27 109.587 207.107 109.754 206.943C110.105 207.121 110.458 207.117 110.81 206.945C110.98 206.939 111.15 206.933 111.318 206.926C112.517 206.865 113.722 206.892 114.912 206.69C115.86 206.664 116.823 206.792 117.74 206.442C119.7 206.31 121.666 206.385 123.632 206.233C125.695 206.074 127.811 205.772 129.833 206.596C129.982 206.657 130.178 206.662 130.34 206.634C132.354 206.297 134.466 206.691 136.421 205.879C136.721 205.754 137.094 205.745 137.431 205.758C138.886 205.82 140.331 205.822 141.769 205.529C142.495 205.38 143.221 205.487 143.897 205.806C144.643 206.159 145.382 206.172 146.108 205.77C146.688 205.45 147.312 205.453 147.959 205.403C150.342 205.214 152.741 205.258 155.116 204.92C157.1 204.637 159.091 204.287 161.114 204.636C161.67 204.732 162.223 204.645 162.758 204.468C163.963 204.414 165.188 204.626 166.367 204.225C166.367 204.225 166.367 204.225 166.368 204.225C166.453 204.223 166.538 204.219 166.623 204.215C166.921 203.951 167.357 204.244 167.656 203.98C167.995 203.896 168.336 203.812 168.676 203.729C168.689 203.637 168.685 203.569 168.671 203.516C170.002 203.58 171.324 203.857 172.646 203.803C173.825 203.755 175.007 203.517 176.191 203.619C177.476 203.732 178.729 203.585 179.997 203.445C182.015 203.223 184.028 203.582 186.045 203.572C188.297 203.562 190.557 203.801 192.803 203.421C193.728 203.069 194.681 202.885 195.676 202.87C198.615 202.824 201.54 202.529 204.473 202.389C205.023 202.363 205.369 202.233 205.678 201.707C206.34 200.581 207.513 199.806 208.765 199.752C210.407 199.682 212.069 199.488 213.724 199.659C214.387 199.893 215.017 199.822 215.555 199.39C215.863 199.143 216.215 199.029 216.57 198.892C219.21 197.874 222.149 197.942 224.768 196.763C225.621 196.379 226.547 196.126 227.339 195.599C228.101 194.991 228.907 194.377 229.832 194.1C231.181 193.694 232.132 192.877 232.996 191.889C234.501 191.119 235.18 189.873 235.224 188.28C235.237 187.825 235.311 187.384 235.393 186.94C235.773 184.885 236.334 182.846 236.078 180.728C235.796 178.399 235.845 176.057 235.73 173.72C235.684 172.78 235.795 171.828 235.556 170.898C235.828 170.439 235.936 169.929 236.053 169.423C235.873 168.539 235.858 167.643 235.824 166.747C235.712 163.689 235.84 160.639 236.114 157.592C236.183 157.191 236.299 156.792 236.314 156.388C236.412 153.825 236.487 151.26 236.569 148.696L236.581 148.692C236.365 148.262 236.305 147.705 236.518 147.386ZM144.863 62.1256C145.065 62.0047 145.265 61.901 145.471 61.8183C146.737 61.859 148.002 61.8998 149.268 61.9405C149.659 61.9911 150.049 62.0368 150.435 62.0676C151.708 62.1663 153.077 62.0219 154.385 61.8825C158.354 61.4567 162.35 61.8751 166.316 61.4419C166.92 61.3752 167.53 61.3814 168.111 61.2493C168.232 61.2506 168.354 61.2506 168.475 61.2518C169.176 61.2629 169.878 61.2567 170.579 61.2592C171.068 61.4777 171.588 61.4233 172.11 61.4233C172.628 61.4246 173.149 61.4122 173.669 61.3999C173.903 61.4271 174.137 61.4579 174.37 61.4962C176.396 61.8269 178.45 61.9121 180.495 62.0664C180.57 62.0738 180.645 62.0787 180.72 62.0837C181.027 62.1071 181.334 62.133 181.641 62.1614C183.326 62.3182 185.015 62.1713 186.701 62.0602C186.827 62.0849 186.953 62.1145 187.078 62.1552C187.255 62.2132 187.437 62.0972 187.617 62.0071C187.635 62.0059 187.651 62.0047 187.669 62.0047C188.494 61.9639 189.291 61.9775 190.067 62.2848C190.212 62.3428 190.36 62.3823 190.507 62.407C190.749 62.6748 191.115 62.665 191.466 62.6613C191.67 62.6613 191.873 62.6625 192.076 62.6625C192.41 62.6576 192.746 62.6761 193.081 62.6366C193.212 62.6045 193.322 62.5378 193.412 62.4391C193.617 62.0479 193.842 61.6677 194.097 61.3049C194.236 61.005 194.385 60.705 194.315 60.3953C194.453 60.3496 194.573 60.2706 194.676 60.1595C194.75 60.0472 194.814 59.9312 194.875 59.8152C195.186 60.0126 195.465 60.0114 195.66 59.6708C195.852 59.3203 195.706 58.9204 195.801 58.5699C195.711 58.0342 195.837 57.5282 195.951 57.0012C196.129 56.178 196.469 55.704 197.424 55.6546C198.079 55.6213 198.692 55.4732 199.37 55.688C200.125 55.9262 200.554 55.7793 200.768 55.351C201.256 55.7904 201.841 55.7534 202.474 55.6806C204.567 55.4424 206.569 54.7993 208.627 54.4501C211.305 53.9946 214.043 54.2859 216.752 54.2797C218.513 54.276 219.921 55.0116 220.372 56.8926C220.502 57.4356 220.923 57.9083 221.407 58.2749C223.358 60.1398 223.998 62.6983 224.498 65.0482C225.123 67.9844 225.337 71.0576 225.415 74.1012C225.472 76.3153 225.682 78.5283 226.133 80.7079C226.777 83.8267 226.76 86.9913 226.884 90.1447C227.185 91.2567 227.382 92.3761 227.185 93.5326C227.18 93.5659 227.173 93.5844 227.168 93.5931C227.178 93.5943 227.196 93.6042 227.229 93.64C227.856 94.3422 227.667 95.1889 227.707 95.9936C227.731 96.4848 227.665 96.981 227.752 97.4685C227.945 98.5435 228.152 99.6012 227.409 100.602C227.203 100.879 227.195 101.318 227.295 101.682C227.686 103.101 227.566 104.541 227.362 105.951C227.254 106.703 226.991 107.413 227.007 108.215C227.03 109.348 227.448 110.372 227.658 111.45C227.883 112.66 227.789 113.907 228.243 115.105C228.331 115.336 228.513 115.573 228.618 115.822C228.615 115.834 228.614 115.846 228.611 115.857C228.641 115.903 228.655 115.953 228.663 116.006C228.646 115.957 228.629 115.906 228.611 115.857C228.567 116.046 228.579 116.217 228.66 116.368C228.649 116.401 228.634 116.436 228.615 116.469C228.153 117.317 228.517 118.155 228.534 118.999C228.812 120.043 229.033 121.091 229.157 122.148C229.133 122.353 229.123 122.56 229.123 122.769C229.151 122.77 229.178 122.771 229.207 122.772C229.16 122.873 229.11 122.973 229.055 123.07C229.032 123.176 229.013 123.282 228.996 123.388C228.861 123.547 228.84 123.656 228.933 123.798C228.906 123.976 228.876 124.153 228.832 124.329C228.843 124.69 228.695 125.036 228.741 125.391C228.811 125.454 228.876 125.521 228.943 125.588C228.768 125.815 228.62 126.052 228.705 126.379C228.762 126.477 228.805 126.59 228.862 126.69C228.872 126.808 228.886 126.927 228.902 127.044C228.861 127.229 228.915 127.41 228.979 127.589C229.025 127.899 229.072 128.209 229.097 128.519C229.043 128.832 228.921 129.186 229.109 129.363C229.105 129.42 229.1 129.475 229.092 129.532C229.58 131.666 229.501 133.812 229.356 135.978C229.199 138.306 229.153 140.631 229.532 142.971C230.186 146.991 230.211 151.058 230.072 155.12C230.048 155.827 230.13 156.497 230.276 157.188C230.821 159.768 231.231 162.362 230.898 165.009C230.407 168.911 229.683 172.808 230.677 176.739C230.808 177.258 230.779 177.804 230.714 178.335C230.58 179.446 230.857 180.543 230.824 181.65C230.817 181.866 230.86 182.056 230.948 182.216C230.733 182.298 230.613 182.536 230.494 182.788C230.229 183.353 229.822 183.832 229.463 184.342C227.812 186.688 225.433 188.471 223.937 190.936C223.766 191.219 223.488 191.43 223.235 191.65C223.122 191.735 223.017 191.823 222.924 191.913C222.898 191.929 222.872 191.944 222.848 191.96C221.802 192.609 220.741 193.23 219.484 193.433C218.545 193.643 217.618 193.755 216.73 194.282C216.576 194.374 216.411 194.458 216.239 194.532C215.514 194.621 214.788 194.707 214.063 194.793C214.05 194.791 214.036 194.788 214.023 194.786C212.545 194.45 211.081 195.146 209.61 194.801C209.533 194.782 209.408 194.787 209.36 194.833C209.026 195.161 208.371 195.186 208.101 195.575C207.628 195.647 207.156 195.724 206.684 195.807C204.988 196.1 203.288 195.9 201.592 195.888C201.032 195.834 200.475 195.776 199.918 195.726C198.872 195.634 197.873 195.412 196.835 195.68C196.686 195.728 196.538 195.775 196.389 195.824C195.172 196.3 193.917 196.56 192.598 196.411C192.144 196.36 191.734 196.276 191.241 196.378C190.506 196.531 189.772 196.713 189.03 196.842C188.336 196.861 187.64 196.863 186.944 196.834C185.853 196.486 184.827 196.526 183.918 197.258C183.528 197.094 183.154 196.901 182.76 196.979C181.198 197.29 179.461 196.82 178.074 197.926C177.906 198.06 177.616 198.106 177.463 198.001C176.373 197.251 175.185 197.925 174.073 197.884C173.466 197.862 172.826 197.822 172.177 197.851C171.889 197.832 171.587 197.854 171.262 197.916C169.168 198.316 167.024 198.302 164.901 198.247C162.941 198.195 160.983 198.128 159.028 198.248C158.032 198.308 157.072 198.249 156.136 197.912C155.648 197.547 155.264 198.141 154.745 198.027C153.583 197.774 152.388 197.917 151.253 198.211C149.574 198.644 147.874 198.723 146.161 198.665C143.93 198.59 141.711 198.759 139.5 198.966C138.938 199.019 138.281 198.935 137.764 199.23C137.702 199.216 137.641 199.203 137.579 199.188C137.444 199.222 137.309 199.25 137.174 199.277C137.099 199.27 137.017 199.275 136.933 199.293C135.345 199.63 133.718 199.427 132.111 199.683C130.723 199.905 129.334 200.121 127.935 200.241C127.717 200.256 127.5 200.272 127.284 200.291C126.023 200.37 124.754 200.361 123.47 200.197C121.356 199.926 119.223 200.234 117.115 200.549C116.999 200.634 116.88 200.713 116.755 200.785C115.776 200.927 114.765 200.372 113.808 200.918C113.438 201.066 113.112 200.613 112.734 200.842C111.989 200.922 111.269 200.746 110.544 200.653C109.111 200.318 107.682 200.333 106.24 200.655C106.15 200.674 106.061 200.693 105.971 200.711C105.696 200.723 105.427 200.768 105.178 200.84C104.261 200.952 103.336 200.932 102.435 200.692C101.087 200.331 99.7279 200.34 98.3748 200.432C96.1226 200.587 93.8769 200.829 91.6183 200.9C91.1359 200.915 90.6793 201 90.4671 201.503C90.4054 201.509 90.3449 201.514 90.2832 201.519C89.3764 201.408 88.5133 201.169 87.7943 200.466C87.5178 200.196 87.0843 200.262 86.7396 200.166C86.5377 200.109 86.3049 200.075 86.0695 200.036C85.5679 199.736 85.0817 199.414 84.6354 199.039C84.5029 198.057 83.8971 197.495 83.3466 196.822C82.3755 195.718 82.0513 194.382 81.8931 192.996C81.8198 192.351 81.7221 191.714 81.4648 191.112C81.3838 190.92 81.295 190.734 81.1703 190.614C80.6931 188.263 79.9123 185.977 79.5201 183.61C78.729 178.841 77.4827 174.08 79.2139 169.26C79.2692 169.106 79.2641 168.935 79.2705 168.771C79.421 164.617 79.2268 160.466 78.931 156.328C78.6146 151.911 78.7689 147.475 78.2814 143.069C78.2364 142.663 78.3123 142.248 78.3689 141.84C78.6158 140.071 78.5271 138.338 78.0872 136.583C77.7322 135.165 77.3373 133.725 77.2872 132.261C77.2602 131.477 77.5637 130.666 77.1984 129.908C76.6788 128.831 76.7547 127.652 76.4807 126.535C75.6447 123.131 76.5064 119.671 76.0678 116.228C75.8325 114.383 76.1501 112.394 76.253 110.471C76.2711 110.066 76.0344 109.704 76.0807 109.285C76.3881 106.513 76.5 103.743 75.8492 100.993C75.7553 100.593 75.7347 100.175 75.7874 99.7678C76.2813 95.943 76.5772 92.1009 76.8949 88.26C77.1817 84.7931 77.9213 81.3731 78.1104 77.8828C78.194 76.3425 77.9997 74.7565 78.5104 73.2409C78.8422 72.6065 78.9181 71.9919 78.8281 71.244C78.8178 71.1539 78.8101 71.0638 78.8023 70.9724C79.0223 70.3813 79.1445 69.7567 79.1548 69.0977C79.1753 67.7919 79.4789 66.5824 80.2326 65.4938C80.3471 65.3284 80.4358 65.1593 80.5053 64.9853C81.0712 64.3089 81.6912 63.656 81.6449 62.6687C81.7851 62.2688 81.861 61.8603 81.7928 61.4369C81.7619 61.2987 81.7298 61.1605 81.6976 61.0235C81.6655 60.8778 81.6359 60.7297 81.5947 60.589C82.1478 59.8152 82.4115 58.9154 82.58 57.9552C82.6044 57.8195 82.6031 57.7195 82.5813 57.6417C82.6186 57.6183 82.6546 57.5911 82.6867 57.5566C82.7819 57.464 82.8848 57.3788 82.9903 57.2986C83.7749 57.2357 84.5492 57.0937 85.1151 56.5927C85.6039 56.1594 86.1518 55.8385 86.7152 55.5522C88.0683 55.6867 89.0355 55.1252 89.9462 54.3353C89.9706 54.3143 89.9963 54.297 90.0208 54.2785C90.1687 54.2847 90.3179 54.297 90.4658 54.3143C91.1925 54.4007 91.9128 54.3723 92.6318 54.281C93.5952 54.2415 94.5573 53.9601 95.5297 54.086C95.8538 54.1279 96.3374 54.0366 96.7078 53.7564C97.7162 53.6972 98.7581 53.7577 99.7343 53.3997C98.8957 53.1258 98.0249 53.1652 97.1593 53.1504C97.2764 53.106 97.396 53.069 97.5156 53.0369C97.6494 53.0357 97.7831 53.0357 97.9169 53.0357C98.4378 53.0344 98.9549 53.0085 99.4719 52.9727C100.588 53.0653 101.675 52.9344 102.753 52.7197C103.19 52.7271 103.626 52.7863 104.056 52.9443C104.577 53.1517 105.043 52.6395 105.525 52.7925C107.229 53.3319 108.982 53.0826 110.681 52.9678C111.905 52.8863 112.158 53.4676 112.357 54.2686C112.563 55.0931 112.455 55.9484 112.468 56.7914C112.276 56.8568 112.235 57.1024 112.224 57.3245C112.194 57.9392 112.235 58.5587 112.217 59.1734C112.198 59.825 112.532 60.2805 113.08 60.4767C114.045 60.8223 114.778 61.4591 115.547 62.0565C116.225 62.5823 117.047 63.0229 117.82 63.092C119.687 63.2574 121.613 63.3857 123.454 63.1031C125.06 62.8575 126.628 63.1759 128.241 62.9994C129.856 62.8217 131.557 62.8242 133.216 62.6847C133.911 62.6255 134.444 62.1762 135.23 62.1688C137.021 62.1515 138.797 62.5415 140.6 62.2367C142.001 62.001 143.444 62.3169 144.863 62.1256ZM173.014 32.6169C173.053 32.8687 173.086 33.1241 173.102 33.3809C173.037 33.1315 173.008 32.8773 173.014 32.6169ZM146.339 22.0459C147.027 21.6904 147.573 20.824 148.513 21.0671C149.295 21.2683 149.807 20.8808 150.179 20.4167C151.102 19.2627 152.449 18.8604 153.744 18.9887C155.074 19.1208 156.418 19.0998 157.78 19.3615C160.609 19.902 163.137 21.1609 165.836 21.9656C167.432 22.442 169.009 23.7133 170.078 25.0623C171.392 26.7211 172.207 28.66 172.67 30.6964C172.632 30.6076 172.592 30.5187 172.549 30.4311C172.54 31.4012 172.749 32.3762 172.405 33.3401C172.275 33.7017 172.46 34.0523 172.716 34.3546C172.797 34.4509 172.874 34.5497 172.95 34.6509C172.942 34.6706 172.937 34.6903 172.929 34.7101C172.369 36.1504 172.396 36.2516 173.945 36.8552C174.207 36.9564 174.419 37.1835 174.72 37.2242C175.777 37.3316 176.828 37.0353 177.902 37.2291C180.326 37.6673 182.764 38.0462 185.249 37.9808C185.386 37.982 185.521 37.9869 185.658 37.9832C186.215 38.0992 186.908 37.7265 187.316 38.393C187.574 39.1138 187.586 39.9037 187.982 40.5874C187.965 41.1551 188.562 41.597 188.358 42.203C188.358 42.3881 188.36 42.5745 188.386 42.7584C188.518 43.4002 188.715 44.0741 188.576 44.6998C188.162 46.5709 188.734 48.2716 189.365 49.9822C189.52 50.4056 189.592 50.8536 189.662 51.2991C189.713 51.6225 189.834 51.9718 189.68 52.2667C189.151 53.2751 189.268 54.2723 189.598 55.3017C189.868 56.1422 190.309 56.9395 190.398 57.8269C190.206 57.7948 189.994 57.8466 189.77 57.8812C189.119 57.9824 188.503 58.2144 187.826 58.2354C184.864 58.3317 181.902 58.5193 178.94 58.5168C178.117 58.5155 177.085 58.7254 176.429 58.1441C175.486 57.3085 174.432 57.306 173.282 57.2418C171.198 57.1246 169.109 57.6133 167.069 57.3591C163.418 56.9037 159.766 57.1036 156.116 57.0036C154.214 56.9518 152.31 56.9728 150.408 56.9987C146.845 57.0468 143.282 56.8234 139.719 57.132C136.55 57.406 133.369 57.2172 130.193 57.2024C128.039 57.1925 125.888 57.3048 123.721 57.0493C122.475 56.9024 121.171 56.5112 119.893 56.8012C120.513 54.4871 120.19 52.1334 120.085 49.8008C120.055 49.1528 120.01 48.5777 120.4 48.0618C120.806 47.5224 120.984 46.8942 120.774 46.3302C120.549 45.7217 120.732 45.2194 120.812 44.6578C121.07 42.8571 122.327 41.2675 122.021 39.3495C122.374 38.4979 121.574 37.4673 122.455 36.6947C122.87 35.9628 123.648 36.0677 124.31 36.0258C124.484 36.0147 124.657 36.0048 124.831 35.9961C126.409 36.2306 127.989 36.2232 129.567 35.9752C130.474 35.99 131.382 36.0048 132.289 35.9986C132.419 36.0023 132.55 36.0048 132.68 36.0035C133.819 35.9283 134.946 35.7184 136.101 35.7468C136.513 35.7567 136.94 35.6592 137.346 35.4852C137.544 35.4593 137.741 35.4333 137.939 35.4062C139.095 35.247 139.317 34.9927 139.061 34.051C139.144 33.919 139.216 33.7832 139.274 33.645C139.544 33.2982 139.467 32.8946 139.476 32.5046C139.445 32.0541 139.31 31.6147 139.329 31.1605C139.337 30.8717 139.363 30.5841 139.471 30.3114C140.064 28.8118 140.779 27.3986 141.682 26.1323C141.578 26.3286 141.484 26.5322 141.4 26.7457C142.531 25.4461 144.154 24.5871 145.009 23.0406C144.549 23.2887 144.114 23.5578 143.709 23.8552C144.481 23.1641 145.35 22.5568 146.339 22.0459Z" fill="currentColor"/>
    <path d="M68.0945 91.1692C68.0097 91.0037 67.9235 90.8381 67.8386 90.6738C67.8257 90.8851 67.9183 91.0469 68.0945 91.1692Z" fill="currentColor"/>
    <path d="M221.29 200.067C221.263 200.062 221.228 200.093 221.196 200.108C221.204 200.141 221.2 200.19 221.221 200.204C221.308 200.262 221.365 200.234 221.364 200.135C221.364 200.11 221.32 200.073 221.29 200.067Z" fill="currentColor"/>
    <path d="M226.409 205.978C226.388 205.988 226.367 206.039 226.376 206.057C226.414 206.136 226.475 206.144 226.527 206.077C226.539 206.062 226.513 206.02 226.504 205.99C226.472 205.986 226.434 205.967 226.409 205.978Z" fill="currentColor"/>
    <path d="M227.174 93.5899C227.157 93.5885 227.163 93.6098 227.174 93.5899V93.5899Z" fill="currentColor"/>
    <path d="M112.064 47.9446C112.016 47.9952 112.054 48.2113 112.118 48.2484C112.451 48.4434 112.508 48.1582 112.609 47.9631C112.427 47.9001 112.234 47.7618 112.064 47.9446Z" fill="currentColor"/>
    <path d="M112.615 47.9512C112.612 47.9552 112.611 47.9592 112.609 47.9633C112.612 47.9646 112.615 47.966 112.617 47.966C112.617 47.966 112.616 47.9592 112.616 47.9539C112.616 47.9579 112.617 47.966 112.617 47.966C112.617 47.9619 112.617 47.9579 112.616 47.9539C112.616 47.9539 112.615 47.9525 112.615 47.9512Z" fill="currentColor"/>
    <path d="M112.715 35.6307C112.826 35.6072 112.951 35.5974 113.039 35.5394C113.111 35.4912 113.066 35.411 112.942 35.3789C112.864 35.427 112.767 35.4826 112.675 35.5455C112.558 35.627 112.574 35.6603 112.715 35.6307Z" fill="currentColor"/>
    <path d="M103.993 48.9896L103.927 48.9551L103.93 49.0242L103.993 48.9896Z" fill="currentColor"/>
    <path d="M143.044 100.138C143.091 100.181 143.137 100.221 143.183 100.26C143.031 101.457 142.802 102.658 143.365 103.812C143.386 103.879 143.419 103.944 143.465 104.007C145.16 105.264 147.102 105.561 149.158 105.272C150.134 105.135 151.078 104.868 151.671 103.97C151.969 103.519 152.468 103.395 153.025 103.443C153.877 103.517 154.731 103.57 155.584 103.621C158.148 103.772 160.726 103.959 163.256 103.406C165.488 102.919 167.706 102.598 169.993 102.919C170.281 102.959 170.589 102.887 170.887 102.859C173.745 102.6 176.609 102.729 179.473 102.745C179.799 102.648 180.122 102.487 180.455 102.466C182.149 102.362 183.779 101.671 185.528 102.012C186.012 102.105 186.555 101.993 187.057 101.909C188.923 101.598 190.799 101.493 192.689 101.557C193.585 101.588 194.476 101.541 195.373 101.49C196.322 101.434 197.229 101.112 198.164 101.132C200.352 101.177 202.524 101.05 204.692 100.8C205.807 100.801 206.923 100.802 208.038 100.802C208.293 100.615 208.487 100.384 208.59 100.088C208.737 99.0199 208.458 98.3967 207.561 97.9598C207.187 97.7771 206.757 97.6944 206.348 97.5821C204.072 96.9551 201.76 97.3242 199.471 97.4291C196.403 97.5698 193.343 97.8672 190.281 98.098C189.944 98.1486 189.607 98.2436 189.271 98.2412C186.402 98.2276 183.536 98.3522 180.677 98.5546C177.515 98.778 174.347 98.836 171.183 98.9866C170.704 99.0101 170.218 98.9582 169.813 98.7188C168.402 97.8845 166.888 97.9462 165.329 98.1239C163.84 98.293 162.371 98.6867 160.889 98.7472C158.452 98.8471 156.021 99.0607 153.577 99.0977C150.115 99.1508 146.646 99.2742 143.214 99.8148C143.114 99.8974 143.057 100.005 143.044 100.138Z" fill="currentColor"/>
    <path d="M124.467 64.8613L124.388 64.865L124.43 64.9304L124.467 64.8613Z" fill="currentColor"/>
    <path d="M180.252 143.755C180.257 143.755 180.261 143.754 180.267 143.754C180.267 143.754 180.267 143.754 180.268 143.754L180.252 143.755Z" fill="currentColor"/>
    <path d="M207.767 171.717C207.971 170.374 208.128 169.034 207.793 167.689C207.876 167.365 207.96 167.041 208.045 166.717C208.376 165.995 208.302 165.247 208.229 164.492C208.119 163.364 207.639 162.286 207.585 161.178C207.456 158.49 207.38 155.803 207.179 153.114C206.892 149.274 206.648 145.431 206.231 141.603C206.061 140.048 205.512 138.512 205.654 136.943C205.785 135.488 205.396 134.122 205.216 132.72C205.126 132.022 204.685 131.769 203.85 131.833C202.783 131.916 201.718 132.075 200.642 132.136C198.434 132.26 196.24 132.674 194.031 132.897C193.16 132.985 192.247 133.235 191.423 132.76C190.369 132.153 188.738 132.875 188.741 134.081C188.744 135.247 188.553 136.401 188.646 137.575C188.762 139.049 188.516 140.52 188.677 142.017C188.841 143.56 188.539 145.138 188.697 146.703C188.759 147.308 189.2 147.913 188.919 148.504C188.149 150.123 188.611 151.842 188.481 153.5C188.27 156.177 188.683 158.871 188.987 161.55C189.028 161.911 189.078 162.31 188.837 162.617C188.179 163.455 188.642 164.231 188.937 165.023C189.129 165.278 189.201 165.574 189.002 165.821C188.508 166.432 188.619 167.107 188.758 167.768C189.015 168.993 189.855 170.046 189.933 171.334C189.945 171.527 190.103 171.692 190.255 171.848C190.728 172.327 190.997 172.94 191.412 173.467C191.514 174.036 191.146 174.264 190.167 174.362C189.316 174.447 188.464 174.535 187.613 174.628C187.414 174.651 187.214 174.684 187.015 174.704C186.983 174.661 186.952 174.615 186.925 174.562C186.872 174.457 186.873 174.35 186.911 174.242C187.047 173.951 187.055 173.64 187.053 173.329C187.055 173.196 187.056 173.061 187.057 172.928C187.011 171.584 187.41 170.132 186.224 169.062C186.205 168.942 186.185 168.823 186.165 168.703C186.099 168.425 185.983 168.148 185.978 167.869C185.925 165.504 185.5 163.156 185.652 160.784C185.821 160.621 185.861 160.461 185.639 160.308C185.572 160.281 185.506 160.254 185.439 160.225C185.263 158.222 185.028 156.223 185.21 154.206C185.236 153.928 185.155 153.635 185.084 153.358C184.898 152.634 184.836 151.902 184.871 151.16C185.03 150.997 185.16 150.833 184.876 150.665C184.626 149.921 184.561 149.178 184.878 148.435C184.698 147.428 184.646 146.423 184.761 145.4C184.903 144.143 184.373 143.565 183.039 143.556C182.116 143.55 181.192 143.686 180.269 143.76C177.689 144.846 175.025 145.534 172.174 145.32C170.438 145.189 168.645 145.525 166.991 144.717C166.621 144.536 166.236 144.652 165.871 144.796C165.809 144.912 165.746 145.03 165.691 145.148C165.665 145.172 165.639 145.196 165.613 145.221C165.433 145.405 165.399 145.703 165.517 145.901C165.526 146 165.548 146.098 165.59 146.201C165.979 147.134 166.102 148.125 166.296 149.1C166.275 149.248 166.257 149.393 166.245 149.532C166.104 151.357 166.743 153.089 166.57 154.881C166.555 155.034 166.639 155.212 166.763 155.327C166.868 155.422 166.954 155.522 167.027 155.627C167.027 155.83 167.05 156.033 167.121 156.234C167.243 156.577 167.315 156.924 167.359 157.274C167.355 157.315 167.351 157.356 167.347 157.396C167.228 158.494 167.385 159.592 167.183 160.697C167.067 161.326 167.163 162.072 167.783 162.606C167.891 162.699 167.987 162.794 168.07 162.891C168.125 163.221 168.183 163.549 168.251 163.875C168.317 164.191 168.383 164.507 168.448 164.823C168.408 164.974 168.357 165.129 168.293 165.287C167.939 166.169 168.029 167.232 168.888 167.705C169.055 167.797 169.196 167.892 169.315 167.991C169.515 168.552 169.67 169.126 169.822 169.703C169.819 169.716 169.818 169.729 169.816 169.742C169.422 170.435 169.369 171.084 169.759 171.844C170.173 172.651 170.318 173.565 170.352 174.479C170.378 175.195 170.393 175.585 170.254 175.832C169.082 176.064 167.894 176.152 166.703 176.095C166.547 175.747 166.579 175.197 166.753 174.411C167.005 173.276 167.476 172.043 166.822 170.952C166.067 169.693 165.925 168.28 165.516 166.948C165.462 166.614 165.421 166.278 165.387 165.943C165.392 165.132 165.562 164.278 165.284 163.469C165.234 163.322 165.273 163.11 165.378 162.995C165.832 162.505 165.702 161.915 165.71 161.355C165.736 159.546 165.384 157.757 165.428 155.947C165.44 155.472 165.132 155.191 164.822 154.827C164.705 154.689 164.584 154.571 164.461 154.47C164.166 154.021 163.679 153.863 162.87 153.917C162.103 153.969 161.348 154.099 160.595 154.276C158.769 154.706 156.97 155.275 155.073 155.367C153.399 155.45 151.771 155.797 150.141 156.133C149.897 156.13 149.655 156.128 149.416 156.128C148.442 156.131 147.965 156.31 147.758 157.173C147.668 157.79 147.82 158.387 147.918 158.991C148.328 161.529 148.703 164.069 148.548 166.649C148.334 168.393 148.644 170.098 148.904 171.806C148.922 172.701 149.053 173.592 149.188 174.48C149.19 174.538 149.192 174.598 149.194 174.656C149.197 174.889 149.2 175.149 149.323 175.363C149.367 175.606 149.444 175.863 149.597 176.029C149.731 176.175 149.839 176.329 149.927 176.488C149.909 176.513 149.888 176.537 149.866 176.561C149.627 176.828 149.6 177.159 149.52 177.476C149.474 177.682 149.407 177.883 149.336 178.083C149.289 178.194 149.272 178.353 149.244 178.493C148.12 178.606 146.983 178.543 145.854 178.624C145.83 178.625 145.808 178.625 145.785 178.626C145.709 178.535 145.654 178.425 145.632 178.293C145.485 177.418 145.298 176.453 145.409 175.657C145.69 173.673 145.641 171.817 144.755 169.985C144.732 169.936 144.712 169.885 144.694 169.835C144.679 169.581 144.665 169.326 144.651 169.072C144.684 168.892 144.747 168.713 144.835 168.545C144.968 168.291 145.132 168.074 145.125 167.76C145.085 166.04 145.204 164.323 144.93 162.6C144.784 161.689 144.473 160.768 144.38 159.848C144.473 159.417 144.492 158.986 144.435 158.557C144.526 158.134 144.701 157.715 144.999 157.296C144.783 156.685 145.038 155.936 144.467 155.444C143.992 155.035 143.934 154.497 143.951 153.984C144.02 151.81 143.685 149.669 143.413 147.526C143.191 145.77 143.321 144.067 143.811 142.381C143.916 142.39 144.002 142.413 144.074 142.446C144.176 142.654 144.312 142.84 144.483 143.005C144.433 142.866 144.368 142.736 144.288 142.614C144.378 142.725 144.432 142.857 144.496 142.971C144.966 143.802 145.601 144.143 146.653 144.164C148.529 144.2 149.314 142.794 150.423 141.824C150.724 141.56 150.624 140.991 150.241 140.718C149.452 140.158 148.923 139.366 148.24 138.714C147.137 137.66 145.682 136.952 144.882 135.61C144.801 135.337 144.658 135.097 144.501 134.863C144.504 134.862 144.505 134.861 144.505 134.861C144.365 134.51 144.154 134.203 143.86 133.955C142.96 133.2 142.056 132.449 141.155 131.696C140.96 131.536 140.805 131.479 140.706 131.579C140.414 131.551 140.121 131.605 139.827 131.679C139.939 131.709 140.052 131.74 140.164 131.769C140.051 131.778 139.938 131.761 139.827 131.679C139.748 131.611 139.666 131.542 139.587 131.474C138.059 131.316 137.922 131.424 137.799 132.887C136.917 134.231 135.715 135.332 134.725 136.595C134.298 137.206 133.732 137.624 133.094 138.06C132.723 138.313 132.388 138.592 132.074 138.889C132.051 138.847 132.007 138.817 131.948 138.802C131.783 138.804 131.684 138.875 131.669 139.005C131.657 139.103 131.7 139.167 131.77 139.191C130.394 140.627 129.532 142.448 128.591 144.177C128.024 145.217 128.42 145.873 129.544 146.421C130.021 146.653 130.33 147.024 130.662 147.402C131.414 148.257 132.498 148.345 133.12 147.425C134.026 146.085 135.154 144.915 136.059 143.582C136.266 143.323 136.225 142.907 136.745 142.68C136.549 143.482 137.214 144.151 136.897 144.847C136.559 145.592 136.836 146.291 136.808 147.008C136.766 148.109 137.623 148.852 137.946 149.817C138.036 150.28 138.009 150.756 138.078 151.22C138.095 151.333 138.11 151.444 138.123 151.556C138.178 152.641 138.228 153.726 138.293 154.811C138.319 156.049 138.358 157.285 138.607 158.503C138.698 159.275 138.809 160.045 138.947 160.814C139.221 162.321 138.958 163.846 138.96 165.363C138.962 165.917 139.131 166.478 139.188 167.028C139.192 167.202 139.196 167.375 139.2 167.549C139.187 167.718 139.153 167.886 139.093 168.051C138.463 169.761 138.861 171.505 138.747 173.228C138.722 173.589 138.677 174.025 138.949 174.294C139.191 174.533 139.317 174.794 139.386 175.067C139.378 175.84 139.371 176.613 139.377 177.387C139.381 177.924 139.35 178.489 139.483 179.001C139.479 179.28 139.484 179.563 139.741 179.763C139.952 179.927 140.141 180.106 140.317 180.295C140.764 180.877 141.079 181.519 141.418 182.156C141.751 182.782 142.131 183.377 142.589 183.921C143.53 185.043 144.49 185.291 145.87 184.723C146.703 184.38 147.547 184.101 148.448 183.996C151.339 183.659 154.206 183.167 157.106 182.879C160.606 182.531 164.096 182.344 167.616 182.648C169.05 182.772 170.553 182.79 171.765 181.766C172.878 181.645 173.985 181.471 175.111 181.519C175.699 181.402 176.29 181.171 176.873 181.188C179.033 181.255 181.065 180.617 183.154 180.286C185.684 179.885 188.251 179.702 190.796 179.383C192.412 179.179 194.033 179.075 195.654 179.144C197.009 179.202 198.301 179.059 199.55 178.557C199.642 178.483 199.733 178.409 199.824 178.335C202.703 177.631 205.633 177.547 208.578 177.693C209.566 177.742 210.55 177.86 211.539 177.86C211.583 177.936 211.604 178.026 211.593 178.136C211.557 178.508 211.344 179.144 210.748 179.339C210.667 179.367 210.585 179.391 210.515 179.439C209.56 180.097 209.31 180.677 209.686 181.689C209.638 181.865 209.604 182.049 209.591 182.242C209.719 182.874 209.795 183.521 209.987 184.134C210.393 185.438 211.629 185.803 212.661 184.964C212.748 184.885 212.837 184.806 212.925 184.727C213.52 184.587 213.97 184.273 214.378 183.817C215.371 182.708 216.246 181.524 217.042 180.281C218.72 179.247 219.774 177.641 220.978 176.193C221.587 175.462 222.161 174.725 222.916 174.125C223.203 173.898 223.441 173.614 223.699 173.356C223.701 173.36 223.702 173.365 223.703 173.368C223.868 173.205 223.87 173.052 223.823 172.901C223.989 171.802 223.326 170.844 222.729 170.126C221.747 168.942 220.651 167.753 219.26 166.916C218.498 166.457 217.841 165.889 217.318 165.172C216.738 164.376 215.964 164.085 214.986 164.491C213.74 165.104 212.616 165.952 211.146 166.114C210.321 166.204 209.946 166.831 210.312 167.561C211.103 169.139 212.162 170.512 213.965 171.168C214.203 171.258 214.45 171.332 214.676 171.444C214.907 171.558 215.132 171.713 215.075 172.008C215.031 172.235 214.817 172.324 214.612 172.39C214.369 172.467 214.119 172.527 213.873 172.591C212.15 173.043 210.389 172.882 208.643 172.855C207.802 172.834 207.637 172.564 207.767 171.717ZM182.156 163.911C182.283 166.164 182.62 168.406 182.563 170.669C182.538 171.7 182.598 172.723 182.98 173.707C183.069 173.935 183.12 174.184 183.137 174.427C183.192 175.227 182.836 175.723 181.997 175.775C180.546 175.864 179.088 175.855 177.632 175.875C177.195 175.881 176.823 175.684 176.85 175.238C176.923 174.048 176.323 173.005 176.11 171.877C175.57 169.007 175.456 166.086 174.99 163.221C174.518 160.305 174.036 157.379 173.381 154.49C173.079 153.154 173.048 151.799 172.967 150.447C172.938 149.984 173.039 149.548 173.263 149.138C173.659 148.759 174.16 148.706 174.683 148.709C175.834 148.714 176.979 148.664 178.121 148.498C178.716 148.41 179.319 148.401 179.786 148.88C180.757 151.608 181.637 154.35 181.539 157.288C181.467 159.516 182.031 161.696 182.156 163.911ZM185.776 168.327C185.788 168.429 185.799 168.533 185.811 168.635C185.779 168.54 185.772 168.433 185.776 168.327ZM153.693 170.563C153.653 169.358 153.441 168.343 154.026 167.245C154.148 167.721 153.789 166.23 153.942 166.695C154.062 167.059 153.385 160.341 153.845 160.312C154.326 160.281 156.211 160.339 156.571 160.17C156.929 160.002 156.647 160.192 156.931 160.107C157.343 159.982 157.059 160.277 157.549 160.242C158.122 160.202 158.276 160.612 158.331 161.036C158.421 161.73 158.489 162.427 158.521 163.124C158.58 164.42 158.825 165.627 159.693 166.701C160.317 167.471 160.402 168.461 160.416 169.411C160.443 171.3 160.856 173.177 160.568 175.074C160.512 175.443 160.645 175.803 160.728 176.166C160.896 176.892 160.759 177.141 160.061 177.404C159.744 177.524 159.396 177.647 159.068 177.634C157.671 177.581 156.363 178.018 155.016 178.237C154.72 178.285 154.423 178.332 154.125 178.355C153.55 178.395 153.217 178.169 153.264 177.573C153.288 177.287 153.3 176.997 153.352 176.714C153.716 174.677 153.761 172.622 153.693 170.563ZM194.222 137.565C195.625 136.818 197.108 137.018 198.537 136.726C199.296 136.57 199.689 137.015 199.809 137.928C200.043 139.721 200.287 141.513 200.47 143.312C200.897 147.521 201.221 151.738 201.114 155.972C201.096 156.681 201.192 157.368 201.496 158.017C202.657 160.491 203.085 163.124 203.342 165.792C203.48 167.222 203.583 168.656 203.686 170.09C203.729 170.707 203.816 171.306 204.03 171.898C204.365 172.819 204.169 173.142 203.185 173.444C202.487 173.657 201.769 173.763 201.032 173.684C200.17 173.592 199.324 173.674 198.484 173.868C197.432 174.111 196.363 174.13 195.292 174.04C194.842 174.002 194.358 173.847 194.386 173.345C194.462 172.011 193.867 170.763 193.914 169.44L193.913 169.426C194.049 169.162 194.13 168.881 194.058 168.591C193.483 166.284 193.68 163.944 193.703 161.609C193.741 157.832 193.86 154.037 193.292 150.295C192.847 147.366 192.452 144.438 192.225 141.489C192.213 141.324 192.182 141.163 192.164 140.999C191.94 138.907 192.29 138.593 194.222 137.565Z" fill="currentColor"/>
    <path d="M184.877 148.429C184.877 148.429 184.877 148.43 184.877 148.429C184.923 148.474 184.971 148.519 185.017 148.564C184.971 148.519 184.925 148.474 184.877 148.429Z" fill="currentColor"/>
    <path d="M124.435 165.477C124.436 165.477 124.437 165.476 124.439 165.476C124.44 165.475 124.44 165.475 124.441 165.474L124.435 165.477Z" fill="currentColor"/>
    <path d="M93.4887 128.705C93.4939 128.749 93.5929 128.781 93.6495 128.818C93.6855 128.757 93.7524 128.694 93.7473 128.638C93.7434 128.596 93.6431 128.563 93.5865 128.526C93.5505 128.587 93.4823 128.65 93.4887 128.705Z" fill="currentColor"/>
    <path d="M117.43 157.082H117.358L117.393 157.141L117.43 157.082Z" fill="currentColor"/>
    <path d="M116.14 161.077L116.124 161.012L116.071 161.061L116.14 161.077Z" fill="currentColor"/>
    <path d="M147.223 34.3213C147.247 34.3102 147.251 34.2547 147.264 34.2201C147.233 34.1979 147.202 34.1572 147.171 34.1572C147.139 34.1572 147.085 34.193 147.08 34.2201C147.063 34.3238 147.121 34.3657 147.223 34.3213Z" fill="currentColor"/>
    <path d="M149.245 35.2382C149.247 35.3666 149.299 35.4962 149.38 35.627C151.57 40.3356 155.878 41.2909 160.448 38.852H160.449C162.701 38.0461 164.746 37.0427 165.05 34.3878C165.065 33.1622 165.079 31.9366 165.094 30.7111C165.198 30.484 165.214 30.2507 165.208 30.0162C165.503 27.8575 165.157 25.8655 163.279 24.2708C162.912 23.9894 162.553 23.6994 162.178 23.4303C161.702 23.0897 161.324 22.5627 160.731 22.443C158.399 21.969 156.086 21.7839 154.019 23.2933C152.234 24.0018 151.161 25.3533 150.401 26.9862C150.009 27.428 149.941 28.013 149.664 28.5067C149.395 29.0325 149.395 29.599 149.394 30.1643C149.387 31.575 149.386 32.9857 149.382 34.3977C149.299 34.3952 149.215 34.3928 149.133 34.3891C149.137 34.6779 149.17 34.9617 149.245 35.2382ZM160.774 34.5261C160.744 34.7359 160.587 34.8865 160.403 35.0049C159.659 35.4814 158.949 36.0022 158.081 36.2885C156.54 36.797 155.731 36.5267 155.071 35.1271C154.201 33.2795 153.888 31.3677 154.592 29.3941C154.98 28.3055 155.626 27.5082 156.983 27.5564C157.233 27.565 157.487 27.4737 157.742 27.4465C159.56 27.249 160.681 27.9933 161.124 29.7076C161.289 30.3445 161.427 30.9875 161.391 31.7157C161.499 32.6722 160.915 33.5547 160.774 34.5261Z" fill="currentColor"/>
    <path d="M101.775 66.2684C101.799 66.2758 101.836 66.245 101.865 66.2314C101.86 66.2006 101.865 66.1574 101.846 66.1414C101.826 66.1229 101.77 66.1155 101.75 66.129C101.671 66.1833 101.682 66.24 101.775 66.2684Z" fill="currentColor"/>
    <path d="M122.267 126.254L122.263 126.179L122.193 126.218L122.267 126.254Z" fill="currentColor"/>
    <path d="M123.573 124.222L123.492 124.219L123.531 124.288L123.573 124.222Z" fill="currentColor"/>
    <path d="M141.937 119.302L141.927 119.305C142.219 119.576 141.873 120.008 142.194 120.272C142.506 121.049 143.053 121.354 143.962 121.386C146.395 121.473 148.84 121.566 151.247 121.882C153.224 122.141 155.167 122.095 157.126 121.923C157.727 121.87 158.319 121.84 158.903 122.024C158.974 122.012 159.046 122.006 159.118 122.006C159.216 122.017 159.312 122.029 159.409 122.04C159.459 122.041 159.508 122.043 159.558 122.045C159.852 122.072 160.146 122.101 160.44 122.117C161.196 122.197 161.954 122.281 162.719 122.055C162.935 121.991 163.235 122.077 163.46 122.174C164.144 122.464 164.858 122.529 165.59 122.518C165.934 122.435 166.277 122.354 166.62 122.271C166.939 122.077 167.257 121.882 167.577 121.69C168.411 121.185 168.941 120.506 168.921 119.516C168.884 119.576 168.847 119.635 168.81 119.693C168.819 119.619 168.847 119.555 168.921 119.515C168.925 119.365 168.93 119.213 168.934 119.062C168.897 118.902 168.858 118.741 168.824 118.58C168.41 116.653 168.357 116.609 166.388 116.859C165.729 116.943 165.112 116.938 164.556 116.52C164.04 116.131 163.455 116.096 162.848 116.289C162.102 116.527 161.338 116.543 160.561 116.518C159.235 116.476 157.902 116.385 156.583 116.469C153.797 116.647 151.013 116.596 148.227 116.586C147.583 116.584 146.942 116.536 146.347 116.254C144.915 115.58 143.506 115.825 142.122 116.388C141.368 116.695 141.255 116.968 141.52 117.755C141.69 118.265 141.918 118.755 141.937 119.302Z" fill="currentColor"/>
    <path d="M154.359 116.11L154.437 116.128L154.417 116.056L154.359 116.11Z" fill="currentColor"/>
    <path d="M141.033 115.968C141.006 115.983 140.975 115.994 140.954 116.015C140.93 116.039 140.914 116.071 140.895 116.1C140.925 116.081 140.958 116.067 140.984 116.043C141.006 116.023 141.017 115.994 141.033 115.968Z" fill="currentColor"/>
    <path d="M206.882 119.511L206.926 119.566L206.954 119.504L206.882 119.511Z" fill="currentColor"/>
    <path d="M228.104 124.383L228.034 124.388L228.075 124.446L228.104 124.383Z" fill="currentColor"/>
    <path d="M175.156 121.216C175.672 122.288 175.794 122.338 177.009 122.168C177.386 122.115 177.777 122.101 178.157 122.126C181.704 122.351 185.248 122.515 188.776 121.904C189.194 121.831 189.627 121.816 190.054 121.811C192.498 121.787 194.916 121.458 197.346 121.276C197.781 121.244 198.195 121.148 198.55 120.897C199.177 120.451 199.841 120.112 200.636 120.012C201.1 119.953 201.426 119.656 201.442 119.184C201.46 118.674 201.077 118.444 200.621 118.405C199.876 118.341 199.383 117.946 198.902 117.445C198.377 116.897 197.751 116.483 196.93 116.383C194.971 116.146 193.02 116.075 191.045 116.241C188.831 116.429 186.605 116.489 184.385 116.604H184.383C184.179 116.658 183.968 116.776 183.77 116.758C181.966 116.603 180.191 116.898 178.406 117.039C177.715 117.093 177.03 117.016 176.464 116.567C175.979 116.182 175.462 116.157 174.905 116.387C174.562 117.208 174.504 118.038 174.841 118.873C175.066 119.429 175.04 119.98 174.855 120.536C174.955 120.763 175.048 120.993 175.156 121.216Z" fill="currentColor"/>
    <path d="M96.1885 122.726C96.6104 122.769 97.0631 122.795 97.467 122.696C99.1018 122.295 100.774 122.317 102.434 122.185C104.487 122.024 106.534 122.025 108.59 122.084C110.298 122.134 112.012 122.04 113.722 121.983C114.346 121.962 114.947 121.776 115.159 121.138C115.437 120.303 116.102 120.013 116.892 119.874C117.352 119.792 117.824 119.766 118.29 119.71C119.077 119.613 119.334 119.39 119.451 118.64C119.501 118.316 119.468 117.983 119.504 117.656C119.625 116.559 119.076 115.553 119.032 114.479C119.052 114.464 119.073 114.452 119.095 114.436C119.235 112.344 119.13 110.25 119.182 108.158C119.202 107.415 118.398 106.883 118.735 106.108C118.659 105.887 118.591 105.666 118.628 105.43C118.528 105.126 118.411 104.825 118.516 104.501C118.793 103.758 119.269 103.155 119.842 102.589C121.591 100.861 123.554 99.3688 125.457 97.8088C125.589 97.7878 125.664 97.7138 125.679 97.5854C125.869 97.1658 126.192 96.8412 126.496 96.4981C127.221 95.6786 128.134 95.0837 129.017 94.4407C130.339 93.4756 130.436 92.7708 129.547 91.433C128.496 90.7714 127.531 90.9405 126.619 91.7008C126.233 92.0229 125.83 92.3265 125.435 92.6388C123.532 93.9791 121.804 95.5219 120.128 97.1004C119.236 97.9409 118.323 98.7295 117.331 99.4441C116.838 99.8008 116.615 99.7169 116.377 99.1652C116.175 98.6974 116.174 98.2025 116.179 97.7076C116.198 95.4639 115.524 93.3201 115.127 91.138C114.926 90.0346 114.396 89.7792 113.182 89.794C112.669 89.8001 112.156 89.7791 111.642 89.7508C108.988 89.6027 106.339 89.5743 103.686 89.8532C100.241 90.2161 96.82 90.8825 93.3215 90.6098C92.9061 90.5777 92.4597 90.6653 92.0546 90.7826C90.7349 91.1652 89.3998 91.4231 88.0158 91.4737C87.082 91.507 86.3257 92.0488 85.5476 92.4598C84.9533 92.7733 85.1115 93.4842 84.9533 94.026C84.8852 94.2617 84.7926 94.4962 84.6819 94.7159C84.39 95.2911 84.345 95.8946 84.3861 96.5216C84.6189 100.008 84.7553 103.505 85.1013 106.981C85.3624 109.603 85.1321 112.249 85.6132 114.852L85.599 114.856C85.6569 115.373 85.8048 115.863 86.0659 116.321C86.0788 116.259 86.0929 116.196 86.1071 116.134C86.1521 116.191 86.2048 116.244 86.2691 116.293C86.2987 116.306 86.3283 116.314 86.3592 116.323C86.4454 117.579 86.9251 118.753 87.2197 119.966C87.6583 121.772 88.5123 122.495 90.4198 122.511C92.3453 122.522 94.2682 122.529 96.1885 122.726ZM115.773 106.604C116.207 106.891 115.98 107.269 115.895 107.605C115.353 109.735 115.261 111.86 115.671 114.034C116.086 116.239 115.456 116.964 113.163 117.458C111.356 117.848 109.496 117.516 107.699 117.922C105.96 118.256 104.194 118.183 102.438 118.24C102.303 118.263 102.168 118.288 102.033 118.315C100.249 118.632 98.4253 118.245 96.6348 118.573C96.5088 118.63 96.3879 118.693 96.2631 118.753C95.4566 118.683 94.6643 118.388 93.8514 118.851C93.5479 119.023 93.1569 118.774 92.8726 118.522C92.771 118.48 92.6848 118.426 92.5781 118.383C92.515 117.878 92.5768 117.346 92.2565 116.886C92.0855 116.576 91.9723 116.237 91.7433 115.955C91.6121 115.876 91.5195 115.79 91.4565 115.697C91.5272 115.469 91.4951 115.25 91.3523 115.042C91.4076 114.669 91.5542 114.28 91.3497 113.955C91.2983 113.83 91.2494 113.703 91.1992 113.578C91.0475 113.391 90.9266 113.2 90.8404 113.009C90.9304 112.55 90.9484 112.082 90.9021 111.602C90.96 111.502 91.0307 111.403 91.1144 111.305C91.4025 110.967 91.3009 110.617 91.3806 110.27C91.7549 108.648 91.3935 107.05 91.2121 105.45C91.1645 105.233 91.1401 105.01 91.1414 104.788C91.5002 104.149 90.6436 103.46 91.2044 102.823C91.2674 102.709 91.2944 102.588 91.2623 102.457C90.9973 100.738 91.1324 99.0085 91.1285 97.2831C91.1272 96.5265 91.4771 95.9069 92.2437 95.6268C93.4784 95.1763 94.7119 94.811 96.0727 94.6925C98.5217 94.4802 101.041 94.7949 103.412 93.8137C104.486 93.3694 105.682 93.4274 106.835 93.6841C108.011 93.9458 109.201 94.1001 110.404 93.9705C111.475 93.8557 111.861 94.3494 111.959 95.2948C112.138 97.0066 112.508 98.7147 112.875 100.373C113.286 102.237 112.511 103.273 111.195 104.093C109.435 105.192 107.731 106.37 105.959 107.449C104.833 108.135 104.338 108.017 103.388 107.085C101.859 105.585 100.667 103.814 99.1378 102.317C97.696 100.907 96.0213 100.225 93.953 100.751C92.9434 101.008 92.6231 101.724 93.1479 102.432C92.6553 103.054 92.9086 103.669 93.3279 104.265C94.2103 105.519 95.2753 106.626 96.3634 107.714C96.6413 108.359 97.1326 108.865 97.5442 109.425C98.3764 110.557 99.4812 111.433 100.487 112.403C100.725 112.493 100.957 112.639 101.202 112.665C102.741 112.828 104.202 113.129 105.454 114.117C105.915 114.48 106.518 114.293 106.979 113.899C107.301 113.623 107.547 113.291 107.723 112.913C107.81 112.829 107.896 112.744 107.982 112.66C108.06 112.628 108.141 112.602 108.217 112.562C109.259 112.026 114.688 107.621 115.421 106.717C115.497 106.648 115.572 106.578 115.648 106.509C115.689 106.54 115.728 106.572 115.773 106.604Z" fill="currentColor"/>
    <path d="M135.692 160.488C134.955 161.025 134.218 160.872 133.522 160.788C133.079 160.733 132.733 160.777 132.383 160.933C131.234 161.448 130.257 162.209 129.297 162.989C128.221 163.482 127.09 163.888 126.236 164.74C125.568 164.832 125.054 165.268 124.439 165.476C121.15 168.474 118.682 170.364 117.659 170.629C117.824 169.596 118.08 168.601 118.046 167.568C118.005 166.296 117.758 165.035 117.882 163.753C117.922 163.342 117.748 162.944 117.564 162.569C117.185 161.794 116.859 161.59 115.947 161.659C115.095 161.724 114.238 161.785 113.411 162.032C111.473 162.611 109.412 162.444 107.453 162.917C107.254 162.965 107.025 162.929 106.814 162.899C106.078 162.797 105.363 162.888 104.649 163.062C102.939 163.479 101.189 163.691 99.4336 163.72C96.991 163.762 94.5691 163.964 92.1728 164.388C90.6821 164.651 90.3181 165.115 90.2139 166.549C90.1085 167.983 90.1059 169.433 89.8744 170.85C89.4602 173.394 90.2667 175.82 90.4776 178.301C90.5188 178.3 90.5586 178.3 90.5998 178.299C90.6062 178.422 90.6307 178.543 90.6757 178.661C90.695 179.661 90.7284 180.662 90.7451 181.662C90.7451 182.299 90.7451 182.936 90.7451 183.571C90.7297 184.341 90.6911 185.11 90.6127 185.879C90.3001 187.242 90.5406 188.633 90.3799 190.01C90.2821 190.853 91.0577 191.552 91.868 191.464C92.7349 191.37 93.589 191.431 94.4302 191.527C95.7858 191.682 97.0026 190.9 98.2953 191.007C102.491 191.354 106.647 190.478 110.85 190.762C113.402 190.934 116.005 190.869 118.531 190.252C119.948 189.906 120.171 189.599 119.851 188.293C119.738 187.83 119.648 187.36 119.541 186.896C119.54 186.405 119.492 185.922 119.29 185.463C119.295 185.675 119.306 185.888 119.33 186.098C119.321 186.069 119.313 186.041 119.304 186.012C119.078 185.308 119.002 184.581 118.962 183.846C118.98 183.897 119 183.946 119.02 183.996C119.018 183.739 118.992 183.487 118.935 183.24C118.884 181.916 118.845 180.591 118.148 179.37C118.053 179.205 118.086 178.968 118.11 178.761C118.288 177.226 119.02 176.061 120.359 175.134C122.892 173.383 125.236 171.394 127.674 169.521C129.233 167.929 130.927 166.484 132.891 165.374C134.421 164.51 135.498 163.177 136.814 162.095C137.076 161.879 137.308 161.633 137.29 161.262C137.098 160.522 136.313 160.036 135.692 160.488ZM117.353 170.951C117.334 170.907 117.324 170.86 117.32 170.811C117.329 170.86 117.339 170.908 117.353 170.951ZM112.809 186.963C112.059 187.179 111.303 187.229 110.527 187.119C110.064 187.054 109.587 186.957 109.128 186.999C106.948 187.2 104.774 186.874 102.598 186.958C100.428 186.913 98.2695 186.552 96.092 186.72C96.092 186.72 96.092 186.72 96.0933 186.721C96.0933 186.721 96.092 186.721 96.092 186.72C95.7717 186.447 95.6572 186.093 95.6572 185.695C96.2425 184.969 96.2836 184.114 96.2309 183.26C96.1486 181.926 96.1138 180.586 95.8669 179.264L95.863 179.17L95.8656 179.076C95.6482 178.526 95.6315 177.948 95.6328 177.372C95.6392 175.318 95.6148 173.262 95.8643 171.215C95.9492 170.519 96.0199 169.818 95.6366 169.167L95.6418 169.168C95.7125 168.766 95.7884 168.363 95.8514 167.96C96.0058 166.975 96.1524 166.832 97.1351 166.825C100.294 166.807 103.432 166.534 106.566 166.171C107.123 166.107 107.664 165.985 108.15 165.718C109.006 165.248 109.92 165.162 110.875 165.255C111.384 165.306 111.889 165.333 112.405 165.304C113.195 165.259 113.32 165.416 113.066 166.158C112.785 166.982 112.567 167.808 112.617 168.683C112.604 168.842 112.592 169 112.577 169.159C112.289 169.589 112.197 170.063 112.234 170.564C112.302 171.501 112.292 172.451 112.467 173.368C112.664 174.394 112.361 175.087 111.449 175.64C110.692 176.099 110.002 176.662 109.772 177.565C109.687 177.651 109.601 177.735 109.516 177.82C108.788 177.918 108.104 178.128 107.476 178.508C106.42 179.148 106.407 179.146 105.803 178.059C104.879 176.398 104.067 174.684 102.874 173.161C102.052 172.11 101.737 171.899 100.441 172.276C100.065 172.384 99.705 172.503 99.3255 172.313C98.6721 171.984 98.3814 172.339 98.1859 172.871V172.872C97.22 173.625 97.265 174.563 97.7486 175.509C98.1937 176.382 98.739 177.206 99.2406 178.053C99.7243 178.396 100.102 178.834 100.499 179.264C101.652 180.516 102.665 181.886 103.921 183.055C104.459 183.556 105.032 183.972 105.811 183.95C107.084 183.914 108.279 183.682 109.002 182.508C109.689 182.017 110.374 181.527 111.061 181.036C111.372 180.947 111.633 180.784 111.849 180.551C112.158 180.356 112.408 180.107 112.612 179.812C112.88 179.686 113.15 179.562 113.416 179.433C114.406 178.95 114.66 179.056 114.662 180.084C114.668 182.01 114.655 183.933 113.982 185.795C113.763 186.402 113.435 186.783 112.809 186.963ZM113.502 165.763C113.529 165.623 113.538 165.496 113.533 165.379C113.563 165.506 113.546 165.633 113.502 165.763ZM95.5903 168.985C95.6058 169.043 95.6212 169.101 95.6379 169.161C95.6173 169.102 95.6019 169.044 95.5903 168.985Z" fill="currentColor"/>
    <path d="M119.801 187.683C119.81 188.112 119.887 188.528 120.055 188.927C120.046 188.499 119.977 188.08 119.801 187.683Z" fill="currentColor"/>
    <path d="M114.339 126.272L114.323 126.207L114.27 126.256L114.339 126.272Z" fill="currentColor"/>
    <path d="M89.8315 151.343C89.8328 151.873 89.7891 152.428 90.2161 152.84C91.1306 153.723 91.3943 154.908 91.8869 155.991C92.2471 156.782 92.5519 157.92 93.2812 158.144C95.0021 158.671 96.7797 159.689 98.6975 158.616C99.0267 158.433 99.4448 158.398 99.8268 158.437C102.348 158.698 104.862 158.421 107.365 158.254C109.589 158.104 111.91 158.236 113.943 157.04C115.213 156.294 116.782 156.523 118.09 155.891C118.953 155.474 119.482 155.052 119.452 153.881C119.385 151.275 119.256 148.685 118.908 146.102C118.845 145.64 118.954 145.181 119.249 144.819C120.06 143.821 120.635 142.71 121.722 141.828C122.876 140.89 123.965 139.657 124.508 138.168C124.776 137.513 125.107 136.871 125.691 136.446C127.275 135.294 128.214 133.652 129.339 132.151C129.883 131.658 130.187 130.996 130.637 130.436C130.898 129.673 131.654 129.272 132.079 128.623C132.341 128.22 132.561 127.819 132.189 127.448C131.773 127.031 131.172 126.439 130.633 126.705C129.572 127.227 128.407 127.693 127.547 128.456C126.819 129.102 126.129 129.787 125.345 130.388C124.615 130.948 124.009 131.628 123.745 132.525C123.727 132.649 123.721 132.776 123.724 132.904C123.39 134.122 122.749 135.175 121.864 136.098C121.097 136.767 120.33 137.436 119.564 138.106C119.412 138.114 119.331 138.19 119.321 138.335C119.064 138.605 118.755 138.867 118.588 138.313C118.406 137.714 118.519 137.084 118.621 136.476C118.935 134.604 118.724 132.803 117.99 131.032C117.587 130.059 116.952 129.451 115.884 129.261C115.462 129.186 115.044 129.067 114.62 129.04C111.447 128.839 108.284 128.909 105.141 129.425C104.548 129.494 103.934 129.49 103.365 129.643C100.992 130.28 98.5766 130.474 96.125 130.422C94.714 130.393 93.285 130.335 92.0528 131.199C90.3216 131.243 89.4624 132.302 88.782 133.669C88.4411 134.353 88.1118 135.015 88.1864 135.77C88.3395 137.321 88.4861 138.888 88.9196 140.387C89.2797 141.633 89.4624 142.868 89.456 144.149C89.4508 145.008 89.3891 145.877 89.6978 146.711C89.7158 146.107 89.7325 145.502 89.7376 144.897C89.7634 147.048 89.8251 149.196 89.8315 151.343ZM108.762 154.273C107.347 154.112 105.918 154.081 104.566 154.481C102.268 155.159 100.07 154.555 97.8833 154.102C96.1212 153.736 96.1212 153.573 96.1109 151.804C96.1096 151.517 96.1173 151.23 96.1212 150.943C95.9359 150.299 96.0414 149.662 96.0993 149.009C96.1958 147.902 96.2202 146.784 95.6092 145.796C95.6118 145.757 95.6144 145.718 95.6157 145.677C95.1321 142.425 95.743 139.148 95.3314 135.889C95.2028 134.87 95.8536 134.361 97.0241 134.291C98.0119 134.233 98.9689 134.093 99.931 133.872C102.175 133.357 104.456 132.612 106.757 133.152C108.277 133.509 109.723 133.65 111.274 133.555C113.197 133.437 113.701 134.125 113.818 135.969C113.929 137.7 113.69 139.495 114.641 141.131C115.047 141.829 114.449 142.741 113.355 143.405C112.688 143.811 111.985 143.878 111.525 143.233C110.268 141.472 108.464 140.269 106.883 138.835C104.981 137.108 103.979 136.93 101.721 138.116C101.534 138.215 101.342 138.306 101.141 138.379C99.9464 138.811 99.41 139.771 98.9907 140.83C98.7528 141.431 98.9316 141.976 99.4383 142.293C100.015 142.654 100.439 143.19 101.054 143.491C102.354 144.734 103.682 145.953 104.95 147.227C106.788 149.074 108.937 150.56 111.007 152.139C111.826 152.764 112.656 152.696 113.341 151.83C113.966 151.04 114.67 150.337 115.416 149.663C115.757 149.034 115.704 148.263 116.188 147.685C117.069 147.554 117.141 147.583 117.085 148.301C116.984 149.607 116.716 150.895 116.694 152.215C116.675 153.397 116.37 153.701 115.132 153.939C113.029 154.341 110.904 154.518 108.762 154.273ZM89.4251 140.822C89.645 141.398 89.7235 142.013 89.7209 142.617C89.7196 142.974 89.7196 143.33 89.7222 143.686C89.6939 142.727 89.6103 141.771 89.4251 140.822Z" fill="currentColor"/>
    <path d="M244.79 74.6087C245.103 74.0743 245.501 73.5967 245.874 73.1015C246.503 72.2644 247.205 71.463 247.353 70.382C247.386 70.1395 247.52 69.9228 247.67 69.7217C248.187 69.0249 248.624 68.2796 249.099 67.5579C249.477 66.9825 249.757 66.3387 250.375 65.911C250.746 65.6541 250.793 65.2216 250.649 64.7962C250.834 64.5682 251.018 64.3411 251.203 64.1132C251.227 64.0809 251.251 64.0486 251.277 64.0165C251.489 63.9165 251.579 63.7303 251.647 63.5294C251.7 63.4589 251.753 63.3889 251.805 63.3184C251.995 63.275 252.006 63.0302 252.2 62.9926C252.288 62.8084 252.375 62.6243 252.463 62.4402C252.837 61.9352 253.318 61.4891 253.412 60.833C253.296 61.0359 253.175 61.2366 253.049 61.435C253.077 61.3629 253.097 61.2859 253.103 61.2018C253.069 61.1796 253.036 61.16 253.003 61.1427C253.283 60.7538 253.613 60.4095 253.972 60.079C254.54 59.5539 255.002 58.9153 255.285 58.2261C255.69 57.2378 256.291 56.3974 256.992 55.6009C257.922 54.5447 258.835 53.4792 259.291 52.1333C259.342 51.9851 259.461 51.8534 259.566 51.7269C260.56 50.5332 261.342 49.1964 262.31 47.9859C262.739 47.4493 263.006 46.8301 263.353 46.2526C263.936 45.2851 264.517 44.3169 265.18 43.3915C266.251 41.9001 267.161 40.3065 268.294 38.8527C268.473 38.6229 268.651 38.3764 268.687 38.0924C268.812 37.1232 269.399 36.3447 269.921 35.5766C270.674 34.4669 271.375 33.3294 272.106 32.2085C272.713 31.2779 273.241 30.2983 273.971 29.4417C274.322 29.0303 274.557 28.5512 274.771 28.0583C275.35 26.7254 275.464 25.3018 275.709 23.9035C275.951 23.2648 276.341 22.6261 276.175 21.9384C275.96 21.0442 275.483 20.2671 274.677 19.706C274.166 19.3511 273.634 18.938 273.409 18.3975C273.045 17.528 272.551 16.7919 271.848 16.1559C271.372 15.7246 270.952 15.1554 270.445 14.8472C269.304 14.154 268.239 13.3417 267.013 12.766C266.082 12.329 265.208 11.7918 264.171 11.5835C263.763 11.5011 263.396 11.3005 263.039 11.0849C262.267 10.6169 261.394 10.4719 260.502 10.409C260.475 10.4661 260.446 10.5141 260.413 10.5555C259.876 10.4565 259.337 10.3686 258.79 10.3347C258.784 10.3116 258.78 10.2874 258.777 10.2608C258.706 10.1952 258.619 10.1635 258.523 10.1478C258.186 10.133 257.912 9.86871 257.602 9.85905C256.569 9.82806 255.575 10.0757 254.599 10.3819C254.553 10.396 254.549 10.485 254.549 10.5474C254.538 10.4923 254.526 10.4378 254.531 10.3879C253.97 10.1999 253.404 10.3004 252.849 10.4111C252.766 10.4281 252.675 10.4601 252.609 10.5133C252.595 10.5149 252.581 10.517 252.567 10.5191C252.425 10.5738 252.289 10.6394 252.169 10.7302C252.044 10.8392 251.944 10.9945 251.784 11.0442C250.956 11.2998 250.466 11.926 249.963 12.5406C249.85 12.6782 249.741 12.8192 249.608 12.939C248.209 14.1958 246.904 15.5423 245.508 16.8031C244.577 17.6436 243.88 18.6907 243.111 19.661C242.092 20.9483 241.389 22.4436 240.389 23.7647C238.983 25.6211 237.409 27.3396 235.901 29.1129C235.781 29.2533 235.666 29.4079 235.481 29.479C234.837 29.7269 234.425 30.1873 234.18 30.7943C234.122 30.9366 234.048 31.0334 233.896 31.0944C233.367 31.3068 232.985 31.6748 232.709 32.1455C232.666 32.139 232.615 32.1464 232.554 32.1733C232.395 32.3426 232.092 32.3781 232.02 32.6253C231.913 32.999 231.627 33.2165 231.321 33.4246C231.253 33.4602 231.186 33.4967 231.123 33.5398C230.988 33.686 231.099 33.8713 231.051 34.0261C231.021 34.1608 231.041 34.3341 230.841 34.3793C230.714 34.5405 230.586 34.7018 230.458 34.863C230.401 34.8722 230.344 34.8805 230.288 34.8897C229.945 35.0927 229.735 35.4111 229.501 35.7095C229.354 35.8592 229.198 36.0011 229.115 36.1977C228.789 36.6246 228.462 37.0507 228.136 37.4776C227.878 37.7438 227.659 38.0492 227.345 38.2607C227.006 38.4891 226.645 38.6799 226.63 39.1609C226.627 39.2543 226.55 39.3457 226.472 39.4373C226.393 39.5147 226.313 39.593 226.235 39.6712C225.854 39.7404 225.673 40.1029 225.363 40.2542C224.79 40.5335 224.515 40.9456 224.497 41.5317C224.472 41.5633 224.447 41.5952 224.423 41.628C224.043 41.8622 223.778 42.1926 223.56 42.5627C223.457 42.6337 223.343 42.6956 223.217 42.7454C222.913 42.8652 222.755 43.1547 222.659 43.4522C222.606 43.616 222.562 43.7746 222.461 43.9219C222.224 44.1824 221.986 44.4416 221.761 44.7117C221.058 45.5565 220.492 46.4932 219.866 47.3891C219.486 47.6852 219.056 47.929 218.73 48.2793C218.673 48.3294 218.624 48.3854 218.584 48.4492C218.554 48.5382 218.571 48.6312 218.577 48.7246C218.408 48.8355 218.283 48.9995 218.164 49.172C217.637 49.9353 217.019 50.6568 216.605 51.4724C216.448 51.7818 216.249 52.0572 216.036 52.3208C215.814 52.3645 215.742 52.5599 215.636 52.7376C215.6 52.7991 215.563 52.8624 215.525 52.9251C215.401 53.0718 215.28 53.2213 215.164 53.3759C215.146 53.3908 215.128 53.4061 215.108 53.4195C213.794 54.3003 213.175 55.741 212.098 56.8112C212.058 56.8516 212.045 56.9167 212.039 56.9807C212.035 57.0406 212.026 57.0969 212.011 57.15C211.832 57.3585 211.647 57.5642 211.461 57.7698C211.388 57.807 211.312 57.839 211.235 57.8664C210.895 57.9881 210.67 58.2049 210.417 58.4127C210.269 58.5325 210.113 58.645 209.954 58.7508C209.829 58.8399 209.683 58.9054 209.613 59.0512C209.578 59.2682 209.603 59.483 209.501 59.7006C209.2 60.3454 208.641 60.8587 208.475 61.5753C208.441 61.7233 208.225 61.7792 208.088 61.8468C207.451 62.1595 207.155 62.6598 206.951 63.3105C206.689 64.1452 206.931 64.9884 206.733 65.8218C206.537 66.6474 206.656 67.526 206.377 68.3441C206.23 68.7781 205.861 69.1577 206.181 69.666C206.249 69.7742 206.088 69.9651 206.022 70.1139C205.904 70.3766 205.845 70.6467 205.815 70.9354C205.72 71.8767 205.578 72.8108 205.251 73.714C205.166 73.9484 204.922 74.0944 204.912 74.3509C204.869 75.4559 204.497 76.5121 204.301 77.5902C204.021 79.1257 203.935 80.6822 203.612 82.2135C203.418 83.1334 203.324 84.0733 202.997 84.9668C202.911 85.2022 202.865 85.4357 202.872 85.6801C202.892 86.3273 202.762 86.9701 202.807 87.6184C203.2 88.4793 202.961 89.3125 202.657 90.1326C202.499 90.5572 202.638 91.0064 202.456 91.4328C202.305 91.7885 201.983 92.0736 201.973 92.4862C201.852 92.5715 201.705 92.6146 201.585 92.7019C201.259 92.8255 201.096 93.1954 201.176 93.3747C201.294 93.6409 201.431 93.9078 201.532 94.1869C201.542 94.2134 201.61 94.2265 201.649 94.2186C201.72 94.2047 201.783 94.2039 201.839 94.2126C201.826 94.2403 201.816 94.2758 201.81 94.3198L201.816 94.349C201.881 94.3952 201.947 94.4415 202.012 94.4882L202.043 94.482C202.096 94.4672 202.14 94.4456 202.169 94.4204C202.229 94.4879 202.286 94.5624 202.349 94.6309C202.464 94.7562 202.638 94.9199 202.81 94.884C203.478 94.7454 204.143 94.8524 204.801 94.8338C205.621 94.8108 206.447 94.9287 207.267 94.8264C207.487 94.9111 207.705 94.8775 207.915 94.7513C208.065 94.6618 208.213 94.5684 208.36 94.4744C208.413 94.4597 208.466 94.4441 208.519 94.4273C208.626 94.3959 208.744 94.4162 208.84 94.3516C208.89 94.3273 208.947 94.3185 209.001 94.2945C209.164 94.3073 209.343 94.2764 209.403 94.1341C209.428 94.0764 209.457 94.0278 209.488 93.9858C209.555 93.975 209.622 93.9639 209.69 93.9532C209.741 93.9501 209.792 93.9461 209.844 93.9424C209.974 93.9853 210.105 94.0287 210.235 94.0719C210.285 94.0067 210.334 93.9406 210.384 93.8754C210.673 93.9295 210.887 93.7949 211.129 93.6846C211.147 93.6746 211.165 93.6654 211.183 93.6557C211.299 93.6444 211.415 93.6328 211.531 93.6215C211.7 93.5384 211.869 93.4561 212.039 93.3729C212.522 93.2958 212.969 93.153 213.349 92.8554C213.551 92.7888 213.744 92.7061 213.917 92.5854C214.025 92.6162 214.128 92.6923 214.224 92.7922C214.257 92.6129 214.29 92.4342 214.322 92.2546C214.715 92.4596 215.018 92.3077 215.288 92.0263C215.373 91.9852 215.457 91.9432 215.542 91.9021C215.642 91.7663 215.742 91.6296 215.842 91.4938C216.496 91.5988 216.948 91.2176 217.419 90.8831C217.419 90.8831 217.42 90.8826 217.42 90.883C217.512 90.7697 217.645 90.7538 217.78 90.7449C217.901 90.7661 217.998 90.7341 218.085 90.6829C218.181 90.6414 218.268 90.5799 218.347 90.5009C218.347 90.5009 218.347 90.5009 218.347 90.5004C218.408 90.4562 218.469 90.412 218.531 90.3676C219.106 90.3159 219.613 90.1115 220.043 89.7381C220.157 89.5904 220.322 89.5274 220.496 89.4755C220.592 89.4884 220.679 89.47 220.762 89.4387C220.841 89.415 220.916 89.3801 220.987 89.3331C221.028 89.3222 221.07 89.3114 221.111 89.301C221.415 89.3477 221.701 89.292 221.962 89.1378C222.428 88.864 222.891 88.5863 223.355 88.3101C223.512 88.2937 223.656 88.2425 223.789 88.1591C223.946 88.141 224.09 88.0898 224.222 88.0064C224.533 87.9906 224.78 87.853 224.985 87.6351C225.274 87.653 225.484 87.499 225.685 87.3279C225.96 87.2271 226.236 87.1258 226.511 87.0254C226.61 87.0599 226.752 87.1463 226.804 87.1021C227.401 86.5999 228.205 86.4959 228.852 86.0971C229.045 85.9935 229.238 85.8899 229.431 85.7863C230.397 85.3565 231.363 84.9276 232.33 84.4979C232.33 84.4979 232.33 84.4974 232.33 84.4977L232.33 84.4979L232.327 84.4978C233.025 84.163 233.774 83.9638 234.528 83.8018C235.134 83.6713 235.68 83.4438 236.181 83.1003C236.301 83.0802 236.441 83.0917 236.536 83.0349C236.974 82.777 237.462 82.7289 237.952 82.6799C238.214 82.5853 238.324 82.3636 238.445 82.1462C238.664 81.7501 238.965 81.4516 239.469 81.425C239.65 81.4152 239.866 81.3623 239.862 81.1858C239.854 80.7332 240.116 80.5358 240.505 80.3977C240.592 80.3672 240.655 80.2573 240.715 80.1753C241.299 79.3744 241.95 78.6241 242.583 77.8597C243.369 76.9126 244.273 76.0267 244.661 74.8242C244.687 74.7433 244.749 74.6797 244.79 74.6087ZM235.118 69.7042C234.807 69.2667 234.464 69.1021 233.96 69.178C233.754 69.2094 233.558 69.2624 233.37 69.1364C233.316 69.0972 233.256 69.085 233.189 69.1014C233.008 69.2089 232.827 69.2789 232.601 69.2684C231.982 69.2397 231.386 69.3787 230.779 69.4852C229.866 69.646 228.965 69.9277 228.015 69.8492C227.895 69.8376 227.685 69.8482 227.76 69.6838C227.876 69.4283 227.907 69.1522 228.019 68.8926C228.045 68.8565 228.07 68.8202 228.094 68.783C228.171 68.6668 228.242 68.5473 228.31 68.427C228.515 68.1438 228.726 67.8575 228.774 67.5265C228.982 67.1113 229.198 66.7008 229.487 66.3281C229.561 66.2331 229.613 66.1099 229.633 65.9928C229.717 65.5119 230.001 65.1325 230.292 64.7564C230.696 64.2343 231.072 63.6942 231.499 63.1862C232.069 62.5082 232.671 61.8431 233.041 61.0313C233.044 61.0256 233.047 61.0195 233.049 61.0135C233.412 60.5276 233.771 60.0387 234.121 59.5441C234.433 59.1045 234.767 58.6811 235.112 58.2653C235.647 57.6693 236.22 57.1012 236.699 56.4561C236.784 56.3416 236.908 56.2543 237.01 56.1509C237.727 55.4243 238.292 54.5862 238.89 53.7733C238.941 53.7049 238.983 53.6251 239.014 53.5425C239.168 53.3059 239.294 53.0569 239.329 52.7514C239.337 52.6805 239.351 52.6034 239.372 52.5258C239.705 51.9666 240.23 51.5346 240.708 51.0706C241.108 51.2464 241.229 50.8994 241.377 50.6995C241.844 50.0693 242.383 49.548 243.179 49.3171C243.506 49.2222 243.697 48.9698 243.835 48.6868C244.305 47.7208 244.96 46.8696 245.624 46.0239C245.853 45.7323 246.121 45.4603 246.261 45.1159C246.637 44.1908 247.286 43.4359 247.896 42.657C248.03 42.4922 248.166 42.3285 248.295 42.1596C248.932 41.437 249.302 40.5381 249.95 39.8283C250.55 39.1708 251.124 38.4974 251.661 37.792C252.098 37.2185 252.539 36.6505 253.06 36.1388C253.397 35.8079 253.72 35.4233 253.794 34.9503C253.899 34.2775 254.339 33.8234 254.787 33.3617C255.109 33.0304 255.487 32.9904 255.876 33.2209C256.306 33.4751 256.731 33.7388 257.154 34.0039C257.943 34.4987 258.689 35.0673 259.579 35.4011C259.974 35.6325 260.415 35.7748 260.825 35.9796C262.05 36.5928 263.15 37.4198 264.439 37.9247C264.596 38.006 264.733 38.1062 264.83 38.2521C264.909 38.3745 264.941 38.5102 264.954 38.65C264.968 38.7391 265.012 38.8115 265.078 38.8721C264.989 38.9478 264.911 39.0304 264.838 39.1181C264.477 39.2563 264.215 39.5126 263.99 39.8267C263.582 40.3965 263.123 40.9322 262.707 41.4973C262.278 42.0811 261.922 42.6937 261.591 43.3481C261.512 43.5035 261.429 43.6565 261.343 43.8078C260.735 44.6229 260.116 45.4301 259.453 46.2053C259.294 46.3912 259.15 46.5853 259.016 46.785C258.939 46.8642 258.861 46.9433 258.783 47.0213C258.517 47.2873 258.141 47.5135 258.008 47.8474C257.775 48.4307 257.264 48.9279 257.323 49.6095C257.055 49.9969 256.858 50.4452 256.545 50.8188C256.345 51.0577 256.208 51.3345 256.083 51.6152C255.778 52.4394 255.545 53.2965 254.906 53.9681L254.905 53.969C254.448 54.8599 254.195 55.85 253.488 56.6185C253.316 56.6485 253.239 56.7465 253.257 56.9138C253.237 56.9464 253.215 56.9784 253.192 57.0092C252.913 57.1686 252.588 57.2946 252.651 57.7C252.458 58.1301 252.25 58.5525 251.991 58.9478C251.839 59.1305 251.688 59.3135 251.536 59.4957C251.512 59.4818 251.487 59.4683 251.463 59.454C251.519 59.3381 251.661 59.2603 251.635 59.0818C251.448 59.24 251.325 59.4219 251.239 59.6215C251.199 59.6822 251.174 59.7534 251.162 59.8345C251.14 59.8679 251.117 59.9005 251.092 59.9324L251.092 59.932C251.091 59.9322 251.09 59.9326 251.09 59.9328C251.09 59.9326 251.091 59.9322 251.092 59.932C250.998 60.1206 250.904 60.3095 250.81 60.4981C250.848 60.4791 250.884 60.4603 250.922 60.4413C250.89 60.4703 250.857 60.4973 250.81 60.4981C250.179 61.2718 249.652 62.1148 249.077 62.9264C248.459 63.7993 247.896 64.7056 247.052 65.4101C246.932 65.51 246.793 65.6371 246.835 65.7985C246.822 65.7999 246.81 65.8021 246.797 65.8036C246.505 65.8958 246.357 66.0871 246.363 66.385C246.367 66.4292 246.376 66.4685 246.387 66.5053C246.04 66.6903 245.836 66.9986 245.684 67.3508C245.38 67.7428 245.109 68.1548 244.879 68.5907C244.372 69.5547 243.741 70.4482 243.08 71.3142C242.29 72.3505 241.559 73.4165 240.947 74.5562C240.499 75.3899 239.839 76.1032 239.438 76.964C239.342 77.0417 239.253 77.1602 239.264 77.282C239.228 77.3278 239.189 77.3727 239.157 77.4205C239.064 77.5589 238.948 77.6316 238.812 77.6493C238.811 77.6298 238.812 77.6097 238.813 77.5899C238.813 77.5318 238.819 77.4743 238.829 77.4175C238.436 76.6156 238.285 75.7407 238.006 74.9052C237.79 74.5338 237.679 74.1201 237.497 73.7338C237.288 73.2904 237.123 72.8153 237.246 72.3233C237.426 71.6077 237.155 71.1081 236.534 70.7427C235.986 70.4922 235.453 70.1733 235.118 69.7042ZM212.34 62.0393C212.471 61.8671 212.657 61.7322 212.816 61.5878C213.88 60.618 214.711 59.4414 215.805 58.5043C216.906 57.5605 217.469 56.2635 218.3 55.1432C219.143 54.0063 219.991 52.8728 221.042 51.8974C221.044 51.8949 221.046 51.8924 221.048 51.89C221.063 51.8983 221.076 51.9072 221.091 51.9154C221.169 51.8235 221.245 51.7312 221.322 51.6393C221.379 51.6123 221.427 51.5778 221.47 51.5384C221.694 51.3666 221.86 51.1414 222.028 50.9193C221.98 50.9477 221.935 50.9786 221.893 51.0114C221.933 50.9759 221.977 50.9447 222.028 50.9193C222.611 50.3415 223.148 49.7284 223.631 49.0706C223.764 48.8885 223.93 48.7353 224.127 48.6162C224.134 48.6719 224.022 48.7375 224.143 48.784C224.138 48.7281 224.133 48.6725 224.128 48.6165C224.251 48.5698 224.363 48.5041 224.381 48.3694C224.435 47.9669 224.698 47.6701 224.934 47.3613C225.222 46.9861 225.485 46.5976 225.729 46.1939C226.324 45.2111 227.035 44.3119 227.891 43.5216C228.004 43.3899 228.118 43.2586 228.232 43.1269C228.249 43.1153 228.265 43.1033 228.282 43.0912C228.399 43.0097 228.47 42.8981 228.531 42.7811C228.712 42.5715 228.893 42.3615 229.074 42.151C229.327 41.9751 229.484 41.7258 229.653 41.4748C229.671 41.4544 229.688 41.4345 229.705 41.4141C230.178 40.858 230.606 40.2744 230.844 39.5883C230.861 39.5679 230.878 39.5472 230.895 39.5276C230.897 39.5257 230.899 39.5232 230.9 39.5212C230.962 39.5345 231.019 39.5235 231.072 39.4857C231.284 39.0758 231.904 39.1775 232.089 38.735C232.428 38.3699 232.751 37.9289 233.291 37.8893C234.218 37.8215 234.641 37.243 234.997 36.5418C235.493 35.5656 236.132 34.6852 236.929 33.9096C237.182 33.6638 237.414 33.3892 237.581 33.0844C238.026 32.2722 238.633 31.5601 239.097 30.7585C239.915 29.3467 241.236 28.2979 242.149 26.9503C242.297 26.732 242.488 26.5345 242.663 26.3302C242.983 25.9569 243.377 25.8517 243.856 25.9937C244.204 26.0972 244.533 26.2362 244.802 26.4715C245.718 27.2734 246.888 27.6829 247.908 28.3231C248.367 28.5538 248.94 28.5477 249.319 28.9559C249.394 29.0373 249.545 29.0357 249.673 29.055C249.793 29.0736 249.914 29.0913 250.03 29.1157C250.274 29.2649 250.514 29.4214 250.755 29.5758C250.791 29.6433 250.822 29.7199 250.844 29.8086C250.907 30.0506 251.16 30.171 251.449 30.1345C251.507 30.1286 251.56 30.141 251.608 30.1697C251.597 30.1858 251.585 30.2019 251.574 30.2183C251.636 30.7102 251.457 31.1414 251.183 31.5389C250.671 32.2847 250.177 33.0453 249.618 33.7578C248.33 35.4015 247.106 37.083 246.104 38.9041C245.916 39.2464 245.609 39.5236 245.476 39.8961C245.447 39.9243 245.436 39.9609 245.442 40.0079C245.274 40.2408 245.077 40.4598 244.943 40.7096C244.371 41.7728 243.724 42.7851 242.917 43.7035C242.346 44.3537 241.955 45.1332 241.34 45.7545C241.21 45.8123 241.045 45.8443 241.111 46.0439C240.752 46.5175 240.428 47.0227 239.846 47.2873C239.776 47.4419 239.704 47.595 239.624 47.7439C239.562 47.7974 239.5 47.8506 239.436 47.9022C238.867 48.3608 238.352 48.848 237.871 49.3787C237.665 49.6053 237.448 49.8384 237.513 50.1853C237.516 50.207 237.518 50.2285 237.519 50.2502C237.395 50.3725 237.268 50.4918 237.137 50.6068C236.325 51.3224 235.605 52.119 234.843 52.8799C234.478 53.245 234.245 53.664 234.312 54.1927C234.313 54.2004 234.313 54.2082 234.314 54.2163C234.314 54.2194 234.313 54.2226 234.313 54.2256C234.303 54.4447 234.167 54.6507 234.02 54.8261C234.008 54.84 233.997 54.853 233.985 54.8669C233.975 54.8649 233.963 54.8654 233.949 54.8683C233.926 54.8734 233.92 54.8947 233.932 54.9296C233.677 55.2262 233.409 55.5118 233.177 55.8265C233.052 55.9624 232.927 56.098 232.805 56.2353C232.768 56.2524 232.731 56.2639 232.69 56.2674C232.353 56.2951 232.189 56.5414 231.972 56.7245C231.914 56.7721 231.858 56.8192 231.8 56.8677C231.665 57.1386 231.494 57.386 231.312 57.6262C230.924 57.9484 230.631 58.3378 230.439 58.7962C230.429 58.8115 230.419 58.8265 230.411 58.8422C230.282 59.0572 229.999 59.19 229.974 59.4099C229.888 60.1593 229.283 60.5224 228.799 60.9812C228.744 61.0245 228.689 61.0669 228.634 61.1099C228.3 61.3331 228.026 61.6151 227.835 61.9556C227.253 62.9937 226.365 63.7878 225.54 64.6339C225.49 64.6761 225.441 64.7177 225.39 64.7604C225.116 64.9866 224.852 65.2218 224.559 65.4243C224.508 65.4535 224.457 65.4814 224.407 65.5114C224.217 65.6137 224.133 65.7929 224.048 65.9702C224.02 66.0183 223.989 66.065 223.96 66.1129C223.799 66.3518 223.442 66.4663 223.394 66.7546C223.37 66.9007 223.324 67.0325 223.264 67.1542C223.165 67.2494 223.068 67.3489 222.978 67.4545C222.656 67.829 222.329 68.1993 222.004 68.5704C221.895 68.6945 221.783 68.8399 221.587 68.783C221.541 68.7692 221.505 68.7487 221.477 68.7232C221.458 68.6968 221.438 68.6705 221.417 68.6438C221.379 68.568 221.367 68.4755 221.352 68.3883C221.342 68.3287 221.346 68.2662 221.331 68.2078C221.134 67.4213 221.149 66.6042 220.971 65.8149C220.976 65.6703 220.981 65.5248 220.986 65.3802L220.986 65.3797C220.985 65.1605 220.969 64.9432 220.945 64.727C220.974 64.5714 221.012 64.4154 221.062 64.259C221.087 64.1803 221.095 64.0946 221.021 64.0344C220.935 63.9657 220.867 63.8933 220.81 63.8179C220.742 63.3967 220.676 62.9751 220.665 62.5464C220.656 62.229 220.563 61.9691 220.404 61.7862C220.201 61.4204 219.829 61.1678 219.416 61.1907C218.807 61.2237 218.197 61.2841 217.594 61.3387C216.504 61.4376 215.427 61.6839 214.328 61.7584C213.868 61.9007 213.39 61.9684 212.921 62.0765C212.73 62.1184 212.518 62.1689 212.34 62.0393ZM224.974 73.0634C225.012 73.0356 225.054 73.0129 225.101 72.9961C225.059 73.0205 225.016 73.0428 224.974 73.0634ZM250.65 64.7948C250.652 64.7797 250.655 64.7652 250.659 64.7512C250.655 64.7652 250.652 64.7797 250.65 64.7948ZM252.428 62.3294C252.508 62.1585 252.638 62.0139 252.764 61.8665C252.656 62.024 252.544 62.178 252.428 62.3294ZM272.694 23.3899C272.493 23.8295 272.463 24.2821 272.512 24.7493C272.572 25.3279 272.497 25.8948 272.045 26.3096C271.674 26.6497 271.526 27.1623 271.06 27.4135C270.907 27.496 270.909 27.688 270.954 27.7469C271.207 28.0858 270.941 28.3068 270.791 28.5572C270.794 29.0983 270.641 29.5888 270.282 30.018C269.99 30.3667 269.767 30.7512 269.584 31.1651C269.407 31.5646 269.229 31.9965 268.91 32.2951C268.337 32.8304 268.052 33.53 267.627 34.1475C267.57 34.1494 267.49 34.1357 267.574 34.2316C267.534 34.3033 267.507 34.3827 267.495 34.465C267.423 34.483 267.35 34.4942 267.273 34.4945C267.016 34.498 266.789 34.4261 266.574 34.3206C266.571 34.3179 266.568 34.3158 266.566 34.3135C266.584 34.2987 266.601 34.28 266.618 34.2548C266.646 34.1466 266.613 34.0481 266.569 33.9494C266.158 33.6192 265.666 33.4242 265.188 33.2089C265.178 33.2029 265.169 33.1969 265.16 33.1913C265.211 33.1568 265.261 33.1224 265.312 33.0879C265.35 32.6307 265.079 32.5744 264.701 32.6566L264.699 32.6568C264.363 32.3449 263.894 32.151 263.759 31.6597C263.741 31.5939 263.643 31.5484 263.583 31.4931C263.493 31.41 263.397 31.3306 263.302 31.2516C263.252 31.1295 263.208 31.0012 263.175 30.8634C263.103 30.5626 262.913 30.1845 262.509 30.0543C262.446 30.0273 262.383 30.0016 262.318 29.9774C262.057 29.8622 261.77 29.8212 261.5 29.7312C260.672 29.4557 259.921 28.9995 259.053 28.8193C258.523 28.7093 258.178 28.3464 257.922 27.9081C257.553 27.2758 256.897 27.0223 256.247 26.8191C255.778 26.6721 255.327 26.5475 254.959 26.2158C254.511 25.8122 253.997 25.493 253.447 25.2298C252.992 25.012 252.551 24.7825 252.226 24.3875C252.109 24.2458 251.929 24.1383 251.737 24.1223C250.287 24.0024 249.222 23.0518 247.964 22.5191C247.269 22.2252 247.196 21.6464 247.651 21.0702C247.856 20.8113 248.064 20.5526 248.308 20.3255C248.62 20.0349 248.796 19.659 248.959 19.2899C249.082 19.013 249.034 18.8565 248.827 18.8017C248.946 18.7307 249.032 18.6209 249.128 18.5101C250.191 17.277 251.033 15.9014 251.905 14.548C252.268 13.9858 252.937 13.8702 253.37 13.4333C253.594 13.2069 253.839 13.0452 254.217 13.1317C254.39 13.1714 254.591 13.125 254.667 12.9408C254.77 12.9841 254.883 12.979 255.004 12.933C255.059 12.9058 255.101 12.8651 255.145 12.8239C255.436 12.8385 255.724 12.8038 256.01 12.7189C256.294 12.6347 256.586 12.6147 256.877 12.6956C257.071 12.5225 257.294 12.4141 257.564 12.4645C258.399 12.6207 259.256 12.6568 260.093 12.8045C260.443 12.9416 260.778 13.1229 261.121 13.2812C261.745 13.4464 262.361 13.5497 262.951 13.9095C263.47 14.226 264.086 14.4491 264.513 14.8799C264.974 15.3463 265.718 15.586 265.818 16.3792C265.847 16.6078 266.1 16.8538 266.392 16.9878C266.887 17.2159 267.297 17.5562 267.696 17.9239C268.427 18.5977 269.224 19.1806 269.889 19.9488C270.485 20.637 271.278 21.2398 272.116 21.7256C272.305 21.8352 272.489 21.9418 272.692 21.9941C272.818 22.4592 272.907 22.925 272.694 23.3899ZM207.321 91.105C207.321 91.105 207.321 91.1055 207.321 91.105C207.321 91.1055 207.321 91.105 207.321 91.105C207.019 91.0994 206.748 91.228 206.461 91.2917C205.907 91.4149 205.838 91.36 205.865 90.7985C205.886 90.3345 205.99 89.8799 206.03 89.4157C206.133 88.231 206.121 87.0446 206.156 85.8596C206.301 85.5808 206.315 85.2779 206.334 84.9757C206.348 84.7341 206.34 84.4785 206.463 84.2661C206.857 83.5846 206.895 82.8475 206.886 82.0981C206.882 81.8566 206.889 81.6131 206.979 81.3825C207.067 81.1542 207.153 80.9194 207.454 80.8714C207.607 81.0792 207.84 81.1778 208.068 81.2841C208.675 81.5677 209.24 81.9208 209.816 82.2556C210.12 82.4323 210.298 82.7781 210.686 82.8353C211.966 83.7562 213.266 84.6519 214.48 85.6545C214.931 86.0276 215.429 86.3421 215.998 86.5105C216.581 86.6831 217.04 87.0371 217.525 87.3565C217.805 87.5403 217.795 87.6279 217.516 87.7904C217.353 87.8848 217.177 87.9576 217.042 88.0915L217.04 88.0897C216.433 88.1848 215.837 88.3002 215.267 88.5422C214.686 88.7884 214.084 88.9863 213.49 89.2051C213.37 89.2226 213.25 89.2407 213.129 89.2582C212.907 89.2633 212.699 89.314 212.521 89.4491C211.157 89.8558 209.797 90.2717 208.463 90.7682C208.094 90.9072 207.703 90.9944 207.321 91.105ZM230.516 82.8286C229.716 83.1465 228.913 83.4682 228.121 83.8081C227.429 84.1044 226.704 84.3368 226.001 84.6174C224.734 85.1224 223.462 85.6152 222.193 86.1132C222.104 86.1052 222.015 86.0968 221.927 86.088C221.875 86.1435 221.824 86.1985 221.772 86.2539C221.712 86.268 221.652 86.282 221.592 86.2961C221.33 86.0326 221.037 85.7902 220.811 85.501C220.024 84.4967 219.051 83.708 217.913 83.0973C217.455 83.0835 217.075 82.8617 216.682 82.6775C216.343 82.5183 216.005 82.3574 215.609 82.4018C215.609 82.4018 215.609 82.4018 215.609 82.4022C215.609 82.4022 215.609 82.4022 215.609 82.4018C215.552 82.4049 215.495 82.408 215.439 82.4114C215.181 82.1134 214.864 81.8832 214.514 81.6954C213.82 81.3216 213.121 80.9536 212.423 80.5833C212.083 80.3426 211.748 80.0937 211.4 79.8642C211.035 79.6233 210.59 79.4594 210.297 79.1569C209.695 78.5337 208.994 78.1481 208.125 78.0214C207.752 77.9668 207.641 77.7498 207.598 77.3882C207.453 76.1902 208.078 75.0988 208.082 73.9193C208.083 73.5035 208.225 73.083 208.135 72.6554C208.415 71.9146 208.702 71.1687 208.822 70.3912C208.915 69.7864 209.065 69.2055 209.248 68.6237C209.603 67.5015 210.095 66.4207 210.351 65.2693C210.398 65.0557 210.537 64.9116 210.71 64.7874C211.067 64.7309 211.424 64.6748 211.781 64.6183C212.804 64.2483 213.861 64.0412 214.952 64.0008C215.376 64.129 215.805 64.2438 216.222 64.3887C216.838 64.6014 217.248 64.9652 217.359 65.6409C217.478 66.3612 217.696 67.0653 217.61 67.8086C217.596 67.9271 217.616 68.055 217.648 68.1711C217.977 69.3343 217.977 70.5425 218.174 71.7236C218.773 72.0376 219.363 72.3621 219.771 72.9161C219.864 73.0428 220.008 73.1347 220.128 73.2427C220.432 73.2397 220.715 73.4479 221.031 73.3214C221.061 73.3131 221.09 73.3093 221.119 73.3072C221.09 73.3102 221.061 73.3145 221.031 73.3214C221.214 73.3815 221.401 73.4188 221.596 73.4042C221.873 73.5425 222.144 73.5308 222.41 73.3751C223.042 73.5888 223.633 73.9219 224.323 73.9642C224.55 73.8836 224.712 73.7482 224.807 73.5246C224.885 73.3405 225.003 73.1712 225.102 72.9954C226.094 72.9089 227.03 73.1751 227.967 73.4158C228.276 73.4954 228.579 73.54 228.901 73.5502C230.636 73.6055 232.358 73.7571 234.065 74.0799C234.558 74.1731 234.762 74.4233 234.893 74.8615C235.242 76.0257 235.64 77.1757 236.014 78.3332C236.151 78.7586 236.296 79.1836 236.401 79.6169C236.557 80.2594 236.427 80.5142 235.784 80.7394C233.997 81.3653 232.272 82.1318 230.516 82.8286Z" fill="currentColor"/>
    <path d="M220.88 90.3555C220.888 90.3718 220.896 90.3889 220.904 90.4052C220.922 90.3999 220.942 90.3945 220.96 90.3892C220.952 90.3729 220.947 90.3469 220.935 90.3418C220.921 90.3364 220.898 90.3502 220.88 90.3555Z" fill="currentColor"/>
    <path d="M239.811 47.2936C239.813 47.2904 239.814 47.2878 239.815 47.2852L239.811 47.2936Z" fill="currentColor"/>
    <path d="M281.777 21.3201C281.796 21.3182 281.82 21.323 281.832 21.3133C281.845 21.3032 281.856 21.2739 281.85 21.263C281.823 21.2196 281.788 21.2221 281.763 21.2695C281.757 21.2814 281.772 21.3033 281.777 21.3201Z" fill="currentColor"/>
    <path d="M243.276 78.8081C243.293 78.7619 243.28 78.7214 243.231 78.7106C243.183 78.7001 243.151 78.7315 243.149 78.7812C243.149 78.7996 243.157 78.825 243.171 78.8356C243.213 78.8653 243.25 78.8534 243.276 78.8081Z" fill="currentColor"/>
    <path d="M244.397 76.7065L244.432 76.6968L244.406 76.6729L244.397 76.7065Z" fill="currentColor"/>
    <path d="M253.635 0.974496L253.674 0.989077L253.668 0.9481L253.635 0.974496Z" fill="currentColor"/>
    <path d="M217.233 49.4357C217.245 49.4405 217.266 49.4247 217.282 49.4185C217.28 49.4021 217.285 49.3799 217.276 49.3707C217.266 49.3604 217.237 49.3528 217.226 49.3597C217.183 49.3866 217.185 49.4173 217.233 49.4357Z" fill="currentColor"/>
    <path d="M254.728 54.2131C254.736 54.2242 254.804 54.205 254.835 54.1853C254.885 54.153 254.927 54.1089 254.972 54.0703L254.973 54.0693C254.913 54.0785 254.85 54.0807 254.794 54.0999C254.745 54.1171 254.673 54.1416 254.728 54.2131Z" fill="currentColor"/>
    <path d="M234.478 66.7843C234.465 66.7941 234.442 66.8022 234.44 66.8135C234.43 66.8594 234.453 66.8778 234.496 66.8585C234.507 66.8534 234.515 66.8287 234.512 66.8147C234.51 66.8028 234.49 66.7943 234.478 66.7843Z" fill="currentColor"/>
    <path d="M248.411 63.8265C248.463 63.7652 248.515 63.7035 248.567 63.6422C248.307 63.5418 248.391 63.709 248.411 63.8265Z" fill="currentColor"/>
    <path d="M251.018 60.1011C251.072 60.0753 251.126 60.05 251.179 60.0238C251.125 60.0479 251.02 59.9753 251.018 60.1011Z" fill="currentColor"/>
    <path d="M221.14 65.2239C221.09 65.2525 221.04 65.2808 220.99 65.3095L220.989 65.3099C221.037 65.2777 221.141 65.3358 221.14 65.2239Z" fill="currentColor"/>
    <path d="M209.386 70.3467C209.418 70.342 209.449 70.3378 209.481 70.3327C209.449 70.3369 209.417 70.3416 209.386 70.3467Z" fill="currentColor"/>
    <path d="M264.751 9.65179L264.717 9.66489L264.746 9.68661L264.751 9.65179Z" fill="currentColor"/>
    <path d="M260.045 16.2714L260.071 16.2396L260.03 16.2343L260.045 16.2714Z" fill="currentColor"/>
</svg>