<svg width="164" height="164" viewBox="0 0 164 164" fill="none" xmlns="http://www.w3.org/2000/svg">
    <path d="M35.8 141.5L50.5 156.2C55.4 161.1 64.8 163.6 71.4 161.8L101 153.9L130.6 146C137.3 144.2 144.1 137.3 145.9 130.7L153.8 101.1L161.7 71.5C163.5 64.8 161 55.5 156.1 50.6L150.5 45H109V67.4H142.6V89.8H109V134.6H86.6V113.2C83.3 115.9 79.6 118.1 75.6 119.9C70.2 122.2 64.4 123.4 58.2 123.4H35.8V141.5ZM13.4 119L7.19998 112.8C2.29998 108 -0.200015 98.6 1.59998 91.9L9.49998 62.3L13.4 47.9V119ZM17.2 33.7L17.4 32.8C19.2 26.1 26.1 19.3 32.7 17.5L62.3 9.6L91.9 1.7C98.6 -0.100002 107.9 2.4 112.8 7.3L128.1 22.6H86.6V44C84.8 42.5 82.8 41.1 80.8 39.9C77.5 37.9 73.9 36.4 70.1 35.4C66.3 34.3 62.3 33.8 58.2 33.8H17.2V33.7ZM58.2 56.1H35.8V100.9H58.2C61.3 100.9 64.2 100.3 66.9 99.1C69.6 97.9 72 96.3 74 94.3C76 92.3 77.6 89.9 78.8 87.2C80 84.5 80.6 81.6 80.6 78.5C80.6 75.4 80 72.5 78.8 69.8C77.6 67.1 76 64.7 74 62.7C72 60.7 69.6 59.1 66.9 57.9C64.2 56.7 61.3 56.1 58.2 56.1Z" stroke="#21c0fb" stroke-width="3" stroke-miterlimit="3" stroke-linecap="square"/>
</svg>